<svg xmlns="http://www.w3.org/2000/svg" width="12.078" height="13.459" viewBox="0 0 12.078 13.459">
  <path id="facebook" d="M10.6,0a1.568,1.568,0,0,1,1.476,1.644v10.17A1.568,1.568,0,0,1,10.6,13.459H8.091V8.388H9.662l.3-2.172H8.091V4.806a1.035,1.035,0,0,1,1.1-1.173h.85V1.784A9.34,9.34,0,0,0,8.53,1.637c-1.54,0-2.547,1.04-2.547,2.923V6.216H4.272V8.388H5.984v5.071H1.476A1.568,1.568,0,0,1,0,11.814V1.644A1.568,1.568,0,0,1,1.476,0H10.6Z" transform="translate(0 0)" fill="#353263" fill-rule="evenodd"/>
</svg>
