<svg xmlns="http://www.w3.org/2000/svg" width="14.289" height="14.289" viewBox="0 0 14.289 14.289">
  <path id="instagram" d="M11.145,5.287c1.908,0,2.134.007,2.887.042a3.953,3.953,0,0,1,1.327.246,2.366,2.366,0,0,1,1.356,1.356,3.953,3.953,0,0,1,.246,1.327c.034.753.042.979.042,2.887s-.007,2.134-.042,2.887a3.953,3.953,0,0,1-.246,1.327,2.366,2.366,0,0,1-1.356,1.356,3.953,3.953,0,0,1-1.327.246c-.753.034-.979.042-2.887.042s-2.134-.007-2.887-.042a3.953,3.953,0,0,1-1.327-.246,2.366,2.366,0,0,1-1.356-1.356,3.953,3.953,0,0,1-.246-1.327c-.034-.753-.042-.979-.042-2.887s.007-2.134.042-2.887a3.953,3.953,0,0,1,.246-1.327A2.366,2.366,0,0,1,6.931,5.575a3.953,3.953,0,0,1,1.327-.246c.753-.034.979-.042,2.887-.042m0-1.287C9.2,4,8.961,4.008,8.2,4.043a5.244,5.244,0,0,0-1.734.332A3.653,3.653,0,0,0,4.375,6.465,5.244,5.244,0,0,0,4.043,8.2C4.008,8.961,4,9.2,4,11.145s.008,2.184.043,2.946a5.244,5.244,0,0,0,.332,1.734,3.653,3.653,0,0,0,2.089,2.089,5.244,5.244,0,0,0,1.734.332c.762.035,1.005.043,2.946.043s2.184-.008,2.946-.043a5.244,5.244,0,0,0,1.734-.332,3.653,3.653,0,0,0,2.089-2.089,5.244,5.244,0,0,0,.332-1.734c.035-.762.043-1.005.043-2.946s-.008-2.184-.043-2.946a5.244,5.244,0,0,0-.332-1.734,3.653,3.653,0,0,0-2.089-2.089,5.244,5.244,0,0,0-1.734-.332C13.328,4.008,13.085,4,11.145,4Zm0,3.476a3.669,3.669,0,1,0,3.669,3.669,3.669,3.669,0,0,0-3.669-3.669Zm0,6.05a2.382,2.382,0,1,1,2.382-2.382A2.382,2.382,0,0,1,11.145,13.526Zm3.814-7.053a.857.857,0,1,0,.857.857.857.857,0,0,0-.857-.857Z" transform="translate(-4 -4)" fill="#353263"/>
</svg>
