<svg xmlns="http://www.w3.org/2000/svg" width="17.775" height="13.372" viewBox="0 0 17.775 13.372">
  <g id="mail" transform="translate(-5 1279.619)">
    <path id="Path_2118" data-name="Path 2118" d="M6.27-1279.6a1.586,1.586,0,0,0-1.206,1.108l-.054.169L5-1273l0,5.328.05.207a1.546,1.546,0,0,0,1.3,1.192c.246.032,14.829.034,15.069,0a1.44,1.44,0,0,0,.911-.473,1.539,1.539,0,0,0,.419-.826c.028-.152.03-.68.026-5.453l-.006-5.284-.056-.169a1.622,1.622,0,0,0-1.023-1.084l-.16-.057-7.58,0C9.78-1279.621,6.324-1279.615,6.27-1279.6Zm14.636,1.129c-.022.021-.514.494-1.273,1.194s-2.43,2.224-3.675,3.376c-1.686,1.56-1.863,1.775-1.958,1.828a.906.906,0,0,1-.875,0c-.074-.061-6.3-6.214-6.3-6.229s2.955-.021,7.032-.021C21.145-1278.328,20.944-1278.516,20.906-1278.475Zm.622,8.338v1.967l-1.9-2.622c-1.206-1.547-2.211-2.834-2.231-2.862l-.038-.051,2.233-2.063,1.932-1.974v2.6C21.531-1273.787,21.531-1271.492,21.529-1270.138Zm-13.554-5.508c1.113,1.147,2.019,2.1,2.015,2.107s-3.707,5.185-3.719,5.187.078-2.061.078-4.648-.084-4.284-.078-4.282A23.155,23.155,0,0,1,7.974-1275.646Zm10.861,5.7,1.873,2.486h-6.76c-4.029,0-7.42-.1-7.468-.106a3.054,3.054,0,0,0,.2.61c0-.019,4.2-5.722,4.2-5.722s.189.23.655.71.895.913.957.964a1.576,1.576,0,0,0,1.951,0c.066-.053.591-.533,1.168-1.067a11.489,11.489,0,0,1,.863-.763C16.476-1272.832,17.6-1271.537,18.835-1269.95Z" transform="translate(0 0)" fill="#353263"/>
  </g>
</svg>
