<svg xmlns="http://www.w3.org/2000/svg" width="13.866" height="14.372" viewBox="0 0 13.866 14.372">
  <path id="quora" d="M12.295,15.259c-.5-.977-1.079-1.964-2.215-1.964a1.517,1.517,0,0,0-.633.127l-.386-.772a3.383,3.383,0,0,1,2.207-.723,3.216,3.216,0,0,1,2.919,1.666,7.814,7.814,0,0,0,.542-3.21c0-3.335-1.043-5.047-3.479-5.047-2.4,0-3.438,1.712-3.438,5.047,0,3.317,1.037,5.012,3.438,5.012a3.709,3.709,0,0,0,1.045-.135Zm.6,1.164a6.381,6.381,0,0,1-1.64.219,6.3,6.3,0,1,1,6.35-6.26,6.094,6.094,0,0,1-2.4,4.893c.459.687.931,1.144,1.588,1.144a1.039,1.039,0,0,0,1.055-.989h.934a2.761,2.761,0,0,1-2.846,2.985,3.365,3.365,0,0,1-3.045-1.992Z" transform="translate(-4.924 -4.045)" fill="#353263"/>
</svg>
