<svg xmlns="http://www.w3.org/2000/svg" width="15.443" height="10.879" viewBox="0 0 15.443 10.879">
  <path id="youtube" d="M18.345,8.7a1.94,1.94,0,0,0-1.365-1.374A45.853,45.853,0,0,0,10.946,7a45.853,45.853,0,0,0-6.033.325A1.94,1.94,0,0,0,3.548,8.7a20.354,20.354,0,0,0-.323,3.741,20.354,20.354,0,0,0,.323,3.741,1.94,1.94,0,0,0,1.365,1.374,45.852,45.852,0,0,0,6.033.325,45.851,45.851,0,0,0,6.033-.325,1.94,1.94,0,0,0,1.365-1.374,20.355,20.355,0,0,0,.323-3.741A20.354,20.354,0,0,0,18.345,8.7ZM9.367,14.736V10.144l4.036,2.3Z" transform="translate(-3.225 -7)" fill="#353263"/>
</svg>
