<svg id="about-warrenty" xmlns="http://www.w3.org/2000/svg" width="140.323" height="85.283" viewBox="0 0 140.323 85.283">
  <path id="Path_1778" data-name="Path 1778" d="M140.259,520.528H0v-.356H140.323Z" transform="translate(0 -435.246)" fill="#3f3d56"/>
  <path id="Path_1779" data-name="Path 1779" d="M822.156,353.34l-3.549,7.026-10.612,4.825c-1.133,1.915-4.735,2.062-5,.823-.294-1.39,4.373-3.626,4.373-3.626l8.876-6,.777-5.169Z" transform="translate(-699.682 -324.703)" fill="#a0616a"/>
  <path id="Path_1780" data-name="Path 1780" d="M729.468,464.215l.655,5.236-3.8.262-.393-5.5Z" transform="translate(-607.413 -388.424)" fill="#a0616a"/>
  <path id="Path_1781" data-name="Path 1781" d="M863.946,667.522a10.281,10.281,0,0,0,.937-1.146c.544-.753,1.027,3.109,1.027,3.109a7.006,7.006,0,0,1,.393,2.356c-.131.785-3.142.785-3.666.655a24.766,24.766,0,0,0-3.142,0h-3.927c-3.4-1.571,0-2.618,0-2.618,1.047-.131,4.582-3.4,4.582-3.4l.786-1.44c.524-.131,1.047,1.833,1.047,1.833Z" transform="translate(-742.414 -587.28)" fill="#2f2e41"/>
  <path id="Path_1782" data-name="Path 1782" d="M789.6,464.616l.655,5.236-3.8.262-.393-5.5Z" transform="translate(-657.731 -388.76)" fill="#a0616a"/>
  <path id="Path_1783" data-name="Path 1783" d="M924.082,667.923a10.282,10.282,0,0,0,.937-1.146c.544-.753,1.027,3.109,1.027,3.109a6.073,6.073,0,0,1,.393,2.225c-.131.786-3.142.785-3.666.655a21.3,21.3,0,0,0-3.142.131H915.7c-3.4-1.571,0-2.618,0-2.618,1.047-.131,4.582-3.4,4.582-3.4l.786-1.44c.524-.131,1.047,1.833,1.047,1.833Z" transform="translate(-792.733 -587.616)" fill="#2f2e41"/>
  <path id="Path_1784" data-name="Path 1784" d="M875.708,445.079c.524.655.262,2.88.262,2.88s.916,7.2.524,7.855.262,1.178.655,2.095a20.907,20.907,0,0,1,.785,3.142c2.225,1.833,2.095,10.211,2.095,10.211l.785,7.462c-.262.785-3.927.916-4.451.785s-2.095-11.913-2.095-11.913l-3.535-6.676s.262,17.8.262,18.589-3.535.393-4.32.393-.785-13.091-.785-13.091l-.786-3.4-4.189-15.578V446l.654-.916S875.184,444.425,875.708,445.079Z" transform="translate(-748.155 -402.998)" fill="#2f2e41"/>
  <circle id="Ellipse_449" data-name="Ellipse 449" cx="4.058" cy="4.058" r="4.058" transform="translate(117.735 4.248)" fill="#a0616a"/>
  <path id="Path_1785" data-name="Path 1785" d="M897.1,251.326c.823,1.832.336,4.39-1.309,7.2l6.677-3.142-1.047-.916.262-2.618Z" transform="translate(-777.339 -241.121)" fill="#a0616a"/>
  <path id="Path_1786" data-name="Path 1786" d="M868.254,271.618a4.189,4.189,0,0,0-1.7,2.447,23.183,23.183,0,0,0-1,5.539l-.317,5.629-3.927,14.924c3.4,2.88,5.367,2.225,9.949-.131s5.106.785,5.106.785.393-.131,0-.524,0,0,.393-.393,0,0-.131-.393,0-.131.131-.262-.524-1.309-.524-1.309l1.047-9.818,1.309-13.876c-1.571-1.964-6.022-3.665-6.022-3.665l-4.058,2.88c-1.309.524-.262-1.571-.262-1.571Z" transform="translate(-748.49 -257.224)" fill="#e6e6e6"/>
  <path id="Path_1787" data-name="Path 1787" d="M935.674,343.937l.524,7.855-6.677,9.556c0,2.225-1.178,2.749-1.178,2.749a17.3,17.3,0,0,1-1.178-2.225,2.541,2.541,0,0,1,.393-2.618l4.582-9.687-1.964-4.844Z" transform="translate(-803.408 -318.612)" fill="#a0616a"/>
  <path id="Path_1788" data-name="Path 1788" d="M942.24,292.038c2.225.785,2.618,9.295,2.618,9.295-2.618-1.44-5.76.916-5.76.916s-.655-2.225-1.44-5.105a5,5,0,0,1,1.047-4.713A3.565,3.565,0,0,1,942.24,292.038Z" transform="translate(-812.2 -274.961)" fill="#e6e6e6"/>
  <path id="Path_1789" data-name="Path 1789" d="M898.8,212.035c-.517-.413-1.221.338-1.221.338l-.413-3.72a14.746,14.746,0,0,1-4.236-.1c-1.653-.413-1.911,1.5-1.911,1.5a13.265,13.265,0,0,1-.052-2.325c.1-.93,1.447-1.86,3.823-2.48s3.616,2.067,3.616,2.067C900.054,208.136,899.312,212.448,898.8,212.035Z" transform="translate(-773.272 -202.485)" fill="#2f2e41"/>
  <path id="Path_1790" data-name="Path 1790" d="M210.665,470.043c.446,1.771,4.251,5.754,8.177,9.495-6.054-14.953-2.6-31.318-2.6-31.318-1.124,6.427,14.281,38.771,14.281,38.771l-3.509,2.069-1.185,1.668C213.942,485.27,210.665,470.043,210.665,470.043Z" transform="translate(-204.069 -405.869)" fill="#e6e6e6"/>
  <rect id="Rectangle_472" data-name="Rectangle 472" width="49.628" height="9.798" transform="translate(59.345 31.016)" fill="#e6e6e6"/>
  <rect id="Rectangle_473" data-name="Rectangle 473" width="49.628" height="9.798" transform="translate(59.345 15.533)" fill="#e6e6e6"/>
  <rect id="Rectangle_474" data-name="Rectangle 474" width="49.628" height="9.798" transform="translate(59.345)" fill="#e6e6e6"/>
  <path id="Path_1791" data-name="Path 1791" d="M540.23,202.986h47.512V195.3H540.23Z" transform="translate(-479.827 -194.246)" fill="#fff"/>
  <path id="Path_1792" data-name="Path 1792" d="M540.23,298.337h47.512v-7.682H540.23Z" transform="translate(-479.827 -274.029)" fill="#fff"/>
  <path id="Path_1793" data-name="Path 1793" d="M540.23,392.958h47.512v-7.682H540.23Z" transform="translate(-479.827 -353.202)" fill="#fff"/>
  <circle id="Ellipse_450" data-name="Ellipse 450" cx="2.927" cy="2.927" r="2.927" transform="translate(61.636 1.909)" fill="#eb2424"/>
  <rect id="Rectangle_475" data-name="Rectangle 475" width="28.886" height="0.636" transform="translate(71.561 3.69)" fill="#eb2424"/>
  <rect id="Rectangle_476" data-name="Rectangle 476" width="28.886" height="0.636" transform="translate(71.561 5.345)" fill="#eb2424"/>
  <circle id="Ellipse_451" data-name="Ellipse 451" cx="2.927" cy="2.927" r="2.927" transform="translate(61.636 17.569)" fill="#ccc"/>
  <rect id="Rectangle_477" data-name="Rectangle 477" width="28.886" height="0.636" transform="translate(71.561 19.351)" fill="#ccc"/>
  <rect id="Rectangle_478" data-name="Rectangle 478" width="28.886" height="0.636" transform="translate(71.561 21.005)" fill="#ccc"/>
  <circle id="Ellipse_452" data-name="Ellipse 452" cx="2.927" cy="2.927" r="2.927" transform="translate(61.636 33.052)" fill="#ccc"/>
  <rect id="Rectangle_479" data-name="Rectangle 479" width="28.886" height="0.636" transform="translate(71.561 34.834)" fill="#ccc"/>
  <rect id="Rectangle_480" data-name="Rectangle 480" width="28.886" height="0.636" transform="translate(71.561 36.488)" fill="#ccc"/>
  <path id="Path_1794" data-name="Path 1794" d="M309.269,355.83s-.684,4.3,2.151,3.91c0,0,11.242-2.542,11.828-1.955s4.233.786,4.043-1.687-3.847-1.051-3.847-1.051-5.67.782-6.843.2-4.5-.391-4.5-.391Z" transform="translate(-286.513 -327.566)" fill="#a0616a"/>
  <path id="Path_1795" data-name="Path 1795" d="M320.13,447.853l-1.559,14.79s-.489,5.865-1.955,7.136a5.526,5.526,0,0,1-.489,2.444l-.684,7.723a17.816,17.816,0,0,1,.88,3.324c-.1.489.391,2.053.293,2.248a37.568,37.568,0,0,1-4.692,0l.978-15.738,3.03-21.9Z" transform="translate(-288.796 -405.562)" fill="#2f2e41"/>
  <path id="Path_1796" data-name="Path 1796" d="M303.121,671.484s-2.05,5.17-.98,5.794,12.3.178,12.3.178,1.872-1.159-.267-1.961a7.343,7.343,0,0,1-2.941-.8,17.043,17.043,0,0,1-2.5-2.05s-.089-1.961-.8-1.515a1.832,1.832,0,0,0-.8,1.248Z" transform="translate(-280.351 -592.328)" fill="#2f2e41"/>
  <path id="Path_1797" data-name="Path 1797" d="M283.121,666.98s-2.248,5.67-1.075,6.354,13.49.2,13.49.2,2.053-1.271-.293-2.151a8.054,8.054,0,0,1-3.226-.88,18.694,18.694,0,0,1-2.737-2.248s-.1-2.151-.88-1.662a2.009,2.009,0,0,0-.88,1.369Z" transform="translate(-263.512 -588.526)" fill="#2f2e41"/>
  <path id="Path_1798" data-name="Path 1798" d="M291.455,433.6s-1.075,10.069-1.564,12.219a27.8,27.8,0,0,0-.587,4.3s-.1,3.128-.978,4.008a2.642,2.642,0,0,0-.782,1.955s-.88,9.873-.391,11.046,1.152,2.7.664,3.479-6.04.236-6.04-.351,0-1.075-.293-1.369,0-2.151,0-2.151-1.173-8.7-.1-11.242,1.564-9.482,1.564-9.482-.782-7.918-1.76-9.189.2-5.767.2-5.767Z" transform="translate(-262.754 -391.507)" fill="#2f2e41"/>
  <path id="Path_1799" data-name="Path 1799" d="M329.2,240.7a1.314,1.314,0,0,0,.633.539,18.938,18.938,0,0,1,3.82,3.07,4.485,4.485,0,0,1,.178-3.033,1.564,1.564,0,0,0,.226-1.021,1.271,1.271,0,0,0-.5-.593,15.377,15.377,0,0,0-1.512-1.031c-.366-.219-1.119-.8-1.539-.738a3.9,3.9,0,0,1-.282,1.605C330.165,239.624,329.238,240.8,329.2,240.7Z" transform="translate(-303.247 -229.877)" fill="#a0616a"/>
  <circle id="Ellipse_453" data-name="Ellipse 453" cx="4.008" cy="4.008" r="4.008" transform="translate(26.941 4.064)" fill="#a0616a"/>
  <path id="Path_1800" data-name="Path 1800" d="M287.944,259.76s.684-3.421-1.271-4.594-4.2-2.542-4.2-2.542-.684-.1-.978,1.369c0,0-5.572,1.075-6.159,6.354a68.91,68.91,0,0,0,.391,13,89.251,89.251,0,0,1-1.955,10.362s-.88.782,3.03-.391,10.753,3.324,10.753,3.324.684-.684.684-1.173,1.466-15.347,1.76-16.716S288.823,259.956,287.944,259.76Z" transform="translate(-256.799 -242.206)" fill="#e6e6e6"/>
  <path id="Path_1801" data-name="Path 1801" d="M331.732,206.513a1.671,1.671,0,0,1,.786-.209,1.5,1.5,0,0,0,.778-.232c.379-.291.406-.852.683-1.241a2.137,2.137,0,0,1,1.891-.6,2.1,2.1,0,0,0,1.233-.186,1.851,1.851,0,0,0,.654-1.092,1.481,1.481,0,0,0-.121-1.459c-.25-.253-.646-.3-.924-.526a40.732,40.732,0,0,0-4.01-1.039,3.906,3.906,0,0,0-4.556,2.473,12.1,12.1,0,0,0-.763,2.542c.183,1.153,1.2,2.069,1.272,3.234a1.985,1.985,0,0,1,1.212-1.441.379.379,0,0,1,.247-.03c.1.032.16.134.224.219.167.223.694.56.992.4C331.6,207.184,331.4,206.74,331.732,206.513Z" transform="translate(-301.728 -198.028)" fill="#3f3d56"/>
  <path id="Path_1802" data-name="Path 1802" d="M364.578,328.979a.446.446,0,0,0-.009.627l2.818,2.917a.445.445,0,0,0,.634.006l8.6-8.563a.445.445,0,0,0-.071-.688l-3.382-2.2a.442.442,0,0,0-.554.054Z" transform="translate(-332.741 -299.423)" fill="#3f3d56"/>
  <path id="Path_1803" data-name="Path 1803" d="M376.563,335.737a.451.451,0,0,1-.059.073l-8.58,8.724a.445.445,0,0,1-.634-.006l-2.879-3.038a.448.448,0,0,1-.053-.066.4.4,0,0,0,.093.511l2.818,2.917a.445.445,0,0,0,.634.006l8.6-8.563a.445.445,0,0,0,.059-.558Z" transform="translate(-332.624 -311.751)" fill="#eb2424"/>
  <path id="Path_1804" data-name="Path 1804" d="M378.177,325.781l-.35-.223a.333.333,0,0,1-.48.438l-2.265-1.557a.333.333,0,0,1,.088-.592l-.18-.115a.121.121,0,0,0-.151.017l-7.619,7.487a.121.121,0,0,0,0,.174l2.767,2.7a.121.121,0,0,0,.169,0l8.038-8.133a.121.121,0,0,0-.02-.188Z" transform="translate(-335.035 -301.689)" fill="#fff"/>
  <path id="Path_1805" data-name="Path 1805" d="M210.391,144.576l2.337,2.2,5.559-5.492-2.821-1.836Z" transform="translate(-176.041 -116.683)" fill="#e6e6e6"/>
  <path id="Path_1806" data-name="Path 1806" d="M427.572,344.628a.083.083,0,0,0,.114,0l.486-.486a.081.081,0,0,0,0-.114.083.083,0,0,0-.114,0l-.486.486A.081.081,0,0,0,427.572,344.628Z" transform="translate(-385.542 -318.669)" fill="#3f3d56"/>
  <path id="Path_1807" data-name="Path 1807" d="M422.556,349.64a.081.081,0,0,0,.114,0l.486-.486a.081.081,0,0,0-.114-.114l-.486.486A.081.081,0,0,0,422.556,349.64Z" transform="translate(-381.345 -322.862)" fill="#3f3d56"/>
  <circle id="Ellipse_454" data-name="Ellipse 454" cx="0.546" cy="0.546" r="0.546" transform="translate(33.858 29.238)" fill="#eb2424"/>
  <path id="Path_1808" data-name="Path 1808" d="M291.793,346.51s-.684,4.3,2.151,3.91c0,0,11.242-2.542,11.828-1.955s4.233.786,4.043-1.687-3.847-1.051-3.847-1.051-5.67.782-6.843.2-4.5-.391-4.5-.391Z" transform="translate(-271.891 -319.768)" fill="#a0616a"/>
  <path id="Path_1809" data-name="Path 1809" d="M294.17,269.4s-4.4.489-4.4,6.843v8.114l5.376-2.248s2.248-5.279,2.053-6.745S297.1,269.591,294.17,269.4Z" transform="translate(-270.259 -256.241)" fill="#e6e6e6"/>
</svg>
