<svg xmlns="http://www.w3.org/2000/svg" width="165.366" height="102.045" viewBox="0 0 165.366 102.045">
  <g id="about-mission" transform="translate(0 0.002)">
    <rect id="Rectangle_458" data-name="Rectangle 458" width="125.183" height="6.353" transform="translate(57.672 -0.002) rotate(30.649)" fill="#f2f2f2"/>
    <rect id="Rectangle_459" data-name="Rectangle 459" width="125.183" height="6.353" transform="translate(34.265 5.349) rotate(30.649)" fill="#f2f2f2"/>
    <rect id="Rectangle_460" data-name="Rectangle 460" width="125.183" height="6.353" transform="translate(13.533 11.2) rotate(30.649)" fill="#f2f2f2"/>
    <circle id="Ellipse_374" data-name="Ellipse 374" cx="33.718" cy="33.718" r="33.718" transform="translate(61.501 7.37)" fill="#f2f5f7"/>
    <path id="Path_1721" data-name="Path 1721" d="M645.037,367.536a6.011,6.011,0,1,1,6.011-6.011A6.011,6.011,0,0,1,645.037,367.536Zm0-11.728a5.717,5.717,0,1,0,5.717,5.717,5.718,5.718,0,0,0-5.717-5.717Z" transform="translate(-549.818 -320.291)" fill="#eb2424" opacity="0.3"/>
    <path id="Path_1722" data-name="Path 1722" d="M618.019,345.943a11.435,11.435,0,1,1,11.435-11.435A11.435,11.435,0,0,1,618.019,345.943Zm0-22.576a11.142,11.142,0,1,0,11.142,11.142A11.142,11.142,0,0,0,618.019,323.366Z" transform="translate(-522.799 -293.273)" fill="#eb2424" opacity="0.3"/>
    <path id="Path_1723" data-name="Path 1723" d="M594.652,327.267a16.126,16.126,0,1,1,16.126-16.126A16.126,16.126,0,0,1,594.652,327.267Zm0-31.959a15.833,15.833,0,1,0,15.833,15.833,15.833,15.833,0,0,0-15.833-15.833Z" transform="translate(-499.432 -269.906)" fill="#eb2424" opacity="0.3"/>
    <path id="Path_1724" data-name="Path 1724" d="M563.982,302.754a22.283,22.283,0,1,1,22.283-22.283A22.308,22.308,0,0,1,563.982,302.754Zm0-44.273a21.99,21.99,0,1,0,21.99,21.99,22.015,22.015,0,0,0-21.99-21.99Z" transform="translate(-468.763 -239.236)" fill="#eb2424" opacity="0.3"/>
    <path id="Path_1725" data-name="Path 1725" d="M538.425,282.328a27.414,27.414,0,1,1,27.414-27.414A27.445,27.445,0,0,1,538.425,282.328Zm0-54.535a27.121,27.121,0,1,0,27.121,27.121A27.152,27.152,0,0,0,538.425,227.793Z" transform="translate(-443.206 -213.68)" fill="#eb2424" opacity="0.3"/>
    <circle id="Ellipse_375" data-name="Ellipse 375" cx="2.785" cy="2.785" r="2.785" transform="translate(92.434 38.302)" fill="#eb2424" opacity="0.3"/>
    <circle id="Ellipse_376" data-name="Ellipse 376" cx="2.785" cy="2.785" r="2.785" transform="translate(99.617 46.365)" fill="#eb2424" opacity="0.3"/>
    <circle id="Ellipse_377" data-name="Ellipse 377" cx="2.785" cy="2.785" r="2.785" transform="translate(80.12 45.193)" fill="#eb2424" opacity="0.3"/>
    <circle id="Ellipse_378" data-name="Ellipse 378" cx="1.319" cy="1.319" r="1.319" transform="translate(93.9 39.768)" fill="#2f2e41"/>
    <circle id="Ellipse_379" data-name="Ellipse 379" cx="1.319" cy="1.319" r="1.319" transform="translate(81.586 46.659)" fill="#2f2e41"/>
    <circle id="Ellipse_380" data-name="Ellipse 380" cx="1.319" cy="1.319" r="1.319" transform="translate(101.083 47.978)" fill="#2f2e41"/>
    <circle id="Ellipse_381" data-name="Ellipse 381" cx="1.319" cy="1.319" r="1.319" transform="translate(155.472 24.962)" fill="#eb2424"/>
    <path id="Path_1726" data-name="Path 1726" d="M568.488,170.982h-.293v-15.1h58.2v.293H568.488Z" transform="translate(-473.196 -129.821)" fill="#2f2e41"/>
    <path id="Path_1727" data-name="Path 1727" d="M1024.254,286.856a3.812,3.812,0,1,1,3.812-3.812A3.812,3.812,0,0,1,1024.254,286.856Zm0-7.33a3.518,3.518,0,1,0,3.519,3.518A3.518,3.518,0,0,0,1024.254,279.526Z" transform="translate(-867.463 -256.763)" fill="#2f2e41"/>
    <circle id="Ellipse_382" data-name="Ellipse 382" cx="1.319" cy="1.319" r="1.319" transform="translate(146.676 62.931)" fill="#eb2424"/>
    <path id="Path_1728" data-name="Path 1728" d="M971.645,513.952a3.812,3.812,0,1,1,3.812-3.812A3.812,3.812,0,0,1,971.645,513.952Zm0-7.33a3.518,3.518,0,1,0,3.518,3.518A3.518,3.518,0,0,0,971.645,506.622Z" transform="translate(-823.65 -445.889)" fill="#2f2e41"/>
    <circle id="Ellipse_383" data-name="Ellipse 383" cx="1.319" cy="1.319" r="1.319" transform="translate(40.684 31.119)" fill="#eb2424"/>
    <path id="Path_1729" data-name="Path 1729" d="M337.7,323.682a3.812,3.812,0,1,1,3.812-3.812A3.812,3.812,0,0,1,337.7,323.682Zm0-7.33a3.518,3.518,0,1,0,3.518,3.518A3.518,3.518,0,0,0,337.7,316.352Z" transform="translate(-295.701 -287.431)" fill="#2f2e41"/>
    <path id="Path_1730" data-name="Path 1730" d="M310.517,208.833h-.293V194.024l-37.092-.584,0-.293,37.381.589Z" transform="translate(-227.466 -160.855)" fill="#2f2e41"/>
    <path id="Path_1731" data-name="Path 1731" d="M653.672,309.958H611.6v-15.1h.293v14.807h41.781Z" transform="translate(-509.342 -245.56)" fill="#2f2e41"/>
    <rect id="Rectangle_461" data-name="Rectangle 461" width="16.126" height="1.026" transform="translate(148.728 33.172)" fill="#2f2e41"/>
    <rect id="Rectangle_462" data-name="Rectangle 462" width="16.126" height="1.026" transform="translate(148.728 36.103)" fill="#2f2e41"/>
    <rect id="Rectangle_463" data-name="Rectangle 463" width="16.126" height="1.026" transform="translate(148.728 39.036)" fill="#2f2e41"/>
    <rect id="Rectangle_464" data-name="Rectangle 464" width="16.126" height="1.026" transform="translate(139.932 71.141)" fill="#2f2e41"/>
    <rect id="Rectangle_465" data-name="Rectangle 465" width="16.126" height="1.026" transform="translate(139.932 74.073)" fill="#2f2e41"/>
    <rect id="Rectangle_466" data-name="Rectangle 466" width="16.126" height="1.026" transform="translate(139.932 77.005)" fill="#2f2e41"/>
    <rect id="Rectangle_467" data-name="Rectangle 467" width="16.126" height="1.026" transform="translate(33.941 39.475)" fill="#2f2e41"/>
    <rect id="Rectangle_468" data-name="Rectangle 468" width="16.126" height="1.026" transform="translate(33.941 42.407)" fill="#2f2e41"/>
    <rect id="Rectangle_469" data-name="Rectangle 469" width="16.126" height="1.026" transform="translate(33.941 45.339)" fill="#2f2e41"/>
    <ellipse id="Ellipse_384" data-name="Ellipse 384" cx="32.105" cy="1.026" rx="32.105" ry="1.026" transform="translate(64.433 95.184)" fill="#f2f2f2"/>
    <rect id="Rectangle_470" data-name="Rectangle 470" width="43.342" height="0.334" transform="translate(0 101.709)" fill="#2f2e41"/>
    <path id="Path_1732" data-name="Path 1732" d="M179.456,322.531s1.535,4.368.59,5.04,3.187,6.16,3.187,6.16l4.958-1.344-2.715-4.592s-.354-4.592-.354-5.264S179.456,322.531,179.456,322.531Z" transform="translate(-167.085 -292.573)" fill="#ffb8b8"/>
    <path id="Path_1733" data-name="Path 1733" d="M179.456,322.531s1.535,4.368.59,5.04,3.187,6.16,3.187,6.16l4.958-1.344-2.715-4.592s-.354-4.592-.354-5.264S179.456,322.531,179.456,322.531Z" transform="translate(-167.085 -292.573)" opacity="0.1"/>
    <path id="Path_1734" data-name="Path 1734" d="M163.058,493.779a50.453,50.453,0,0,0,0,8.511c.448,2.912,1.12,10.975,1.12,10.975s0,15.231,2.464,15.455,4.256.448,4.48-.448-1.12-1.344-.448-1.792.9-2.016,0-3.808,0-19.935,0-19.935l4.256,11.423s.448,9.407.9,10.751-.448,3.808,1.12,4.032,3.36-1.12,4.256-1.568-1.344-.448-.9-.672,1.792-.9,1.344-1.12-.9-10.975-.9-10.975-1.232-22.959-2.8-23.855a1.923,1.923,0,0,0-2.576.647Z" transform="translate(-153.263 -432.687)" fill="#2f2e41"/>
    <path id="Path_1735" data-name="Path 1735" d="M183.7,713.865v1.792s-2.016,4.871,0,4.871,3.584.5,3.584-.167v-6.048Z" transform="translate(-169.874 -618.727)" fill="#2f2e41"/>
    <path id="Path_1736" data-name="Path 1736" d="M249.354,713.846v1.792s2.016,4.871,0,4.871-3.584.5-3.584-.167v-6.048Z" transform="translate(-222.312 -618.711)" fill="#2f2e41"/>
    <circle id="Ellipse_385" data-name="Ellipse 385" cx="4.032" cy="4.032" r="4.032" transform="translate(11.475 25.142)" fill="#ffb8b8"/>
    <path id="Path_1737" data-name="Path 1737" d="M188.612,364.209s1.12,3.36,2.912,2.688l1.792-.672,3.136,21.5s-2.464,3.584-6.048,1.344S188.612,364.209,188.612,364.209Z" transform="translate(-174.337 -327.532)" fill="#d0cde1"/>
    <path id="Path_1738" data-name="Path 1738" d="M209.6,349.591l1.008-2.128s5.936,2.8,6.832,3.7a3.5,3.5,0,0,1,.9,2.24l-1.568,5.6s.448,12.319.448,12.767,1.568,2.912.448,2.016-1.344-1.792-2.24-.448a16.432,16.432,0,0,1-2.912,2.912Z" transform="translate(-192.188 -313.585)" fill="#3f3d56"/>
    <path id="Path_1739" data-name="Path 1739" d="M236.874,456.647l-.672,6.272s-4.032,3.584-3.136,3.808a1.24,1.24,0,0,0,1.344-.672s1.568,1.568,2.464.672,3.136-9.407,3.136-9.407Z" transform="translate(-211.624 -404.514)" fill="#ffb8b8"/>
    <path id="Path_1740" data-name="Path 1740" d="M175.426,285.182a4.484,4.484,0,0,0-2.6.434,3.811,3.811,0,0,0-.9.881,4.007,4.007,0,0,0-1.1,3.246l.317-.124a2.074,2.074,0,0,1-.2.888c.045-.13.194.08.154.211l-.349,1.144a1.077,1.077,0,0,1,1.374.82c.04-1.329.178-2.853,1.256-3.632a4.344,4.344,0,0,1,1.894-.619,3.812,3.812,0,0,1,1.836.009,1.321,1.321,0,0,1,.951,1.4.625.625,0,0,1,.7.347,1.825,1.825,0,0,1,.144.835c.288.2.615-.2.732-.532a4.805,4.805,0,0,0,.371-2.422,1.847,1.847,0,0,0-1.637-1.593.574.574,0,0,0,.149-.4l-.681-.058a.753.753,0,0,0,.45-.237C178.019,286.083,175.869,285.2,175.426,285.182Z" transform="translate(-159.834 -261.706)" fill="#2f2e41"/>
    <path id="Path_1741" data-name="Path 1741" d="M151.765,347.792s-1.823-1.787-2.48-1.677-1.552,1.677-1.552,1.677-5.376,1.792-5.152,3.584,2.688,10.527,2.688,10.527,2.016,10.527.224,11.647,8.512,4.032,8.736,2.688.672-14.783,0-16.8S151.765,347.792,151.765,347.792Z" transform="translate(-136.37 -312.458)" fill="#3f3d56"/>
    <path id="Path_1742" data-name="Path 1742" d="M154.672,458.8l3.136,1.344s6.048.9,6.048-1.568-6.048-1.12-6.048-1.12l-2.016-.645Z" transform="translate(-146.445 -404.651)" fill="#ffb8b8"/>
    <path id="Path_1743" data-name="Path 1743" d="M244.43,377.606h2.77s1.934,8.511,2.158,9.407.672,5.152.448,5.152-4.7-.9-4.7-.224Z" transform="translate(-221.196 -338.689)" fill="#3f3d56"/>
    <path id="Path_1744" data-name="Path 1744" d="M134.266,369.568l-2.688.672-2.016,11.871s-.672,3.136.448,3.36a25.915,25.915,0,0,1,4.256,2.016s.448-3.36,1.344-3.36l-2.24-1.792,1.344-7.84Z" transform="translate(-125.367 -331.995)" fill="#3f3d56"/>
    <path id="Path_1745" data-name="Path 1745" d="M592.812,692.515h-4.347v-4.347h4.347Zm-4.013-.334h3.678V688.5H588.8Z" transform="translate(-507.71 -597.326)" fill="#3f3d56"/>
    <circle id="Ellipse_386" data-name="Ellipse 386" cx="1.672" cy="1.672" r="1.672" transform="translate(86.105 91.845)" fill="#eb2424"/>
  </g>
</svg>
