<svg xmlns="http://www.w3.org/2000/svg" xmlns:xlink="http://www.w3.org/1999/xlink" width="130.761" height="106.455" viewBox="0 0 130.761 106.455">
  <defs>
    <linearGradient id="linear-gradient" x1="0.5" y1="1" x2="0.5" gradientUnits="objectBoundingBox">
      <stop offset="0" stop-color="gray" stop-opacity="0.251"/>
      <stop offset="0.54" stop-color="gray" stop-opacity="0.122"/>
      <stop offset="1" stop-color="gray" stop-opacity="0.102"/>
    </linearGradient>
    <linearGradient id="linear-gradient-3" x1="0.5" y1="1" x2="0.5" y2="0" xlink:href="#linear-gradient"/>
    <linearGradient id="linear-gradient-4" x1="0.5" y1="1" x2="0.5" y2="0" xlink:href="#linear-gradient"/>
    <linearGradient id="linear-gradient-6" x1="0.5" y1="1" x2="0.5" y2="0" xlink:href="#linear-gradient"/>
    <linearGradient id="linear-gradient-7" x1="0.5" y1="1" x2="0.5" y2="0" xlink:href="#linear-gradient"/>
  </defs>
  <g id="about-end-note" transform="translate(-0.002 -0.002)">
    <ellipse id="Ellipse_455" data-name="Ellipse 455" cx="13.365" cy="2.24" rx="13.365" ry="2.24" transform="translate(65.738 101.977)" fill="#eb2424" opacity="0.1"/>
    <path id="Path_1810" data-name="Path 1810" d="M155.412,38.776c-5.472,4.642-12.57,4.342-18.784,1.927s-11.938-6.715-18-9.771a50.529,50.529,0,0,0-15.811-4.993c-7.722-1.071-16.349.234-21.73,7.737-5.993,8.356-5.532,23.427.95,31.1,3.3,3.9,7.614,5.817,11.379,8.864s7.249,8.1,6.929,13.985c-.3,5.444-3.749,9.623-7.319,12.248-2.761,2.025-6.16,4.237-6.5,8.432-.322,4.059,2.536,7.24,5.267,9.05a25.387,25.387,0,0,0,28.745-.149c3.166-2.138,6.074-4.982,9.393-6.649,8.714-4.374,18.317.029,27.543,1.64a45.858,45.858,0,0,0,23.427-2.066c4.569-1.635,9.156-4.134,12.367-8.791,2.315-3.358,3.757-7.609,5.11-11.806q2.167-6.714,4.164-13.521a39.953,39.953,0,0,0,1.792-8.416c.375-5.283-1.2-10.5-3.348-14.963C195.9,42.044,187.318,34.6,178.028,32.711s-19.133,1.8-26.342,9.882" transform="translate(-76.87 -25.61)" fill="#c2d1d9" opacity="0.1"/>
    <g id="Group_119" data-name="Group 119" transform="translate(42.166 24.671)" opacity="0.35">
      <path id="Path_1811" data-name="Path 1811" d="M434.689,223.831V223h-13.1c-.6,0-.235.836-.235.836H414.24v18.641h31.245V223.831Z" transform="translate(-414.24 -223)" fill="#eb2424" opacity="0.2"/>
    </g>
    <path id="Path_1812" data-name="Path 1812" d="M910.28,222.947s3.938-6.976,9.873-8.986a12.135,12.135,0,0,0,6.148-4.6,20.347,20.347,0,0,0,1.813-3.262" transform="translate(-806.12 -183.541)" fill="none" stroke="#535461" stroke-miterlimit="10" stroke-width="2"/>
    <path id="Path_1813" data-name="Path 1813" d="M1056.022,175.277c-.675.656-3.822,1.335-3.822,1.335s.771-3.124,1.447-3.782a1.7,1.7,0,0,1,2.375,2.447Z" transform="translate(-930.303 -154.007)" fill="#eb2424"/>
    <path id="Path_1814" data-name="Path 1814" d="M1040.994,217.354c-.924.184-3.934-.957-3.934-.957s2.347-2.2,3.271-2.387a1.7,1.7,0,0,1,.664,3.344Z" transform="translate(-917.055 -190.433)" fill="#eb2424"/>
    <path id="Path_1815" data-name="Path 1815" d="M996.282,266.9c-.89-.307-2.912-2.812-2.912-2.812s3.138-.719,4.028-.41a1.7,1.7,0,1,1-1.116,3.222Z" transform="translate(-878.825 -233.858)" fill="#eb2424"/>
    <path id="Path_1816" data-name="Path 1816" d="M945.656,294.59c-.928-.151-3.346-2.276-3.346-2.276s2.972-1.237,3.9-1.085a1.705,1.705,0,1,1-.556,3.364Z" transform="translate(-834.147 -258.019)" fill="#eb2424"/>
    <path id="Path_1817" data-name="Path 1817" d="M1016.056,201.572c0,.942,1.7,3.673,1.7,3.673s1.707-2.73,1.707-3.672a1.706,1.706,0,1,0-3.411,0Z" transform="translate(-898.675 -178.046)" fill="#eb2424"/>
    <path id="Path_1818" data-name="Path 1818" d="M960.13,231.5c.281.9,2.725,3,2.725,3s.811-3.116.53-4.014a1.7,1.7,0,1,0-3.25,1.019Z" transform="translate(-849.652 -203.762)" fill="#eb2424"/>
    <path id="Path_1819" data-name="Path 1819" d="M911.439,273.352c.125.934,2.18,3.413,2.18,3.413s1.326-2.933,1.2-3.867a1.706,1.706,0,1,0-3.375.454Z" transform="translate(-807.11 -240.601)" fill="#eb2424"/>
    <path id="Path_1820" data-name="Path 1820" d="M1056.022,175.277c-.675.656-3.822,1.335-3.822,1.335s.771-3.124,1.447-3.782a1.7,1.7,0,0,1,2.375,2.447Z" transform="translate(-930.303 -154.007)" opacity="0.25"/>
    <path id="Path_1821" data-name="Path 1821" d="M1040.994,217.354c-.924.184-3.934-.957-3.934-.957s2.347-2.2,3.271-2.387a1.7,1.7,0,0,1,.664,3.344Z" transform="translate(-917.055 -190.433)" opacity="0.25"/>
    <path id="Path_1822" data-name="Path 1822" d="M996.282,266.9c-.89-.307-2.912-2.812-2.912-2.812s3.138-.719,4.028-.41a1.7,1.7,0,1,1-1.116,3.222Z" transform="translate(-878.825 -233.858)" opacity="0.25"/>
    <path id="Path_1823" data-name="Path 1823" d="M945.656,294.59c-.928-.151-3.346-2.276-3.346-2.276s2.972-1.237,3.9-1.085a1.705,1.705,0,1,1-.556,3.364Z" transform="translate(-834.147 -258.019)" opacity="0.25"/>
    <path id="Path_1824" data-name="Path 1824" d="M1016.056,201.572c0,.942,1.7,3.673,1.7,3.673s1.707-2.73,1.707-3.672a1.706,1.706,0,1,0-3.411,0Z" transform="translate(-898.675 -178.046)" opacity="0.25"/>
    <path id="Path_1825" data-name="Path 1825" d="M960.13,231.5c.281.9,2.725,3,2.725,3s.811-3.116.53-4.014a1.7,1.7,0,1,0-3.25,1.019Z" transform="translate(-849.652 -203.762)" opacity="0.25"/>
    <path id="Path_1826" data-name="Path 1826" d="M911.439,273.352c.125.934,2.18,3.413,2.18,3.413s1.326-2.933,1.2-3.867a1.706,1.706,0,1,0-3.375.454Z" transform="translate(-807.11 -240.601)" opacity="0.25"/>
    <path id="Path_1827" data-name="Path 1827" d="M912.1,181.367s.772-7.974,5.374-12.214a12.124,12.124,0,0,0,3.756-6.7,20.34,20.34,0,0,0,.336-3.718" transform="translate(-807.712 -142.1)" fill="none" stroke="#535461" stroke-miterlimit="10" stroke-width="2"/>
    <path id="Path_1828" data-name="Path 1828" d="M988.039,120.8c-.352.875-2.954,2.77-2.954,2.77s-.561-3.172-.209-4.047a1.705,1.705,0,1,1,3.163,1.275Z" transform="translate(-871.291 -106.847)" fill="#eb2424"/>
    <path id="Path_1829" data-name="Path 1829" d="M988.414,162.663c-.77.542-3.984.719-3.984.719s1.25-2.966,2.022-3.507a1.7,1.7,0,0,1,1.962,2.788Z" transform="translate(-871.002 -142.82)" fill="#eb2424"/>
    <path id="Path_1830" data-name="Path 1830" d="M962.112,226.316c-.939.079-3.8-1.391-3.8-1.391s2.578-1.928,3.517-2.007a1.705,1.705,0,1,1,.285,3.4Z" transform="translate(-848.147 -198.251)" fill="#eb2424"/>
    <path id="Path_1831" data-name="Path 1831" d="M928.773,271.725c-.911.237-3.983-.729-3.983-.729s2.216-2.336,3.124-2.572a1.7,1.7,0,1,1,.856,3.3Z" transform="translate(-818.816 -238.028)" fill="#eb2424"/>
    <path id="Path_1832" data-name="Path 1832" d="M956.251,163.951c.381.861,3.046,2.667,3.046,2.667s.454-3.187.072-4.048a1.707,1.707,0,1,0-3.124,1.375Z" transform="translate(-846.213 -144.559)" fill="#eb2424"/>
    <path id="Path_1833" data-name="Path 1833" d="M917.5,214.18c.625.707,3.7,1.635,3.7,1.635s-.521-3.177-1.142-3.886a1.7,1.7,0,1,0-2.562,2.25Z" transform="translate(-812.069 -188.134)" fill="#eb2424"/>
    <path id="Path_1834" data-name="Path 1834" d="M889.972,272.367c.5.8,3.374,2.237,3.374,2.237s.031-3.219-.469-4.022a1.706,1.706,0,1,0-2.907,1.785Z" transform="translate(-788.127 -239.252)" fill="#eb2424"/>
    <path id="Path_1835" data-name="Path 1835" d="M168.724,443.273s-4.874-6.04-4.568-12.1a11.765,11.765,0,0,0-1.945-7.181,19.772,19.772,0,0,0-2.291-2.8" transform="translate(-149.539 -371.749)" fill="none" stroke="#535461" stroke-miterlimit="10" stroke-width="2"/>
    <path id="Path_1836" data-name="Path 1836" d="M139.047,383.484c.35.844-.161,3.922-.161,3.922s-2.54-1.812-2.89-2.656a1.652,1.652,0,1,1,3.053-1.265Z" transform="translate(-128.495 -337.864)" fill="#eb2424"/>
    <path id="Path_1837" data-name="Path 1837" d="M174.13,405.965c-.165.9-2.268,3.2-2.268,3.2s-1.151-2.9-.981-3.8a1.652,1.652,0,1,1,3.25.6Z" transform="translate(-159.114 -356.718)" fill="#eb2424"/>
    <path id="Path_1838" data-name="Path 1838" d="M197.506,465.088c-.6.692-3.576,1.618-3.576,1.618s.475-3.083,1.071-3.776a1.652,1.652,0,0,1,2.5,2.157Z" transform="translate(-179.299 -407.816)" fill="#eb2424"/>
    <path id="Path_1839" data-name="Path 1839" d="M208.176,519.272c-.47.782-3.249,2.2-3.249,2.2s-.054-3.124.417-3.9a1.652,1.652,0,1,1,2.832,1.7Z" transform="translate(-188.92 -455.382)" fill="#eb2424"/>
    <path id="Path_1840" data-name="Path 1840" d="M146.683,434.961c.849.336,3.918-.222,3.918-.222s-1.85-2.512-2.7-2.85a1.653,1.653,0,0,0-1.221,3.072Z" transform="translate(-137.08 -381.022)" fill="#eb2424"/>
    <path id="Path_1841" data-name="Path 1841" d="M153.589,495.892c.91.068,3.672-1.384,3.672-1.384s-2.517-1.845-3.427-1.912a1.653,1.653,0,0,0-.25,3.3Z" transform="translate(-142.658 -434.227)" fill="#eb2424"/>
    <path id="Path_1842" data-name="Path 1842" d="M174.1,554.858c.885.221,3.853-.75,3.853-.75s-2.17-2.236-3.055-2.453a1.652,1.652,0,1,0-.8,3.207Z" transform="translate(-160.853 -485.865)" fill="#eb2424"/>
    <path id="Path_1843" data-name="Path 1843" d="M1045.134,679s.954,1.25-.44,3.124-2.543,3.472-2.078,4.647c0,0,2.1-3.5,3.814-3.546S1047.017,681.1,1045.134,679Z" transform="translate(-921.824 -597.338)" fill="#eb2424"/>
    <path id="Path_1844" data-name="Path 1844" d="M1045.51,679a1.544,1.544,0,0,1,.2.391c1.67,1.962,2.56,3.793.955,3.839-1.5.042-3.289,2.716-3.719,3.392a1.48,1.48,0,0,0,.051.154s2.1-3.5,3.814-3.546S1047.393,681.1,1045.51,679Z" transform="translate(-922.2 -597.338)" opacity="0.1"/>
    <path id="Path_1845" data-name="Path 1845" d="M1076.15,689.745c0,.44-.05.795-.11.795s-.11-.355-.11-.795.061-.231.125-.231S1076.15,689.306,1076.15,689.745Z" transform="translate(-951.067 -606.494)" fill="#ffd037"/>
    <path id="Path_1846" data-name="Path 1846" d="M1077.286,693.8c-.385.21-.721.336-.75.284s.26-.267.645-.477.234-.058.262,0S1077.672,693.591,1077.286,693.8Z" transform="translate(-951.596 -610.026)" fill="#ffd037"/>
    <path id="Path_1847" data-name="Path 1847" d="M1008.217,679s-.954,1.25.44,3.124,2.543,3.472,2.078,4.647c0,0-2.1-3.5-3.814-3.546S1006.334,681.1,1008.217,679Z" transform="translate(-889.944 -597.338)" fill="#eb2424"/>
    <path id="Path_1848" data-name="Path 1848" d="M1008.217,679a1.5,1.5,0,0,0-.195.391c-1.671,1.962-2.56,3.793-.955,3.839,1.5.042,3.289,2.716,3.719,3.392-.015.051-.031.1-.051.154,0,0-2.1-3.5-3.814-3.546S1006.334,681.1,1008.217,679Z" transform="translate(-889.944 -597.338)" opacity="0.1"/>
    <path id="Path_1849" data-name="Path 1849" d="M1009,689.745c0,.44.05.795.11.795s.11-.355.11-.795-.061-.231-.125-.231S1009,689.306,1009,689.745Z" transform="translate(-892.502 -606.494)" fill="#ffd037"/>
    <path id="Path_1850" data-name="Path 1850" d="M1002.5,693.8c.386.21.722.336.75.284s-.26-.267-.645-.477-.234-.058-.262,0S1002.115,693.591,1002.5,693.8Z" transform="translate(-886.609 -610.026)" fill="#ffd037"/>
    <ellipse id="Ellipse_456" data-name="Ellipse 456" cx="9.971" cy="1.53" rx="9.971" ry="1.53" transform="translate(110.821 95.917)" fill="#eb2424" opacity="0.1"/>
    <path id="Path_1851" data-name="Path 1851" d="M1012.531,723.692l-.047.389-.068.55-.028.23-.066.55-.03.23-.066.55-.764,6.249c-.068.559-.98,1-2.081,1h-3.964c-1.1,0-2.012-.435-2.081-1l-.764-6.249-.067-.55-.027-.23-.068-.55-.029-.23-.066-.55-.049-.389c-.037-.316.456-.582,1.079-.582h8.109C1012.076,723.11,1012.569,723.376,1012.531,723.692Z" transform="translate(-886.607 -635.935)" fill="#65617d"/>
    <path id="Path_1852" data-name="Path 1852" d="M935.968,705.27l-.068.55H925.866l-.066-.55Z" transform="translate(-810.093 -617.124)" fill="#9d9cb5"/>
    <path id="Path_1853" data-name="Path 1853" d="M936.53,711.51l-.068.55h-9.843l-.069-.55Z" transform="translate(-810.749 -622.584)" fill="#9d9cb5"/>
    <path id="Path_1854" data-name="Path 1854" d="M937.107,717.75l-.066.549h-9.653l-.068-.549Z" transform="translate(-811.423 -628.044)" fill="#9d9cb5"/>
    <path id="Path_1855" data-name="Path 1855" d="M773.176,191.007h-.1a.768.768,0,0,0,.236-.541l-.95-.95.362-.812H771.5l.226-.634H771L763,190.737a2.245,2.245,0,0,0,0,.27H757.84v23.227h22.391V191.007Z" transform="translate(-672.732 -167.764)" fill="url(#linear-gradient)"/>
    <rect id="Rectangle_481" data-name="Rectangle 481" width="22.054" height="22.901" transform="translate(85.275 23.324)" fill="#f6f7f9"/>
    <path id="Path_1856" data-name="Path 1856" d="M809.8,212.22c-1.045,1.538-8.024,3.564-8.024,3.564l.044-1.6h-1.291a.731.731,0,0,0-.357-.8c-.375-.206-.411-.875-.406-1.159Z" transform="translate(-709.418 -188.896)" opacity="0.1"/>
    <path id="Path_1857" data-name="Path 1857" d="M807.659,189.006l-7.885,2.625s-.09,1.025.4,1.291a.734.734,0,0,1,.357.8h1.291l-.044,1.6s8.286-2.406,8.152-3.964l-.935-.936.356-.8h-1.2l.224-.625Z" transform="translate(-709.419 -168.578)" fill="#9d9cb5"/>
    <g id="Group_120" data-name="Group 120" transform="translate(89.352 30.748)" opacity="0.35">
      <rect id="Rectangle_482" data-name="Rectangle 482" width="13.9" height="0.39" fill="#eb2424" opacity="0.2"/>
    </g>
    <g id="Group_121" data-name="Group 121" transform="translate(89.352 32.804)" opacity="0.35">
      <rect id="Rectangle_483" data-name="Rectangle 483" width="13.9" height="0.39" fill="#eb2424" opacity="0.2"/>
    </g>
    <g id="Group_122" data-name="Group 122" transform="translate(89.352 34.858)" opacity="0.35">
      <rect id="Rectangle_484" data-name="Rectangle 484" width="13.9" height="0.39" fill="#eb2424" opacity="0.2"/>
    </g>
    <g id="Group_123" data-name="Group 123" transform="translate(89.352 36.913)" opacity="0.35">
      <rect id="Rectangle_485" data-name="Rectangle 485" width="13.9" height="0.39" fill="#eb2424" opacity="0.2"/>
    </g>
    <g id="Group_124" data-name="Group 124" transform="translate(89.352 38.968)" opacity="0.35">
      <rect id="Rectangle_486" data-name="Rectangle 486" width="13.9" height="0.39" fill="#eb2424" opacity="0.2"/>
    </g>
    <g id="Group_125" data-name="Group 125" transform="translate(89.352 41.024)" opacity="0.35">
      <rect id="Rectangle_487" data-name="Rectangle 487" width="13.9" height="0.39" fill="#eb2424" opacity="0.2"/>
    </g>
    <path id="Path_1858" data-name="Path 1858" d="M204.294,176.008h-.052a13.1,13.1,0,0,0,.744-2.188c-.035-.375-.786.44-.821.236s0-.976-.341-.976-.547.4-.75.4-1.026-.135-1.026-.135L201,176.008h-7.9v24.807h19.6V176.008Z" transform="translate(-178.572 -154.648)" fill="url(#linear-gradient)"/>
    <rect id="Rectangle_488" data-name="Rectangle 488" width="19.158" height="24.503" transform="translate(14.748 21.498)" fill="#f6f7f9"/>
    <path id="Path_1859" data-name="Path 1859" d="M254.157,197.61c-.4,1.049-.859,2.153-.962,2.417-.2.5-.334.234-.569.167s-.534.066-.667,0a4.208,4.208,0,0,0-.919,0,2.59,2.59,0,0,0,0-.369c-.018-.132-.92,0-.92,0l.86-2.216Z" transform="translate(-228.466 -176.112)" opacity="0.1"/>
    <path id="Path_1860" data-name="Path 1860" d="M251.958,174.742l-1.838,4.712s.9-.134.919,0a2.389,2.389,0,0,1,0,.367,4.143,4.143,0,0,1,.92,0c.134.068.434-.067.667,0s.367.334.569-.167a42.885,42.885,0,0,0,1.637-4.444c-.034-.367-.769.435-.8.234s0-.964-.334-.964-.535.4-.735.4S251.958,174.742,251.958,174.742Z" transform="translate(-228.466 -155.873)" fill="#9d9cb5"/>
    <g id="Group_126" data-name="Group 126" transform="translate(17.377 28.002)" opacity="0.35">
      <rect id="Rectangle_489" data-name="Rectangle 489" width="13.9" height="0.39" fill="#eb2424" opacity="0.2"/>
    </g>
    <g id="Group_127" data-name="Group 127" transform="translate(17.377 29.473)" opacity="0.35">
      <rect id="Rectangle_490" data-name="Rectangle 490" width="13.9" height="0.39" fill="#eb2424" opacity="0.2"/>
    </g>
    <g id="Group_128" data-name="Group 128" transform="translate(17.377 30.943)" opacity="0.35">
      <rect id="Rectangle_491" data-name="Rectangle 491" width="13.9" height="0.39" fill="#eb2424" opacity="0.2"/>
    </g>
    <g id="Group_129" data-name="Group 129" transform="translate(17.377 32.414)" opacity="0.35">
      <rect id="Rectangle_492" data-name="Rectangle 492" width="13.9" height="0.39" fill="#eb2424" opacity="0.2"/>
    </g>
    <g id="Group_130" data-name="Group 130" transform="translate(17.377 33.884)" opacity="0.35">
      <rect id="Rectangle_493" data-name="Rectangle 493" width="13.9" height="0.39" fill="#eb2424" opacity="0.2"/>
    </g>
    <g id="Group_131" data-name="Group 131" transform="translate(17.377 35.353)" opacity="0.35">
      <rect id="Rectangle_494" data-name="Rectangle 494" width="13.9" height="0.39" fill="#eb2424" opacity="0.2"/>
    </g>
    <path id="Path_1861" data-name="Path 1861" d="M765.13,464.712h-.052a16.167,16.167,0,0,0,.911-2.7c-.041-.459-.964.542-1,.292s0-1.2-.419-1.2-.67.5-.921.5-1.257-.167-1.257-.167l-1.292,3.279h-9.68v30.606h24.025V464.712Z" transform="translate(-667.114 -406.671)" fill="url(#linear-gradient-3)"/>
    <rect id="Rectangle_495" data-name="Rectangle 495" width="23.606" height="30.195" transform="translate(84.499 58.253)" fill="#f6f7f9"/>
    <path id="Path_1862" data-name="Path 1862" d="M826.012,491.7c-.492,1.282-1.045,2.625-1.174,2.947-.25.617-.411.287-.7.206s-.659.081-.824,0a5.209,5.209,0,0,0-1.132,0,3.18,3.18,0,0,0,0-.454c-.021-.164-1.132,0-1.132,0l1.053-2.7Z" transform="translate(-728.042 -433.447)" opacity="0.1"/>
    <path id="Path_1863" data-name="Path 1863" d="M823.315,463.514l-2.265,5.805s1.111-.165,1.132,0a3.162,3.162,0,0,1,0,.452,5.213,5.213,0,0,1,1.132,0c.165.081.535-.081.824,0s.453.412.7-.205a53.111,53.111,0,0,0,2.017-5.477c-.041-.452-.947.535-.989.289s0-1.189-.411-1.189-.659.489-.906.489S823.315,463.514,823.315,463.514Z" transform="translate(-728.042 -408.5)" fill="#9d9cb5"/>
    <g id="Group_132" data-name="Group 132" transform="translate(89.352 66.691)" opacity="0.35">
      <rect id="Rectangle_496" data-name="Rectangle 496" width="13.9" height="0.991" fill="#eb2424" opacity="0.2"/>
    </g>
    <g id="Group_133" data-name="Group 133" transform="translate(89.352 73.128)" opacity="0.35">
      <rect id="Rectangle_497" data-name="Rectangle 497" width="13.9" height="0.991" fill="#eb2424" opacity="0.2"/>
    </g>
    <g id="Group_134" data-name="Group 134" transform="translate(89.352 79.567)" opacity="0.35">
      <rect id="Rectangle_498" data-name="Rectangle 498" width="13.9" height="0.991" fill="#eb2424" opacity="0.2"/>
    </g>
    <path id="Path_1864" data-name="Path 1864" d="M125.81,446.886v-3.7h-5.188v3.7H109.79V476h25.442V446.886Z" transform="translate(-96.067 -387.799)" fill="url(#linear-gradient-4)"/>
    <rect id="Rectangle_499" data-name="Rectangle 499" width="24.905" height="28.78" transform="translate(13.992 59.234)" fill="#f6f7f9"/>
    <rect id="Rectangle_500" data-name="Rectangle 500" width="5.079" height="3.921" transform="translate(24.595 59.234)" opacity="0.1"/>
    <rect id="Rectangle_501" data-name="Rectangle 501" width="5.079" height="7.44" transform="translate(24.595 55.581)" fill="#9d9cb5"/>
    <g id="Group_135" data-name="Group 135" transform="translate(19.493 66.196)" opacity="0.35">
      <rect id="Rectangle_502" data-name="Rectangle 502" width="13.9" height="0.991" fill="#eb2424" opacity="0.2"/>
    </g>
    <g id="Group_136" data-name="Group 136" transform="translate(19.493 68.167)" opacity="0.35">
      <rect id="Rectangle_503" data-name="Rectangle 503" width="13.9" height="0.991" fill="#eb2424" opacity="0.2"/>
    </g>
    <g id="Group_137" data-name="Group 137" transform="translate(19.493 70.139)" opacity="0.35">
      <rect id="Rectangle_504" data-name="Rectangle 504" width="13.9" height="0.991" fill="#eb2424" opacity="0.2"/>
    </g>
    <g id="Group_138" data-name="Group 138" transform="translate(19.493 72.11)" opacity="0.35">
      <rect id="Rectangle_505" data-name="Rectangle 505" width="13.9" height="0.991" fill="#eb2424" opacity="0.2"/>
    </g>
    <g id="Group_139" data-name="Group 139" transform="translate(29.674 74.304)" opacity="0.35">
      <rect id="Rectangle_506" data-name="Rectangle 506" width="3.721" height="3.007" fill="#eb2424" opacity="0.2"/>
    </g>
    <g id="Group_140" data-name="Group 140" transform="translate(19.493 78.024)" opacity="0.35">
      <rect id="Rectangle_507" data-name="Rectangle 507" width="3.721" height="3.007" fill="#eb2424" opacity="0.2"/>
    </g>
    <path id="Path_1865" data-name="Path 1865" d="M485.542,474.082h-.035c.4-1.584.71-2.845.71-2.845l-1.727.812s-1.226-1.625-1.68-1.354-1.45.947-1.45.947l-1.322-.677-.506,3.116H469.09v22.483l.671.4c.554-.2,1.465-.536,1.465-.536l-.419,1.162.282.167.476-.431.176.824.566.339.894-.569-.25.957.839.5,2.438-.916-.735,1.935.484.29,1.1-.194s-.05.386-.081.8l1.107.662c.454-.176.881-.35.881-.35s-.044.422-.064.837l.742.445c.586-.342,1.332-.809,1.332-.809l-.625,1.162h14.11V474.082Z" transform="translate(-420.069 -415.041)" fill="url(#linear-gradient-4)"/>
    <path id="Path_1866" data-name="Path 1866" d="M495.7,499.55v28.78H481.864l.617-1.146s-.731.459-1.306.8l-.727-.44c.02-.409.064-.826.064-.826s-.42.171-.865.345l-1.086-.654c.031-.412.079-.794.079-.794l-1.081.191-.474-.286.72-1.91-2.391.9-.824-.5.24-.945-.875.561-.555-.334-.172-.812-.467.427-.277-.166.411-1.146s-.894.332-1.437.529l-.657-.395V499.55Z" transform="translate(-421.566 -440.316)" fill="#f6f7f9"/>
    <g id="Group_141" data-name="Group 141" transform="translate(54.735 68.167)" opacity="0.35">
      <rect id="Rectangle_508" data-name="Rectangle 508" width="13.9" height="0.991" fill="#eb2424" opacity="0.2"/>
    </g>
    <g id="Group_142" data-name="Group 142" transform="translate(54.735 71.13)" opacity="0.35">
      <rect id="Rectangle_509" data-name="Rectangle 509" width="13.9" height="0.991" fill="#eb2424" opacity="0.2"/>
    </g>
    <g id="Group_143" data-name="Group 143" transform="translate(54.735 74.092)" opacity="0.35">
      <rect id="Rectangle_510" data-name="Rectangle 510" width="13.9" height="0.991" fill="#eb2424" opacity="0.2"/>
    </g>
    <g id="Group_144" data-name="Group 144" transform="translate(54.735 77.055)" opacity="0.35">
      <rect id="Rectangle_511" data-name="Rectangle 511" width="2.785" height="0.991" fill="#eb2424" opacity="0.2"/>
    </g>
    <path id="Path_1867" data-name="Path 1867" d="M552.113,499.541c-.677,2.672-1.665,6.374-1.922,6.309-.4-.109-1.025-.875-1.025-.875s-1.47,1.381-2.182.669a1.536,1.536,0,0,0-1.693-.224l.95-5.88Z" transform="translate(-486.746 -440.307)" opacity="0.1"/>
    <path id="Path_1868" data-name="Path 1868" d="M546.716,472.917l-1.426,8.821a1.531,1.531,0,0,1,1.692.224c.712.714,2.183-.671,2.183-.671s.625.765,1.025.875,2.585-8.981,2.585-8.981l-1.693.8s-1.2-1.6-1.648-1.337-1.421.936-1.421.936Z" transform="translate(-486.746 -416.751)" fill="#9d9cb5"/>
    <path id="Path_1869" data-name="Path 1869" d="M504.935,161.136v-.846H491.672c-.609,0-.236.846-.236.846H484.23V180h31.632V161.129Z" transform="translate(-433.317 -143.456)" fill="url(#linear-gradient-6)"/>
    <rect id="Rectangle_512" data-name="Rectangle 512" width="31.242" height="18.646" transform="translate(51.113 17.77)" fill="#f6f7f9"/>
    <path id="Path_1870" data-name="Path 1870" d="M555.771,170.821h-12.4s-.134-1.437.3-1.7-1.237-1.2-1.237-1.2a1.406,1.406,0,0,1-.049-.134h13.382v.435S557.476,169.718,555.771,170.821Z" transform="translate(-484.208 -150.01)" opacity="0.1"/>
    <path id="Path_1871" data-name="Path 1871" d="M542.235,161.1h13.1v1.136s1.7,1.5,0,2.606h-12.4s-.134-1.437.3-1.7-1.237-1.2-1.237-1.2S541.634,161.1,542.235,161.1Z" transform="translate(-483.771 -144.165)" fill="#9d9cb5"/>
    <g id="Group_145" data-name="Group 145" transform="translate(54.951 23.618)" opacity="0.35">
      <rect id="Rectangle_513" data-name="Rectangle 513" width="23.569" height="0.39" fill="#eb2424" opacity="0.2"/>
    </g>
    <g id="Group_146" data-name="Group 146" transform="translate(54.951 25.088)" opacity="0.35">
      <rect id="Rectangle_514" data-name="Rectangle 514" width="14.079" height="0.39" fill="#eb2424" opacity="0.2"/>
    </g>
    <g id="Group_147" data-name="Group 147" transform="translate(54.951 26.559)" opacity="0.35">
      <rect id="Rectangle_515" data-name="Rectangle 515" width="23.569" height="0.39" fill="#eb2424" opacity="0.2"/>
    </g>
    <g id="Group_148" data-name="Group 148" transform="translate(54.951 28.028)" opacity="0.35">
      <rect id="Rectangle_516" data-name="Rectangle 516" width="23.569" height="0.39" fill="#eb2424" opacity="0.2"/>
    </g>
    <g id="Group_149" data-name="Group 149" transform="translate(54.951 29.498)" opacity="0.35">
      <rect id="Rectangle_517" data-name="Rectangle 517" width="23.569" height="0.39" fill="#eb2424" opacity="0.2"/>
    </g>
    <path id="Path_1872" data-name="Path 1872" d="M507.6,283.958c-.224-.952-.361-1.787-.361-1.787a3.684,3.684,0,0,0-.414-1.813V280.1h0v-1.913a6.454,6.454,0,0,1,.482-1c.345-.6,0-2.807,0-2.807s-1.277-3.108-.966-5.079-2.625-8.755-2.625-8.755a8.608,8.608,0,0,1,.276-1.938,1.535,1.535,0,0,0,.037-.406v-.034a15.058,15.058,0,0,0-1.071-3.737l.138-4.645a13.652,13.652,0,0,0-.414-6.415c-.375-1.284-.614-2.31-.765-3.1q-.026-.135-.049-.259c2.2-.336,3.886-.616,3.886-.616s-1.279-5.349-2.141-6.284-1.553-3.874-1.553-3.874-.45-3.776.276-4.874a7.31,7.31,0,0,0,.827-3.008s1.657-1.2,1.865-1.737a8.836,8.836,0,0,0,.552-2.375c0-.637-.207-1.2-.137-1.537s-.484-1.6-.207-2.206a1.624,1.624,0,0,0,.11-.58.073.073,0,0,0,0-.018v-.006a8.175,8.175,0,0,0-.146-1.568,4.417,4.417,0,0,0-1.638-.875l-.036-.144-.094-.375a1.743,1.743,0,0,0-.164-.1V209.7l-.015-.542.26-1.221c.509-2.125-2.322-2.438-2.322-2.438a1.481,1.481,0,0,0-.8-.707c-.57-.2-.1,3.192.171,3.408a12.651,12.651,0,0,1,1.117,1.75h0l.049.086a1.174,1.174,0,0,0-.125.136l.107.736.016.112a3.06,3.06,0,0,0-.451.771,1.641,1.641,0,0,1,.415,1.2,3.674,3.674,0,0,0,.171,1.47c-.031-.035-.395-.43-.759-.334s-1.375.4-1.375.4-.76.134-.69.3-.519.9-.519.9l-2.041-1.935c-.02-.057-.04-.115-.059-.175a4.7,4.7,0,0,1-.178-.847,4.652,4.652,0,0,0,.652-.207,1.409,1.409,0,0,0,.565-.361,2.177,2.177,0,0,0,.329-.875,12.348,12.348,0,0,1,.757-1.689,5.5,5.5,0,0,0,.407-3.033,1.992,1.992,0,0,0-.314-.887c-.332-.459-.937-.645-1.375-1.011s-.722-.924-1.235-1.2a2.44,2.44,0,0,0-1.548-.134,8.339,8.339,0,0,0-2.893,1.052,1.507,1.507,0,0,1-.967.317,1.284,1.284,0,0,1-.7-.511.255.255,0,0,1,.009-.029l-.022-.026a3.6,3.6,0,0,0-.317,1.527,2.14,2.14,0,0,0,.01.25v.086a.439.439,0,0,1,0,.07h0a.391.391,0,0,1-.015.107.8.8,0,0,1-.191.276,1.5,1.5,0,0,0-.166.226c.009-.027.017-.055.027-.082a1.206,1.206,0,0,0-.211.642.642.642,0,0,0,.154.461,2.164,2.164,0,0,0,.332.267,3.894,3.894,0,0,0,1.862,4.047c.024.057.046.116.07.175a4.988,4.988,0,0,1,.375,2.226c-.008.055-.015.109-.025.162-.026.027-.051.056-.074.085h0s-3.374.033-4.163-.686-2,1.75-2,1.75-1.209.235-1.45,0-1.657-.033-1.657-.033a3.044,3.044,0,0,0-2.106-.769,6.238,6.238,0,0,0-1.546-.86h0l-.039-.014h0a1.75,1.75,0,0,0-.76-.1,15.778,15.778,0,0,1-2.14-2.1c-.482-.73-2.786-3.462-2.8-3.474l-.009-.125-.026-.4a1.45,1.45,0,0,1-.206.017l-.046-.137a7.473,7.473,0,0,0-.49-1.125s0-.5.146-.625a8.585,8.585,0,0,0-.06-1.963s-1.493-3.492-2.831-.885c0,0-2.528,1.686-.406,3.649,0,0,.846.411.966.736.079.211.366.8.56,1.192l.086.175-.024.02.031.327.013.125c-.4.227-.671.451-.6.625a3.708,3.708,0,0,1,.241.9s2.935,3.676,3.314,5.249c0,0,7.874,4.678,10.461,5.013l-.449,2.338a18.768,18.768,0,0,0-.1,1.9c.035.5-.311,2.775-.311,2.775a18.477,18.477,0,0,1-.829,3.808,6.4,6.4,0,0,0-.31,2.473,16.874,16.874,0,0,1-.519,2.841,7.322,7.322,0,0,0-.1,2.84s-1.312,3.008,1.83.97c0,0,1.542-.1,3.318-.156v.176c0,.229-.008.476-.01.737-.024,1.722-.034,4.1.044,5.891.137,3.174,1.1,9.457,1.1,9.457v3.156a4.265,4.265,0,0,0-.091.9,5.874,5.874,0,0,0,.851,3.159l.214,2.083a8.239,8.239,0,0,1,.579,2.216,1.214,1.214,0,0,1-.025.2,1.449,1.449,0,0,0-.028.322,18.115,18.115,0,0,0,.544,3.242s.035,2.306.375,2.44c.295.114-.394,1.329-.6,1.677a.405.405,0,0,0-.013-.066c-.026.045-.042.07-.042.07a1.636,1.636,0,0,0-.108.582.839.839,0,0,0,.382.811c.656.4,1.009.735.452.875a6.061,6.061,0,0,0-.609.125c-.01-.026-.02-.052-.029-.077a.375.375,0,0,0-.227.4,1.708,1.708,0,0,0,.206.782,8.388,8.388,0,0,0,.935,1.7l.265-.03a1.44,1.44,0,0,1-.154.285,1.105,1.105,0,0,1-.391.346,1.177,1.177,0,0,1-.471.161,1.336,1.336,0,0,0-.979.476,1.015,1.015,0,0,0,.125,1.585l2.47.852s4.249.551,4.021-.4-.361-1.787-.361-1.787a3.774,3.774,0,0,0-.345-1.69,2.019,2.019,0,0,0-.15-.25l.15-.018a7.723,7.723,0,0,1,.725-2.5c.095-.093.116-.164.094-.217.044-.115-.065-.182-.2-.22l-.03.082a2.014,2.014,0,0,0-.412-.046s-.139-1.1.31-1.5a.42.42,0,0,0,.087-.327,1.77,1.77,0,0,0-.046-.449c0,.008-.01.018-.016.025a16.28,16.28,0,0,0-.991-2.591,3.171,3.171,0,0,1,.241-1.4c.276-.4-.034-5.448-.034-5.448a16.489,16.489,0,0,0-.207-3.574,4.019,4.019,0,0,1,.375-2.473.5.5,0,0,0-.008-.073l.009-.018s-.015-.15-.04-.384a.166.166,0,0,0-.009.022c-.069-.645-.2-1.815-.3-2.356-.139-.769.034-4.444.034-4.444l.625-1.57,1.1,2.706,1.175,3.609a3.083,3.083,0,0,1,.595,1.535.567.567,0,0,1-.008.112,2.017,2.017,0,0,0-.014.241,2.145,2.145,0,0,0,.357,1.286,5.6,5.6,0,0,0,.795,2.138,1.923,1.923,0,0,1,.482,1.27,21.459,21.459,0,0,0,.864,2.907,4.235,4.235,0,0,1,.242,1.681h0v.09s.081.884.079,1.625a2.587,2.587,0,0,1-.009.264v-.019a2.66,2.66,0,0,1-.071.6.266.266,0,0,0-.01.034.529.529,0,0,1,.01-.125,6.341,6.341,0,0,0-.172,1.541,4,4,0,0,0,.657,2.56c.932,1.07,1.52.936,1.52.936s-.45,1.336-1,1.6a.357.357,0,0,0-.059.038.564.564,0,0,0-.014-.078.649.649,0,0,0-.161.5,3.559,3.559,0,0,0,.684,1.981,1.106,1.106,0,0,0,.466.272,1.019,1.019,0,0,1-.088.054,1.663,1.663,0,0,1-.19.089.91.91,0,0,1-.281.074,1.322,1.322,0,0,0-.981.47,1.013,1.013,0,0,0,.125,1.583l2.47.852S507.829,284.911,507.6,283.958Z" transform="translate(-419.389 -180.141)" fill="url(#linear-gradient-7)"/>
    <path id="Path_1873" data-name="Path 1873" d="M633.178,836.093l-2.39-.852a1.036,1.036,0,0,1-.116-1.585,1.276,1.276,0,0,1,.946-.476,1.116,1.116,0,0,0,.456-.161,1.084,1.084,0,0,0,.375-.346,1.762,1.762,0,0,0,.272-.924s2.625-.769,3.342,0a1.923,1.923,0,0,1,.318.466,3.977,3.977,0,0,1,.335,1.69s.134.834.35,1.787S633.178,836.093,633.178,836.093Z" transform="translate(-561.181 -730.697)" fill="#2d293d"/>
    <path id="Path_1874" data-name="Path 1874" d="M726.755,826.673l-2.39-.852a1.037,1.037,0,0,1-.116-1.583,1.27,1.27,0,0,1,.946-.476.858.858,0,0,0,.274-.074,1.586,1.586,0,0,0,.184-.089,1.512,1.512,0,0,0,.651-1.27s2.625-.769,3.342,0a1.861,1.861,0,0,1,.25.341,3.79,3.79,0,0,1,.4,1.815s.134.835.351,1.787S726.755,826.673,726.755,826.673Z" transform="translate(-643.064 -722.454)" fill="#2d293d"/>
    <path id="Path_1875" data-name="Path 1875" d="M650.744,831.75a1.927,1.927,0,0,1,.317.466h0l-3.932.456a1.763,1.763,0,0,0,.272-.924S650.027,830.983,650.744,831.75Z" transform="translate(-575.858 -730.699)" opacity="0.1"/>
    <path id="Path_1876" data-name="Path 1876" d="M740.638,822.669v.736c-.611,1.007-3.569.787-4.428.281a1.6,1.6,0,0,0,.184-.089,1.512,1.512,0,0,0,.651-1.27s2.625-.769,3.342,0A1.864,1.864,0,0,1,740.638,822.669Z" transform="translate(-653.805 -722.454)" opacity="0.1"/>
    <path id="Path_1877" data-name="Path 1877" d="M635.531,528.6a6.629,6.629,0,0,0-.467,1v2.642c-.669,1.1-4.144.735-4.612.134s-.969-2.172-.435-2.44.967-1.6.967-1.6-.569.134-1.471-.936-.635-3.442-.466-4.009a11.759,11.759,0,0,0,0-2.473,4.953,4.953,0,0,0-.234-1.771,21.762,21.762,0,0,1-.829-2.907,1.967,1.967,0,0,0-.469-1.27,5.708,5.708,0,0,1-.769-2.138,2.194,2.194,0,0,1-.334-1.436,2.915,2.915,0,0,0-.569-1.738l-1.136-3.608-1.069-2.707-.6,1.571s-.168,3.676-.034,4.444.334,2.807.334,2.807a4.125,4.125,0,0,0-.367,2.472,17.14,17.14,0,0,1,.2,3.576s.3,5.045.032,5.447a3.267,3.267,0,0,0-.234,1.4s1.375,2.939.936,3.341-.3,1.5-.3,1.5.936,0,.535.4a7.981,7.981,0,0,0-.7,2.5l-4.039.469a8.157,8.157,0,0,1-.9-1.7c-.53-1.236.1-1.1.637-1.236s.2-.467-.437-.875-.268-1.3-.268-1.3.969-1.637.635-1.771-.367-2.44-.367-2.44a14.831,14.831,0,0,1-.5-3.474,6.566,6.566,0,0,0-.541-2.495l-.234-2.106a5.783,5.783,0,0,1-.735-3.976v-3.237s-.936-6.281-1.07-9.456c-.085-2.033-.061-4.808-.034-6.539.016-.971.034-1.615.034-1.615l14.435-1.5a11.871,11.871,0,0,0,.262,2.145c.146.792.375,1.818.74,3.1a14.088,14.088,0,0,1,.4,6.415l-.134,4.643s1.27,3.108,1,4.177a8.888,8.888,0,0,0-.267,1.938s2.843,6.781,2.542,8.757.936,5.079.936,5.079A7.705,7.705,0,0,1,635.531,528.6Z" transform="translate(-548.231 -431.557)" fill="#575988"/>
    <path id="Path_1878" data-name="Path 1878" d="M709.34,658.665l4.394-.585S711.245,660.62,709.34,658.665Z" transform="translate(-630.293 -579.033)" opacity="0.05"/>
    <path id="Path_1879" data-name="Path 1879" d="M733.8,623.73s.15,1.553-.8,2.138C733,625.868,734.7,625.6,733.8,623.73Z" transform="translate(-650.996 -548.976)" opacity="0.1"/>
    <path id="Path_1880" data-name="Path 1880" d="M700.9,584.16s-3.673,3.023-5.009,2.773S700.9,584.16,700.9,584.16Z" transform="translate(-618.359 -514.351)" opacity="0.1"/>
    <path id="Path_1881" data-name="Path 1881" d="M645.622,674.13s-2.79.634-2.875,1.75S645.622,674.13,645.622,674.13Z" transform="translate(-572.022 -593.077)" opacity="0.1"/>
    <path id="Path_1882" data-name="Path 1882" d="M649.5,785.61s-3.943.736-2.823,1.237a19.04,19.04,0,0,0,2.957.9S650.905,787.816,649.5,785.61Z" transform="translate(-575.287 -690.624)" opacity="0.05"/>
    <g id="Group_150" data-name="Group 150" transform="translate(67.32 59.382)" opacity="0.05">
      <path id="Path_1883" data-name="Path 1883" d="M638.161,797.871a.777.777,0,0,1-.361-.571l-.04.07s-.367.9.267,1.3l.206.135c.116-.021.242-.037.365-.069C639.136,798.606,638.8,798.272,638.161,797.871Z" transform="translate(-634.886 -760.235)"/>
      <path id="Path_1884" data-name="Path 1884" d="M681.046,794.926c.108-.1.1-.356.038-.686a1.859,1.859,0,0,0-.224.967A.8.8,0,0,1,681.046,794.926Z" transform="translate(-672.692 -757.557)"/>
      <path id="Path_1885" data-name="Path 1885" d="M675.626,666.72a4.477,4.477,0,0,0-.266,1.229,4.83,4.83,0,0,1,.3-.844S675.65,666.954,675.626,666.72Z" transform="translate(-667.88 -645.975)"/>
      <path id="Path_1886" data-name="Path 1886" d="M749.212,650.125a1.46,1.46,0,0,0,.036-.365c-.049.25-.084.481-.109.684C749.161,650.34,749.185,650.234,749.212,650.125Z" transform="translate(-732.439 -631.134)"/>
      <path id="Path_1887" data-name="Path 1887" d="M676.082,756.572a2.149,2.149,0,0,0,.1-.742,2.612,2.612,0,0,0-.193.937.915.915,0,0,1,.092-.195Z" transform="translate(-668.431 -723.948)"/>
      <path id="Path_1888" data-name="Path 1888" d="M643.155,812.19a13.1,13.1,0,0,0-.461,2.052l-4.041.467a8.112,8.112,0,0,1-.9-1.7c-.046-.109-.084-.206-.114-.295-.242.111-.337.363-.02,1.1a8.478,8.478,0,0,0,.9,1.7l4.041-.471a7.937,7.937,0,0,1,.7-2.5C643.46,812.341,643.334,812.24,643.155,812.19Z" transform="translate(-634.675 -773.264)"/>
      <path id="Path_1889" data-name="Path 1889" d="M618.648,533.655s.034,2.306.367,2.44h0c.169-.381.281-.75.125-.8-.334-.132-.367-2.438-.367-2.438a14.841,14.841,0,0,1-.5-3.476,6.661,6.661,0,0,0-.535-2.506l-.234-2.1a5.787,5.787,0,0,1-.735-3.977v-3.24s-.936-6.283-1.07-9.457c-.085-2.032-.061-4.807-.034-6.538,0-.314.011-.591.016-.825l-.116.011s-.018.644-.034,1.615c-.028,1.731-.051,4.5.034,6.539.134,3.174,1.07,9.456,1.07,9.456v3.242a5.783,5.783,0,0,0,.735,3.976l.234,2.106a6.7,6.7,0,0,1,.535,2.5A15,15,0,0,0,618.648,533.655Z" transform="translate(-615.507 -500.73)"/>
      <path id="Path_1890" data-name="Path 1890" d="M730.231,814.017a3.9,3.9,0,0,1-.64-1.587c-.412.375.061,1.818.5,2.39.467.6,3.943.969,4.612-.134v-.636C733.805,814.946,730.673,814.586,730.231,814.017Z" transform="translate(-715.194 -773.474)"/>
      <path id="Path_1891" data-name="Path 1891" d="M773.179,794.719a6.568,6.568,0,0,0-.469,1v.469c.076-.171.185-.4.335-.669a2.029,2.029,0,0,0,.146-.829C773.186,794.7,773.182,794.711,773.179,794.719Z" transform="translate(-753.063 -757.951)"/>
      <path id="Path_1892" data-name="Path 1892" d="M724.069,764.567a6.341,6.341,0,0,0,.33-.794s-.569.134-1.471-.935a4.755,4.755,0,0,1-.6-3.208c-.169.569-.435,2.941.466,4.009A2.379,2.379,0,0,0,724.069,764.567Z" transform="translate(-708.827 -727.273)"/>
      <path id="Path_1893" data-name="Path 1893" d="M682.175,611.177a17.793,17.793,0,0,1,.066,1.981,2.868,2.868,0,0,1,.069-.31,11.747,11.747,0,0,0,0-2.472,4.951,4.951,0,0,0-.234-1.771,22.078,22.078,0,0,1-.841-2.907,1.969,1.969,0,0,0-.467-1.27A5.724,5.724,0,0,1,680,602.29a2.2,2.2,0,0,1-.334-1.437,2.913,2.913,0,0,0-.569-1.737l-1.136-3.609-1.069-2.706-.6,1.57s-.009.2-.02.507l.489-1.276,1.068,2.707,1.136,3.608a2.914,2.914,0,0,1,.569,1.738,2.195,2.195,0,0,0,.334,1.436,5.726,5.726,0,0,0,.769,2.138,2,2,0,0,1,.476,1.27,21.931,21.931,0,0,0,.836,2.907A4.918,4.918,0,0,1,682.175,611.177Z" transform="translate(-668.676 -581.293)"/>
    </g>
    <path id="Path_1894" data-name="Path 1894" d="M722.977,225.915l-.25,1.22.015.542.01.4-1.4.137-.156-.289h0a12.761,12.761,0,0,0-1.082-1.75c-.258-.217-.717-3.609-.165-3.408a1.461,1.461,0,0,1,.776.7S723.467,223.791,722.977,225.915Z" transform="translate(-639.348 -198.12)" fill="#ffcdd3"/>
    <path id="Path_1895" data-name="Path 1895" d="M733.3,261.288l-1.395.144-.156-.289h0a1.226,1.226,0,0,1,1.54-.25Z" transform="translate(-649.902 -231.335)" opacity="0.1"/>
    <path id="Path_1896" data-name="Path 1896" d="M733.113,262.894l-1.841.432-.039-.275-.1-.736a1.265,1.265,0,0,1,1.78-.244l.091.375Z" transform="translate(-649.36 -232.281)" fill="#dce6f2"/>
    <path id="Path_1897" data-name="Path 1897" d="M477.629,207.944,475.669,209s-.075-.155-.177-.375c-.187-.391-.465-.981-.541-1.192-.116-.325-.936-.735-.936-.735-2.053-1.963.394-3.651.394-3.651,1.295-2.606,2.74.885,2.74.885a8.887,8.887,0,0,1,.059,1.963c-.141.124-.141.625-.141.625a7.589,7.589,0,0,1,.472,1.125C477.6,207.831,477.629,207.944,477.629,207.944Z" transform="translate(-423.66 -180.023)" fill="#ffcdd3"/>
    <path id="Path_1898" data-name="Path 1898" d="M493.717,246.813l-1.96,1.055s-.075-.155-.177-.375c.276-.231,1.259-1.027,1.581-.991a2.351,2.351,0,0,0,.465.011C493.685,246.7,493.717,246.813,493.717,246.813Z" transform="translate(-439.748 -218.892)" opacity="0.1"/>
    <path id="Path_1899" data-name="Path 1899" d="M494.286,248.344l-2.206,1.087-.044-.475-.036-.332s1.277-1.095,1.655-1.052a1.977,1.977,0,0,0,.576,0l.025.4Z" transform="translate(-440.116 -219.828)" fill="#dce6f2"/>
    <path id="Path_1900" data-name="Path 1900" d="M646.882,260.548s-9.616,1.085-7.819.5a2.409,2.409,0,0,0,1.852-2.086,5.023,5.023,0,0,0-.357-2.225A9.576,9.576,0,0,0,639.7,255s7.351-4.044,5.874-.375a5.9,5.9,0,0,0-.416,1.742,4.894,4.894,0,0,0,.189,1.763A5.249,5.249,0,0,0,646.882,260.548Z" transform="translate(-568.603 -224.654)" fill="#ffcdd3"/>
    <path id="Path_1901" data-name="Path 1901" d="M651.59,254.655a5.9,5.9,0,0,0-.416,1.742,3.391,3.391,0,0,1-2.427.544,4.334,4.334,0,0,1-2.177-.18,9.577,9.577,0,0,0-.86-1.737S653.061,250.98,651.59,254.655Z" transform="translate(-574.615 -224.677)" opacity="0.1"/>
    <circle id="Ellipse_457" data-name="Ellipse 457" cx="3.977" cy="3.977" r="3.977" transform="translate(70.025 24.565)" fill="#ffcdd3"/>
    <path id="Path_1902" data-name="Path 1902" d="M646.882,292.992s-9.616,1.085-7.819.5a2.409,2.409,0,0,0,1.852-2.086,5.285,5.285,0,0,1,2.058-1.091,2.883,2.883,0,0,1,1.75-.029,2.4,2.4,0,0,1,.634.295A5.249,5.249,0,0,0,646.882,292.992Z" transform="translate(-568.603 -257.099)" opacity="0.1"/>
    <path id="Path_1903" data-name="Path 1903" d="M733.84,267.014l-1.841.432-.039-.275a1.625,1.625,0,0,1,1.767-.6Z" transform="translate(-650.086 -236.401)" opacity="0.1"/>
    <path id="Path_1904" data-name="Path 1904" d="M494.54,251.152l-2.206,1.087-.044-.475a16.208,16.208,0,0,1,2.225-.985Z" transform="translate(-440.37 -222.637)" opacity="0.1"/>
    <path id="Path_1905" data-name="Path 1905" d="M630.491,491.672c-3.724.587-9.025,1.354-9.866,1.1a24.668,24.668,0,0,0-4.865-.125c.016-.971.034-1.615.034-1.615l14.435-1.5A11.859,11.859,0,0,0,630.491,491.672Z" transform="translate(-548.409 -431.548)" opacity="0.1"/>
    <path id="Path_1906" data-name="Path 1906" d="M522.092,282.822s-12.263,2.106-13.58,1.7-8.072.034-8.072.034c-3.041,2.037-1.771-.97-1.771-.97a7.464,7.464,0,0,1,.1-2.84,17.375,17.375,0,0,0,.5-2.841,6.62,6.62,0,0,1,.3-2.472,19.1,19.1,0,0,0,.8-3.809s.335-2.272.3-2.773.1-1.9.1-1.9l.436-2.335c-2.5-.334-10.123-5.012-10.123-5.012-.367-1.571-3.208-5.249-3.208-5.249a3.875,3.875,0,0,0-.234-.9c-.2-.535,2.807-1.6,2.807-1.6s2.238,2.74,2.706,3.474a15.252,15.252,0,0,0,2.072,2.106,1.607,1.607,0,0,1,.735.1.152.152,0,0,1,.039.011h0a6.075,6.075,0,0,1,1.5.859,2.9,2.9,0,0,1,2.038.769s1.375-.2,1.6.034,1.4,0,1.4,0,1.17-2.473,1.938-1.75,4.029.685,4.029.685a4.824,4.824,0,0,1,2.153-1.2,2.883,2.883,0,0,1,1.75-.029,2.218,2.218,0,0,1,.687.332l1.978,1.937s.569-.735.5-.9.669-.3.669-.3.969-.3,1.336-.4.7.3.735.332a3.889,3.889,0,0,1-.166-1.469,1.731,1.731,0,0,0-.4-1.2c1.17-2.875,3.809-.467,3.809-.467a5.5,5.5,0,0,1,.034,2.172c-.267.6.267,1.875.2,2.2s.134.9.134,1.537a9.1,9.1,0,0,1-.535,2.375c-.2.536-1.811,1.731-1.811,1.731a7.558,7.558,0,0,1-.8,3.007c-.7,1.1-.268,4.874-.268,4.874s.669,2.941,1.5,3.874S522.092,282.822,522.092,282.822Z" transform="translate(-436.294 -223.573)" fill="#656691"/>
    <path id="Path_1907" data-name="Path 1907" d="M608.611,309.408s-.367-1.1-.7-1.2a7.785,7.785,0,0,1-.97-.434l.215-.411s1.256.344,1.456.711A2.9,2.9,0,0,1,608.611,309.408Z" transform="translate(-540.691 -272.145)" opacity="0.1"/>
    <path id="Path_1908" data-name="Path 1908" d="M545.281,298.122c-.066.335-3.041.635-3.041.635l1.5-1.507h0l.038.013h0A5.944,5.944,0,0,1,545.281,298.122Z" transform="translate(-484.077 -263.299)" opacity="0.1"/>
    <circle id="Ellipse_458" data-name="Ellipse 458" cx="0.267" cy="0.267" r="0.267" transform="translate(52.331 29.969)" fill="#575988"/>
    <circle id="Ellipse_459" data-name="Ellipse 459" cx="0.267" cy="0.267" r="0.267" transform="translate(52.674 30.504)" fill="#575988"/>
    <circle id="Ellipse_460" data-name="Ellipse 460" cx="0.267" cy="0.267" r="0.267" transform="translate(53.009 30.998)" fill="#575988"/>
    <circle id="Ellipse_461" data-name="Ellipse 461" cx="0.267" cy="0.267" r="0.267" transform="translate(53.359 31.531)" fill="#575988"/>
    <circle id="Ellipse_462" data-name="Ellipse 462" cx="0.217" cy="0.217" r="0.217" transform="translate(84.906 31.553)" fill="#575988"/>
    <circle id="Ellipse_463" data-name="Ellipse 463" cx="0.217" cy="0.217" r="0.217" transform="translate(84.94 32.045)" fill="#575988"/>
    <circle id="Ellipse_464" data-name="Ellipse 464" cx="0.217" cy="0.217" r="0.217" transform="translate(84.97 32.539)" fill="#575988"/>
    <path id="Path_1909" data-name="Path 1909" d="M620.439,396.2c-.03-.039,7.5,9.473,13.349,3.977C633.788,400.174,624.55,401.43,620.439,396.2Z" transform="translate(-552.503 -349.881)" opacity="0.1"/>
    <path id="Path_1910" data-name="Path 1910" d="M585.82,435.77s4.507.125,4.979,1.42v1.349a.859.859,0,0,1-.839,0c-.455-.25-3.179-1.625-4.141-.964Z" transform="translate(-522.21 -384.507)" opacity="0.1"/>
    <path id="Path_1911" data-name="Path 1911" d="M586.49,435.77s4.311.117,4.762,1.354v1.286a.822.822,0,0,1-.8,0c-.434-.234-3.041-1.554-3.959-.919Z" transform="translate(-522.797 -384.507)" fill="#656691"/>
    <path id="Path_1912" data-name="Path 1912" d="M605.51,357.46a14.505,14.505,0,0,0,1.75,3A11.767,11.767,0,0,0,610,363.1S605.585,358.08,605.51,357.46Z" transform="translate(-539.44 -315.984)" opacity="0.1"/>
    <path id="Path_1913" data-name="Path 1913" d="M593.71,315.55s.75,3.249,2.69,4.349Z" transform="translate(-529.114 -279.312)" opacity="0.1"/>
    <path id="Path_1914" data-name="Path 1914" d="M584.011,318.173c-.019-.06-.667,2.567,2.5,4.021C586.51,322.194,585.165,321.737,584.011,318.173Z" transform="translate(-520.569 -281.606)" opacity="0.1"/>
    <path id="Path_1915" data-name="Path 1915" d="M741.992,300.745a23.12,23.12,0,0,1,2,1.5S742.939,300.678,741.992,300.745Z" transform="translate(-658.863 -266.356)" opacity="0.1"/>
    <path id="Path_1916" data-name="Path 1916" d="M637.169,220.023a.831.831,0,0,0,.31.537.848.848,0,0,0,.375.084,8.083,8.083,0,0,0,3.6-.339,1.357,1.357,0,0,0,.546-.362,2.231,2.231,0,0,0,.317-.875,12.593,12.593,0,0,1,.735-1.688,5.673,5.673,0,0,0,.394-3.032,2.054,2.054,0,0,0-.3-.889c-.322-.459-.907-.645-1.333-1.01s-.7-.924-1.195-1.2a2.3,2.3,0,0,0-1.5-.134,7.907,7.907,0,0,0-2.8,1.051,1.393,1.393,0,0,1-.936.319,1.287,1.287,0,0,1-.687-.527,3.7,3.7,0,0,0-.3,1.732.733.733,0,0,1-.009.261.774.774,0,0,1-.185.275,1.013,1.013,0,0,0-.19,1.25c.125.152.326.236.451.391.225.28.149.681.144,1.039a.528.528,0,0,0,.088.352.516.516,0,0,0,.491.118,1.358,1.358,0,0,1,.522-.05.875.875,0,0,1,.455.35A6.185,6.185,0,0,1,637.169,220.023Z" transform="translate(-564.243 -187.877)" fill="#2d293d"/>
    <g id="Group_151" data-name="Group 151" transform="translate(69.613 24.039)" opacity="0.1">
      <path id="Path_1917" data-name="Path 1917" d="M642.13,242.82a1.357,1.357,0,0,1-.546.362,8.015,8.015,0,0,1-3.6.337.831.831,0,0,1-.375-.082.855.855,0,0,1-.31-.537,6.213,6.213,0,0,0-1.014-2.352.875.875,0,0,0-.455-.35,1.359,1.359,0,0,0-.522.05.518.518,0,0,1-.491-.117.529.529,0,0,1-.087-.352c0-.357.08-.76-.144-1.039-.125-.156-.323-.239-.452-.391a.787.787,0,0,1-.076-.8.912.912,0,0,0-.056,1.065c.125.154.326.236.451.392.224.279.149.681.144,1.039a.528.528,0,0,0,.087.352.516.516,0,0,0,.491.117,1.359,1.359,0,0,1,.522-.05.875.875,0,0,1,.455.35,6.246,6.246,0,0,1,1.013,2.352.625.625,0,0,0,.685.62,8.083,8.083,0,0,0,3.6-.337,1.357,1.357,0,0,0,.546-.362,1.057,1.057,0,0,0,.172-.322C642.156,242.784,642.144,242.8,642.13,242.82Z" transform="translate(-633.856 -235.099)"/>
      <path id="Path_1918" data-name="Path 1918" d="M638.087,219.867a.566.566,0,0,0,.125-.2.734.734,0,0,0,.009-.261,3.721,3.721,0,0,1,.186-1.439l-.021-.026a3.694,3.694,0,0,0-.3,1.732A1.01,1.01,0,0,1,638.087,219.867Z" transform="translate(-637.551 -217.94)"/>
    </g>
    <path id="Path_1919" data-name="Path 1919" d="M654.69,301.477s4.968.659,5.414-.087" transform="translate(-582.473 -266.922)" opacity="0.1"/>
    <path id="Path_1920" data-name="Path 1920" d="M732,285.65s2.76,0,3.367,1.037" transform="translate(-650.121 -253.149)" opacity="0.1"/>
  </g>
</svg>
