<svg xmlns="http://www.w3.org/2000/svg" xmlns:xlink="http://www.w3.org/1999/xlink" width="118.828" height="104.986" viewBox="0 0 118.828 104.986">
  <defs>
    <linearGradient id="linear-gradient" x1="0.5" y1="1" x2="0.5" gradientUnits="objectBoundingBox">
      <stop offset="0" stop-color="gray" stop-opacity="0.251"/>
      <stop offset="0.54" stop-color="gray" stop-opacity="0.122"/>
      <stop offset="1" stop-color="gray" stop-opacity="0.102"/>
    </linearGradient>
  </defs>
  <g id="about-contact" transform="translate(-0.008 0.006)">
    <path id="Path_1921" data-name="Path 1921" d="M151.579,46.2c-7.618-.241-14.874-2.493-21.8-4.958s-13.8-5.19-21.233-6.5c-4.782-.84-10.251-.958-14.1,1.389-3.709,2.258-4.906,6.158-5.55,9.778-.486,2.722-.77,5.588.558,8.135.919,1.767,2.559,3.256,3.691,4.95,3.938,5.9,1.155,13.167-3.114,18.924-2,2.7-4.325,5.277-5.871,8.152s-2.257,6.171-.908,9.1c1.34,2.9,4.533,5.089,7.993,6.625,7.026,3.118,15.306,4.011,23.379,4.517,17.871,1.118,35.838.631,53.757.149a171.9,171.9,0,0,0,19.816-1.3c3.623-.521,7.362-1.348,9.989-3.345,3.339-2.535,4.166-6.828,1.929-10.007-3.752-5.333-14.123-6.657-16.751-12.379-1.444-3.15.039-6.659,2.137-9.581,4.5-6.267,12.046-11.765,12.443-18.928.272-4.923-3.354-9.847-8.962-12.175-5.878-2.44-14.029-2.134-18.371,1.906C166.152,44.811,158.306,46.415,151.579,46.2Z" transform="translate(-82.53 -34.2)" fill="#c2d1d9" opacity="0.1"/>
    <ellipse id="Ellipse_465" data-name="Ellipse 465" cx="33.384" cy="3.701" rx="33.384" ry="3.701" transform="translate(16.621 97.577)" fill="#eb2424" opacity="0.1"/>
    <path id="Path_1922" data-name="Path 1922" d="M156.6,656.095s-1.481-9.227-6.979-13.8a14.229,14.229,0,0,1-4.732-7.5,24.691,24.691,0,0,1-.664-4.3" transform="translate(-137.139 -555.218)" fill="none" stroke="#535461" stroke-miterlimit="10" stroke-width="2"/>
    <path id="Path_1923" data-name="Path 1923" d="M112.72,587.687c.459.988,3.528,2.989,3.528,2.989s.386-3.738-.077-4.728a1.887,1.887,0,0,0-2.563-.923A2.024,2.024,0,0,0,112.72,587.687Z" transform="translate(-109.075 -515.318)" fill="#eb2424"/>
    <path id="Path_1924" data-name="Path 1924" d="M104.554,636.712c.907.569,4.529.519,4.529.519s-1.634-3.355-2.538-3.925a1.879,1.879,0,0,0-2.634.672A2.033,2.033,0,0,0,104.554,636.712Z" transform="translate(-101.202 -557.426)" fill="#eb2424"/>
    <path id="Path_1925" data-name="Path 1925" d="M136.271,708.431c1.059.016,4.16-1.925,4.16-1.925s-3.042-2.04-4.1-2.058a1.993,1.993,0,0,0-.059,3.983Z" transform="translate(-128.417 -619.839)" fill="#eb2424"/>
    <path id="Path_1926" data-name="Path 1926" d="M181.774,758.1c1.04.2,4.414-1.168,4.414-1.168s-2.666-2.548-3.705-2.747a1.924,1.924,0,0,0-2.239,1.591A1.984,1.984,0,0,0,181.774,758.1Z" transform="translate(-168.988 -663.269)" fill="#eb2424"/>
    <path id="Path_1927" data-name="Path 1927" d="M154.863,634.962c-.362,1.034-3.215,3.352-3.215,3.352s-.756-3.676-.394-4.71a1.9,1.9,0,0,1,2.458-1.193A2.015,2.015,0,0,1,154.863,634.962Z" transform="translate(-143.27 -556.791)" fill="#eb2424"/>
    <path id="Path_1928" data-name="Path 1928" d="M201.822,689.724c-.643.875-4.032,2.2-4.032,2.2s.344-3.743.983-4.617a1.873,1.873,0,0,1,2.689-.379,1.952,1.952,0,0,1,.738,1.311,2.057,2.057,0,0,1-.377,1.484Z" transform="translate(-184.549 -604.175)" fill="#eb2424"/>
    <path id="Path_1929" data-name="Path 1929" d="M244.267,754.743c-.491.974-3.616,2.876-3.616,2.876s-.274-3.748.217-4.723a1.884,1.884,0,0,1,2.589-.841A2.029,2.029,0,0,1,244.267,754.743Z" transform="translate(-222.421 -661.237)" fill="#eb2424"/>
    <path id="Path_1930" data-name="Path 1930" d="M112.72,587.687c.459.988,3.528,2.989,3.528,2.989s.386-3.738-.077-4.728a1.887,1.887,0,0,0-2.563-.923A2.024,2.024,0,0,0,112.72,587.687Z" transform="translate(-109.075 -515.318)" opacity="0.25"/>
    <path id="Path_1931" data-name="Path 1931" d="M104.554,636.712c.907.569,4.529.519,4.529.519s-1.634-3.355-2.538-3.925a1.879,1.879,0,0,0-2.634.672A2.033,2.033,0,0,0,104.554,636.712Z" transform="translate(-101.202 -557.426)" opacity="0.25"/>
    <path id="Path_1932" data-name="Path 1932" d="M136.271,708.431c1.059.016,4.16-1.925,4.16-1.925s-3.042-2.04-4.1-2.058a1.993,1.993,0,0,0-.059,3.983Z" transform="translate(-128.417 -619.839)" opacity="0.25"/>
    <path id="Path_1933" data-name="Path 1933" d="M181.774,758.1c1.04.2,4.414-1.168,4.414-1.168s-2.666-2.548-3.705-2.747a1.924,1.924,0,0,0-2.239,1.591A1.984,1.984,0,0,0,181.774,758.1Z" transform="translate(-168.988 -663.269)" opacity="0.25"/>
    <path id="Path_1934" data-name="Path 1934" d="M154.863,634.962c-.362,1.034-3.215,3.352-3.215,3.352s-.756-3.676-.394-4.71a1.9,1.9,0,0,1,2.458-1.193A2.015,2.015,0,0,1,154.863,634.962Z" transform="translate(-143.27 -556.791)" opacity="0.25"/>
    <path id="Path_1935" data-name="Path 1935" d="M201.822,689.724c-.643.875-4.032,2.2-4.032,2.2s.344-3.743.983-4.617a1.873,1.873,0,0,1,2.689-.379,1.952,1.952,0,0,1,.738,1.311,2.057,2.057,0,0,1-.377,1.484Z" transform="translate(-184.549 -604.175)" opacity="0.25"/>
    <path id="Path_1936" data-name="Path 1936" d="M244.267,754.743c-.491.974-3.616,2.876-3.616,2.876s-.274-3.748.217-4.723a1.884,1.884,0,0,1,2.589-.841A2.029,2.029,0,0,1,244.267,754.743Z" transform="translate(-222.421 -661.237)" opacity="0.25"/>
    <path id="Path_1937" data-name="Path 1937" d="M230.576,633.344s2.247-9.059-.993-15.553a14.643,14.643,0,0,1-1.4-8.847,24.5,24.5,0,0,1,1.074-4.214" transform="translate(-211.297 -532.71)" fill="none" stroke="#535461" stroke-miterlimit="10" stroke-width="2"/>
    <path id="Path_1938" data-name="Path 1938" d="M221.32,557.961c.037,1.1,2.059,4.218,2.059,4.218s1.812-3.256,1.775-4.355a1.92,1.92,0,1,0-3.834.138Z" transform="translate(-205.376 -490.044)" fill="#eb2424"/>
    <path id="Path_1939" data-name="Path 1939" d="M192.843,599.665c.606.9,3.936,2.378,3.936,2.378s-.184-3.754-.79-4.657a1.875,1.875,0,0,0-2.671-.494,1.936,1.936,0,0,0-.788,1.272A2.073,2.073,0,0,0,192.843,599.665Z" transform="translate(-179.866 -525.548)" fill="#eb2424"/>
    <path id="Path_1940" data-name="Path 1940" d="M191.1,677.414c.962.461,4.556-.009,4.556-.009s-1.985-3.146-2.947-3.607a1.889,1.889,0,0,0-2.546.973A2.023,2.023,0,0,0,191.1,677.414Z" transform="translate(-177.641 -592.898)" fill="#eb2424"/>
    <path id="Path_1941" data-name="Path 1941" d="M211.324,740.2c.874.624,4.492.789,4.492.789s-1.444-3.448-2.317-4.07a1.873,1.873,0,0,0-2.667.5,2.074,2.074,0,0,0-.307,1.507A1.932,1.932,0,0,0,211.324,740.2Z" transform="translate(-195.792 -647.897)" fill="#eb2424"/>
    <path id="Path_1942" data-name="Path 1942" d="M232.148,617.4c-.735.793-4.248,1.713-4.248,1.713s.745-3.68,1.479-4.473a1.87,1.87,0,0,1,2.713-.056,2.045,2.045,0,0,1,.056,2.815Z" transform="translate(-211.202 -540.833)" fill="#eb2424"/>
    <path id="Path_1943" data-name="Path 1943" d="M249.965,687.223c-.929.529-4.545.316-4.545.316s1.772-3.282,2.7-3.807a1.885,1.885,0,0,1,2.6.789A2.027,2.027,0,0,1,249.965,687.223Z" transform="translate(-226.71 -601.524)" fill="#eb2424"/>
    <path id="Path_1944" data-name="Path 1944" d="M260.249,761.358c-.83.684-4.429,1.108-4.429,1.108s1.213-3.544,2.043-4.228a1.871,1.871,0,0,1,2.695.322,2.05,2.05,0,0,1,.4,1.473A1.961,1.961,0,0,1,260.249,761.358Z" transform="translate(-235.916 -666.461)" fill="#eb2424"/>
    <path id="Path_1945" data-name="Path 1945" d="M805.627,241.708a6.576,6.576,0,0,0-.448-1.411c0-.057-.534-.7-.534-1.054s-.707-1.129-.707-1.129a1.9,1.9,0,0,1-1.051-1.374c-.1-.941-1.136-.961-1.138-.961h0s0-.086.007-.216a3.45,3.45,0,0,0-.127-1.1,1.048,1.048,0,0,0-.587-.547,2.576,2.576,0,0,0-.31-.959,1.157,1.157,0,0,1-.242-1.015c.1-.357-.138-1.262-.638-1.389s-1.068-.338-1.068-.338-.056.011-.138.024l-.069-.024a2.809,2.809,0,0,1-.363.049.416.416,0,0,1-.292-.106,5.571,5.571,0,0,0-1.828-.6,4.064,4.064,0,0,1-1-.379l-.739-.621a5.38,5.38,0,0,1-.649-.983l-.007-.014h0a3.639,3.639,0,0,1-.156-.495h0a4.483,4.483,0,0,0,.641-.968c.018-.037.034-.074.051-.111a.377.377,0,0,0,.115-.02c.015,0,.03-.013.045-.019a.813.813,0,0,0,.366-.481h0c.013-.04.024-.082.033-.126a.081.081,0,0,1,.008-.043.409.409,0,0,0,.016-.086c0-.029.006-.033.008-.048s.008-.057.012-.086a.21.21,0,0,0,0-.047.851.851,0,0,1,.013-.107h0q.018-.2.054-.4h0a7.758,7.758,0,0,1,.581-1.414h0c.029-.067.055-.136.079-.206s.048-.151.068-.229l.017-.071c.013-.056.024-.112.034-.169a.585.585,0,0,1,.013-.076c.011-.078.022-.157.028-.236a3.2,3.2,0,0,0-.171-1.327c-.13-.353-.321-.672-.452-1.025-.2-.535-.25-1.136-.493-1.651a1.727,1.727,0,0,0-2.146-.962c-.376.153-.7.451-1.081.585a3.275,3.275,0,0,1-1.581-.037,1.815,1.815,0,0,0-1.534.292c-.488.436-.622,1.255-1.08,1.733-.192.2-.432.329-.635.515a1.137,1.137,0,0,0-.318.478.173.173,0,0,1-.011.04c0,.014-.008.032-.011.048s-.007.038-.009.057a.218.218,0,0,0,0,.039.734.734,0,0,0,0,.1h0a.881.881,0,0,0,.015.095v.027a.694.694,0,0,0,.022.078.079.079,0,0,0,0,.015c.009.029.019.057.03.086l.017.043.014.035a2.324,2.324,0,0,1,.16.437.54.54,0,0,1-.015.289.882.882,0,0,1-.192.275,3.99,3.99,0,0,0-.777,1.37c-.02.058-.039.116-.056.177h0l.024.006a.9.9,0,0,0,.15.037c.029,0,.057.008.087.01a1.229,1.229,0,0,0,.351-.03c.029-.006.059-.014.087-.023a2.051,2.051,0,0,0,.345-.14v.179a4.541,4.541,0,0,0,2.261,4c0,.04.01.082.015.126s.008.068.011.1l-.046-.049s-.311-.169-.6.319a1.976,1.976,0,0,1-.844.716s-3.137.545-3.258,1l-1.465.093s-.518.076-.574,1.262-.327,1.3-.327,1.3a4.8,4.8,0,0,0-.551,1.767,1,1,0,0,1-.459.9l-.069,1.072s-.574-.093-.724.64a2.615,2.615,0,0,1-.431,1.073,3.283,3.283,0,0,0-1,1.6l-.586.4s-1.362-.338-1.672-.941l-.1-.1a.107.107,0,0,1-.008-.015.039.039,0,0,0,0,.008c-.2-.212-.636-.654-.574-.553a.5.5,0,0,1,.028.3l-.1-.126-.271-.331s-2.2-2.272-3.494-2.447h0c-.017-.037-.1-.394-.32-.17a2.112,2.112,0,0,0-.013,2.9l2.061,2.117.053.043.443.631c-.075.2-.138.388-.19.562a.026.026,0,0,1-.006.016c-.01.038-.022.073-.032.109l-.01.038c-.009.035-.019.071-.029.1s-.01.042-.016.062,0,.024-.009.035c-.048.189-.08.335-.1.415l-.115-.039.115.053V243l-.007.039.106.05a40.867,40.867,0,0,1,3.773,1.963,2.036,2.036,0,0,0,2.343.357,2.7,2.7,0,0,0,1.263-1.525,16.069,16.069,0,0,0,1.033-1.75c.034-.226.811-.49.811-.49a12.485,12.485,0,0,1-.327,3.444,47.161,47.161,0,0,0-1.138,5.007.5.5,0,0,1,.147-.01c-.028.148-.044.236-.044.236a.466.466,0,0,1,.183,0c-.055.465-.372,2.621-.372,2.621a5.837,5.837,0,0,1-.276,1.317,10.438,10.438,0,0,0-.189,2.108l-.276,1.279q.047.113.1.221h0a3.282,3.282,0,0,0,.793,1.127,2.489,2.489,0,0,1-.139.586,2.207,2.207,0,0,0-.138.9,12.652,12.652,0,0,0-.258,1.863,7.505,7.505,0,0,1-.189,1.43l-.32,3.265a33.9,33.9,0,0,0-.1,3.614,7.559,7.559,0,0,1-.07,1.824s.207,2.24.155,2.484a5.05,5.05,0,0,0-.155,1.882,11.223,11.223,0,0,1,.07,2.183s.1,2.107.223,2.785a5.307,5.307,0,0,1-.034,1.544,12.438,12.438,0,0,1-.172,1.448,1.677,1.677,0,0,0,.413,1.977c.913.98.344.827.344.827s-.723-.4-.638.414c.083.77.2.569.207.548l-.172.619.115.019-.1.126a2.838,2.838,0,0,1-.344.4.872.872,0,0,0-.23.545,13.9,13.9,0,0,1-2.464,2.3,7.393,7.393,0,0,0-1.4,1.034c-.212.253-.178.462.263.622a6.172,6.172,0,0,0,3.74.076,4.351,4.351,0,0,0,1.827-1.3,2.425,2.425,0,0,1,1.466-.264c.724.15,2.171-.884,2.171-.884l-.026-.268-.077-.769a.649.649,0,0,1-.12-.47,2.675,2.675,0,0,0-.061-.677c-.012-.074-.025-.149-.038-.218l.132-.027s-.171-.961.139-1.149.223-2.651.223-2.651a2.872,2.872,0,0,0-.6-.658c-.208-.093-.017-1.262.018-1.413s.31-3.068.31-3.068a4.333,4.333,0,0,1,.035-1.317,7.03,7.03,0,0,0-.165-1.91.375.375,0,0,1,.087-.414,9.355,9.355,0,0,0,.115-2.24s-.016-1.016-.016-1.28a5.006,5.006,0,0,1,.4-1.543,3.282,3.282,0,0,0,.069-1.318h0l.01-.074a.808.808,0,0,1,.016-.107l.015-.1a15.392,15.392,0,0,1,.341-1.642c.23-.79.482-2.183.482-2.183l1.607-4.6.018-.054a7.752,7.752,0,0,1,.741,2.9,18.273,18.273,0,0,1,.138,2.127c-.052.452.153,2.567.153,2.567s.224,3.049.224,3.181a20.2,20.2,0,0,0,.449,2.842,2.7,2.7,0,0,1-.277,1.562,26.394,26.394,0,0,0,.034,2.88s-.258,2.183-.31,2.635a11.848,11.848,0,0,0-.086,2.861c.172.677.1.771.1.771s.621.7.258.757a.961.961,0,0,0-.628.514,1.134,1.134,0,0,0-.061.858,18.592,18.592,0,0,0,.759,2.02s.107-.026.285-.066v.223l.021,1.121a7.832,7.832,0,0,1,.052,1.318c-.051.179-.115,1.023-.153,1.463-.013.16-.019.268-.019.268s0,1,1.913.7,2.257-1.129,2.257-1.129a.549.549,0,0,1,.014-.1c.029-.191.091-.595.141-.819a6.278,6.278,0,0,0-.551-1.656,3.711,3.711,0,0,0-.277-1.129,1.062,1.062,0,0,1-.138-.4c-.016-.076-.03-.155-.041-.232a1.157,1.157,0,0,1,.127.025s-.1-.659.294-.866a.655.655,0,0,0,.241-.828,6.927,6.927,0,0,1,.155-1.242.656.656,0,0,1,.138-.6,8.308,8.308,0,0,0,.431-2.108l.034-7.114a7.483,7.483,0,0,0-.016-1.767,3.272,3.272,0,0,1-.087-1.75c.189-.264.017-1.486.017-1.486a16.41,16.41,0,0,1,.259-3.218,30.786,30.786,0,0,0,.172-4.686l.068-2.651s.564-.586.431-3.64a4.172,4.172,0,0,1,1.378.025c.189.17,1.413,1.035,2.137.49A9.838,9.838,0,0,0,800,257.6l-.3-5.643c.189.314.3.524.3.524,0-.79,2.033-3.35,2.033-3.35a35.8,35.8,0,0,1,2.309-3.011,9.714,9.714,0,0,0,1.224-2.014,8.544,8.544,0,0,1,.415-.941C806.18,242.819,805.558,241.915,805.627,241.708Zm-4.448,1.974c-.517.057-1.607,1.356-1.62,1.641a1.192,1.192,0,0,1-.23.5c-.008-.114-.017-.23-.025-.347-.122-1.663-.254-3.689-.194-3.886a12.372,12.372,0,0,0,.069-1.862h0l.018-.029a9.7,9.7,0,0,0,1.427,2.573s.19.6.413.621S801.179,243.683,801.179,243.683Z" transform="translate(-691.695 -193.973)" fill="url(#linear-gradient)"/>
    <path id="Path_1946" data-name="Path 1946" d="M795.34,399.4s.628-3.623,2.65-3.642l1.478,3.343-.985.747A8.448,8.448,0,0,1,795.34,399.4Z" transform="translate(-713.488 -350.121)" fill="#65617d"/>
    <path id="Path_1947" data-name="Path 1947" d="M799.468,399.129l-.985.747a10.589,10.589,0,0,1-2.583-.239,2.911,2.911,0,0,1-.559-.21.226.226,0,0,1,.011-.058v-.014a8.782,8.782,0,0,1,.382-1.331c.063-.163.133-.331.209-.5a3.279,3.279,0,0,1,1.281-1.544,1.618,1.618,0,0,1,.674-.193h.09l.032.074.5,1.129Z" transform="translate(-713.488 -350.147)" opacity="0.1"/>
    <path id="Path_1948" data-name="Path 1948" d="M965.544,469.736a10.326,10.326,0,0,1,2.31-.056c.186.168,1.393,1.026,2.107.485s.238-2.428.238-2.5-.068-2.746-.068-2.746l-1.275-1.886-1.6-3.305L964,459.37l.085,5.249-.017,2.689Z" transform="translate(-862.782 -405.7)" fill="#65617d"/>
    <path id="Path_1949" data-name="Path 1949" d="M965.544,469.736a10.326,10.326,0,0,1,2.31-.056c.186.168,1.393,1.026,2.107.485s.238-2.428.238-2.5-.068-2.746-.068-2.746l-1.275-1.886-1.6-3.305L964,459.37l.085,5.249-.017,2.689Z" transform="translate(-862.782 -405.7)" opacity="0.1"/>
    <path id="Path_1950" data-name="Path 1950" d="M777.4,371.213s-.17,2.279-1.461,2.315c0,0-.366-.242-.859-.646-1.135-.933-2.934-2.727-2.437-4.4.713-2.39,4.178,2.02,4.178,2.02l.265.328Z" transform="translate(-693.324 -325.67)" fill="#fbbebe"/>
    <path id="Path_1951" data-name="Path 1951" d="M796,392.379s-.17,2.279-1.461,2.315c0,0-.366-.242-.859-.646l-.109-.155a1.579,1.579,0,0,0,.707.21.955.955,0,0,0,.919-.64,8.446,8.446,0,0,0,.357-.9,2.842,2.842,0,0,0,.133-.558Z" transform="translate(-711.921 -346.835)" opacity="0.1"/>
    <path id="Path_1952" data-name="Path 1952" d="M796.217,395.154l-.291-.412-.978-1.389-.5-.708a1.563,1.563,0,0,0,.707.21.94.94,0,0,0,.919-.639,8.609,8.609,0,0,0,.357-.905c.161-.505.158-.758.1-.85a4.96,4.96,0,0,1,.562.548l.007.008.094.1.034.076.493,1.082v.045C797.772,392.665,797.938,394.845,796.217,395.154Z" transform="translate(-712.7 -345.48)" fill="#e7effd"/>
    <path id="Path_1953" data-name="Path 1953" d="M825.567,787.915s-1.427,1.028-2.14.884a2.415,2.415,0,0,0-1.444.263,4.288,4.288,0,0,1-1.8,1.289,6.016,6.016,0,0,1-3.685-.076c-.434-.159-.47-.364-.261-.617a7.287,7.287,0,0,1,1.378-1.026,13.792,13.792,0,0,0,2.428-2.272.842.842,0,0,1,.222-.54,2.811,2.811,0,0,0,.345-.394c.182-.237.354-.485.354-.485l4.2.134s.071.332.128.672a2.664,2.664,0,0,1,.058.673.653.653,0,0,0,.115.466l.076.758Z" transform="translate(-731.874 -690.169)" fill="#65617d"/>
    <path id="Path_1954" data-name="Path 1954" d="M942.073,791.572c-.051.223-.115.624-.139.812l-.015.1s-.344.822-2.224,1.121-1.885-.692-1.885-.692.007-.106.018-.266c.033-.437.1-1.274.152-1.452a7.383,7.383,0,0,0-.052-1.308l-.019-1.112-.015-.773,3.127-.356a6.809,6.809,0,0,0,.1.765,1.04,1.04,0,0,0,.137.393,3.723,3.723,0,0,1,.271,1.121A6.259,6.259,0,0,1,942.073,791.572Z" transform="translate(-839.599 -692.537)" fill="#65617d"/>
    <path id="Path_1955" data-name="Path 1955" d="M859.68,784.96s.071.332.127.672c-.453.092-2.435.47-2.93.206a7.18,7.18,0,0,0-1.767-.467l.019-.076c.183-.237.354-.485.354-.485Z" transform="translate(-766.395 -690.056)" opacity="0.1"/>
    <path id="Path_1956" data-name="Path 1956" d="M941.75,788.415a11.257,11.257,0,0,0-3.215.364l-.015-.773,3.127-.356A6.774,6.774,0,0,0,941.75,788.415Z" transform="translate(-840.228 -692.537)" opacity="0.1"/>
    <path id="Path_1957" data-name="Path 1957" d="M867.307,491.108l-.068,2.633a30.892,30.892,0,0,1-.17,4.651,16.463,16.463,0,0,0-.255,3.194s.17,1.213-.017,1.474a3.267,3.267,0,0,0,.085,1.737,7.534,7.534,0,0,1,.017,1.756l-.034,7.059a8.3,8.3,0,0,1-.425,2.092.656.656,0,0,0-.135.6,6.964,6.964,0,0,0-.153,1.233.653.653,0,0,1-.238.821c-.39.2-.289.86-.289.86a12.079,12.079,0,0,0-3.583.412,18.527,18.527,0,0,1-.747-2,1.126,1.126,0,0,1,.06-.85.955.955,0,0,1,.62-.512c.356-.057-.255-.747-.255-.747s.068-.093-.1-.765a11.791,11.791,0,0,1,.085-2.84l.305-2.614a26.309,26.309,0,0,1-.033-2.857,2.71,2.71,0,0,0,.272-1.55,20.526,20.526,0,0,1-.443-2.82c0-.131-.219-3.156-.219-3.156s-.2-2.111-.153-2.559a18.064,18.064,0,0,0-.137-2.11,7.683,7.683,0,0,0-.73-2.877l-.018.054-1.574,4.56s-.255,1.381-.475,2.165a15.405,15.405,0,0,0-.332,1.622l-.015.1a.693.693,0,0,1-.015.1l-.01.076h0a3.343,3.343,0,0,1-.069,1.308,5.093,5.093,0,0,0-.39,1.531c0,.261.017,1.27.017,1.27a9.644,9.644,0,0,1-.115,2.223.386.386,0,0,0-.086.41,7.065,7.065,0,0,1,.17,1.905,4.33,4.33,0,0,0-.033,1.307s-.272,2.9-.305,3.045-.222,1.308-.017,1.4a2.864,2.864,0,0,1,.594.653s.086,2.448-.22,2.633-.137,1.136-.137,1.136-2.462.523-3.022.224a7.163,7.163,0,0,0-1.767-.467l.169-.614c-.01.021-.123.221-.2-.544-.084-.8.629-.412.629-.412s.56.15-.345-.821a1.673,1.673,0,0,1-.408-1.962,13.6,13.6,0,0,0,.171-1.437,5.249,5.249,0,0,0,.033-1.533c-.119-.673-.22-2.765-.22-2.765a11.179,11.179,0,0,0-.068-2.165,5.029,5.029,0,0,1,.153-1.868c.052-.242-.159-2.459-.159-2.459a7.569,7.569,0,0,0,.068-1.81,33.776,33.776,0,0,1,.1-3.587l.305-3.25a7.557,7.557,0,0,0,.187-1.42,12.671,12.671,0,0,1,.256-1.848,2.2,2.2,0,0,1,.135-.9,7.551,7.551,0,0,0,.238-1.606l1.632-4.109.8-3.623,10.785-.112s.04.314.106.884.157,1.415.26,2.459c.094.948.2,2.063.3,3.3C868,490.4,867.307,491.108,867.307,491.108Z" transform="translate(-764.023 -423.542)" fill="#3f3d56"/>
    <path id="Path_1958" data-name="Path 1958" d="M929.051,289.272l-2.515,2.952s-3.226-1.42-2.887-1.9a2.958,2.958,0,0,0,.035-1.435c-.115-1.035-.374-2.226-.374-2.226s5.639-1.01,5.167.037a1.873,1.873,0,0,0-.036,1.241A4.865,4.865,0,0,0,929.051,289.272Z" transform="translate(-826.764 -254.408)" fill="#fbbebe"/>
    <path id="Path_1959" data-name="Path 1959" d="M928.474,286.707c-.173.379-.256.419-.148.832-.737.867-1.675,1.819-2.842,1.819a3.729,3.729,0,0,1-1.8-.463c-.115-1.035-.374-2.226-.374-2.226S928.949,285.66,928.474,286.707Z" transform="translate(-826.765 -254.419)" opacity="0.1"/>
    <path id="Path_1960" data-name="Path 1960" d="M915.112,243.906a4.062,4.062,0,1,1-8.087,0c0-.021,0-.043,0-.063a4.061,4.061,0,1,1,8.086.063Z" transform="translate(-812.349 -213.525)" fill="#fbbebe"/>
    <path id="Path_1961" data-name="Path 1961" d="M894.9,490.142c-.535,0-2.318.021-4.312.056h-.024l-.658.013h-.021c-2.363.042-4.693-.466-5.626-.37-1.986.2.714-2.02.714-2.02a15.181,15.181,0,0,0,4.527.5l.574-.033a22.3,22.3,0,0,0,4.569-.612C894.7,488.258,894.8,489.1,894.9,490.142Z" transform="translate(-791.55 -430.436)" opacity="0.1"/>
    <path id="Path_1962" data-name="Path 1962" d="M894.9,489.26c-.535,0-2.318.021-4.312.056h-.024l-.658.013h-.021c-2.363.042-4.693-.466-5.626-.37-1.986.206.714-2.02.714-2.02a15.183,15.183,0,0,0,4.527.5l.574-.033a22.407,22.407,0,0,0,4.569-.611C894.7,487.378,894.8,488.214,894.9,489.26Z" transform="translate(-791.55 -429.667)" fill="#5f5d7e"/>
    <path id="Path_1963" data-name="Path 1963" d="M890.1,315.512l-3.125,1.607-2.411,20.506s1.426-.71,2.242-.261,3.33.038,3.33.038a7.035,7.035,0,0,1,2.107.112c.27.225,3.463-.939,3.463-.939s.574-1.419.135-1.641.14-2.425.14-2.425l-.276-14.792-.544-1.9-1.461-.971-1.493,1.307-.713.112Z" transform="translate(-792.464 -279.416)" opacity="0.1"/>
    <path id="Path_1964" data-name="Path 1964" d="M890.1,313.733l-3.125,1.606-2.411,20.507s1.426-.71,2.242-.261,3.33.037,3.33.037a7.077,7.077,0,0,1,2.107.112c.27.223,3.465-.934,3.465-.934s.574-1.419.135-1.641.138-2.431.138-2.431l-.276-14.791-.544-1.9-1.461-.972-1.493,1.308-.713.112Z" transform="translate(-792.464 -277.861)" fill="#e7effd"/>
    <path id="Path_1965" data-name="Path 1965" d="M913.591,323.807a6.525,6.525,0,0,1,.884,1.42c-.016.244-.052.822-.052.822l-.68,1.515s-.373,1.886-.373,2.279-.595,3.787-.595,3.787l-.715,5.23-.9,6.855.919,1.736,1.086-1.01,1.444-12.215.305-2.409s.323-4.333.323-4.781-.186-1.625-.186-1.625a1.9,1.9,0,0,1,1.138-1.389c.917-.268-.068-.057-.068-.057l-.527-.466-.459.2S913.863,323.284,913.591,323.807Z" transform="translate(-816.01 -286.983)" opacity="0.1"/>
    <path id="Path_1966" data-name="Path 1966" d="M912.719,322.979a6.5,6.5,0,0,1,.884,1.419c-.017.242-.052.822-.052.822l-.679,1.515s-.374,1.886-.374,2.279-.595,3.787-.595,3.787l-.713,5.229-.9,6.855.919,1.737,1.087-1.01,1.443-12.214.307-2.407s.323-4.333.323-4.781-.186-1.625-.186-1.625a1.882,1.882,0,0,1,1.138-1.382c.917-.261-.068-.056-.068-.056l-.527-.467-.459.206S912.991,322.455,912.719,322.979Z" transform="translate(-815.24 -286.266)" fill="#eb2424"/>
    <path id="Path_1967" data-name="Path 1967" d="M921.03,309.51s-.137.112-.17.86a16.136,16.136,0,0,1-.51,2.428s1.767-1.345,2.65-1.2Z" transform="translate(-824.144 -274.759)" opacity="0.1"/>
    <path id="Path_1968" data-name="Path 1968" d="M921.03,307.74s-.137.111-.17.858a16.137,16.137,0,0,1-.51,2.428s1.767-1.344,2.65-1.194Z" transform="translate(-824.144 -273.213)" fill="#e7effd"/>
    <path id="Path_1969" data-name="Path 1969" d="M946.788,304.78,944,307.469a28.075,28.075,0,0,1,2.65,1.905c.306.374.611-3.661.611-3.661Z" transform="translate(-845.079 -270.626)" opacity="0.1"/>
    <path id="Path_1970" data-name="Path 1970" d="M947.7,303l-2.786,2.69a28.368,28.368,0,0,1,2.651,1.905c.308.374.611-3.661.611-3.661Z" transform="translate(-845.884 -269.071)" fill="#e7effd"/>
    <path id="Path_1971" data-name="Path 1971" d="M864.736,309.316s-.305-.168-.594.318a1.966,1.966,0,0,1-.832.71s-3.092.542-3.215.99l-1.444.093s-.51.074-.56,1.251-.323,1.289-.323,1.289a4.768,4.768,0,0,0-.543,1.755.992.992,0,0,1-.459.9l2.123,6.07a12.441,12.441,0,0,1-.323,3.417,46.91,46.91,0,0,0-1.121,4.968s.305-.074.288.149-.363,2.671-.363,2.671a5.851,5.851,0,0,1-.272,1.308,10.411,10.411,0,0,0-.187,2.091l-.271,1.27s.645,1.588,1.631,1.363,2.768-4.463,2.768-4.463l1.139-4.576.883-4.52.255-3.063.408-6.779.595-4.483S864.975,309.63,864.736,309.316Z" transform="translate(-767.75 -274.565)" opacity="0.1"/>
    <path id="Path_1972" data-name="Path 1972" d="M863.767,307.545s-.307-.168-.595.317a1.955,1.955,0,0,1-.832.709s-3.091.542-3.215.99l-1.444.093s-.509.076-.56,1.252-.323,1.288-.323,1.288a4.779,4.779,0,0,0-.543,1.756.989.989,0,0,1-.459.9l2.124,6.07a12.482,12.482,0,0,1-.323,3.417,47.293,47.293,0,0,0-1.122,4.969s.305-.076.289.149-.374,2.67-.374,2.67a5.842,5.842,0,0,1-.272,1.308,10.4,10.4,0,0,0-.186,2.092l-.272,1.27s.645,1.587,1.63,1.363,2.772-4.464,2.772-4.464l1.138-4.575.883-4.52.255-3.064.408-6.779.595-4.482S864.005,307.862,863.767,307.545Z" transform="translate(-766.882 -273.018)" fill="#65617d"/>
    <path id="Path_1973" data-name="Path 1973" d="M798.671,398.325l-.985.747a10.586,10.586,0,0,1-2.583-.239l-.548-.268-.115-.053.115.039a2.049,2.049,0,0,0,1.361.053c1.394-.516,1.24-3.047,1.186-3.619a.531.531,0,0,0-.011-.109.031.031,0,0,1,0-.008l.008.015a.824.824,0,0,0,.064.1c.019.024.04.049.062.073h0l.493,1.082v.045Z" transform="translate(-712.691 -349.343)" opacity="0.1"/>
    <path id="Path_1974" data-name="Path 1974" d="M802.879,364.4l-.477.149-.068,1.064s-.56-.094-.713.631a2.715,2.715,0,0,1-.425,1.065,3.252,3.252,0,0,0-.985,1.587l-.574.393s-1.342-.337-1.648-.934c0,0,.612,4.819-2.65,3.642,0,0,3.652,1.755,3.822,2a2,2,0,0,0,2.31.355,2.66,2.66,0,0,0,1.24-1.515,16.075,16.075,0,0,0,1.018-1.737c.033-.222.8-.486.8-.486l1.46-3.884Z" transform="translate(-713.488 -322.72)" fill="#65617d"/>
    <path id="Path_1975" data-name="Path 1975" d="M962.242,305.466l.493-2.466a3.029,3.029,0,0,0,.442.99l.73.617a4,4,0,0,0,.985.372,5.444,5.444,0,0,1,1.8.6c.17.206.85.056.85.056s.56.206,1.053.336.73,1.028.628,1.389a1.153,1.153,0,0,0,.238,1.01,2.569,2.569,0,0,1,.307.953,1.027,1.027,0,0,1,.574.542,4.077,4.077,0,0,1,.115,1.307l-2.526,3.922a12.639,12.639,0,0,1-.068,1.849c-.1.335.356,6.051.356,6.051l.527,9.823a9.629,9.629,0,0,1-.85.728,25.7,25.7,0,0,1-.305-3.6c0-.131-3.923-6.462-3.923-6.462a6.055,6.055,0,0,1-.527-1.136c0-.2-.492-2.092-.492-2.092l-.748-3.642Z" transform="translate(-860.924 -269.071)" opacity="0.1"/>
    <path id="Path_1976" data-name="Path 1976" d="M972.355,310.953v.215l-2.526,3.914h0a12.61,12.61,0,0,1-.066,1.848c-.06.2.07,2.205.19,3.857.085,1.19.165,2.194.165,2.194l.224,4.166.3,5.656a9.591,9.591,0,0,1-.849.728,25.715,25.715,0,0,1-.305-3.6c0-.131-3.925-6.461-3.925-6.461a6.134,6.134,0,0,1-.527-1.136c0-.2-.493-2.092-.493-2.092L963.8,316.6l.339-11.131.278-2.464a5.43,5.43,0,0,0,.645.99l.73.616a3.962,3.962,0,0,0,.985.379,5.448,5.448,0,0,1,1.8.6c.17.206.848.056.848.056s.56.206,1.053.336.731,1.028.629,1.389a1.151,1.151,0,0,0,.238,1.01,2.572,2.572,0,0,1,.305.952,1.032,1.032,0,0,1,.574.543A3.13,3.13,0,0,1,972.355,310.953Z" transform="translate(-862.606 -269.071)" fill="#65617d"/>
    <path id="Path_1977" data-name="Path 1977" d="M857.48,760.14c.084,0,3.651.149,3.584.784S857.48,760.14,857.48,760.14Z" transform="translate(-768.493 -668.5)" opacity="0.1"/>
    <path id="Path_1978" data-name="Path 1978" d="M864.43,768.57s2.4.429,1.766.822S864.43,768.57,864.43,768.57Z" transform="translate(-774.645 -675.866)" opacity="0.1"/>
    <path id="Path_1979" data-name="Path 1979" d="M942,756.88s3.975.379,3.38.86a4.9,4.9,0,0,1-2.067.578C943.252,758.337,942,756.88,942,756.88Z" transform="translate(-843.308 -665.652)" opacity="0.1"/>
    <path id="Path_1980" data-name="Path 1980" d="M937.81,772.12s2.208.41,2.276.884S937.81,772.12,937.81,772.12Z" transform="translate(-839.599 -678.968)" opacity="0.1"/>
    <path id="Path_1981" data-name="Path 1981" d="M948.46,683.06s2.021.523,2.14.884Z" transform="translate(-849.027 -601.151)" opacity="0.1"/>
    <path id="Path_1982" data-name="Path 1982" d="M876.865,695.78s-1.053.336-.033,1.01S876.865,695.78,876.865,695.78Z" transform="translate(-785.229 -612.265)" opacity="0.1"/>
    <path id="Path_1983" data-name="Path 1983" d="M921.24,550.477c.115,0,1.97-.672,2.616-.379a3.962,3.962,0,0,0,1.443.3Z" transform="translate(-824.932 -484.91)" opacity="0.1"/>
    <path id="Path_1984" data-name="Path 1984" d="M904.774,563.366l-.018.185-1.579,4.56s-.255,1.381-.475,2.165a15.391,15.391,0,0,0-.332,1.622l1.4-9.559Z" transform="translate(-808.229 -495.671)" opacity="0.1"/>
    <path id="Path_1985" data-name="Path 1985" d="M936.584,493.554l-.658.013h-.021l-.386-1.882.574-.034Z" transform="translate(-837.573 -433.905)" fill="#3f3d56"/>
    <path id="Path_1986" data-name="Path 1986" d="M961.863,476.236l-.424.379-1.411,1.279s-3.822,2.242-4.875.112c-.928-1.876,3.406-3.215,4.449-3.507.141-.039.222-.059.222-.059Z" transform="translate(-854.837 -418.868)" fill="#fbbebe"/>
    <path id="Path_1987" data-name="Path 1987" d="M872.42,343.24s.747.379.919.9S872.42,343.24,872.42,343.24Z" transform="translate(-781.718 -304.231)" opacity="0.1"/>
    <path id="Path_1988" data-name="Path 1988" d="M846.51,387.62s-1.087,1.457-.645,2.02S846.51,387.62,846.51,387.62Z" transform="translate(-758.118 -343.008)" opacity="0.1"/>
    <path id="Path_1989" data-name="Path 1989" d="M1013.423,349.75a1.171,1.171,0,0,0-1.053,1.083Z" transform="translate(-905.599 -309.919)" opacity="0.1"/>
    <path id="Path_1990" data-name="Path 1990" d="M939.29,446.1c.1-.112,2.446-3.922,2.985-3.585Z" transform="translate(-840.909 -390.954)" opacity="0.1"/>
    <path id="Path_1991" data-name="Path 1991" d="M915.117,243.906a4.774,4.774,0,0,1-.479,2.1l-.03-.006c-.256-.059-.389-.388-.586-.592a.742.742,0,0,0-.919-.141,1.059,1.059,0,0,0-.45.958c-.13-.6-.088-1.233-.215-1.833s-.506-1.206-1.028-1.216c-.23,0-.486.09-.649-.095a2.369,2.369,0,0,1-.191-.423c-.372-.661-1.505-.327-1.968.013a12.045,12.045,0,0,1-1.574,1.174,4.061,4.061,0,1,1,8.086.063Z" transform="translate(-812.354 -213.525)" opacity="0.1"/>
    <path id="Path_1992" data-name="Path 1992" d="M902.7,225.951a2.251,2.251,0,0,0,.191.422c.162.186.425.09.649.095.521.01.9.616,1.028,1.216s.085,1.235.215,1.833a1.056,1.056,0,0,1,.451-.958.742.742,0,0,1,.919.141c.2.2.329.533.586.592s.5-.211.6-.5a8.674,8.674,0,0,0,.147-.93,12.251,12.251,0,0,1,.652-1.615,3.2,3.2,0,0,0-.017-2.086c-.127-.351-.317-.667-.447-1.016-.2-.533-.246-1.136-.485-1.641a1.7,1.7,0,0,0-2.116-.954c-.369.151-.689.447-1.064.579a3.2,3.2,0,0,1-1.558-.035,1.784,1.784,0,0,0-1.512.288c-.481.433-.612,1.246-1.064,1.721-.189.2-.425.327-.625.5a.942.942,0,0,0-.344.757c.03.386.374.737.247,1.1a.881.881,0,0,1-.188.274,4.006,4.006,0,0,0-.822,1.538c.908.313,1.892-.789,2.6-1.31C901.2,225.624,902.332,225.289,902.7,225.951Z" transform="translate(-804.484 -196.932)" fill="#7c5c5c"/>
    <path id="Path_1993" data-name="Path 1993" d="M996.647,476.236l-.424.379a13.081,13.081,0,0,0-1.9-2.045l.067-.071c.141-.039.222-.059.222-.059Z" transform="translate(-889.621 -418.868)" opacity="0.1"/>
    <path id="Path_1994" data-name="Path 1994" d="M997.843,471.429s-.153.417-.309.775-.328.687-.336.42c-.017-.523-1.987-2.279-1.987-2.279l.267-.285.309-.331Z" transform="translate(-890.409 -414.752)" fill="#e7effd"/>
    <path id="Path_1995" data-name="Path 1995" d="M998.034,446.1l.224,4.166c-.528-.9-1.977-3.215-2.908-3.141l2.256-2.854a3.338,3.338,0,0,0,.259-.365C997.951,445.1,998.034,446.1,998.034,446.1Z" transform="translate(-890.533 -392.192)" opacity="0.1"/>
    <path id="Path_1996" data-name="Path 1996" d="M999.905,471.412s-.153.417-.309.775c-.592-.893-1.406-1.947-2.056-2.146l.309-.331Z" transform="translate(-892.471 -414.735)" opacity="0.1"/>
    <path id="Path_1997" data-name="Path 1997" d="M1000.426,363.51l.612.523a1.132,1.132,0,0,1,1.121.953,1.883,1.883,0,0,0,1.033,1.363s.7.765.7,1.12.527.99.527,1.047a6.512,6.512,0,0,1,.441,1.4c-.069.2.544,1.1.357,1.438a8.668,8.668,0,0,0-.408.934,9.6,9.6,0,0,1-1.206,2,35.267,35.267,0,0,0-2.277,2.988s-2,2.54-2,3.324c0,0-1.952-3.585-3.109-3.492l2.26-2.858a1.942,1.942,0,0,0,.408-.746c.017-.28,1.087-1.569,1.6-1.625,0,0,.084-.766-.137-.785s-.408-.616-.408-.616-1.493-1.942-1.512-3.175S1000.426,363.51,1000.426,363.51Z" transform="translate(-891.294 -321.942)" fill="#65617d"/>
    <path id="Path_1998" data-name="Path 1998" d="M1031.8,377.56s-1.426,1.159-1.121,1.531S1031.8,377.56,1031.8,377.56Z" transform="translate(-921.768 -334.218)" opacity="0.1"/>
    <path id="Path_1999" data-name="Path 1999" d="M1041.36,412.566s2.65-.934,2.922,0Z" transform="translate(-931.26 -364.442)" opacity="0.1"/>
    <path id="Path_2000" data-name="Path 2000" d="M825.567,806.728s-1.427,1.028-2.14.884a2.415,2.415,0,0,0-1.444.263,4.288,4.288,0,0,1-1.8,1.289,6.016,6.016,0,0,1-3.685-.076c-.434-.159-.47-.364-.261-.617,1,.218,3.226.654,3.827.337a15.849,15.849,0,0,0,1.9-1.308s1.462-.223,1.665-.223a17.475,17.475,0,0,0,1.911-.805Z" transform="translate(-731.874 -708.981)" opacity="0.1"/>
    <path id="Path_2001" data-name="Path 2001" d="M941.934,825.15l-.015.1s-.344.822-2.224,1.121-1.885-.692-1.885-.692.007-.106.018-.266A5.683,5.683,0,0,0,941.934,825.15Z" transform="translate(-839.599 -725.303)" opacity="0.1"/>
    <path id="Path_2002" data-name="Path 2002" d="M875.286,375.79s0,4.258-.332,4.679S875.286,375.79,875.286,375.79Z" transform="translate(-783.878 -332.672)" opacity="0.1"/>
    <path id="Path_2003" data-name="Path 2003" d="M1011.92,386.66l.493,1.522S1012.609,386.688,1011.92,386.66Z" transform="translate(-905.2 -342.169)" opacity="0.1"/>
    <g id="Group_152" data-name="Group 152" transform="translate(93.647 27.096)" opacity="0.1">
      <path id="Path_2004" data-name="Path 2004" d="M905.005,249.941c.124-.351-.2-.694-.245-1.071a.763.763,0,0,0-.054.338,7.2,7.2,0,0,0,.262.809A.524.524,0,0,0,905.005,249.941Z" transform="translate(-903.943 -248.87)"/>
      <path id="Path_2005" data-name="Path 2005" d="M904.77,262.121c-.122-.588-.086-1.212-.21-1.8s-.506-1.206-1.026-1.216c-.23,0-.487.091-.649-.093-.1-.111-.115-.288-.192-.423-.372-.663-1.5-.327-1.968.013-.689.505-1.649,1.569-2.54,1.329-.043.112-.081.227-.115.345.908.313,1.892-.789,2.6-1.31.459-.338,1.6-.674,1.968-.011a2.246,2.246,0,0,0,.191.422c.162.186.425.09.649.095.521.01.9.616,1.028,1.216s.085,1.235.215,1.833A1.126,1.126,0,0,1,904.77,262.121Z" transform="translate(-898.07 -257.028)"/>
      <path id="Path_2006" data-name="Path 2006" d="M959,281.405c-.092.3-.334.568-.6.5s-.389-.388-.584-.593a.749.749,0,0,0-.919-.14,1.045,1.045,0,0,0-.451.9.966.966,0,0,1,.4-.54.742.742,0,0,1,.918.141c.2.2.33.533.586.592s.5-.211.6-.5a2.761,2.761,0,0,0,.093-.537A1.512,1.512,0,0,1,959,281.405Z" transform="translate(-949.744 -277.012)"/>
      <path id="Path_2007" data-name="Path 2007" d="M980.212,260.67a12.473,12.473,0,0,0-.652,1.615c-.023.117-.037.237-.049.359a12.318,12.318,0,0,1,.651-1.61,3.126,3.126,0,0,0,.157-.774A3.058,3.058,0,0,1,980.212,260.67Z" transform="translate(-970.159 -258.822)"/>
    </g>
    <ellipse id="Ellipse_466" data-name="Ellipse 466" cx="0.041" cy="0.045" rx="0.041" ry="0.045" transform="translate(79.111 42.376)" fill="#e6e8ec"/>
    <ellipse id="Ellipse_467" data-name="Ellipse 467" cx="9.914" cy="1.112" rx="9.914" ry="1.112" transform="translate(83.906 98.903)" fill="#eb2424" opacity="0.1"/>
    <path id="Path_2008" data-name="Path 2008" d="M350.6,243.631,320.57,265.05l19.6,38.858a1.392,1.392,0,0,0,.873.732l17.755,4.762a1.334,1.334,0,0,0,1.555-.809l8.807-20.117,9.652-14.186L355.9,244.5A3.808,3.808,0,0,0,350.6,243.631Z" transform="translate(-293.231 -216.571)" fill="#dcdfed"/>
    <path id="Path_2009" data-name="Path 2009" d="M381.457,275.606l-.085.126-5.654,8.311-.1.15-3.811,5.6L364.273,307l-.211.481L363,309.912a1.334,1.334,0,0,1-1.557.809l-17.755-4.764a1.39,1.39,0,0,1-.873-.732l-1.707-3.379-.307-.609-12.324-24.448-.106-.208-5.151-10.213.622-.444,4.718-3.364.109-.078,9.935-7.087.627-.447,14.014-10a3.807,3.807,0,0,1,5.307.863L369,259.408l.459.606,7.584,9.865.041.054,3.813,4.959.48.625Z" transform="translate(-295.577 -217.72)" opacity="0.1"/>
    <path id="Path_2010" data-name="Path 2010" d="M412.739,342.768l-.925,7.07-.279,2.134-.16,4.545-.013.355-.83,23.746A1.558,1.558,0,0,1,410,381.75a1.275,1.275,0,0,1-1.133.277l-8.949-2.2-.1-.024-22.951-5.632-.421-.1-12.618-3.1.289-21.35.009-.713.087-6.462.1-7.133,9.935-7.087.627-.447c9.215,1.039,21.471,3.037,29.774,4.463l.459.606,7.578,9.865Z" transform="translate(-331.524 -290.723)" opacity="0.1"/>
    <path id="Path_2011" data-name="Path 2011" d="M412.9,333.075l-1.09,8.332-1,7.63-.279,2.128-.16,4.545-.843,24.1a1.558,1.558,0,0,1-.533,1.133,1.275,1.275,0,0,1-1.133.277L398.82,379l-22.951-5.632-13.039-3.2.3-22.064.087-6.462.1-7.559.1-7.775a71.336,71.336,0,0,1,9.94.61c9.484,1.047,22.413,3.164,30.866,4.622C409.4,332.431,412.9,333.075,412.9,333.075Z" transform="translate(-330.639 -289.412)" fill="#eb2424"/>
    <path id="Path_2012" data-name="Path 2012" d="M378.268,423.7l-4.853,2.617-24.77,13.357L325.817,418.93l-4.615-4.2-.622.444,5.151,10.213-.3,22.063,13.039,3.2,1.7,3.38a1.39,1.39,0,0,0,.873.732l17.755,4.762a1.334,1.334,0,0,0,1.553-.809l1.063-2.428,9.046,2.221a1.275,1.275,0,0,0,1.133-.277,1.558,1.558,0,0,0,.533-1.133l.843-24.1,5.756-8.458.016-.213Z" transform="translate(-293.24 -366.696)" opacity="0.1"/>
    <path id="Path_2013" data-name="Path 2013" d="M304.769,418.25,302.722,456.8a1.49,1.49,0,0,0,1.069,1.557l54.37,13.275a1.273,1.273,0,0,0,1.107-.26,1.547,1.547,0,0,0,.55-1.087L363,427.49l-30.169,16.269Z" transform="translate(-277.43 -369.771)" fill="#dcdfed"/>
    <path id="Path_2014" data-name="Path 2014" d="M305.129,595.672l28.246-19.16a1.944,1.944,0,0,1,2.641.455L361.3,609.385c.092.116.137.033,0,0l-56.168-13.713C304.969,595.633,304.989,595.764,305.129,595.672Z" transform="translate(-279.464 -507.765)" opacity="0.1"/>
    <path id="Path_2015" data-name="Path 2015" d="M306.63,599.414l27.954-18.567a2.055,2.055,0,0,1,2.788.482l25.053,31.678a.359.359,0,0,1,.031.387.292.292,0,0,1-.324.155l-55.411-13.528a.319.319,0,0,1-.233-.27A.344.344,0,0,1,306.63,599.414Z" transform="translate(-280.762 -511.538)" fill="#e3e5f1"/>
  </g>
</svg>
