<svg xmlns="http://www.w3.org/2000/svg" width="113.118" height="114.018" viewBox="0 0 113.118 114.018">
  <g id="about-our-story" transform="translate(0 0)">
    <path id="Path_1703" data-name="Path 1703" d="M826.164,604.414s15.082.78,11.569,5.528-12.744-2.785-12.744-2.785Z" transform="translate(-729.065 -523.406)" fill="#ffb8b8"/>
    <path id="Path_1704" data-name="Path 1704" d="M627.3,313.448l3.07.767s1.791,5.372,3.07,10.233,3.837,19.443,3.837,19.443l19.833,13.9-2.365,5.292-26.422-10.413-5.884-23.1Z" transform="translate(-557.999 -277.662)" fill="#575a89"/>
    <path id="Path_1705" data-name="Path 1705" d="M433.251,291.607l-1.144,23.96,2.388,7.124-6.994-5.129Z" transform="translate(-361.058 -246.285)" opacity="0.2"/>
    <path id="Path_1706" data-name="Path 1706" d="M505.9,630.338s3.326,8.954,3.837,15.094,1.023,11,1.023,11H495.156l-3.07-4.6v4.6H473.923s-5.116-16.628-3.07-18.675,21.489-10.745,21.489-10.745Z" transform="translate(-429.561 -542.492)" fill="#2f2e41"/>
    <rect id="Rectangle_452" data-name="Rectangle 452" width="90.299" height="0.311" transform="translate(15.775 113.707)" fill="#3f3d56"/>
    <circle id="Ellipse_366" data-name="Ellipse 366" cx="9.721" cy="9.721" r="9.721" transform="translate(47.048 6.622)" fill="#ffb8b8"/>
    <path id="Path_1707" data-name="Path 1707" d="M521.157,214.688l-.767,11.256,9.721,13.047,4.861-12.28s-4.349-2.814-1.791-8.7Z" transform="translate(-471.807 -194.251)" fill="#ffb8b8"/>
    <path id="Path_1708" data-name="Path 1708" d="M466.143,320.683c0,2.3-6.4,5.884-6.4,5.884v1.279l-2.558,1.279-5.628-11.256-1.534,12.278s-11.257,1.792-14.838,0-5.373-1.023-10.489-2.813,2.047-25.839,2.047-25.839L421.631,264.4l11.178-5.589.589-.3,1.537-.283,2.356-.435,7.875,5.323.634,3.326.39,2.047,2.045-2.3,1.545-5.081,10.991,6.1-3.07,24.558S466.143,318.382,466.143,320.683Z" transform="translate(-388.398 -230.663)" fill="#575a89"/>
    <path id="Path_1709" data-name="Path 1709" d="M452.17,713.428s11.768,9.465,6.14,11.256-8.7-9.721-8.7-9.721Z" transform="translate(-412.03 -615.477)" fill="#ffb8b8"/>
    <path id="Path_1710" data-name="Path 1710" d="M382.483,300.792l-2.558-.512s-3.837,2.047-4.093,6.14-3.582,32.745-3.582,32.745l10.745,28.908,8.7-3.326L383.25,337.63l6.4-23.536Z" transform="translate(-346.691 -266.541)" fill="#575a89"/>
    <circle id="Ellipse_367" data-name="Ellipse 367" cx="0.933" cy="0.933" r="0.933" transform="translate(56.962 40.193)" fill="#2f2e41"/>
    <circle id="Ellipse_368" data-name="Ellipse 368" cx="0.933" cy="0.933" r="0.933" transform="translate(56.962 46.254)" fill="#2f2e41"/>
    <circle id="Ellipse_369" data-name="Ellipse 369" cx="0.933" cy="0.933" r="0.933" transform="translate(62.246 86.197)" fill="#2f2e41"/>
    <path id="Path_1711" data-name="Path 1711" d="M506.428,89.581l-1.8-.719s3.757-4.137,8.985-3.777l-1.47-1.619s3.594-1.439,6.862,2.338a31.892,31.892,0,0,1,4.944,6.948h1.924l-.8,1.769,2.811,1.769L525,95.972a9.882,9.882,0,0,1,.078,2.934,3.8,3.8,0,0,1-1.39,2.483h0s-2.229-4.613-2.229-5.333v1.8s-1.8-1.619-1.8-2.7l-.98,1.259h-6.535l.98-1.619-3.757.54,1.47-1.978-5.818,8.17S501.69,92.279,506.428,89.581Z" transform="translate(-457.866 -83.197)" fill="#2f2e41"/>
    <path id="Path_1713" data-name="Path 1713" d="M250.005,500.591l6.216,19.417-4.973-20.2Z" transform="translate(-211.149 -422.123)" opacity="0.2"/>
    <path id="Path_1714" data-name="Path 1714" d="M228.929,306.129h-3.946a.649.649,0,0,1-.649-.649v-5.672a.649.649,0,0,1,.649-.649h3.946a.649.649,0,0,1,.649.649v5.672A.649.649,0,0,1,228.929,306.129Zm-3.946-6.658a.338.338,0,0,0-.338.338v5.672a.338.338,0,0,0,.338.338h3.946a.338.338,0,0,0,.338-.338v-5.672a.338.338,0,0,0-.338-.338Z" transform="translate(-221.765 -265.595)" fill="#3f3d56"/>
    <path id="Path_1715" data-name="Path 1715" d="M276.337,272.627h-3.563a.841.841,0,0,1-.84-.84V260.333a.841.841,0,0,1,.84-.84h3.563a.841.841,0,0,1,.84.84v11.454A.841.841,0,0,1,276.337,272.627ZM272.774,259.8a.53.53,0,0,0-.529.529v11.454a.53.53,0,0,0,.529.529h3.563a.53.53,0,0,0,.529-.529V260.333a.53.53,0,0,0-.529-.529Z" transform="translate(-261.967 -232.093)" fill="#3f3d56"/>
    <path id="Path_1716" data-name="Path 1716" d="M323.8,241.806h-3.288a.979.979,0,0,1-.978-.977V223.977a.979.979,0,0,1,.978-.977H323.8a.979.979,0,0,1,.977.977v16.851A.979.979,0,0,1,323.8,241.806Zm-3.288-18.5a.667.667,0,0,0-.667.667v16.851a.667.667,0,0,0,.667.667H323.8a.667.667,0,0,0,.667-.667V223.977a.667.667,0,0,0-.667-.667Z" transform="translate(-302.169 -201.272)" fill="#3f3d56"/>
    <rect id="Rectangle_453" data-name="Rectangle 453" width="2.959" height="4.809" transform="translate(3.711 34.645)" fill="#eb2424"/>
    <rect id="Rectangle_454" data-name="Rectangle 454" width="2.959" height="10.912" transform="translate(11.109 28.542)" fill="#eb2424"/>
    <rect id="Rectangle_455" data-name="Rectangle 455" width="2.959" height="16.584" transform="translate(18.507 22.87)" fill="#eb2424"/>
    <path id="Path_1718" data-name="Path 1718" d="M232.513,223.712H207.956a.155.155,0,0,1-.155-.155v-24.4a.155.155,0,1,1,.311,0V223.4h24.4a.155.155,0,1,1,0,.311Z" transform="translate(-207.801 -181.002)" fill="#3f3d56"/>
    <g id="Group_183" data-name="Group 183" transform="translate(92.136 50.059)">
      <path id="Path_1717" data-name="Path 1717" d="M817.627,113.293H796.956a.155.155,0,0,1-.155-.155V92.155a.155.155,0,1,1,.311,0v20.826h20.516a.155.155,0,0,1,0,.311Z" transform="translate(-796.801 -92)" fill="#3f3d56"/>
      <path id="Path_1719" data-name="Path 1719" d="M818.733,178.6h-3.946a.649.649,0,0,1-.649-.649v-5.672a.649.649,0,0,1,.649-.649h3.946a.649.649,0,0,1,.649.649v5.672A.649.649,0,0,1,818.733,178.6Zm-3.946-6.658a.338.338,0,0,0-.338.338v5.672a.338.338,0,0,0,.338.338h3.946a.338.338,0,0,0,.338-.338v-5.672a.338.338,0,0,0-.338-.338Z" transform="translate(-811.444 -159.252)" fill="#3f3d56"/>
      <path id="Path_1720" data-name="Path 1720" d="M871.577,151.885h-3.632a.806.806,0,0,1-.806-.806V140.806a.806.806,0,0,1,.806-.806h3.632a.807.807,0,0,1,.806.806v10.273A.807.807,0,0,1,871.577,151.885Zm-3.632-11.574a.5.5,0,0,0-.495.495v10.273a.5.5,0,0,0,.495.495h3.632a.5.5,0,0,0,.495-.495V140.806a.5.5,0,0,0-.495-.495Z" transform="translate(-856.207 -132.54)" fill="#3f3d56"/>
      <rect id="Rectangle_456" data-name="Rectangle 456" width="2.959" height="4.809" transform="translate(3.766 13.51)" fill="#eb2424"/>
      <rect id="Rectangle_457" data-name="Rectangle 457" width="2.959" height="9.304" transform="translate(12.074 8.75)" fill="#eb2424"/>
      <circle id="Ellipse_372" data-name="Ellipse 372" cx="1.399" cy="1.399" r="1.399" transform="translate(3.886 7.926)" fill="#eb2424"/>
      <circle id="Ellipse_373" data-name="Ellipse 373" cx="1.399" cy="1.399" r="1.399" transform="translate(12.123 2.642)" fill="#eb2424"/>
    </g>
  </g>
</svg>
