<svg id="about-summary" xmlns="http://www.w3.org/2000/svg" xmlns:xlink="http://www.w3.org/1999/xlink" width="136.612" height="80.027" viewBox="0 0 136.612 80.027">
  <defs>
    <linearGradient id="linear-gradient" x1="-29.813" y1="3.039" x2="-29.813" y2="4.039" gradientUnits="objectBoundingBox">
      <stop offset="0" stop-color="gray" stop-opacity="0.251"/>
      <stop offset="0.54" stop-color="gray" stop-opacity="0.122"/>
      <stop offset="1" stop-color="gray" stop-opacity="0.102"/>
    </linearGradient>
  </defs>
  <rect id="Rectangle_471" data-name="Rectangle 471" width="45.007" height="0.311" transform="translate(0 77.757)" fill="#3f3d56"/>
  <path id="Path_1746" data-name="Path 1746" d="M290.24,279.118c.13.418.246.817.343,1.159l-.061.022C290.446,279.982,290.35,279.57,290.24,279.118Zm-3.614-10.177-.018.01.017-.016Z" transform="translate(-261.831 -254.072)" fill="url(#linear-gradient)"/>
  <path id="Path_1747" data-name="Path 1747" d="M247.471,692.148c-.68.218-1.19,4.4-1.19,4.4l4.226,1.044a13.811,13.811,0,0,0,4.372,0c1.408-.438,1.36-1.652-.656-1.846s-3.449-2.793-3.449-2.793S248.15,691.93,247.471,692.148Z" transform="translate(-227.105 -618.475)" fill="#2f2e41"/>
  <path id="Path_1748" data-name="Path 1748" d="M215.408,696.583a2.545,2.545,0,0,1-.164.981,8.575,8.575,0,0,0-.425,3.181q.014.193.031.4c.146,1.676,4.2.633,4.469.438s-.8-5-.8-5S215.341,695.9,215.408,696.583Z" transform="translate(-200.002 -622.06)" fill="#2f2e41"/>
  <path id="Path_1749" data-name="Path 1749" d="M251.091,223.97l0,0c.086.21,3.269,8.016,2.693,5.463a1.565,1.565,0,0,1-.034-.231,3.253,3.253,0,0,1,.723-2A9.866,9.866,0,0,1,255.484,226c.184-.191.375-.377.568-.557.53-.5,1.082-.951,1.57-1.331.878-.685,1.557-1.12,1.557-1.12s-6.156-7.177-5.72-4.081c.12.849.62,1.695.281,2.481a4.287,4.287,0,0,1-.93,1.328,7.037,7.037,0,0,1-1.006.826c-.154.1-.294.191-.407.257C251.209,223.912,251.091,223.97,251.091,223.97Z" transform="translate(-231.247 -210.326)" fill="#ffb9b9"/>
  <path id="Path_1750" data-name="Path 1750" d="M402.058,321.757s.242-.135.608-.3c1.075-.468,3.221-1.154,3.492.733a1.782,1.782,0,0,1-2.049,2.24,11.269,11.269,0,0,0-1.463-.444,1.88,1.88,0,0,0-.75-.047Z" transform="translate(-361.105 -298.857)" fill="#ffb9b9"/>
  <path id="Path_1751" data-name="Path 1751" d="M400.424,327.052h.726c.423-.571.1-2.741.1-2.741l-.632.114Z" transform="translate(-359.838 -301.755)" fill="#e6e6e6"/>
  <path id="Path_1752" data-name="Path 1752" d="M306.959,353.283l.121,6.387.8,3.012s.393,2.915.875,2.672,2.538.449,2.538.449l.1-1.08-.692-6.351-.535-3.17s-.3-2.49-.535-3.947-2.161-.3-2.161-.3Z" transform="translate(-279.355 -324.322)" fill="#2f2e41"/>
  <path id="Path_1753" data-name="Path 1753" d="M318.872,306.425a7.4,7.4,0,0,1,3.006,0l7.653.169a3.293,3.293,0,0,0,.419-3.5s-3.753-.147-6.795-.6a9.263,9.263,0,0,1-5.045-2.714Z" transform="translate(-288.958 -280.633)" fill="#2f2e41"/>
  <path id="Path_1754" data-name="Path 1754" d="M268,218.91c-.436-3.1,5.72,4.081,5.72,4.081s-.678.435-1.557,1.121c-.081.006-.162.006-.246.006a4.3,4.3,0,0,1-3.929-2.778A4.57,4.57,0,0,0,268,218.91Z" transform="translate(-245.789 -210.327)" opacity="0.1"/>
  <path id="Path_1755" data-name="Path 1755" d="M264.4,204.555a4.206,4.206,0,1,1,0,.02Z" transform="translate(-242.711 -195.016)" fill="#ffb9b9"/>
  <path id="Path_1756" data-name="Path 1756" d="M242.963,274.134l.228-13.981,2.441,1.278,2.025.48.513-.3.037-.022.083-.048s.027.059.08.168a59.1,59.1,0,0,1,2.554,5.916c-.048.436,1.539,5.937,1.539,5.937h0l-.765,5.21s1.452,3.618,1.068,4.955-10.851.412-10.851.412Z" transform="translate(-223.345 -246.509)" fill="#e6e6e6"/>
  <path id="Path_1757" data-name="Path 1757" d="M278.894,270.946l.813,1.044.131.3a9.833,9.833,0,0,1,.779,3.392v1.355l.17,10.856.935,1.669.17-2.065-.376-11.622-.511-2.627-.279-1.664a7.366,7.366,0,0,1-.389-.9.834.834,0,0,0-1-.522Z" transform="translate(-255.189 -255.113)" fill="#2f2e41"/>
  <path id="Path_1758" data-name="Path 1758" d="M253.122,252.164l.024.058.17.418.192.467a3.9,3.9,0,0,1,.626.5c.649.583,1.59,1.519,2.09,2.023l.344.347a4.257,4.257,0,0,0,.665-1.553c.027-.095.051-.186.074-.271.085-.323.136-.556.136-.556a14.233,14.233,0,0,1-2.884-2.453,7.04,7.04,0,0,1-1.006.826C253.509,251.845,253.122,252.164,253.122,252.164Z" transform="translate(-232.996 -238.748)" fill="#e6e6e6"/>
  <path id="Path_1759" data-name="Path 1759" d="M288.309,270.487a4.652,4.652,0,0,0,2.11.714s1.861.985,2.206,4.354,1.8,13.5,1.8,13.5,1.3,6.829.384,7.538l-1.02-8.36s-1.785-4.828-1.914-5.721c-.114-.813-1.534-5.26-1.783-6.039-.025-.073-.038-.114-.038-.114l-1.42-4.015-.82-2.2A4.449,4.449,0,0,0,288.309,270.487Z" transform="translate(-262.871 -255.113)" fill="#2f2e41"/>
  <path id="Path_1760" data-name="Path 1760" d="M214.113,443.4s1.432-9.887,1.044-11.221.267-11.193.267-11.193l.216-1.849.121-1.043.051-.436.25.077a36.9,36.9,0,0,0,7.4,1.357,5.646,5.646,0,0,0,1.656-.132,22.965,22.965,0,0,0,3.243-.741s.114.307.257.81a12.176,12.176,0,0,1,.443,5.273l-.584,3.825a32.01,32.01,0,0,1-.983,6.231l-.667,3.181-.875,6.484a38.831,38.831,0,0,0-.935,5.254,43.44,43.44,0,0,1-2.138,7.817s-3.867.534-3.982-.777l1.336-10.226,1.238-14.645s-1.342,9.137-2.113,11.105c0,0-1.069,11.217-1.433,12.945a10.225,10.225,0,0,1-.606,2.185s-2.259.827-3.279-.7c0,0-.291-4.54-.509-6.168S214.113,443.4,214.113,443.4Z" transform="translate(-198.871 -382.138)" fill="#2f2e41"/>
  <path id="Path_1761" data-name="Path 1761" d="M224.907,443.686l1.6.778-1.906,3.594c-.716-.668-.632-3.327-.632-3.327Z" transform="translate(-207.889 -404.55)" fill="#ffb9b9"/>
  <path id="Path_1762" data-name="Path 1762" d="M117.084,281.765l.729.571-.971,1.47-1.324.485-.11-.972Z" transform="translate(-99.378 -242.629)" fill="#e6e6e6"/>
  <g id="Group_118" data-name="Group 118" transform="translate(29.421 36.078)" opacity="0.1">
    <path id="Path_1763" data-name="Path 1763" d="M320.113,421.682a.035.035,0,0,1-.007-.017.617.617,0,0,1-.064.037Z" transform="translate(-320.042 -421.665)"/>
  </g>
  <path id="Path_1764" data-name="Path 1764" d="M190.906,279.454c.874,1.02,4.683,1.2,4.683,1.2l2.969-4.678.8-1.261a12.215,12.215,0,0,0,2.569-3.407,10.317,10.317,0,0,0,1.527-6.539c-.093-1.6-1.142-6.212-1.142-6.212a12.932,12.932,0,0,0-.385-1.376c-.364-1.149-.916-2.746-1.367-4.025-.081-.231-.159-.451-.233-.657-.137-.391.56-1.879.56-1.879-.246.492-1.792,1.3-2.33,1.641a11.575,11.575,0,0,1-3.476,1.288c-3.261.474-2.659,3.843-2.659,3.843s-.037,13.1.164,14.664S190.906,279.454,190.906,279.454Z" transform="translate(-179.422 -238.302)" fill="#2f2e41"/>
  <path id="Path_1765" data-name="Path 1765" d="M191.483,282.638s-1.384,6.012-1.767,9.728a10.432,10.432,0,0,0,1.057,6.083l3.078,6.831c1.057-.272,3.206-2.513,3.206-2.513l-3.084-8.543s1.143-4.314,1.858-8.288-1.18-5.757-1.18-5.757C191.481,278.979,191.483,282.638,191.483,282.638Z" transform="translate(-178.341 -263.546)" opacity="0.1"/>
  <path id="Path_1766" data-name="Path 1766" d="M190.43,282.638s-1.384,6.012-1.767,9.728a10.432,10.432,0,0,0,1.056,6.083l3.084,6.831c1.057-.272,3.206-2.513,3.206-2.513l-3.084-8.543s1.144-4.314,1.857-8.288-1.183-5.757-1.183-5.757C190.43,278.979,190.43,282.638,190.43,282.638Z" transform="translate(-177.434 -263.546)" fill="#2f2e41"/>
  <path id="Path_1767" data-name="Path 1767" d="M228.891,446.419l-.85,2.429-.947,1.3a.539.539,0,0,1-.886-.412c-.177-.886,2.222-4.215,2.222-4.215C228.809,445.37,228.891,446.419,228.891,446.419Z" transform="translate(-209.812 -406.116)" fill="#2f2e41"/>
  <path id="Path_1768" data-name="Path 1768" d="M256.4,192.142s-4.4-6.026,1.14-7.329c0,0,1.573-2.36,3.506-1.2a6.057,6.057,0,0,0,3.131.833c.936,0,1.832.366,1.669,1.832-.326,2.931-2.117,2.443-2.117,2.443s-4.858-2.177-5.021.266A3.6,3.6,0,0,1,256.4,192.142Z" transform="translate(-234.397 -180.325)" fill="#2f2e41"/>
  <circle id="Ellipse_387" data-name="Ellipse 387" cx="0.946" cy="0.946" r="0.946" transform="translate(72.851 0)" fill="#e6e6e6"/>
  <circle id="Ellipse_388" data-name="Ellipse 388" cx="0.946" cy="0.946" r="0.946" transform="translate(77.641 0)" fill="#e6e6e6"/>
  <circle id="Ellipse_389" data-name="Ellipse 389" cx="0.946" cy="0.946" r="0.946" transform="translate(82.431 0)" fill="#e6e6e6"/>
  <circle id="Ellipse_390" data-name="Ellipse 390" cx="0.946" cy="0.946" r="0.946" transform="translate(87.222 0)" fill="#e6e6e6"/>
  <circle id="Ellipse_391" data-name="Ellipse 391" cx="0.946" cy="0.946" r="0.946" transform="translate(92.012 0)" fill="#e6e6e6"/>
  <circle id="Ellipse_392" data-name="Ellipse 392" cx="0.946" cy="0.946" r="0.946" transform="translate(72.851 4.851)" fill="#e6e6e6"/>
  <circle id="Ellipse_393" data-name="Ellipse 393" cx="0.946" cy="0.946" r="0.946" transform="translate(77.641 4.851)" fill="#e6e6e6"/>
  <circle id="Ellipse_394" data-name="Ellipse 394" cx="0.946" cy="0.946" r="0.946" transform="translate(82.431 4.851)" fill="#e6e6e6"/>
  <circle id="Ellipse_395" data-name="Ellipse 395" cx="0.946" cy="0.946" r="0.946" transform="translate(87.222 4.851)" fill="#eb2424"/>
  <circle id="Ellipse_396" data-name="Ellipse 396" cx="0.946" cy="0.946" r="0.946" transform="translate(92.012 4.851)" fill="#e6e6e6"/>
  <circle id="Ellipse_397" data-name="Ellipse 397" cx="0.946" cy="0.946" r="0.946" transform="translate(101.593 4.851)" fill="#e6e6e6"/>
  <circle id="Ellipse_398" data-name="Ellipse 398" cx="0.946" cy="0.946" r="0.946" transform="translate(72.851 9.701)" fill="#e6e6e6"/>
  <circle id="Ellipse_399" data-name="Ellipse 399" cx="0.946" cy="0.946" r="0.946" transform="translate(77.641 9.701)" fill="#e6e6e6"/>
  <circle id="Ellipse_400" data-name="Ellipse 400" cx="0.946" cy="0.946" r="0.946" transform="translate(82.431 9.701)" fill="#e6e6e6"/>
  <circle id="Ellipse_401" data-name="Ellipse 401" cx="0.946" cy="0.946" r="0.946" transform="translate(87.222 9.701)" fill="#e6e6e6"/>
  <circle id="Ellipse_402" data-name="Ellipse 402" cx="0.946" cy="0.946" r="0.946" transform="translate(92.012 9.701)" fill="#e6e6e6"/>
  <circle id="Ellipse_403" data-name="Ellipse 403" cx="0.946" cy="0.946" r="0.946" transform="translate(72.851 14.552)" fill="#e6e6e6"/>
  <circle id="Ellipse_404" data-name="Ellipse 404" cx="0.946" cy="0.946" r="0.946" transform="translate(77.641 14.552)" fill="#e6e6e6"/>
  <circle id="Ellipse_405" data-name="Ellipse 405" cx="0.946" cy="0.946" r="0.946" transform="translate(82.431 14.552)" fill="#e6e6e6"/>
  <circle id="Ellipse_406" data-name="Ellipse 406" cx="0.946" cy="0.946" r="0.946" transform="translate(87.222 14.552)" fill="#e6e6e6"/>
  <circle id="Ellipse_407" data-name="Ellipse 407" cx="0.946" cy="0.946" r="0.946" transform="translate(92.012 14.552)" fill="#e6e6e6"/>
  <circle id="Ellipse_408" data-name="Ellipse 408" cx="0.946" cy="0.946" r="0.946" transform="translate(96.803 14.552)" fill="#e6e6e6"/>
  <circle id="Ellipse_409" data-name="Ellipse 409" cx="0.946" cy="0.946" r="0.946" transform="translate(101.593 14.552)" fill="#e6e6e6"/>
  <circle id="Ellipse_410" data-name="Ellipse 410" cx="0.946" cy="0.946" r="0.946" transform="translate(106.384 14.552)" fill="#e6e6e6"/>
  <circle id="Ellipse_411" data-name="Ellipse 411" cx="0.946" cy="0.946" r="0.946" transform="translate(111.174 14.552)" fill="#e6e6e6"/>
  <circle id="Ellipse_412" data-name="Ellipse 412" cx="0.946" cy="0.946" r="0.946" transform="translate(115.964 14.552)" fill="#e6e6e6"/>
  <circle id="Ellipse_413" data-name="Ellipse 413" cx="0.946" cy="0.946" r="0.946" transform="translate(92.012 19.402)" fill="#e6e6e6"/>
  <circle id="Ellipse_414" data-name="Ellipse 414" cx="0.946" cy="0.946" r="0.946" transform="translate(96.803 19.402)" fill="#eb2424"/>
  <circle id="Ellipse_415" data-name="Ellipse 415" cx="0.946" cy="0.946" r="0.946" transform="translate(101.593 19.402)" fill="#e6e6e6"/>
  <circle id="Ellipse_416" data-name="Ellipse 416" cx="0.946" cy="0.946" r="0.946" transform="translate(106.384 19.402)" fill="#e6e6e6"/>
  <circle id="Ellipse_417" data-name="Ellipse 417" cx="0.946" cy="0.946" r="0.946" transform="translate(111.174 19.402)" fill="#e6e6e6"/>
  <circle id="Ellipse_418" data-name="Ellipse 418" cx="0.946" cy="0.946" r="0.946" transform="translate(115.964 19.402)" fill="#e6e6e6"/>
  <circle id="Ellipse_419" data-name="Ellipse 419" cx="0.946" cy="0.946" r="0.946" transform="translate(92.012 24.253)" fill="#e6e6e6"/>
  <circle id="Ellipse_420" data-name="Ellipse 420" cx="0.946" cy="0.946" r="0.946" transform="translate(96.803 24.253)" fill="#e6e6e6"/>
  <circle id="Ellipse_421" data-name="Ellipse 421" cx="0.946" cy="0.946" r="0.946" transform="translate(101.593 24.253)" fill="#e6e6e6"/>
  <circle id="Ellipse_422" data-name="Ellipse 422" cx="0.946" cy="0.946" r="0.946" transform="translate(106.384 24.253)" fill="#e6e6e6"/>
  <circle id="Ellipse_423" data-name="Ellipse 423" cx="0.946" cy="0.946" r="0.946" transform="translate(111.174 24.253)" fill="#eb2424"/>
  <circle id="Ellipse_424" data-name="Ellipse 424" cx="0.946" cy="0.946" r="0.946" transform="translate(115.964 24.253)" fill="#e6e6e6"/>
  <circle id="Ellipse_425" data-name="Ellipse 425" cx="0.946" cy="0.946" r="0.946" transform="translate(92.012 29.103)" fill="#e6e6e6"/>
  <circle id="Ellipse_426" data-name="Ellipse 426" cx="0.946" cy="0.946" r="0.946" transform="translate(96.803 29.103)" fill="#e6e6e6"/>
  <circle id="Ellipse_427" data-name="Ellipse 427" cx="0.946" cy="0.946" r="0.946" transform="translate(101.593 29.103)" fill="#e6e6e6"/>
  <circle id="Ellipse_428" data-name="Ellipse 428" cx="0.946" cy="0.946" r="0.946" transform="translate(106.384 29.103)" fill="#e6e6e6"/>
  <circle id="Ellipse_429" data-name="Ellipse 429" cx="0.946" cy="0.946" r="0.946" transform="translate(111.174 29.103)" fill="#e6e6e6"/>
  <circle id="Ellipse_430" data-name="Ellipse 430" cx="0.946" cy="0.946" r="0.946" transform="translate(115.964 29.103)" fill="#e6e6e6"/>
  <circle id="Ellipse_431" data-name="Ellipse 431" cx="0.946" cy="0.946" r="0.946" transform="translate(72.851 33.954)" fill="#e6e6e6"/>
  <circle id="Ellipse_432" data-name="Ellipse 432" cx="0.946" cy="0.946" r="0.946" transform="translate(77.641 33.954)" fill="#e6e6e6"/>
  <circle id="Ellipse_433" data-name="Ellipse 433" cx="0.946" cy="0.946" r="0.946" transform="translate(82.431 33.954)" fill="#e6e6e6"/>
  <circle id="Ellipse_434" data-name="Ellipse 434" cx="0.946" cy="0.946" r="0.946" transform="translate(87.222 33.954)" fill="#e6e6e6"/>
  <circle id="Ellipse_435" data-name="Ellipse 435" cx="0.946" cy="0.946" r="0.946" transform="translate(92.012 33.954)" fill="#e6e6e6"/>
  <circle id="Ellipse_436" data-name="Ellipse 436" cx="0.946" cy="0.946" r="0.946" transform="translate(96.803 33.954)" fill="#e6e6e6"/>
  <circle id="Ellipse_437" data-name="Ellipse 437" cx="0.946" cy="0.946" r="0.946" transform="translate(101.593 33.954)" fill="#e6e6e6"/>
  <circle id="Ellipse_438" data-name="Ellipse 438" cx="0.946" cy="0.946" r="0.946" transform="translate(106.384 33.954)" fill="#e6e6e6"/>
  <circle id="Ellipse_439" data-name="Ellipse 439" cx="0.946" cy="0.946" r="0.946" transform="translate(111.174 33.954)" fill="#e6e6e6"/>
  <circle id="Ellipse_440" data-name="Ellipse 440" cx="0.946" cy="0.946" r="0.946" transform="translate(115.964 33.954)" fill="#e6e6e6"/>
  <circle id="Ellipse_441" data-name="Ellipse 441" cx="0.946" cy="0.946" r="0.946" transform="translate(72.846 40.693) rotate(-89.767)" fill="#e6e6e6"/>
  <circle id="Ellipse_442" data-name="Ellipse 442" cx="0.946" cy="0.946" r="0.946" transform="translate(77.641 38.805)" fill="#e6e6e6"/>
  <circle id="Ellipse_443" data-name="Ellipse 443" cx="0.946" cy="0.946" r="0.946" transform="translate(72.846 45.544) rotate(-89.767)" fill="#e6e6e6"/>
  <circle id="Ellipse_444" data-name="Ellipse 444" cx="0.946" cy="0.946" r="0.946" transform="translate(77.641 43.655)" fill="#e6e6e6"/>
  <circle id="Ellipse_445" data-name="Ellipse 445" cx="0.946" cy="0.946" r="0.946" transform="translate(87.222 43.655)" fill="#e6e6e6"/>
  <path id="Path_1769" data-name="Path 1769" d="M849.97,176.022h-37.5a.7.7,0,0,1-.695-.695v-9.3a.7.7,0,0,1,.695-.694h37.5a.7.7,0,0,1,.695.694v9.3A.7.7,0,0,1,849.97,176.022Zm-37.5-10.414a.417.417,0,0,0-.417.417v9.3a.417.417,0,0,0,.417.417h37.5a.417.417,0,0,0,.417-.417v-9.3a.417.417,0,0,0-.417-.417Z" transform="translate(-714.053 -164.857)" fill="#e6e6e6"/>
  <circle id="Ellipse_446" data-name="Ellipse 446" cx="2.917" cy="2.917" r="2.917" transform="translate(100.36 2.902)" fill="#eb2424"/>
  <path id="Path_1770" data-name="Path 1770" d="M897.26,189.817a.486.486,0,0,0,0,.972h12.917a.486.486,0,1,0,0-.972Z" transform="translate(-787.247 -185.942)" fill="#e6e6e6"/>
  <path id="Path_1771" data-name="Path 1771" d="M897.26,210.817a.486.486,0,0,0,0,.972h22.918a.486.486,0,1,0,0-.972Z" transform="translate(-787.247 -204.025)" fill="#e6e6e6"/>
  <path id="Path_1772" data-name="Path 1772" d="M502.971,312.022h-37.5a.7.7,0,0,1-.695-.695v-9.3a.7.7,0,0,1,.695-.695h37.5a.7.7,0,0,1,.694.695v9.3A.7.7,0,0,1,502.971,312.022Zm-37.5-10.414a.417.417,0,0,0-.417.417v9.3a.417.417,0,0,0,.417.417h37.5a.417.417,0,0,0,.417-.417v-9.3a.417.417,0,0,0-.417-.417Z" transform="translate(-415.25 -281.966)" fill="#3f3d56"/>
  <circle id="Ellipse_447" data-name="Ellipse 447" cx="2.917" cy="2.917" r="2.917" transform="translate(52.163 21.792)" fill="#eb2424"/>
  <path id="Path_1773" data-name="Path 1773" d="M550.26,325.817a.486.486,0,0,0,0,.972h13.473a.486.486,0,1,0,0-.972Z" transform="translate(-488.444 -303.052)" fill="#e6e6e6"/>
  <path id="Path_1774" data-name="Path 1774" d="M550.26,346.817a.486.486,0,0,0,0,.972h22.918a.486.486,0,0,0,0-.972Z" transform="translate(-488.444 -321.135)" fill="#e6e6e6"/>
  <path id="Path_1775" data-name="Path 1775" d="M746.971,459.022h-37.5a.7.7,0,0,1-.694-.694v-9.3a.7.7,0,0,1,.695-.695h37.5a.7.7,0,0,1,.694.695v9.3A.7.7,0,0,1,746.971,459.022Zm-37.5-10.414a.417.417,0,0,0-.417.417v9.3a.417.417,0,0,0,.417.417h37.5a.417.417,0,0,0,.417-.417v-9.3a.417.417,0,0,0-.417-.417Z" transform="translate(-625.359 -408.548)" fill="#e6e6e6"/>
  <circle id="Ellipse_448" data-name="Ellipse 448" cx="2.917" cy="2.917" r="2.917" transform="translate(86.054 42.21)" fill="#eb2424"/>
  <path id="Path_1776" data-name="Path 1776" d="M794.26,472.817a.486.486,0,0,0,0,.972h12.362a.486.486,0,0,0,0-.972Z" transform="translate(-698.553 -429.634)" fill="#e6e6e6"/>
  <path id="Path_1777" data-name="Path 1777" d="M794.26,493.817a.486.486,0,0,0,0,.972h22.918a.486.486,0,0,0,0-.972Z" transform="translate(-698.553 -447.717)" fill="#e6e6e6"/>
</svg>
