<svg xmlns="http://www.w3.org/2000/svg" width="325.611" height="201.579" viewBox="0 0 325.611 201.579">
  <g id="about-landing-page-image-small" transform="translate(151.001 -73.919)">
    <g id="team_presentation" transform="translate(-151.001 73.959)">
      <line id="Line_17" data-name="Line 17" y2="23.035" transform="translate(165.547 121.16)" fill="none" stroke="#c9c9c9" stroke-miterlimit="10" stroke-width="2"/>
      <ellipse id="Ellipse_301" data-name="Ellipse 301" cx="5.051" cy="4.577" rx="5.051" ry="4.577" transform="translate(160.496 144.196)" fill="none" stroke="#c9c9c9" stroke-miterlimit="10" stroke-width="2"/>
      <rect id="Rectangle_389" data-name="Rectangle 389" width="192.955" height="134.365" transform="translate(69.065)" fill="#e6e6e6"/>
      <rect id="Rectangle_390" data-name="Rectangle 390" width="192.955" height="19.625" transform="translate(69.065)" fill="#c9c9c9"/>
      <ellipse id="Ellipse_302" data-name="Ellipse 302" cx="162.805" cy="9.554" rx="162.805" ry="9.554" transform="translate(0 182.43)" fill="#e6e6e6" opacity="0.45"/>
      <path id="Path_1608" data-name="Path 1608" d="M117.895,245.578s0,3.348,2.948,4.506,2.663,4.034-.275,3.882-8.648-5.414-8.648-5.414l2.123-4.862Z" transform="translate(-36.635 -66.477)" fill="#eb2424"/>
      <path id="Path_1609" data-name="Path 1609" d="M106.42,205.444s17.237.695,15.36,11.282-9.483,22.047-9.483,22.047l6.623,2.511s13.188-13.677,14.436-30.551S108.277,197.618,106.42,205.444Z" transform="translate(-36.54 -61.561)" fill="#24285b"/>
      <path id="Path_1610" data-name="Path 1610" d="M106.42,205.444s17.237.695,15.36,11.282-9.483,22.047-9.483,22.047l6.623,2.511s13.188-13.677,14.436-30.551S108.277,197.618,106.42,205.444Z" transform="translate(-36.54 -61.561)" opacity="0.08"/>
      <path id="Path_1611" data-name="Path 1611" d="M131.985,246.392s0,3.357,2.948,4.514,2.663,4.034-.275,3.882S126,249.4,126,249.4l2.123-4.862Z" transform="translate(-36.878 -66.571)" fill="#eb2424"/>
      <rect id="Rectangle_391" data-name="Rectangle 391" width="3.892" height="30.381" transform="translate(60.427 178.984) rotate(180)" fill="#ffd200"/>
      <rect id="Rectangle_392" data-name="Rectangle 392" width="3.892" height="30.381" transform="translate(60.427 178.984) rotate(180)" fill="#fff" opacity="0.46"/>
      <path id="Path_1612" data-name="Path 1612" d="M81.248,127.437s-3.567-17.381-20.784-9.519c-12.687,5.8-.295,52.01,7.1,75.9,2.586,8.421,11.049,14.247,20.7,14.247h24.283c7.419,0,8.746-9.59,1.553-11.246l-.423-.1c-4.186-.89-9.1-1.567-13.571-2.1-7.788-.917-13.8-6.661-14.387-13.757Z" transform="translate(-35.65 -52.472)" fill="#ffd200"/>
      <path id="Path_1613" data-name="Path 1613" d="M96.5,245.68l13.915,9.946H79.43l13.178-9.946Z" transform="translate(-36.073 -66.695)" fill="#ffd200"/>
      <path id="Path_1614" data-name="Path 1614" d="M96.5,245.68l13.915,9.946H79.43l13.178-9.946Z" transform="translate(-36.073 -66.695)" opacity="0.08"/>
      <path id="Path_1615" data-name="Path 1615" d="M100.2,103.68a50.693,50.693,0,0,1,6.516,12.842,4.291,4.291,0,0,1-3.528,5.152A11.067,11.067,0,0,1,92.356,118.8L86.13,113.42a7.055,7.055,0,0,1-.892-8.781C88.039,99.3,97.357,99.168,100.2,103.68Z" transform="translate(-47.313 -60.021)" fill="#f4a28c"/>
      <path id="Path_1616" data-name="Path 1616" d="M87.284,106.39,86.06,134.217l16.974-.489L97.1,113.685Z" transform="translate(-45.21 -54.795)" fill="#f4a28c"/>
      <path id="Path_1617" data-name="Path 1617" d="M134.272,187.87s7.655.659,6.083,4.675-7.115-.73-7.115-.73Z" transform="translate(-37.003 -60.361)" fill="#f4a28c"/>
      <path id="Path_1618" data-name="Path 1618" d="M134.272,187.87s7.655.659,6.083,4.675-7.115-.73-7.115-.73Z" transform="translate(-37.003 -60.361)" opacity="0.08"/>
      <path id="Path_1619" data-name="Path 1619" d="M99.506,109.29a39.732,39.732,0,0,1-7.968,3.1,6.9,6.9,0,0,1,3.818,6.882,6.052,6.052,0,0,1-5.624,5.265l-5.458-9.721a7.994,7.994,0,0,1,.332-8.875,32.811,32.811,0,0,1,2.656-3.272c2.49-2.5,8.093-2.839,9.732-6.036a2.286,2.286,0,0,1,1.86-1.1,2.352,2.352,0,0,1,2,.872c2.075,2.726,4.275,7.521.809,11.281a8.313,8.313,0,0,1-2.158,1.6Z" transform="translate(-48.404 -64.351)" fill="#24285b"/>
      <path id="Path_1620" data-name="Path 1620" d="M91.941,108.7s-1.743-2.877-4.026-1.5.208,5.509,3.714,4.362Z" transform="translate(-44.16 -54.415)" fill="#f4a28c"/>
      <path id="Path_1621" data-name="Path 1621" d="M93.27,104.64l3.984,1.88a1.379,1.379,0,0,1,.813,1.086,1.317,1.317,0,0,1-.564,1.208l-2.864,2.031Z" transform="translate(-37.459 -56.336)" fill="#f4a28c"/>
      <path id="Path_1622" data-name="Path 1622" d="M80.55,130.524a10.132,10.132,0,0,1,8.815-6.812,10.686,10.686,0,0,1,10.279,4.844c.265.436.521.89.767,1.38,3.744,7.123,3.2,20.48,2.241,29.624-.6,5.762,3.205,11.154,9.228,13.08l21.767,6.954-1.032,5.85L102.523,180.1c-7.574-1.36-13.808-6.215-16.431-12.8C81.955,156.908,77.15,141.245,80.55,130.524Z" transform="translate(-36.072 -53.324)" fill="#eb2424"/>
      <path id="Path_1623" data-name="Path 1623" d="M80.55,130.524a10.132,10.132,0,0,1,8.815-6.812,10.686,10.686,0,0,1,10.279,4.844c.265.436.521.89.767,1.38,3.744,7.123,3.2,20.48,2.241,29.624-.6,5.762,3.205,11.154,9.228,13.08l21.767,6.954-1.032,5.85L102.523,180.1c-7.574-1.36-13.808-6.215-16.431-12.8C81.955,156.908,77.15,141.245,80.55,130.524Z" transform="translate(-36.072 -53.324)" opacity="0.08"/>
      <path id="Path_1624" data-name="Path 1624" d="M95.131,113.67a11.548,11.548,0,0,1-5.831-2.35s.892,5.02,7.678,9.4Z" transform="translate(-41.726 -50.456)" fill="#ce8172" opacity="0.31"/>
      <path id="Path_1625" data-name="Path 1625" d="M85.754,121.162l8.039-.231s17.62,3.437,21.934,23.668-8.009,38.413-8.009,38.413l-25.4.2S48.725,124.554,85.754,121.162Z" transform="translate(-35.881 -53.026)" fill="#eb2424"/>
      <path id="Path_1626" data-name="Path 1626" d="M81.715,130.9s-12.058,5.432-5.995,29.918C80.162,178.787,87.974,184.3,87.974,184.3l13.758-.392-6.879-30.746Z" transform="translate(-35.979 -54.119)" opacity="0.08"/>
      <path id="Path_1627" data-name="Path 1627" d="M146.362,195.75l15.36-28.716-4.177-1.594-14.053,25.021-24.843-2.342-.58,2.716Z" transform="translate(-36.741 -57.903)" fill="#ffd200"/>
      <path id="Path_1628" data-name="Path 1628" d="M82.56,190.837s.344,13.178,10.191,14.309,32.37-5.725,35.181,5.387-2.791,28.805-2.791,28.805l6.879,1.736s15.419-26.713,6.338-39.4-30.376-11.032-30.376-11.032Z" transform="translate(-36.127 -60.657)" fill="#24285b"/>
      <path id="Path_1629" data-name="Path 1629" d="M79.82,133.934a10.132,10.132,0,0,1,8.823-6.818,10.683,10.683,0,0,1,10.281,4.859c.256.436.511.89.767,1.38,3.734,7.168,3.194,20.48,2.241,29.624-.6,5.761,3.2,11.154,9.228,13.071l21.757,6.963-1.032,5.85L101.8,183.522c-7.573-1.367-13.806-6.224-16.431-12.8C81.225,160.326,76.42,144.663,79.82,133.934Z" transform="translate(-36.06 -53.697)" fill="#eb2424"/>
      <path id="Path_1630" data-name="Path 1630" d="M79.82,133.934a10.132,10.132,0,0,1,8.823-6.818,10.683,10.683,0,0,1,10.281,4.859c.256.436.511.89.767,1.38,3.734,7.168,3.194,20.48,2.241,29.624-.6,5.761,3.2,11.154,9.228,13.071l21.757,6.963-1.032,5.85L101.8,183.522c-7.573-1.367-13.806-6.224-16.431-12.8C81.225,160.326,76.42,144.663,79.82,133.934Z" transform="translate(-36.06 -53.697)" fill="#fff" opacity="0.46"/>
      <path id="Path_1631" data-name="Path 1631" d="M133.636,191.27s7.862,1.345,6.3,5.343-7.115-.73-7.115-.73Z" transform="translate(-36.996 -60.734)" fill="#f4a28c"/>
      <path id="Path_1632" data-name="Path 1632" d="M273.372,246.389s0,3.357-2.948,4.514-2.663,4.034.275,3.882,8.648-5.414,8.648-5.414l-2.123-4.862Z" transform="translate(-39.339 -66.567)" fill="#eb2424"/>
      <path id="Path_1633" data-name="Path 1633" d="M250.565,247.1s-2.683,2.306-5.611,1.247-5.051,1.086-2.879,2.885,10.318,1.834,10.318,1.834l2.349-4.773Z" transform="translate(-38.87 -66.851)" fill="#eb2424"/>
      <rect id="Rectangle_393" data-name="Rectangle 393" width="3.892" height="30.381" transform="translate(268.712 148.603)" fill="#ffd200"/>
      <rect id="Rectangle_394" data-name="Rectangle 394" width="3.892" height="30.381" transform="translate(268.712 148.603)" fill="#fff" opacity="0.46"/>
      <path id="Path_1634" data-name="Path 1634" d="M323.178,127.437s3.567-17.381,20.784-9.519c12.687,5.8.295,52.01-7.1,75.9-2.586,8.421-11.049,14.247-20.7,14.247H291.889c-7.419,0-8.746-9.59-1.553-11.246l.423-.1c4.186-.89,9.1-1.567,13.571-2.1,7.786-.92,13.792-6.663,14.387-13.757Z" transform="translate(-39.637 -52.472)" fill="#ffd200"/>
      <path id="Path_1635" data-name="Path 1635" d="M308.5,245.68l-13.925,9.946h30.995L312.4,245.68Z" transform="translate(-39.793 -66.695)" fill="#ffd200"/>
      <path id="Path_1636" data-name="Path 1636" d="M308.5,245.68l-13.925,9.946h30.995L312.4,245.68Z" transform="translate(-39.793 -66.695)" opacity="0.08"/>
      <path id="Path_1637" data-name="Path 1637" d="M221.765,137.313c-16.145.01-29.24-11.844-29.245-26.472S205.6,84.35,221.746,84.35s29.231,11.861,29.226,26.49c-.022,14.609-13.083,26.448-29.206,26.472Zm0-45.821c-11.795,0-21.36,8.656-21.364,19.343s9.556,19.353,21.351,19.355,21.359-8.665,21.358-19.352S233.552,91.5,221.765,91.491Z" transform="translate(-38.028 -49.018)" fill="#fff"/>
      <path id="Path_1638" data-name="Path 1638" d="M251.486,110.842h-7.862c-.011-10.682-9.565-19.339-21.354-19.349V84.37C238.4,84.39,251.464,96.23,251.486,110.842Z" transform="translate(-38.543 -49.02)" fill="#24285b"/>
      <path id="Path_1639" data-name="Path 1639" d="M222.28,140.572v-7.123c11.785-.015,21.334-8.67,21.344-19.349h7.862c-.022,14.609-13.083,26.448-29.206,26.472Z" transform="translate(-38.543 -52.278)" fill="#ffd200"/>
      <path id="Path_1640" data-name="Path 1640" d="M222.825,104.47c.521,0,.678.169.678.641v1a5.015,5.015,0,0,1,4.147,2.84c.275.49.157.757-.452,1.006l-1.1.445c-.521.232-.767.125-1.061-.365a2.885,2.885,0,0,0-2.889-1.576c-1.916,0-2.8.516-2.8,1.674a1.643,1.643,0,0,0,1.562,1.371,14.131,14.131,0,0,0,1.621.232,11.365,11.365,0,0,1,3,.525,4.315,4.315,0,0,1,1.336.659,3.734,3.734,0,0,1,1.189,2.858c0,2.226-1.641,3.74-4.55,4.132v1.06c0,.472-.157.641-.678.641h-1.248c-.511,0-.7-.169-.7-.641v-1.042a5.1,5.1,0,0,1-4.511-3.143.612.612,0,0,1,.005-.587.732.732,0,0,1,.516-.356l1.1-.365c.57-.187.816-.062,1.061.445a2.983,2.983,0,0,0,3.046,1.719c2.083,0,3.115-.588,3.115-1.781a1.261,1.261,0,0,0-.983-1.264A8.015,8.015,0,0,0,222,114.2a10.964,10.964,0,0,1-3.027-.588,4.486,4.486,0,0,1-1.307-.677,3.545,3.545,0,0,1-1.219-2.787c0-2.208,1.533-3.677,4.422-4.025v-1c0-.472.187-.641.7-.641Z" transform="translate(-38.439 -51.223)" fill="#a5a5a5"/>
      <path id="Path_1641" data-name="Path 1641" d="M246.215,107.476s-9.08-1.621-7.469,7.471,4.914,38.057,21.374,44.13,25.148,15.182,15.969,18.975-29.973-11.673-33.166,7.854l55.523.534,10.318-25.422L287.528,146.9,267,145.328Z" transform="translate(-38.824 -51.54)" opacity="0.08"/>
      <path id="Path_1642" data-name="Path 1642" d="M316.23,103.24a43.774,43.774,0,0,0-5.64,11.032,3.391,3.391,0,0,0,.5,2.8,4.073,4.073,0,0,0,2.545,1.648,9.55,9.55,0,0,0,9.347-2.482l5.372-4.64a6.088,6.088,0,0,0,.77-7.577C326.633,99.46,318.683,99.346,316.23,103.24Z" transform="translate(-42.063 -60.565)" fill="#f4a28c"/>
      <path id="Path_1643" data-name="Path 1643" d="M324.9,106.39l1.056,24.012-14.647-.422,5.121-17.3Z" transform="translate(-41.404 -56.869)" fill="#f4a28c"/>
      <path id="Path_1644" data-name="Path 1644" d="M308.309,207.987s-32.429,5.343-52.084,36.223l-7.085-2.475s13.552-36.507,42.257-40.069S308.309,207.987,308.309,207.987Z" transform="translate(-39.007 -61.788)" fill="#24285b"/>
      <path id="Path_1645" data-name="Path 1645" d="M308.309,207.987s-32.429,5.343-52.084,36.223l-7.085-2.475s13.552-36.507,42.257-40.069S308.309,207.987,308.309,207.987Z" transform="translate(-39.007 -61.788)" opacity="0.08"/>
      <path id="Path_1646" data-name="Path 1646" d="M314.115,104.64l-3.438,1.622a1.193,1.193,0,0,0-.712.932,1.134,1.134,0,0,0,.479,1.047l2.471,1.752Z" transform="translate(-42.473 -57.958)" fill="#f4a28c"/>
      <path id="Path_1647" data-name="Path 1647" d="M314.377,126.661c-12.205,3.384-26.641,14.888-36.645,13.018-14.878-2.769-23.791-25.715-23.791-25.715s-2.054-8.593-5.985-9.332-.55,4.924-.55,4.924-4.471,3.036,0,7.008c14.544,62.41,51.818,37.861,69.35,29.544a44.534,44.534,0,0,0,6.623-3.766C332.016,136.278,324.823,123.767,314.377,126.661Z" transform="translate(-38.943 -51.233)" fill="#f4a28c"/>
      <path id="Path_1648" data-name="Path 1648" d="M314.377,126.661c-12.205,3.384-26.641,14.888-36.645,13.018-14.878-2.769-23.791-25.715-23.791-25.715s-2.054-8.593-5.985-9.332-.55,4.924-.55,4.924-4.471,3.036,0,7.008c14.544,62.41,51.818,37.861,69.35,29.544a44.534,44.534,0,0,0,6.623-3.766C332.016,136.278,324.823,123.767,314.377,126.661Z" transform="translate(-38.943 -51.233)" opacity="0.08"/>
      <path id="Path_1649" data-name="Path 1649" d="M314.144,113.348a9.965,9.965,0,0,0,5.032-2.028s-.77,4.332-6.625,8.112Z" transform="translate(-40.424 -53.8)" fill="#ce8172" opacity="0.31"/>
      <path id="Path_1650" data-name="Path 1650" d="M318.947,121.162l-8.039-.231s-17.62,3.437-21.934,23.668,8,38.413,8,38.413l25.413.2S355.975,124.554,318.947,121.162Z" transform="translate(-39.68 -53.026)" fill="#eb2424"/>
      <path id="Path_1651" data-name="Path 1651" d="M308.422,132.43s-12.775,9.857-11.055,25.217-7.587,9.795-7.587,9.795,2.044,7.72,3.341,9.545,24.45-22.261,24.45-22.261Z" transform="translate(-39.71 -54.286)" opacity="0.08"/>
      <path id="Path_1652" data-name="Path 1652" d="M321.968,190.837s-.354,14.567-10.191,15.7-32.37-7.123-35.191,4,2.8,28.805,2.8,28.805l-6.879,1.736s-15.409-26.713-6.339-39.4,30.376-11.032,30.376-11.032Z" transform="translate(-39.252 -60.657)" fill="#24285b"/>
      <path id="Path_1653" data-name="Path 1653" d="M315.572,107.722s-7.045-8.882-1.4-9.579,12.965,2.427,18.62,7.147-7.591,17.278-7.591,17.278l-1.791-2.774.215-1.46c.68-4.572-2.329-8.934-7.162-10.384Z" transform="translate(-41.404 -65.047)" fill="#24285b"/>
      <path id="Path_1654" data-name="Path 1654" d="M317.171,106.694s3.42-1.363,5.372-.178.43,6.3-6.3,3.358Z" transform="translate(-37.507 -57.091)" fill="#f4a28c"/>
      <path id="Path_1655" data-name="Path 1655" d="M306.094,137.228c3.243-9.456,18.672-7.791,19.369,2.084a37.064,37.064,0,0,1-.295,7.123c-2.29,17.809-.894,59.543-66,35.279l1.307-6.349s25.944,6.233,36.852-3.33C304.669,165.517,302.3,148.225,306.094,137.228Z" transform="translate(-39.181 -54.124)" fill="#f4a28c"/>
      <path id="Path_1656" data-name="Path 1656" d="M302.67,156.721l23.585,3s8.844-26.152-7.734-30.6S302.67,156.721,302.67,156.721Z" transform="translate(-39.933 -53.877)" fill="#eb2424"/>
      <path id="Path_1657" data-name="Path 1657" d="M302.67,156.721l23.585,3s8.844-26.152-7.734-30.6S302.67,156.721,302.67,156.721Z" transform="translate(-39.933 -53.877)" fill="#fff" opacity="0.46"/>
      <path id="Path_1658" data-name="Path 1658" d="M260.324,180.739s-11.625-.365-9.827,4.087,8.52,2.262,8.52,2.262Z" transform="translate(-39.028 -59.579)" fill="#f4a28c"/>
      <rect id="Rectangle_396" data-name="Rectangle 396" width="55.572" height="14.371" transform="translate(85.299 40.782)" fill="#fff"/>
      <rect id="Rectangle_397" data-name="Rectangle 397" width="20.637" height="14.371" transform="translate(120.244 40.782)" fill="#24285b"/>
      <rect id="Rectangle_398" data-name="Rectangle 398" width="55.572" height="5.717" transform="translate(85.299 64.191)" fill="#c9c9c9"/>
      <rect id="Rectangle_399" data-name="Rectangle 399" width="55.572" height="5.717" transform="translate(85.299 77.138)" fill="#c9c9c9" opacity="0.57"/>
      <path id="Path_1659" data-name="Path 1659" d="M56.891,246.674S48.518,244.6,46.7,237.547c0,0,12.962-2.377,13.335,9.795Z" transform="translate(-35.507 -65.784)" fill="#eb2424" opacity="0.58"/>
      <path id="Path_1660" data-name="Path 1660" d="M58.06,245.006s-5.9-8.379-.7-16.206c0,0,9.827,5.672,5.474,16.224Z" transform="translate(-35.654 -64.846)" fill="#eb2424" opacity="0.73"/>
      <path id="Path_1661" data-name="Path 1661" d="M59.64,245.706s3.1-8.842,12.431-10.516c0,0,1.749,5.743-6.044,10.543Z" transform="translate(-35.731 -65.546)" fill="#eb2424"/>
      <path id="Path_1662" data-name="Path 1662" d="M53.47,246.76l1.7,10.516,10.682.036,1.572-10.5Z" transform="translate(-35.624 -66.814)" fill="#24285b"/>
    </g>
    <text id="Header" transform="translate(9.005 88.919)" fill="#f2f5f7" font-size="16" font-family="Poppins-Bold, Poppins" font-weight="700"><tspan x="-28.032" y="0">ABOUT</tspan></text>
  </g>
</svg>
