<svg width="473" height="398" viewBox="0 0 473 398" fill="none" xmlns="http://www.w3.org/2000/svg">
<path d="M236.05 397.981C366.378 397.981 472.03 331.227 472.03 248.881C472.03 166.536 366.378 99.7812 236.05 99.7812C105.722 99.7812 0.0703125 166.536 0.0703125 248.881C0.0703125 331.227 105.722 397.981 236.05 397.981Z" fill="#F5F5F5"/>
<path d="M271.093 337.132C257.813 344.792 257.813 357.222 271.093 364.892C284.373 372.562 305.893 372.552 319.163 364.892C332.433 357.232 332.443 344.792 319.163 337.132C305.883 329.472 284.363 329.462 271.093 337.132Z" fill="#E0E0E0"/>
<path d="M381.001 318.745C396.034 318.745 408.221 311.707 408.221 303.025C408.221 294.343 396.034 287.305 381.001 287.305C365.968 287.305 353.781 294.343 353.781 303.025C353.781 311.707 365.968 318.745 381.001 318.745Z" fill="#E0E0E0"/>
<path d="M124.766 309.651L118.266 305.901C116.266 304.721 116.266 302.801 118.266 301.621L206.076 251.111C207.223 250.524 208.492 250.219 209.781 250.219C211.069 250.219 212.339 250.524 213.486 251.111L219.976 254.851C222.026 256.031 222.026 257.951 219.976 259.131L132.166 309.651C131.019 310.232 129.751 310.535 128.466 310.535C127.18 310.535 125.912 310.232 124.766 309.651Z" fill="#E0E0E0"/>
<path d="M44.683 316.481L28.523 307.141C28.2606 307.049 28.0332 306.878 27.8723 306.652C27.7114 306.425 27.625 306.154 27.625 305.876C27.625 305.598 27.7114 305.327 27.8723 305.1C28.0332 304.874 28.2606 304.703 28.523 304.611L243.283 180.611C243.961 180.266 244.712 180.086 245.473 180.086C246.234 180.086 246.985 180.266 247.663 180.611L263.833 190.001C264.095 190.093 264.323 190.264 264.484 190.49C264.645 190.717 264.731 190.988 264.731 191.266C264.731 191.544 264.645 191.815 264.484 192.042C264.323 192.268 264.095 192.439 263.833 192.531L49.063 316.531C48.3793 316.864 47.6274 317.032 46.8671 317.024C46.1067 317.015 45.3589 316.829 44.683 316.481Z" fill="#E0E0E0"/>
<path d="M270.674 202.445L244.234 187.175C243.972 187.083 243.744 186.912 243.583 186.685C243.422 186.459 243.336 186.188 243.336 185.91C243.336 185.632 243.422 185.361 243.583 185.134C243.744 184.908 243.972 184.737 244.234 184.645L318.604 141.705C319.284 141.36 320.036 141.18 320.799 141.18C321.562 141.18 322.314 141.36 322.994 141.705L349.424 156.995C349.686 157.087 349.914 157.258 350.075 157.484C350.236 157.711 350.322 157.982 350.322 158.26C350.322 158.538 350.236 158.809 350.075 159.035C349.914 159.262 349.686 159.433 349.424 159.525L275.054 202.465C274.373 202.802 273.622 202.976 272.862 202.973C272.101 202.969 271.352 202.788 270.674 202.445Z" fill="#E0E0E0"/>
<path d="M268.381 145.398L310.301 169.598C311.173 170.041 312.138 170.272 313.116 170.272C314.095 170.272 315.059 170.041 315.931 169.598L373.831 135.828C375.391 134.928 375.391 133.468 373.831 132.578L331.921 108.378C331.049 107.934 330.085 107.703 329.106 107.703C328.128 107.703 327.163 107.934 326.291 108.378L268.381 142.148C266.831 143.048 266.831 144.508 268.381 145.398Z" fill="#E0E0E0"/>
<path d="M44.0048 275.907C44.0048 275.907 43.4748 264.667 38.4848 255.637C33.4948 246.607 26.2348 240.707 19.1548 239.637C12.0748 238.567 5.89482 244.777 13.2148 249.767C20.5348 254.757 33.7648 260.247 38.8848 277.477L44.0048 275.907Z" fill="#32C888"/>
<g opacity="0.2">
<path d="M44.0048 275.907C44.0048 275.907 43.4748 264.667 38.4848 255.637C33.4948 246.607 26.2348 240.707 19.1548 239.637C12.0748 238.567 5.89482 244.777 13.2148 249.767C20.5348 254.757 33.7648 260.247 38.8848 277.477L44.0048 275.907Z" fill="black"/>
</g>
<path d="M42.1026 272.875H42.1826C42.278 272.843 42.3568 272.775 42.4018 272.685C42.4468 272.595 42.4542 272.491 42.4226 272.395C36.1326 253.395 22.3426 244.735 15.9326 242.815C15.8846 242.8 15.8341 242.794 15.7839 242.798C15.7338 242.802 15.6849 242.817 15.6403 242.84C15.5956 242.863 15.556 242.895 15.5238 242.934C15.4916 242.972 15.4673 243.017 15.4526 243.065C15.4245 243.163 15.436 243.269 15.4846 243.358C15.5332 243.448 15.615 243.515 15.7126 243.545C21.9926 245.425 35.5026 253.945 41.7126 272.635C41.744 272.711 41.7986 272.775 41.8686 272.819C41.9387 272.862 42.0205 272.881 42.1026 272.875Z" fill="white"/>
<path d="M3.78155 271.269C4.37155 272.859 6.00155 273.779 7.53155 274.509C9.06155 275.239 10.7115 276.039 11.4615 277.509C12.9815 280.569 9.90155 284.509 11.5415 287.509C11.926 288.121 12.4311 288.649 13.0259 289.059C13.6207 289.47 14.2929 289.756 15.0015 289.899C16.1615 290.189 17.3515 290.269 18.5315 290.449C19.0945 290.479 19.6586 290.479 20.2215 290.449C21.8866 290.19 23.5906 290.485 25.0715 291.289C27.3215 292.759 27.8515 295.769 29.1215 298.139C29.9122 299.545 30.9984 300.763 32.3053 301.709C33.6122 302.655 35.1086 303.307 36.6915 303.619C37.6915 303.829 39.6915 304.139 40.8015 303.619C40.8814 303.581 40.9583 303.538 41.0315 303.489C41.189 303.346 41.3361 303.192 41.4715 303.029V302.959C41.9915 301.459 41.4115 299.819 41.4715 298.239C41.4666 298.142 41.4666 298.045 41.4715 297.949C41.6615 296.119 41.8315 294.299 41.9915 292.469C42.3049 289.095 42.5615 285.722 42.7615 282.349C42.8815 280.159 43.3015 277.779 42.5115 275.649C41.6315 273.319 39.0815 273.099 38.2615 270.809C37.9415 269.889 37.7915 268.929 37.4815 268.009C36.989 266.654 36.1333 265.46 35.0081 264.559C33.8828 263.658 32.5314 263.084 31.1015 262.899C26.6615 262.379 22.4215 265.729 17.9915 265.109C16.854 264.873 15.7292 264.579 14.6215 264.229C11.0615 263.319 6.82155 264.069 4.62155 266.989C4.14532 267.581 3.82006 268.28 3.67374 269.025C3.52741 269.771 3.56441 270.541 3.78155 271.269Z" fill="#32C888"/>
<path d="M42.3838 295.915C42.4822 295.894 42.5685 295.835 42.6244 295.751C42.6804 295.667 42.7016 295.564 42.6838 295.465C38.0738 271.995 14.0037 266.995 8.22375 267.055C8.12297 267.055 8.02631 267.095 7.95505 267.167C7.88379 267.238 7.84375 267.334 7.84375 267.435C7.84375 267.536 7.88379 267.633 7.95505 267.704C8.02631 267.775 8.12297 267.815 8.22375 267.815C13.8237 267.815 37.4138 272.615 41.9538 295.615C41.9732 295.711 42.0287 295.795 42.1087 295.851C42.1888 295.907 42.2873 295.93 42.3838 295.915Z" fill="white"/>
<path d="M16.0994 282.437C16.1787 282.429 16.2528 282.394 16.3094 282.337C18.6859 280.539 21.4299 279.286 24.3458 278.669C27.2618 278.052 30.2779 278.086 33.1794 278.767C33.2287 278.778 33.2795 278.778 33.3288 278.768C33.3782 278.759 33.4252 278.739 33.4671 278.711C33.5089 278.684 33.5448 278.648 33.5727 278.606C33.6006 278.564 33.6198 278.517 33.6294 278.467C33.6411 278.419 33.6428 278.368 33.6345 278.319C33.6261 278.27 33.6078 278.222 33.5807 278.18C33.5536 278.138 33.5182 278.102 33.4767 278.074C33.4353 278.046 33.3885 278.027 33.3394 278.017C30.3198 277.315 27.1825 277.287 24.1509 277.935C21.1192 278.583 18.2677 279.892 15.7994 281.767C15.7415 281.823 15.7022 281.895 15.6869 281.974C15.6715 282.053 15.6809 282.135 15.7137 282.208C15.7466 282.281 15.8012 282.343 15.8702 282.384C15.9393 282.425 16.0193 282.444 16.0994 282.437Z" fill="white"/>
<path d="M55.0156 301.194L254.476 186.044V17.3438L55.0156 132.504V301.194Z" fill="#32C888"/>
<path d="M46.8906 127.816L55.0206 132.506L254.481 17.3456L262.611 3.26562L46.8906 127.816Z" fill="#37474F"/>
<path d="M262.607 190.707V3.22656L254.477 17.3466V186.047L262.607 190.707Z" fill="#37474F"/>
<path d="M46.8906 127.812L55.0206 132.503V301.193L46.8906 315.283V127.812Z" fill="#37474F"/>
<path d="M55.0206 301.189L254.481 186.039L262.611 190.729L46.8906 315.279L55.0206 301.189Z" fill="#37474F"/>
<g opacity="0.5">
<path d="M46.8906 127.816L55.0206 132.506L254.481 17.3456L262.611 3.26562L46.8906 127.816Z" fill="#455A64"/>
</g>
<g opacity="0.5">
<path d="M55.0206 301.189L254.481 186.039L262.611 190.729L46.8906 315.279L55.0206 301.189Z" fill="#455A64"/>
</g>
<path d="M262.609 3.26281L257.189 0.132812L41.4688 124.683L46.8887 127.813L262.609 3.26281Z" fill="white"/>
<path d="M41.4688 124.68L46.8887 127.81V315.28L41.4688 312.15V124.68Z" fill="white"/>
<g style="mix-blend-mode:multiply" opacity="0.1">
<path d="M254.476 17.3438L251.766 18.9138V184.474L55.0156 298.064V301.194L254.476 186.044V17.3438Z" fill="black"/>
</g>
<path opacity="0.1" d="M103.387 114.633L58.8672 140.333L58.8772 203.583L103.387 177.883V114.633Z" fill="black"/>
<path d="M60.5859 141.309L105.096 115.609L108.526 117.589L64.0059 143.289L60.5859 141.309Z" fill="#FAFAFA"/>
<path d="M60.5859 141.312V204.562L64.0059 206.543V143.292L60.5859 141.312Z" fill="#E0E0E0"/>
<path d="M108.528 117.594L64.0078 143.294V206.544L108.528 180.844V117.594Z" fill="#F5F5F5"/>
<path d="M67.4375 145.263L105.097 123.523V170.963L67.4375 192.703V145.263Z" fill="#32C888"/>
<path opacity="0.75" d="M67.4375 145.263L105.097 123.523V170.963L67.4375 192.703V145.263Z" fill="white"/>
<path d="M67.4375 176.882L82.1075 155.122L97.8475 165.472L92.8475 159.942L97.7675 152.242L105.097 157.782V170.962L67.4375 192.702V176.882Z" fill="#32C888"/>
<path d="M93.0003 139.803C92.0032 140.453 91.1731 141.328 90.5772 142.358C89.9813 143.388 89.6364 144.544 89.5703 145.733C89.5703 147.923 91.1103 148.803 93.0003 147.733C93.9961 147.083 94.8247 146.207 95.4189 145.176C96.0131 144.146 96.3562 142.99 96.4203 141.803C96.4603 139.593 94.9303 138.713 93.0003 139.803Z" fill="#32C888"/>
<path d="M89.1278 137.249L89.0478 137.329C88.9901 137.397 88.9184 137.452 88.8378 137.489C88.6778 137.589 88.5978 137.489 88.4478 137.399L87.2778 136.709C86.7978 136.429 86.2778 136.099 85.6278 135.709C84.9778 135.319 84.3878 134.959 83.7578 134.559C83.5678 134.429 83.9178 133.809 84.1278 133.909L86.0578 134.909L87.7378 135.849L88.9178 136.519C89.0578 136.609 89.1978 136.619 89.1978 136.809C89.2067 136.896 89.2067 136.983 89.1978 137.069L89.1278 137.249Z" fill="#455A64"/>
<path d="M90.3361 138.1C89.4261 139.67 87.9461 140.52 86.3961 139.68L86.3061 139.63C86.0797 139.454 85.9014 139.223 85.7878 138.959C85.6742 138.695 85.6289 138.406 85.6561 138.12C85.6936 137.298 85.9251 136.496 86.3318 135.78C86.7384 135.064 87.3088 134.454 87.9961 134C88.2234 133.841 88.4855 133.739 88.7605 133.703C89.0355 133.666 89.3152 133.696 89.5761 133.79L89.6661 133.84L89.8061 133.93C91.2461 134.87 91.2361 136.55 90.3361 138.1Z" fill="#37474F"/>
<path d="M92.2405 141.209L93.9905 138.209C92.6552 137.519 91.4149 136.658 90.3005 135.649L90.2305 135.589V135.529C90.0612 135.409 89.8584 135.344 89.6505 135.344C89.4426 135.344 89.2399 135.409 89.0705 135.529C88.6217 135.821 88.2482 136.216 87.9806 136.68C87.713 137.144 87.5588 137.664 87.5305 138.199C87.5083 138.391 87.5385 138.585 87.6177 138.761C87.6969 138.937 87.8223 139.089 87.9805 139.199C88.07 139.249 88.1687 139.279 88.2705 139.289C89.6754 139.745 91.0112 140.391 92.2405 141.209Z" fill="#455A64"/>
<path d="M95.4958 138.795C95.4958 138.306 95.3023 137.837 94.9575 137.491C94.6127 137.144 94.1447 136.948 93.6558 136.945C93.4295 136.946 93.2054 136.99 92.9958 137.075H92.9258C92.8263 137.116 92.7294 137.163 92.6358 137.215C92.0919 137.569 91.639 138.045 91.3141 138.606C90.9891 139.168 90.8013 139.798 90.7658 140.445C90.7635 140.604 90.7837 140.762 90.8258 140.915C90.8935 141.38 91.1363 141.802 91.5047 142.093C91.873 142.385 92.3389 142.524 92.8069 142.483C93.2749 142.442 93.7095 142.224 94.0216 141.873C94.3338 141.522 94.4999 141.065 94.4858 140.595C94.4858 140.535 94.4858 140.485 94.4858 140.425C94.7877 140.273 95.0417 140.04 95.2199 139.752C95.3981 139.465 95.4936 139.134 95.4958 138.795Z" fill="#37474F"/>
<path d="M93.6591 137.854C94.6591 137.264 95.5191 137.744 95.5191 138.934C95.4847 139.582 95.2984 140.213 94.9753 140.775C94.6522 141.338 94.2013 141.817 93.6591 142.174C92.6591 142.764 91.7891 142.284 91.7891 141.094C91.8238 140.445 92.0112 139.813 92.3362 139.25C92.6611 138.687 93.1144 138.208 93.6591 137.854Z" fill="#455A64"/>
<path opacity="0.1" d="M117.188 114.7L237.027 45.5V148.31L117.188 217.5V114.7Z" fill="black"/>
<path d="M122.219 117.591L242.069 48.3906V151.191L122.219 220.391V117.591Z" fill="#F5F5F5"/>
<path d="M118.789 115.609V218.409L122.219 220.389V117.589L118.789 115.609Z" fill="#E0E0E0"/>
<path d="M242.069 48.3919L238.639 46.4219L118.789 115.612L122.219 117.592L242.069 48.3919Z" fill="#32C888"/>
<g opacity="0.8">
<path d="M242.069 48.3919L238.639 46.4219L118.789 115.612L122.219 117.592L242.069 48.3919Z" fill="white"/>
</g>
<path d="M118.789 115.609L122.219 117.589V137.359L118.789 135.379V115.609Z" fill="#32C888"/>
<g opacity="0.5">
<path d="M118.789 115.609L122.219 117.589V137.359L118.789 135.379V115.609Z" fill="white"/>
</g>
<path d="M122.219 137.361L242.069 68.1606V48.3906L122.219 117.591V137.361Z" fill="#32C888"/>
<g opacity="0.65">
<path d="M122.219 137.361L242.069 68.1606V48.3906L122.219 117.591V137.361Z" fill="white"/>
</g>
<path d="M174.738 92.5411L171.608 94.3411C171.582 94.363 171.548 94.375 171.513 94.375C171.479 94.375 171.445 94.363 171.418 94.3411C171.364 94.2734 171.339 94.1872 171.348 94.1011V93.1011C171.347 92.9905 171.371 92.8812 171.418 92.7811C171.463 92.6907 171.528 92.612 171.608 92.5511L175.758 90.1511C175.785 90.1292 175.819 90.1172 175.853 90.1172C175.888 90.1172 175.921 90.1292 175.948 90.1511C175.975 90.1825 175.995 90.2192 176.007 90.2588C176.019 90.2984 176.023 90.34 176.018 90.3811V96.5911C176.047 97.7158 175.814 98.8318 175.338 99.8511C174.894 100.733 174.198 101.464 173.338 101.951C172.987 102.18 172.586 102.32 172.168 102.361C171.879 102.392 171.589 102.309 171.358 102.131C171.13 101.932 170.963 101.672 170.878 101.381C170.762 101.008 170.699 100.621 170.688 100.231C170.683 100.117 170.707 100.003 170.758 99.9011C170.8 99.8139 170.866 99.7409 170.948 99.6911L171.718 99.2411C171.743 99.2288 171.771 99.2224 171.798 99.2224C171.826 99.2224 171.853 99.2288 171.878 99.2411C171.928 99.2411 171.958 99.3111 171.978 99.3911C171.999 99.5628 172.043 99.731 172.108 99.8911C172.163 100.025 172.253 100.143 172.368 100.231C172.486 100.31 172.627 100.349 172.768 100.341C172.972 100.316 173.167 100.244 173.338 100.131C173.78 99.8753 174.13 99.4869 174.338 99.0211C174.591 98.4731 174.714 97.8743 174.698 97.2711L174.738 92.5411Z" fill="#455A64"/>
<path d="M177.33 92.2418C177.332 92.1306 177.36 92.0214 177.41 91.9218C177.445 91.8313 177.508 91.7543 177.59 91.7018L178.31 91.2818C178.335 91.2607 178.367 91.2491 178.4 91.2491C178.432 91.2491 178.464 91.2607 178.49 91.2818C178.518 91.3146 178.54 91.3527 178.553 91.3939C178.567 91.435 178.573 91.4785 178.57 91.5218V95.2518C178.539 95.6888 178.621 96.1263 178.81 96.5218C178.98 96.7818 179.24 96.8018 179.61 96.5818C179.982 96.3559 180.256 95.9993 180.38 95.5818C180.567 95.0801 180.659 94.5475 180.65 94.0118V90.2818C180.653 90.1707 180.681 90.0617 180.73 89.9618C180.765 89.8713 180.828 89.7943 180.91 89.7418L181.63 89.3218C181.655 89.3007 181.687 89.2891 181.72 89.2891C181.752 89.2891 181.784 89.3007 181.81 89.3218C181.84 89.3532 181.863 89.3911 181.877 89.4326C181.891 89.4742 181.895 89.5184 181.89 89.5618V96.4018C181.892 96.5169 181.864 96.6305 181.81 96.7318C181.772 96.8207 181.709 96.897 181.63 96.9518L180.91 97.3718C180.884 97.393 180.852 97.4046 180.82 97.4046C180.787 97.4046 180.755 97.393 180.73 97.3718C180.7 97.3416 180.678 97.3054 180.664 97.2656C180.65 97.2259 180.645 97.1837 180.65 97.1418V96.8018C180.492 97.1245 180.312 97.4353 180.11 97.7318C179.899 98.0243 179.63 98.2696 179.32 98.4518C179.025 98.651 178.674 98.7493 178.32 98.7318C178.196 98.7114 178.077 98.6653 177.972 98.5964C177.867 98.5275 177.778 98.4374 177.71 98.3318C177.54 98.0544 177.431 97.7443 177.39 97.4218C177.318 97.0057 177.285 96.584 177.29 96.1618L177.33 92.2418Z" fill="#455A64"/>
<path d="M187.855 93.0038C187.855 93.1143 187.831 93.2234 187.785 93.3238C187.75 93.4143 187.687 93.4913 187.605 93.5438L186.875 93.9638C186.85 93.985 186.818 93.9966 186.785 93.9966C186.752 93.9966 186.72 93.985 186.695 93.9638C186.666 93.931 186.645 93.893 186.631 93.8518C186.617 93.8106 186.612 93.7671 186.615 93.7238V90.0038C186.649 89.5677 186.559 89.1309 186.355 88.7438C186.175 88.4938 185.895 88.4838 185.525 88.7438C185.155 88.9775 184.877 89.3303 184.735 89.7438C184.531 90.245 184.432 90.7828 184.445 91.3238V95.0038C184.441 95.1149 184.414 95.224 184.365 95.3238C184.33 95.4143 184.267 95.4913 184.185 95.5438L183.455 95.9638C183.43 95.985 183.398 95.9966 183.365 95.9966C183.332 95.9966 183.3 95.985 183.275 95.9638C183.221 95.8961 183.196 95.8099 183.205 95.7238V88.8838C183.203 88.7732 183.227 88.6636 183.275 88.5638C183.31 88.4706 183.373 88.3904 183.455 88.3338L184.185 87.9138C184.21 87.8927 184.242 87.8811 184.275 87.8811C184.308 87.8811 184.34 87.8927 184.365 87.9138C184.394 87.9444 184.416 87.9807 184.429 88.0203C184.443 88.06 184.448 88.102 184.445 88.1438V88.4838C184.603 88.1311 184.797 87.796 185.025 87.4838C185.238 87.1995 185.507 86.9614 185.815 86.7838C186.107 86.5797 186.459 86.4778 186.815 86.4938C186.941 86.5122 187.062 86.5563 187.17 86.6234C187.279 86.6905 187.372 86.7791 187.445 86.8838C187.627 87.153 187.744 87.4613 187.785 87.7838C187.857 88.1965 187.89 88.615 187.885 89.0338L187.855 93.0038Z" fill="#455A64"/>
<path d="M188.881 89.0041C188.883 88.4532 188.94 87.9039 189.051 87.3641C189.147 86.8386 189.301 86.3254 189.511 85.8341C189.702 85.3811 189.951 84.9544 190.251 84.5641C190.521 84.2091 190.862 83.9131 191.251 83.6941C191.546 83.4993 191.898 83.4078 192.251 83.4341C192.536 83.4631 192.801 83.5988 192.991 83.8141C193.216 84.0806 193.377 84.3954 193.461 84.7341C193.578 85.1675 193.635 85.6151 193.631 86.0641V86.7241C193.628 86.8386 193.601 86.9511 193.551 87.0541C193.515 87.1446 193.452 87.2216 193.371 87.2741L190.181 89.1141C190.173 89.2984 190.203 89.4824 190.271 89.6541C190.317 89.7772 190.406 89.8798 190.521 89.9441C190.627 90.0037 190.749 90.0282 190.871 90.0141C191.015 89.9894 191.154 89.9386 191.281 89.8641C191.462 89.758 191.63 89.6304 191.781 89.4841C191.871 89.3325 191.945 89.1716 192.001 89.0041C192.052 88.9138 192.108 88.827 192.171 88.7441C192.228 88.6866 192.291 88.6362 192.361 88.5941L193.121 88.1541C193.146 88.133 193.178 88.1214 193.211 88.1214C193.244 88.1214 193.275 88.133 193.301 88.1541C193.331 88.1855 193.354 88.2234 193.368 88.2649C193.382 88.3065 193.386 88.3507 193.381 88.3941C193.354 88.6025 193.304 88.8072 193.231 89.0041C193.124 89.309 192.983 89.6009 192.811 89.8741C192.616 90.2065 192.388 90.5182 192.131 90.8041C191.859 91.1051 191.542 91.3616 191.191 91.5641C190.894 91.7578 190.544 91.8524 190.191 91.8341C190.046 91.8264 189.906 91.7875 189.778 91.7202C189.65 91.6529 189.538 91.5587 189.451 91.4441C189.219 91.1529 189.061 90.8098 188.991 90.4441C188.897 89.9702 188.86 89.4868 188.881 89.0041ZM191.221 85.4541C191.042 85.5596 190.883 85.6949 190.751 85.8541C190.622 86.0116 190.512 86.1826 190.421 86.3641C190.332 86.5431 190.261 86.7308 190.211 86.9241C190.211 87.1141 190.141 87.2841 190.121 87.4441L192.281 86.1941C192.267 86.0527 192.244 85.9123 192.211 85.7741C192.183 85.6485 192.124 85.5317 192.041 85.4341C192 85.3892 191.951 85.3534 191.896 85.3293C191.841 85.3051 191.781 85.2931 191.721 85.2941C191.543 85.2936 191.369 85.3458 191.221 85.4441V85.4541Z" fill="#455A64"/>
<path d="M130.352 142.545C130.352 143.645 131.172 144.055 132.182 143.475L141.182 138.285C141.7 137.962 142.135 137.523 142.453 137.002C142.77 136.481 142.962 135.893 143.012 135.285C143.012 134.195 142.192 133.785 141.182 134.365L132.182 139.545C131.665 139.869 131.23 140.308 130.913 140.829C130.595 141.35 130.403 141.937 130.352 142.545Z" fill="#455A64"/>
<path d="M145.508 133.791C145.508 134.881 146.328 135.301 147.328 134.711L156.328 129.531C156.846 129.209 157.281 128.77 157.599 128.249C157.917 127.728 158.108 127.14 158.158 126.531C158.158 125.441 157.338 125.021 156.328 125.611L147.328 130.791C146.812 131.115 146.378 131.555 146.062 132.076C145.746 132.597 145.556 133.184 145.508 133.791Z" fill="#455A64"/>
<path d="M160.672 125.006C160.672 126.096 161.482 126.506 162.492 125.926L171.492 120.746C172.009 120.423 172.442 119.983 172.758 119.462C173.074 118.941 173.264 118.353 173.312 117.746C173.312 116.656 172.502 116.236 171.492 116.816L162.492 122.006C161.977 122.331 161.544 122.771 161.228 123.291C160.913 123.812 160.722 124.399 160.672 125.006Z" fill="#455A64"/>
<path d="M175.828 116.297C175.828 117.387 176.638 117.797 177.648 117.217L186.648 112.037C187.163 111.711 187.595 111.271 187.911 110.75C188.226 110.23 188.417 109.643 188.468 109.037C188.468 107.937 187.658 107.527 186.648 108.107L177.648 113.297C177.131 113.62 176.698 114.059 176.382 114.58C176.066 115.101 175.876 115.689 175.828 116.297Z" fill="#455A64"/>
<path d="M191 107.539C191 108.629 191.82 109.039 192.83 108.459L201.83 103.269C202.348 102.947 202.783 102.507 203.101 101.986C203.419 101.465 203.61 100.877 203.66 100.269C203.66 99.1792 202.84 98.7692 201.83 99.3492L192.83 104.539C192.311 104.861 191.876 105.3 191.558 105.821C191.24 106.342 191.049 106.931 191 107.539Z" fill="#455A64"/>
<path d="M206.141 98.7792C206.141 99.8792 206.961 100.289 207.971 99.7092L216.971 94.5192C217.489 94.1966 217.924 93.7573 218.242 93.2363C218.559 92.7154 218.751 92.1273 218.801 91.5192C218.801 90.4292 217.981 90.0192 216.971 90.5992L207.971 95.7792C207.454 96.1029 207.019 96.5425 206.702 97.0632C206.384 97.5839 206.192 98.1714 206.141 98.7792Z" fill="#455A64"/>
<path d="M221.297 90.0023C221.297 91.0923 222.117 91.5123 223.117 90.9223L232.117 85.7423C232.635 85.4198 233.07 84.9804 233.388 84.4595C233.706 83.9386 233.897 83.3505 233.947 82.7423C233.947 81.6523 233.127 81.2323 232.117 81.8223L223.117 87.0023C222.602 87.3272 222.169 87.7673 221.853 88.2879C221.538 88.8086 221.347 89.3955 221.297 90.0023Z" fill="#455A64"/>
<path d="M235.217 147.667C235.105 147.667 234.999 147.622 234.92 147.544C234.841 147.465 234.797 147.358 234.797 147.247V91.8966C234.797 91.7852 234.841 91.6783 234.92 91.5996C234.999 91.5208 235.105 91.4766 235.217 91.4766C235.328 91.4766 235.435 91.5208 235.514 91.5996C235.593 91.6783 235.637 91.7852 235.637 91.8966V147.247C235.637 147.358 235.593 147.465 235.514 147.544C235.435 147.622 235.328 147.667 235.217 147.667Z" fill="#E0E0E0"/>
<path d="M220.045 156.426C219.934 156.426 219.827 156.382 219.748 156.303C219.669 156.224 219.625 156.117 219.625 156.006V100.646C219.641 100.544 219.692 100.452 219.77 100.385C219.848 100.318 219.947 100.281 220.05 100.281C220.153 100.281 220.252 100.318 220.33 100.385C220.408 100.452 220.459 100.544 220.475 100.646V156.006C220.475 156.062 220.464 156.117 220.442 156.169C220.42 156.221 220.389 156.267 220.348 156.306C220.308 156.346 220.261 156.376 220.209 156.397C220.157 156.417 220.101 156.427 220.045 156.426Z" fill="#E0E0E0"/>
<path d="M204.889 165.174C204.777 165.174 204.671 165.13 204.592 165.051C204.513 164.973 204.469 164.866 204.469 164.754V109.404C204.469 109.293 204.513 109.186 204.592 109.107C204.671 109.029 204.777 108.984 204.889 108.984C205 108.984 205.107 109.029 205.186 109.107C205.264 109.186 205.309 109.293 205.309 109.404V164.754C205.309 164.866 205.264 164.973 205.186 165.051C205.107 165.13 205 165.174 204.889 165.174Z" fill="#E0E0E0"/>
<path d="M189.727 173.934C189.671 173.935 189.615 173.925 189.563 173.905C189.511 173.884 189.463 173.853 189.423 173.814C189.383 173.775 189.352 173.728 189.33 173.677C189.308 173.625 189.297 173.57 189.297 173.514V118.154C189.312 118.052 189.364 117.96 189.442 117.893C189.52 117.826 189.619 117.789 189.722 117.789C189.825 117.789 189.924 117.826 190.002 117.893C190.08 117.96 190.131 118.052 190.147 118.154V173.514C190.147 173.569 190.136 173.623 190.115 173.674C190.094 173.725 190.063 173.772 190.024 173.811C189.985 173.85 189.939 173.881 189.888 173.902C189.837 173.923 189.782 173.934 189.727 173.934Z" fill="#E0E0E0"/>
<path d="M174.561 182.682C174.449 182.682 174.342 182.638 174.264 182.559C174.185 182.48 174.141 182.374 174.141 182.262V126.912C174.141 126.801 174.185 126.694 174.264 126.615C174.342 126.536 174.449 126.492 174.561 126.492C174.672 126.492 174.779 126.536 174.858 126.615C174.936 126.694 174.981 126.801 174.981 126.912V182.262C174.981 182.374 174.936 182.48 174.858 182.559C174.779 182.638 174.672 182.682 174.561 182.682Z" fill="#E0E0E0"/>
<path d="M159.4 191.442C159.345 191.44 159.291 191.426 159.241 191.403C159.191 191.379 159.146 191.346 159.109 191.305C159.072 191.264 159.043 191.216 159.025 191.165C159.006 191.113 158.998 191.057 159 191.002V135.662C159 135.551 159.045 135.444 159.124 135.365C159.202 135.286 159.309 135.242 159.42 135.242C159.532 135.242 159.639 135.286 159.717 135.365C159.796 135.444 159.84 135.551 159.84 135.662V191.002C159.843 191.061 159.834 191.119 159.813 191.174C159.792 191.229 159.759 191.278 159.718 191.32C159.677 191.361 159.627 191.393 159.572 191.415C159.518 191.436 159.459 191.445 159.4 191.442Z" fill="#E0E0E0"/>
<path d="M144.233 200.192C144.121 200.192 144.014 200.148 143.936 200.069C143.857 199.99 143.813 199.884 143.813 199.772V144.422C143.811 144.366 143.821 144.31 143.842 144.258C143.862 144.206 143.893 144.159 143.932 144.119C143.971 144.079 144.018 144.047 144.07 144.025C144.121 144.003 144.177 143.992 144.233 143.992C144.289 143.992 144.344 144.003 144.396 144.025C144.447 144.047 144.494 144.079 144.533 144.119C144.572 144.159 144.603 144.206 144.624 144.258C144.644 144.31 144.654 144.366 144.653 144.422V199.772C144.653 199.884 144.608 199.99 144.53 200.069C144.451 200.148 144.344 200.192 144.233 200.192Z" fill="#E0E0E0"/>
<path d="M129.068 209C129.013 209 128.959 208.989 128.908 208.968C128.857 208.947 128.81 208.916 128.771 208.877C128.732 208.838 128.702 208.792 128.68 208.741C128.659 208.69 128.648 208.635 128.648 208.58V153.17C128.648 153.059 128.693 152.952 128.771 152.873C128.85 152.794 128.957 152.75 129.068 152.75C129.18 152.75 129.287 152.794 129.365 152.873C129.444 152.952 129.488 153.059 129.488 153.17V208.53C129.496 208.589 129.49 208.649 129.472 208.706C129.454 208.763 129.424 208.815 129.385 208.86C129.345 208.904 129.296 208.94 129.242 208.964C129.187 208.988 129.128 209 129.068 209Z" fill="#E0E0E0"/>
<path d="M129.072 167.434C128.997 167.435 128.923 167.416 128.858 167.379C128.793 167.342 128.739 167.289 128.702 167.224C128.648 167.127 128.634 167.013 128.664 166.906C128.694 166.799 128.765 166.709 128.862 166.654L235.002 105.364C235.049 105.336 235.101 105.317 235.155 105.309C235.21 105.301 235.265 105.304 235.318 105.318C235.372 105.332 235.421 105.357 235.465 105.39C235.508 105.424 235.545 105.466 235.572 105.514C235.6 105.562 235.619 105.615 235.627 105.67C235.635 105.725 235.632 105.781 235.618 105.835C235.604 105.889 235.58 105.94 235.546 105.985C235.512 106.029 235.47 106.066 235.422 106.094L129.282 167.384C129.216 167.415 129.144 167.432 129.072 167.434Z" fill="#E0E0E0"/>
<path d="M129.072 181.27C128.978 181.273 128.885 181.243 128.809 181.187C128.733 181.13 128.679 181.049 128.655 180.958C128.63 180.867 128.638 180.77 128.675 180.683C128.713 180.596 128.779 180.525 128.862 180.48L235.002 119.2C235.049 119.171 235.102 119.153 235.156 119.145C235.21 119.137 235.266 119.14 235.319 119.154C235.372 119.168 235.422 119.193 235.465 119.226C235.509 119.26 235.545 119.302 235.572 119.35C235.601 119.398 235.62 119.451 235.628 119.506C235.636 119.561 235.633 119.617 235.619 119.671C235.605 119.725 235.58 119.776 235.546 119.82C235.513 119.865 235.47 119.902 235.422 119.93L129.282 181.21C129.219 181.248 129.146 181.269 129.072 181.27Z" fill="#E0E0E0"/>
<path d="M129.072 195.115C128.978 195.117 128.885 195.088 128.809 195.031C128.733 194.975 128.679 194.894 128.655 194.803C128.63 194.711 128.638 194.614 128.675 194.528C128.713 194.441 128.779 194.369 128.862 194.325L235.002 133.005C235.049 132.976 235.102 132.957 235.156 132.95C235.21 132.942 235.266 132.945 235.319 132.959C235.372 132.973 235.422 132.997 235.465 133.031C235.509 133.065 235.545 133.107 235.572 133.155C235.601 133.202 235.62 133.255 235.628 133.311C235.636 133.366 235.633 133.422 235.619 133.476C235.605 133.53 235.58 133.581 235.546 133.625C235.513 133.67 235.47 133.707 235.422 133.735L129.282 195.055C129.219 195.093 129.146 195.114 129.072 195.115Z" fill="#E0E0E0"/>
<path d="M129.068 209.001C128.994 209.001 128.921 208.98 128.858 208.941C128.794 208.905 128.741 208.853 128.704 208.789C128.667 208.726 128.648 208.654 128.648 208.581V153.171C128.648 153.097 128.667 153.025 128.704 152.962C128.741 152.899 128.794 152.847 128.858 152.811L234.998 91.5208C235.063 91.4866 235.135 91.4688 235.208 91.4688C235.282 91.4688 235.354 91.4866 235.418 91.5208C235.482 91.5596 235.534 91.614 235.571 91.6787C235.608 91.7434 235.628 91.8163 235.628 91.8907V147.241C235.628 147.315 235.608 147.388 235.571 147.453C235.534 147.518 235.482 147.572 235.418 147.611L129.278 208.891C129.222 208.948 129.148 208.987 129.068 209.001ZM129.488 153.461V207.801L234.798 147.001V92.6207L129.488 153.461Z" fill="#E0E0E0"/>
<path d="M164.717 162.005L165.567 163.835C165.577 163.86 165.593 163.884 165.613 163.903C165.633 163.923 165.657 163.938 165.683 163.949C165.709 163.959 165.737 163.964 165.765 163.963C165.793 163.962 165.821 163.956 165.847 163.945L167.777 163.205C168.077 163.095 168.197 163.525 167.977 163.935L166.587 166.545C166.497 166.695 166.462 166.871 166.487 167.045L166.807 169.405C166.867 169.785 166.547 170.275 166.267 170.245L164.557 170.025C164.487 170.029 164.419 170.05 164.358 170.084C164.298 170.119 164.246 170.167 164.207 170.225L162.487 172.425C162.217 172.775 161.897 172.655 161.947 172.215L162.277 169.475C162.292 169.407 162.29 169.337 162.27 169.27C162.251 169.204 162.215 169.144 162.167 169.095L160.777 168.095C160.557 167.935 160.677 167.365 160.987 167.095L162.907 165.615C163.04 165.501 163.137 165.352 163.187 165.185L164.047 162.365C164.177 161.945 164.577 161.715 164.717 162.005Z" fill="#F2A38F"/>
<path d="M219.999 122.843C219.909 121.163 219.259 119.493 217.539 118.843C215.419 118.093 213.649 119.773 212.329 121.183C211.989 121.553 212.609 121.733 212.889 121.473C214.249 120.183 216.759 118.903 218.219 120.623C219.679 122.343 218.919 124.863 218.219 126.723C216.989 129.823 213.859 132.803 210.219 132.543C202.339 131.953 210.869 118.073 215.539 117.293C215.909 117.233 216.179 116.643 215.669 116.553C213.319 116.173 211.669 118.273 210.169 119.853C208.529 121.585 207.247 123.624 206.399 125.853C204.829 130.043 207.149 135.183 212.259 133.553C216.749 132.153 220.309 127.693 219.999 122.843Z" fill="#F2A38F"/>
<path d="M148.001 185.085C147.516 184.395 146.963 183.755 146.351 183.175C146.131 182.915 145.581 183.225 145.711 183.545C146.031 184.315 146.711 184.735 147.101 185.415L147.321 185.765C146.321 184.985 144.321 184.685 143.441 184.475C140.778 183.912 138.007 184.167 135.491 185.205C135.241 185.285 135.341 185.525 135.561 185.555C135.954 185.559 136.344 185.488 136.711 185.345C138.074 185.06 139.47 184.959 140.861 185.045C142.181 185.095 145.331 185.545 146.701 186.555C145.311 186.325 143.851 186.415 142.991 187.455C142.891 187.575 142.881 187.795 143.081 187.825C143.961 187.935 144.701 187.605 145.581 187.635C146.602 187.651 147.614 187.826 148.581 188.155C148.961 188.285 149.241 187.885 149.221 187.545C149.02 186.638 148.601 185.794 148.001 185.085Z" fill="#F2A38F"/>
<path d="M240.232 61.0013L240.142 61.0813C240.081 61.1461 240.01 61.2003 239.932 61.2413C239.772 61.3413 239.692 61.2413 239.552 61.1513L238.372 60.4613L236.722 59.4613C236.122 59.0913 235.482 58.7113 234.852 58.3013C234.662 58.1813 235.012 57.5513 235.222 57.6613L237.152 58.6613C237.772 58.9913 238.342 59.3213 238.832 59.6013L240.012 60.2713C240.152 60.3613 240.292 60.3713 240.292 60.5513C240.306 60.6407 240.306 60.7319 240.292 60.8213L240.232 61.0013Z" fill="#455A64"/>
<path d="M241.43 61.8116C240.52 63.3816 239.05 64.2316 237.49 63.3816H237.4C237.173 63.2076 236.994 62.9785 236.881 62.716C236.767 62.4535 236.722 62.1663 236.75 61.8816C236.793 61.0607 237.029 60.2614 237.439 59.5489C237.849 58.8365 238.422 58.2309 239.11 57.7816C239.338 57.6225 239.6 57.5204 239.875 57.4838C240.15 57.4473 240.43 57.4774 240.69 57.5716H240.78L240.92 57.6616C242.34 58.5816 242.33 60.2616 241.43 61.8116Z" fill="#37474F"/>
<path d="M243.326 64.9148L245.076 61.9148C243.738 61.2328 242.497 60.3752 241.386 59.3648L241.316 59.2948C241.147 59.1742 240.944 59.1094 240.736 59.1094C240.528 59.1094 240.325 59.1742 240.156 59.2948C239.708 59.5855 239.335 59.9779 239.067 60.4402C238.799 60.9025 238.645 61.4214 238.616 61.9548C238.595 62.1464 238.625 62.3403 238.704 62.5161C238.784 62.692 238.908 62.8434 239.066 62.9548C239.157 62.9993 239.255 63.0297 239.356 63.0448C240.759 63.4815 242.095 64.1108 243.326 64.9148Z" fill="#455A64"/>
<path d="M246.589 62.4962C246.589 62.2546 246.542 62.0154 246.449 61.7921C246.357 61.5689 246.221 61.366 246.051 61.1952C245.88 61.0243 245.677 60.8888 245.454 60.7963C245.23 60.7038 244.991 60.6563 244.749 60.6562C244.524 60.6588 244.301 60.6994 244.089 60.7762H244.019L243.729 60.9062C243.186 61.2622 242.733 61.7408 242.409 62.3036C242.084 62.8663 241.896 63.4975 241.859 64.1462C241.858 64.3049 241.878 64.4631 241.919 64.6162C241.987 65.0811 242.23 65.5025 242.598 65.794C242.967 66.0856 243.433 66.2252 243.901 66.1843C244.369 66.1434 244.803 65.925 245.115 65.574C245.427 65.2229 245.594 64.7658 245.579 64.2962C245.579 64.2362 245.579 64.1763 245.579 64.1263C245.88 63.9719 246.133 63.7386 246.311 63.4514C246.489 63.1643 246.585 62.834 246.589 62.4962Z" fill="#37474F"/>
<path d="M244.745 61.5612C245.745 60.9612 246.605 61.4512 246.605 62.6412C246.571 63.2892 246.384 63.9201 246.061 64.4829C245.738 65.0457 245.287 65.5247 244.745 65.8812C243.745 66.4712 242.875 65.9912 242.875 64.8012C242.907 64.1515 243.094 63.5189 243.419 62.9555C243.744 62.3921 244.199 61.9142 244.745 61.5612Z" fill="#455A64"/>
<path d="M133.466 122.251L133.386 122.321C133.324 122.387 133.253 122.445 133.176 122.491C133.016 122.591 132.936 122.491 132.786 122.391L131.616 121.701C131.126 121.421 130.566 121.091 129.966 120.701L128.086 119.551C127.896 119.421 128.246 118.801 128.456 118.911C129.126 119.251 129.776 119.621 130.396 119.911C131.016 120.201 131.586 120.561 132.076 120.841L133.256 121.511C133.386 121.611 133.536 121.611 133.526 121.801C133.54 121.888 133.54 121.975 133.526 122.061L133.466 122.251Z" fill="#455A64"/>
<path d="M134.68 123.093C133.77 124.663 132.29 125.513 130.68 124.673H130.59C130.36 124.499 130.178 124.269 130.063 124.005C129.947 123.74 129.901 123.45 129.93 123.163C129.975 122.344 130.213 121.547 130.622 120.837C131.032 120.126 131.604 119.522 132.29 119.073C132.519 118.912 132.783 118.809 133.06 118.773C133.336 118.736 133.618 118.767 133.88 118.863H133.96C134.011 118.891 134.058 118.924 134.1 118.963C135.59 119.863 135.57 121.553 134.68 123.093Z" fill="#37474F"/>
<path d="M136.582 126.205L138.332 123.205C136.998 122.515 135.758 121.658 134.642 120.655C134.621 120.629 134.598 120.606 134.572 120.585L134.512 120.525C134.341 120.402 134.137 120.336 133.927 120.336C133.717 120.336 133.512 120.402 133.342 120.525C132.896 120.82 132.526 121.215 132.261 121.679C131.995 122.142 131.841 122.661 131.812 123.195C131.79 123.387 131.82 123.581 131.899 123.757C131.978 123.933 132.104 124.084 132.262 124.195C132.35 124.247 132.449 124.278 132.552 124.285C133.978 124.735 135.334 125.381 136.582 126.205Z" fill="#455A64"/>
<path d="M139.839 123.78C139.839 123.289 139.644 122.818 139.298 122.472C138.951 122.125 138.48 121.93 137.989 121.93C137.766 121.931 137.546 121.975 137.339 122.06H137.269C137.169 122.098 137.072 122.145 136.979 122.2C136.434 122.553 135.979 123.031 135.654 123.595C135.329 124.158 135.143 124.79 135.109 125.44C135.11 125.594 135.126 125.749 135.159 125.9C135.227 126.363 135.47 126.783 135.837 127.074C136.204 127.365 136.668 127.505 137.135 127.466C137.602 127.426 138.036 127.21 138.349 126.862C138.662 126.513 138.83 126.058 138.819 125.59C138.824 125.53 138.824 125.47 138.819 125.41C139.124 125.259 139.381 125.027 139.561 124.739C139.741 124.452 139.837 124.119 139.839 123.78Z" fill="#37474F"/>
<path d="M137.995 122.846C138.995 122.256 139.865 122.736 139.865 123.926C139.829 124.575 139.642 125.206 139.317 125.769C138.992 126.332 138.539 126.811 137.995 127.166C136.995 127.766 136.125 127.276 136.125 126.086C136.161 125.437 136.349 124.806 136.674 124.243C136.999 123.68 137.451 123.202 137.995 122.846Z" fill="#455A64"/>
<path opacity="0.1" d="M62.2969 226.746V278.146L104.877 253.556V202.156L62.2969 226.746Z" fill="black"/>
<path d="M109.78 256.091C109.78 256.091 84.64 270.171 81.48 271.921C78.32 273.671 76.26 268.591 76.24 265.511C73.08 267.511 66.6 268.791 66.24 264.761L64 235.481L106.58 210.891L109.78 256.091Z" fill="#455A64"/>
<path d="M106.588 210.89L64.0078 235.48V227.59L106.588 203V210.89Z" fill="#37474F"/>
<path d="M67.6094 266.913L79.2694 272.062L75.6394 262.562L67.6094 266.913Z" fill="#37474F"/>
<path d="M81.9978 238.004C81.6778 239.204 80.9978 239.684 80.5378 238.954C80.269 238.157 80.1736 237.312 80.2578 236.474C80.2578 234.414 80.1978 232.394 80.1978 230.334C80.1978 229.694 79.6478 230.244 79.6378 230.804C79.6378 232.644 79.6378 234.524 79.6378 236.364C79.2278 234.894 77.4578 236.684 76.7178 238.064C75.9778 239.444 74.9278 242.774 76.2178 243.114C77.3278 243.414 79.0378 241.234 79.8678 239.314C79.9267 239.652 80.0713 239.969 80.2878 240.234C81.0078 240.964 82.3978 239.414 82.4078 237.814C82.3778 237.434 82.0478 237.694 81.9978 238.004ZM79.4178 238.084C79.3908 238.526 79.2964 238.961 79.1378 239.374C78.8907 240.003 78.5538 240.592 78.1378 241.124C77.8982 241.471 77.5923 241.767 77.2378 241.994C77.1755 242.04 77.1042 242.072 77.0288 242.088C76.9534 242.104 76.8754 242.104 76.8 242.088C76.7245 242.072 76.6533 242.04 76.5909 241.994C76.5285 241.949 76.4764 241.891 76.4378 241.824C76.2411 241.166 76.2764 240.46 76.5378 239.824C76.7978 238.786 77.3253 237.835 78.0678 237.064C78.6578 236.594 79.1578 236.534 79.3378 237.364C79.3904 237.59 79.4106 237.823 79.3978 238.054L79.4178 238.084Z" fill="#FAFAFA"/>
<path d="M96.7351 228.4C96.4151 229.6 95.7351 230.08 95.2751 229.4C95.0076 228.602 94.9088 227.758 94.9851 226.92C94.9851 224.86 94.9251 222.84 94.9251 220.78C94.9251 220.14 94.3751 220.69 94.3751 221.25C94.3751 223.09 94.3751 224.97 94.3751 226.81C93.9651 225.34 92.1951 227.13 91.4551 228.51C90.7151 229.89 89.6651 233.22 90.9451 233.56C92.0651 233.86 93.7751 231.68 94.6051 229.76C94.6639 230.097 94.8086 230.414 95.0251 230.68C95.7451 231.41 97.1351 229.86 97.1451 228.26C97.1251 227.86 96.8051 228.12 96.7351 228.4ZM94.1551 228.48C94.1185 228.92 94.0243 229.354 93.8751 229.77C93.6315 230.4 93.2944 230.99 92.8751 231.52C92.639 231.866 92.3365 232.162 91.9851 232.39C91.9227 232.435 91.8515 232.467 91.776 232.483C91.7006 232.499 91.6226 232.499 91.5472 232.483C91.4718 232.467 91.4005 232.435 91.3381 232.39C91.2758 232.344 91.2236 232.287 91.1851 232.22C90.9852 231.562 91.0169 230.856 91.2751 230.22C91.5383 229.181 92.0693 228.229 92.8151 227.46C93.4051 226.99 93.8951 226.93 94.0851 227.76C94.1439 227.995 94.1675 228.238 94.1551 228.48Z" fill="#FAFAFA"/>
<path d="M85.4864 235.423C84.9864 236.293 84.7164 237.243 83.9964 237.733C83.7704 237.894 83.5034 237.988 83.2264 238.003C82.7164 238.003 82.7164 237.263 82.7364 236.523C83.3809 236.199 83.8933 235.662 84.1864 235.003C84.6111 234.251 84.822 233.397 84.7964 232.533C84.6264 230.343 82.8764 232.933 82.4564 234.373C82.3041 234.952 82.2103 235.545 82.1764 236.143L82.0964 236.213C81.9664 236.343 81.8164 236.763 82.0264 236.723H82.1564C82.1564 237.033 82.1564 237.333 82.1564 237.623C82.1564 238.543 82.4364 239.053 83.0064 239.083C83.4022 239.041 83.781 238.9 84.1078 238.672C84.4346 238.445 84.699 238.139 84.8764 237.783C85.4068 237.097 85.7327 236.276 85.8164 235.413C85.7964 235.183 85.5964 235.243 85.4864 235.423ZM82.8664 234.823C82.9764 234.313 83.9864 231.873 84.2664 233.063C84.5464 234.253 83.5464 235.123 82.7564 235.723C82.7646 235.42 82.8015 235.119 82.8664 234.823Z" fill="#FAFAFA"/>
<path d="M91.2682 233.054C91.1373 232.98 91.0218 232.881 90.9282 232.764L90.8482 232.864C90.3082 233.454 89.8482 233.424 89.7082 232.754C89.5427 231.894 89.4922 231.017 89.5582 230.144V229.824V229.694C89.5582 229.264 89.2582 229.414 89.0882 229.694C88.5982 227.454 85.0082 233.474 85.7382 235.884C86.1282 237.194 87.3982 236.404 88.2282 235.404C88.6627 234.862 88.9794 234.235 89.1582 233.564C89.2175 233.94 89.4177 234.28 89.7182 234.514C90.2182 234.804 90.9582 233.994 91.3782 233.064L91.2682 233.054ZM88.7882 232.574C88.6159 233.352 88.2745 234.082 87.7882 234.714C87.4882 235.104 86.7882 235.494 86.5182 235.314C86.4363 235.224 86.3758 235.118 86.3411 235.002C86.3065 234.886 86.2986 234.763 86.3182 234.644C86.344 234.333 86.3975 234.025 86.4782 233.724C86.6581 232.946 86.9406 232.197 87.3182 231.494C87.6882 230.864 88.3882 230.144 88.7882 230.494C89.1882 230.844 88.8982 232.004 88.7882 232.574Z" fill="#FAFAFA"/>
<path d="M93.5975 242.551C93.0875 243.411 92.8175 244.371 92.1075 244.851C91.881 245.011 91.6143 245.105 91.3375 245.121C90.8175 245.121 90.8175 244.381 90.8375 243.651C91.4786 243.329 91.9928 242.801 92.2975 242.151C92.713 241.395 92.9234 240.544 92.9075 239.681C92.7275 237.491 90.9775 240.081 90.5675 241.531C90.4079 242.106 90.3106 242.696 90.2775 243.291L90.2075 243.361C90.0675 243.491 89.9175 243.911 90.1275 243.871H90.2575C90.2575 244.178 90.2575 244.478 90.2575 244.771C90.2575 245.691 90.5275 246.201 91.0975 246.241C91.501 246.195 91.8863 246.047 92.2182 245.813C92.5501 245.579 92.8181 245.266 92.9975 244.901C93.5307 244.218 93.8538 243.395 93.9275 242.531C93.8975 242.311 93.6975 242.361 93.5975 242.551ZM90.9675 241.941C91.0875 241.431 92.0975 239.001 92.3675 240.181C92.6375 241.361 91.6475 242.241 90.8575 242.841C90.8806 242.538 90.9274 242.237 90.9975 241.941H90.9675Z" fill="#FAFAFA"/>
<path d="M83.5391 250.152C83.5391 250.152 83.4491 250.152 83.4091 250.152C83.2091 250.342 83.0291 250.592 82.8291 250.792C82.6291 250.992 82.3991 251.112 82.2391 251.002C82.0791 250.892 82.0291 250.482 82.0091 250.112C82.0091 248.742 82.0091 247.342 82.0091 245.932C82.0091 245.252 82.0591 244.572 82.1091 243.882C82.1644 243.253 82.1274 242.62 81.9991 242.002C81.9991 241.862 81.7391 242.002 81.7291 242.202C81.41 245.083 81.3063 247.985 81.4191 250.882C81.4191 251.672 81.7191 252.302 82.2891 252.032C82.6691 251.862 83.6291 250.942 83.5591 250.212C83.5556 250.191 83.5489 250.171 83.5391 250.152Z" fill="#FAFAFA"/>
<path d="M85.3066 249.251C84.9766 249.321 84.8266 249.491 84.7166 249.041C84.6508 248.507 84.6508 247.966 84.7166 247.431C84.8398 246.436 84.88 245.433 84.8366 244.431C84.8366 244.201 84.5166 244.521 84.4866 244.721C84.2046 246.302 84.0907 247.907 84.1466 249.511C84.2166 250.431 84.9866 250.791 85.4066 249.581C85.4266 249.441 85.4166 249.231 85.3066 249.251Z" fill="#FAFAFA"/>
<path d="M85.355 241.062C85.255 240.952 85.015 241.152 84.905 241.382C84.8443 241.432 84.7905 241.489 84.745 241.552C84.5374 241.868 84.462 242.252 84.535 242.622C84.5357 242.636 84.5397 242.65 84.5467 242.662C84.5536 242.674 84.5633 242.685 84.5749 242.692C84.5866 242.7 84.5999 242.705 84.6138 242.707C84.6277 242.709 84.6418 242.707 84.655 242.702C84.8196 242.642 84.9667 242.542 85.0836 242.411C85.2004 242.28 85.2833 242.123 85.325 241.952C85.435 241.662 85.505 241.202 85.355 241.062Z" fill="#FAFAFA"/>
<path d="M89.4908 246.05C89.4908 245.1 89.4908 244.15 89.4908 243.2C89.4908 242.46 89.5708 241.42 89.0008 241.47C87.8708 241.57 87.2908 243.94 86.9208 245.99C86.9208 245.11 86.8608 244.22 86.7608 243.37C86.7608 243.06 86.4008 243.42 86.3808 243.71C86.2908 245.4 86.3808 247.12 86.4808 248.71C86.4808 249.18 86.9008 248.771 86.9808 248.391C87.2208 247.261 87.3308 246.17 87.6008 245.02C87.7142 244.398 87.8884 243.789 88.1208 243.2C88.8108 241.8 88.9608 242.85 88.9608 243.65C88.9608 244.45 88.9608 245.09 88.9608 245.81C88.8871 246.461 88.9175 247.119 89.0508 247.76C89.0508 247.86 89.1708 247.92 89.2608 247.88C89.3997 247.767 89.4923 247.607 89.5208 247.43C89.5401 247.251 89.5401 247.07 89.5208 246.891L89.4908 246.05Z" fill="#FAFAFA"/>
<path d="M94.0001 255.556C93.9301 254.716 93.9301 254.056 93.5001 253.626C93.0701 253.196 92.5701 253.576 92.0601 253.706C92.5401 252.706 93.5401 251.596 93.4501 250.496C93.3501 249.236 91.3201 251.086 90.7901 251.496C90.7201 251.496 90.6501 251.616 90.6001 251.736C90.5501 251.856 90.6001 251.736 90.6001 251.786C90.5401 251.966 90.5401 252.156 90.6001 252.146C91.0663 251.956 91.5147 251.725 91.9401 251.456C92.0601 251.386 92.6601 250.856 92.7401 250.936C92.8201 251.016 92.4101 251.936 92.3901 251.936C91.9376 252.631 91.5652 253.376 91.2801 254.156C91.2801 254.376 91.2801 254.686 91.3901 254.696C91.5001 254.706 91.8701 254.506 92.0701 254.516C93.1901 254.586 93.3401 254.896 93.4001 256.196C93.4489 256.817 93.3683 257.442 93.1635 258.03C92.9586 258.619 92.634 259.159 92.2101 259.616C91.7101 260.136 91.2101 260.256 90.8301 259.996C90.4501 259.736 90.5701 259.116 91.1201 258.176C91.2801 257.996 91.3601 257.496 91.1201 257.566C90.6691 257.795 90.3073 258.169 90.0918 258.627C89.8764 259.085 89.8195 259.602 89.9301 260.096C90.2901 261.666 91.5501 261.446 92.5901 260.176C93.1325 259.545 93.5379 258.809 93.7806 258.014C94.0233 257.218 94.0981 256.381 94.0001 255.556Z" fill="#FAFAFA"/>
<path d="M89.2308 261.746C89.2005 261.677 89.1476 261.62 89.0808 261.586C88.8208 261.426 88.3108 261.816 88.0808 261.946C87.3495 262.459 86.5806 262.917 85.7808 263.316C85.979 262.575 86.2228 261.847 86.5108 261.136C86.9708 260.016 87.4308 258.926 87.8408 257.776C88.2508 256.626 89.0608 254.856 88.4808 253.946C87.9008 253.036 86.7708 254.256 86.3908 254.716C85.9826 255.202 85.6643 255.758 85.4508 256.356C85.3212 256.574 85.2236 256.81 85.1608 257.056C85.1608 257.316 85.3708 257.476 85.6008 257.296C85.6868 257.222 85.7551 257.13 85.8008 257.026C85.9208 256.816 86.0308 256.606 86.1308 256.386C86.241 256.09 86.3783 255.806 86.5408 255.536C86.7243 255.289 86.9357 255.064 87.1708 254.866C87.3808 254.666 87.7508 254.446 87.9808 254.736C88.2108 255.026 88.1008 255.436 88.0408 255.736C87.8081 256.622 87.5037 257.489 87.1308 258.326C86.7408 259.326 86.2808 260.326 85.8608 261.326C85.5674 262.139 85.317 262.967 85.1108 263.806C84.9908 264.156 85.1108 264.496 85.2908 264.446C85.789 264.271 86.2654 264.039 86.7108 263.756C87.3794 263.326 88.0704 262.932 88.7808 262.576C88.8715 262.55 88.9588 262.513 89.0408 262.466C89.1449 262.382 89.2194 262.266 89.2536 262.137C89.2877 262.007 89.2798 261.87 89.2308 261.746Z" fill="#FAFAFA"/>
<path d="M310.563 165.747L272.533 143.787L272.523 62.2266L310.563 84.1866V165.747Z" fill="#263238"/>
<path opacity="0.25" d="M310.563 111.438L272.523 120.587L272.533 143.787L310.563 165.747V111.438Z" fill="black"/>
<path d="M310.562 84.1903L364.893 52.8203V134.38L310.562 165.75V84.1903Z" fill="#37474F"/>
<path d="M364.893 52.8194L310.563 84.1894L272.523 62.2294L326.863 30.8594L364.893 52.8194Z" fill="#455A64"/>
<path d="M334.006 83.1913L341.396 78.9213C342.396 78.3613 343.136 78.6213 343.136 79.4813C343.064 80.0164 342.87 80.5277 342.568 80.9753C342.266 81.4228 341.865 81.7945 341.396 82.0613L334.006 86.3213C333.006 86.8813 332.266 86.6212 332.266 85.7612C332.336 85.2272 332.53 84.7169 332.832 84.2709C333.134 83.8248 333.536 83.4552 334.006 83.1913Z" fill="#263238"/>
<path d="M314.992 125.551L358.462 100.461L359.462 101.031L358.452 130.661L359.452 131.241L315.992 156.341L314.992 155.761V125.551Z" fill="#263238"/>
<path d="M315.992 126.131L359.462 101.031L359.452 131.241L315.992 156.341V126.131Z" fill="#455A64"/>
<path d="M333.006 121.413L340.396 117.143C341.396 116.593 342.136 116.843 342.136 117.713C342.065 118.247 341.871 118.757 341.569 119.203C341.267 119.649 340.865 120.019 340.396 120.283L333.006 124.553C332.006 125.103 331.266 124.853 331.266 123.983C331.337 123.449 331.531 122.939 331.833 122.493C332.135 122.047 332.536 121.677 333.006 121.413Z" fill="#263238"/>
<path d="M314.992 87.9828L358.462 62.8828L359.462 63.4628L358.452 93.0928L359.452 93.6728L315.992 118.763L314.992 118.183V87.9828Z" fill="#263238"/>
<path d="M315.992 88.5509L359.462 63.4609L359.452 93.6709L315.992 118.761V88.5509Z" fill="#455A64"/>
<path opacity="0.25" d="M310.562 114.001L328.312 103.751C328.471 103.644 328.654 103.579 328.845 103.561C329.035 103.544 329.227 103.574 329.402 103.651L327.962 102.801C327.621 102.536 327.225 102.352 326.802 102.261C326.723 102.246 326.642 102.246 326.562 102.261H326.483C326.36 102.311 326.24 102.368 326.122 102.431L310.562 111.431V114.001Z" fill="black"/>
<path d="M333.006 83.8397L340.396 79.5697C341.396 79.0097 342.136 79.2697 342.136 80.1297C342.064 80.6648 341.87 81.1761 341.568 81.6237C341.266 82.0713 340.865 82.443 340.396 82.7097L333.006 86.9997C332.006 87.5597 331.266 87.2997 331.266 86.4397C331.332 85.9003 331.524 85.3841 331.826 84.9325C332.128 84.4809 332.532 84.1065 333.006 83.8397Z" fill="#263238"/>
<path d="M344.921 158.532L277.321 197.532L273.211 199.902L273.021 200.002C272.912 200.056 272.798 200.099 272.681 200.132C272.543 200.19 272.399 200.231 272.251 200.252C272.156 200.278 272.059 200.295 271.961 200.302H271.901H271.541C271.166 200.317 270.794 200.234 270.461 200.062C269.662 199.469 269.113 198.599 268.921 197.622L257.531 138.502C257.521 138.369 257.521 138.235 257.531 138.102C257.521 137.996 257.521 137.889 257.531 137.782C257.552 137.619 257.589 137.458 257.641 137.302C257.701 137.142 257.771 136.992 257.841 136.842C257.892 136.745 257.948 136.652 258.011 136.562C258.082 136.461 258.159 136.364 258.241 136.272C258.313 136.191 258.394 136.117 258.481 136.052C258.567 135.983 258.657 135.92 258.751 135.862L330.451 94.4621L330.641 94.3621L330.851 94.2721H330.941C331.027 94.2531 331.115 94.2531 331.201 94.2721C331.666 94.3687 332.101 94.5744 332.471 94.8721L334.061 95.8021C334.185 95.8556 334.298 95.9338 334.391 96.0321C334.518 96.1751 334.617 96.3415 334.681 96.5221C334.681 96.6121 334.681 96.6921 334.741 96.7721L346.131 155.952C346.193 156.452 346.113 156.96 345.899 157.417C345.685 157.874 345.346 158.26 344.921 158.532Z" fill="#32C888"/>
<path d="M344.921 158.532L277.321 197.532L273.211 199.902L273.021 200.002C272.912 200.056 272.798 200.099 272.681 200.132C272.543 200.19 272.399 200.231 272.251 200.252C272.156 200.278 272.059 200.295 271.961 200.302H271.901H271.541C271.166 200.317 270.794 200.234 270.461 200.062C269.662 199.469 269.113 198.599 268.921 197.622L257.531 138.502C257.521 138.369 257.521 138.235 257.531 138.102C257.521 137.996 257.521 137.889 257.531 137.782C257.552 137.619 257.589 137.458 257.641 137.302C257.701 137.142 257.771 136.992 257.841 136.842C257.892 136.745 257.948 136.652 258.011 136.562C258.082 136.461 258.159 136.364 258.241 136.272C258.313 136.191 258.394 136.117 258.481 136.052C258.567 135.983 258.657 135.92 258.751 135.862L330.451 94.4621L330.641 94.3621L330.851 94.2721H330.941C331.027 94.2531 331.115 94.2531 331.201 94.2721C331.666 94.3687 332.101 94.5744 332.471 94.8721L334.061 95.8021C334.185 95.8556 334.298 95.9338 334.391 96.0321C334.518 96.1751 334.617 96.3415 334.681 96.5221C334.681 96.6121 334.681 96.6921 334.741 96.7721L346.131 155.952C346.193 156.452 346.113 156.96 345.899 157.417C345.685 157.874 345.346 158.26 344.921 158.532Z" fill="#32C888"/>
<path opacity="0.45" d="M273.001 200.006C272.607 200.209 272.174 200.322 271.731 200.338C271.289 200.353 270.848 200.271 270.441 200.096C269.642 199.503 269.093 198.633 268.901 197.656L257.531 138.506C257.441 137.931 257.547 137.343 257.831 136.836L260.251 138.226C259.964 138.732 259.855 139.32 259.941 139.896L271.331 199.076C271.353 199.261 271.419 199.438 271.523 199.593C271.627 199.748 271.766 199.876 271.929 199.967C272.092 200.058 272.274 200.109 272.46 200.116C272.647 200.122 272.832 200.085 273.001 200.006Z" fill="black"/>
<path opacity="0.25" d="M332.458 94.8155L334.048 95.7455C333.854 95.6639 333.644 95.6313 333.434 95.6505C333.225 95.6697 333.024 95.7401 332.848 95.8555L261.148 137.256C260.757 137.494 260.444 137.842 260.248 138.256L257.828 136.866C257.879 136.769 257.936 136.675 257.998 136.586C258.069 136.485 258.146 136.388 258.228 136.296C258.377 136.135 258.549 135.996 258.738 135.886L330.438 94.4855L330.838 94.2955H330.928C331.014 94.2765 331.103 94.2765 331.188 94.2955C331.646 94.3684 332.081 94.5464 332.458 94.8155Z" fill="black"/>
<path d="M271.331 199.069L259.941 139.889C259.868 139.379 259.944 138.859 260.159 138.392C260.373 137.924 260.717 137.527 261.151 137.249L332.851 95.8489C333.021 95.7263 333.221 95.651 333.43 95.6306C333.639 95.6102 333.849 95.6455 334.04 95.7329C334.231 95.8202 334.396 95.9565 334.517 96.1279C334.638 96.2993 334.712 96.4998 334.731 96.7089L346.121 155.889C346.197 156.398 346.125 156.918 345.912 157.387C345.699 157.855 345.355 158.252 344.921 158.529L273.211 199.929C273.04 200.051 272.84 200.127 272.631 200.147C272.422 200.167 272.212 200.132 272.021 200.045C271.83 199.958 271.665 199.821 271.544 199.65C271.423 199.478 271.349 199.278 271.331 199.069Z" fill="#32C888"/>
<path opacity="0.35" d="M271.331 199.069L259.941 139.889C259.868 139.379 259.944 138.859 260.159 138.392C260.373 137.924 260.717 137.527 261.151 137.249L332.851 95.8489C333.021 95.7263 333.221 95.651 333.43 95.6306C333.639 95.6102 333.849 95.6455 334.04 95.7329C334.231 95.8202 334.396 95.9565 334.517 96.1279C334.638 96.2993 334.712 96.4998 334.731 96.7089L346.121 155.889C346.197 156.398 346.125 156.918 345.912 157.387C345.699 157.855 345.355 158.252 344.921 158.529L273.211 199.929C273.04 200.051 272.84 200.127 272.631 200.147C272.422 200.167 272.212 200.132 272.021 200.045C271.83 199.958 271.665 199.821 271.544 199.65C271.423 199.478 271.349 199.278 271.331 199.069Z" fill="black"/>
<path d="M275.413 185.564C275.129 185.707 274.818 185.787 274.5 185.8C274.183 185.812 273.866 185.755 273.573 185.634C272.995 185.203 272.599 184.572 272.463 183.864L264.263 141.294C264.201 140.88 264.279 140.458 264.483 140.094L266.223 141.094C266.019 141.458 265.941 141.88 266.003 142.294L274.193 184.874C274.205 185.011 274.25 185.144 274.324 185.26C274.399 185.376 274.501 185.472 274.621 185.54C274.741 185.608 274.876 185.646 275.014 185.65C275.152 185.654 275.289 185.624 275.413 185.564Z" fill="#E0E0E0"/>
<path d="M331.998 101.869L333.148 102.539C333.009 102.479 332.858 102.455 332.708 102.469C332.557 102.483 332.413 102.534 332.288 102.619L266.898 140.379C266.621 140.548 266.396 140.79 266.248 141.079L264.508 140.079L264.628 139.879L264.798 139.669C264.904 139.556 265.025 139.459 265.158 139.379L330.548 101.609L330.828 101.469H330.898H331.088C331.415 101.54 331.724 101.676 331.998 101.869Z" fill="#FAFAFA"/>
<path d="M274.188 184.875L265.998 142.295C265.943 141.928 265.995 141.553 266.15 141.215C266.304 140.878 266.554 140.593 266.868 140.395L332.258 102.625C332.381 102.539 332.524 102.486 332.674 102.472C332.824 102.459 332.974 102.485 333.111 102.547C333.247 102.61 333.365 102.707 333.452 102.83C333.54 102.952 333.593 103.095 333.608 103.245L341.798 145.825C341.853 146.192 341.8 146.567 341.646 146.904C341.491 147.242 341.242 147.527 340.928 147.725L275.538 185.495C275.415 185.581 275.271 185.634 275.122 185.647C274.972 185.661 274.821 185.635 274.685 185.572C274.548 185.51 274.431 185.412 274.343 185.29C274.256 185.168 274.203 185.024 274.188 184.875Z" fill="#F5F5F5"/>
<path d="M347.824 102.226C347.838 102.035 347.805 101.843 347.726 101.669C347.648 101.494 347.527 101.342 347.374 101.226C347.342 101.199 347.304 101.178 347.264 101.166L344.944 99.8057C344.763 99.7227 344.563 99.6891 344.364 99.7084C344.166 99.7278 343.976 99.7993 343.814 99.9157L297.334 126.716L296.004 121.236C295.905 120.866 295.664 120.55 295.334 120.356L292.914 118.956C292.693 118.822 292.438 118.751 292.179 118.751C291.92 118.751 291.666 118.822 291.444 118.956L271.654 130.406C271.186 130.71 270.797 131.12 270.517 131.603C270.237 132.086 270.075 132.628 270.044 133.186V199.126C270.026 199.315 270.056 199.506 270.131 199.681C270.206 199.856 270.324 200.009 270.474 200.126L272.964 201.576C273.145 201.646 273.34 201.67 273.532 201.646C273.724 201.621 273.907 201.549 274.064 201.436L346.244 159.766C346.711 159.461 347.099 159.05 347.377 158.567C347.655 158.084 347.815 157.542 347.844 156.986L347.824 102.226Z" fill="#32C888"/>
<path opacity="0.1" d="M295.268 120.319C295.043 120.203 294.791 120.148 294.538 120.16C294.286 120.173 294.04 120.251 293.828 120.389L274.058 131.799C273.587 132.101 273.195 132.512 272.918 132.999L270.508 131.599C270.774 131.104 271.168 130.69 271.648 130.399L291.418 118.999C291.64 118.867 291.894 118.797 292.153 118.797C292.411 118.797 292.665 118.867 292.888 118.999L295.268 120.319Z" fill="black"/>
<path opacity="0.1" d="M347.26 101.14C347.086 101.082 346.9 101.066 346.718 101.092C346.535 101.118 346.362 101.186 346.21 101.29L299.69 128.13C299.501 128.255 299.284 128.333 299.059 128.357C298.833 128.38 298.605 128.349 298.394 128.266C298.183 128.182 297.995 128.049 297.846 127.877C297.698 127.706 297.593 127.501 297.54 127.28L297.32 126.69L343.8 99.8901C344.014 99.7577 344.259 99.6851 344.51 99.6801C344.657 99.6753 344.802 99.7099 344.93 99.7801L347.26 101.14Z" fill="black"/>
<path d="M347.812 102.222V156.992C347.783 157.55 347.621 158.092 347.342 158.576C347.062 159.059 346.671 159.469 346.202 159.772L273.842 201.552C273.698 201.637 273.535 201.683 273.368 201.684C273.201 201.685 273.036 201.641 272.892 201.558C272.747 201.474 272.627 201.354 272.545 201.209C272.462 201.063 272.42 200.899 272.422 200.732V134.592C272.438 134.033 272.6 133.489 272.892 133.012C273.16 132.522 273.549 132.109 274.022 131.812L293.792 120.392C294.007 120.255 294.253 120.176 294.508 120.164C294.762 120.152 295.015 120.206 295.242 120.322C295.57 120.523 295.809 120.841 295.912 121.212L297.262 126.662L297.482 127.252C297.532 127.473 297.634 127.679 297.781 127.852C297.928 128.025 298.115 128.16 298.326 128.244C298.536 128.329 298.765 128.361 298.99 128.338C299.216 128.315 299.433 128.237 299.622 128.112L346.152 101.272C346.303 101.166 346.476 101.096 346.658 101.068C346.84 101.041 347.026 101.055 347.202 101.112H347.262C347.45 101.225 347.602 101.39 347.699 101.587C347.797 101.783 347.836 102.004 347.812 102.222Z" fill="#32C888"/>
<path opacity="0.2" d="M347.812 102.222V156.992C347.783 157.55 347.621 158.092 347.342 158.576C347.062 159.059 346.671 159.469 346.202 159.772L273.842 201.552C273.698 201.637 273.535 201.683 273.368 201.684C273.201 201.685 273.036 201.641 272.892 201.558C272.747 201.474 272.627 201.354 272.545 201.209C272.462 201.063 272.42 200.899 272.422 200.732V134.592C272.438 134.033 272.6 133.489 272.892 133.012C273.16 132.522 273.549 132.109 274.022 131.812L293.792 120.392C294.007 120.255 294.253 120.176 294.508 120.164C294.762 120.152 295.015 120.206 295.242 120.322C295.57 120.523 295.809 120.841 295.912 121.212L297.262 126.662L297.482 127.252C297.532 127.473 297.634 127.679 297.781 127.852C297.928 128.025 298.115 128.16 298.326 128.244C298.536 128.329 298.765 128.361 298.99 128.338C299.216 128.315 299.433 128.237 299.622 128.112L346.152 101.272C346.303 101.166 346.476 101.096 346.658 101.068C346.84 101.041 347.026 101.055 347.202 101.112H347.262C347.45 101.225 347.602 101.39 347.699 101.587C347.797 101.783 347.836 102.004 347.812 102.222Z" fill="black"/>
<path opacity="0.45" d="M273.001 201.602H272.931L270.441 200.162C270.295 200.041 270.179 199.888 270.105 199.714C270.03 199.54 269.998 199.35 270.011 199.162V133.182C270.028 132.623 270.19 132.079 270.481 131.602L272.891 133.002C272.602 133.479 272.44 134.023 272.421 134.582V200.722C272.417 200.91 272.47 201.095 272.574 201.252C272.677 201.409 272.826 201.531 273.001 201.602Z" fill="black"/>
<path d="M216.997 251.293C216.882 249.09 216.25 246.946 215.15 245.034C214.05 243.123 212.514 241.498 210.667 240.293C208.937 239.293 207.377 239.193 206.227 239.833L142.727 276.513L151.727 292.003L215.187 255.343C216.327 254.733 216.997 253.313 216.997 251.293Z" fill="#F0F0F0"/>
<path d="M215.178 245.054C214.112 243.121 212.57 241.493 210.698 240.324C208.968 239.324 207.408 239.224 206.258 239.864L142.758 276.544L147.258 284.284L215.258 245.044L215.178 245.054Z" fill="#F5F5F5"/>
<path d="M145.501 281.34L213.141 242.34C212.427 241.562 211.605 240.888 210.701 240.34C210.521 240.24 210.351 240.15 210.171 240.07L143.781 278.4L145.501 281.34Z" fill="#FAFAFA"/>
<path d="M147.221 277.006C149.068 278.212 150.604 279.836 151.704 281.748C152.804 283.659 153.437 285.804 153.551 288.006C153.551 292.006 150.721 293.686 147.221 291.666C145.374 290.461 143.838 288.836 142.738 286.925C141.638 285.013 141.005 282.869 140.891 280.666C140.891 276.616 143.721 275.006 147.221 277.006Z" fill="#E0E0E0"/>
<path d="M210.121 258.314C211.271 257.654 211.971 256.234 211.971 254.214C211.857 252.012 211.224 249.867 210.124 247.956C209.024 246.044 207.488 244.42 205.641 243.214C203.911 242.214 202.351 242.114 201.211 242.754L203.011 241.754C204.151 241.124 205.711 241.224 207.441 242.224C209.29 243.429 210.828 245.053 211.93 246.964C213.031 248.876 213.666 251.021 213.781 253.224C213.781 255.224 213.071 256.654 211.931 257.314L210.121 258.314Z" fill="#E0E0E0"/>
<path d="M154.065 288.266C153.936 285.889 153.249 283.577 152.059 281.516C150.869 279.455 149.209 277.704 147.215 276.406C145.325 275.316 143.615 275.206 142.375 275.926L118.375 289.786L128.145 306.506L152.065 292.696C153.295 292.006 154.065 290.446 154.065 288.266Z" fill="#32C888"/>
<path opacity="0.3" d="M150 278.731L126 292.561C125.184 291.648 124.233 290.866 123.18 290.241L147.18 276.391C148.231 277.025 149.182 277.814 150 278.731Z" fill="white"/>
<path opacity="0.05" d="M154.066 288.265C154.066 290.455 153.296 291.985 152.066 292.705L128.156 306.515C129.366 305.795 130.156 304.265 130.156 302.115C130.114 300.309 129.698 298.532 128.936 296.895L152.936 283.055C153.665 284.696 154.05 286.469 154.066 288.265Z" fill="black"/>
<path d="M123.248 290.244C125.242 291.543 126.902 293.294 128.092 295.355C129.282 297.415 129.97 299.728 130.098 302.104C130.098 306.464 127.028 308.234 123.248 306.054C121.254 304.755 119.595 303.004 118.405 300.944C117.214 298.883 116.527 296.57 116.398 294.194C116.398 289.824 119.468 288.054 123.248 290.244Z" fill="#32C888"/>
<path opacity="0.1" d="M123.248 290.244C125.242 291.543 126.902 293.294 128.092 295.355C129.282 297.415 129.97 299.728 130.098 302.104C130.098 306.464 127.028 308.234 123.248 306.054C121.254 304.755 119.595 303.004 118.405 300.944C117.214 298.883 116.527 296.57 116.398 294.194C116.398 289.824 119.468 288.054 123.248 290.244Z" fill="black"/>
<path opacity="0.2" d="M123.248 293.004C120.808 291.604 118.828 292.744 118.828 295.564C118.911 297.096 119.355 298.586 120.123 299.914C120.891 301.241 121.962 302.369 123.248 303.204C125.688 304.614 127.668 303.464 127.668 300.654C127.585 299.121 127.141 297.63 126.373 296.301C125.605 294.971 124.535 293.842 123.248 293.004ZM123.248 301.674C122.349 301.088 121.601 300.298 121.065 299.368C120.528 298.439 120.217 297.396 120.158 296.324C120.158 294.324 121.548 293.554 123.248 294.544C124.148 295.129 124.898 295.919 125.435 296.849C125.972 297.779 126.281 298.822 126.338 299.894C126.338 301.904 124.998 302.694 123.248 301.714V301.674Z" fill="black"/>
<path d="M135.236 295.18L133.516 296.17L135.236 297.15L136.946 296.17L135.236 295.18Z" fill="#32C888"/>
<path d="M156.862 287.401L155.142 286.401C154.896 286.287 154.624 286.24 154.353 286.264C154.083 286.289 153.824 286.384 153.602 286.541L135.242 297.131V303.071L153.602 292.471C154.239 292.056 154.769 291.496 155.149 290.838C155.529 290.179 155.75 289.441 155.792 288.681V288.461L155.992 288.581L156.862 287.401Z" fill="#32C888"/>
<path d="M157.49 288.813V289.693C157.448 290.452 157.227 291.191 156.847 291.849C156.466 292.507 155.937 293.067 155.3 293.483L137 304.083V298.143L155.35 287.553C156.52 286.863 157.49 287.423 157.49 288.813Z" fill="#32C888"/>
<path opacity="0.05" d="M157.49 288.813V289.693C157.448 290.452 157.227 291.191 156.847 291.849C156.466 292.507 155.937 293.067 155.3 293.483L137 304.083V298.143L155.35 287.553C156.52 286.863 157.49 287.423 157.49 288.813Z" fill="black"/>
<path d="M133.516 302.102V296.172L136.936 298.142L136.946 304.082L133.516 302.102Z" fill="#32C888"/>
<path opacity="0.1" d="M133.516 302.102V296.172L136.936 298.142L136.946 304.082L133.516 302.102Z" fill="black"/>
<path d="M369.201 200.434C368.201 201.434 365.941 202.234 351.081 203.314C348.918 203.527 346.735 203.24 344.701 202.474C342.694 201.686 340.969 200.314 339.751 198.534C339.463 198.145 339.253 197.703 339.131 197.234C339.007 196.761 339.075 196.258 339.321 195.834C339.612 195.445 340.035 195.175 340.511 195.074C341.445 194.862 342.424 194.967 343.291 195.374C344.671 195.904 345.721 196.094 345.611 195.814C345.501 195.534 344.681 195.284 343.831 194.314C342.981 193.344 342.761 192.014 343.311 191.594C343.861 191.174 343.771 191.274 344.751 192.084C345.94 192.84 347.079 193.672 348.161 194.574C348.979 195.502 350.008 196.218 351.161 196.664C352.651 197.254 354.061 197.074 358.161 196.414C361.731 195.844 363.161 195.644 364.821 194.684C366.671 191.874 371.121 180.024 373.061 176.774C375.061 173.334 379.261 173.234 379.261 173.234C379.225 177.469 378.516 181.672 377.161 185.684C374.983 190.843 372.318 195.782 369.201 200.434Z" fill="#B16668"/>
<path d="M380.427 172.879C378.709 172.589 376.943 172.9 375.427 173.759C373.177 175.169 371.707 177.759 370.277 181.079C368.537 185.079 366.438 190.399 366.438 190.399C368.465 192.365 371.113 193.567 373.927 193.799L380.638 182.649L380.427 172.879Z" fill="#32C888"/>
<path d="M396.29 290.852H390.5V300.762H396.29V290.852Z" fill="#B16668"/>
<path d="M380.273 293.349L374.493 293.549L374.203 283.059L380.273 282.859V293.349Z" fill="#B16668"/>
<path d="M398.765 216.865C398.765 222.385 397.765 254.545 397.765 254.545C397.895 256.135 399.425 258.965 399.545 264.695C399.725 272.995 396.545 295.815 396.545 295.815C395.545 296.306 394.448 296.571 393.334 296.592C392.219 296.612 391.114 296.388 390.095 295.935C390.095 295.935 387.475 265.015 386.435 256.795C385.525 249.615 383.995 230.115 383.995 230.115L381.265 253.545C381.937 256.563 382.18 259.66 381.985 262.745C381.715 266.545 380.645 290.105 380.645 290.105C379.636 290.675 378.513 291.017 377.357 291.105C376.201 291.193 375.04 291.026 373.955 290.615C373.955 290.615 369.875 257.035 369.815 253.545C369.735 249.545 371.325 208.945 371.325 208.945L398.765 216.865Z" fill="#32C888"/>
<path opacity="0.5" d="M398.765 216.865C398.765 222.385 397.765 254.545 397.765 254.545C397.895 256.135 399.425 258.965 399.545 264.695C399.725 272.995 396.545 295.815 396.545 295.815C395.545 296.306 394.448 296.571 393.334 296.592C392.219 296.612 391.114 296.388 390.095 295.935C390.095 295.935 387.475 265.015 386.435 256.795C385.525 249.615 383.995 230.115 383.995 230.115L381.265 253.545C381.937 256.563 382.18 259.66 381.985 262.745C381.715 266.545 380.645 290.105 380.645 290.105C379.636 290.675 378.513 291.017 377.357 291.105C376.201 291.193 375.04 291.026 373.955 290.615C373.955 290.615 369.875 257.035 369.815 253.545C369.735 249.545 371.325 208.945 371.325 208.945L398.765 216.865Z" fill="black"/>
<path d="M395 176.194C396.277 176.758 397.28 177.804 397.79 179.104C398.389 180.701 398.677 182.398 398.64 184.104V195.444L398.81 216.864C394.495 219.235 389.592 220.325 384.678 220.006C379.764 219.687 375.043 217.973 371.07 215.064C371.07 215.064 371.57 187.494 371.57 182.984C371.57 182.784 371.57 182.574 371.57 182.364C371.671 180.849 372.106 179.375 372.844 178.048C373.583 176.721 374.606 175.574 375.84 174.689C377.075 173.805 378.49 173.205 379.984 172.932C381.477 172.66 383.013 172.722 384.48 173.114L389.73 174.464L394.99 176.194H395Z" fill="#263238"/>
<path d="M383.142 162.459C387.203 160.777 389.132 156.12 387.45 152.059C385.767 147.997 381.111 146.068 377.049 147.751C372.988 149.433 371.059 154.089 372.741 158.151C374.424 162.213 379.08 164.141 383.142 162.459Z" fill="#32C888"/>
<path opacity="0.5" d="M383.142 162.459C387.203 160.777 389.132 156.12 387.45 152.059C385.767 147.997 381.111 146.068 377.049 147.751C372.988 149.433 371.059 154.089 372.741 158.151C374.424 162.213 379.08 164.141 383.142 162.459Z" fill="black"/>
<path d="M393.843 160.75C393.365 163.133 392.764 165.489 392.043 167.81C391.695 168.421 391.126 168.876 390.453 169.08L390.543 164.82L393.843 160.75Z" fill="#32C888"/>
<path opacity="0.5" d="M393.843 160.75C393.365 163.133 392.764 165.489 392.043 167.81C391.695 168.421 391.126 168.876 390.453 169.08L390.543 164.82L393.843 160.75Z" fill="black"/>
<path d="M392.224 152.082C392.675 152.03 393.131 152.082 393.559 152.233C393.987 152.384 394.375 152.629 394.694 152.952C395.764 154.032 395.164 157.432 393.844 160.752L391.414 161.032L392.224 152.082Z" fill="#32C888"/>
<path opacity="0.5" d="M392.224 152.082C392.675 152.03 393.131 152.082 393.559 152.233C393.987 152.384 394.375 152.629 394.694 152.952C395.764 154.032 395.164 157.432 393.844 160.752L391.414 161.032L392.224 152.082Z" fill="black"/>
<path d="M390.68 161.002C391.17 161.292 391.87 160.362 392.47 159.732C392.706 159.461 393.008 159.255 393.346 159.134C393.684 159.012 394.047 158.978 394.402 159.037C394.756 159.095 395.09 159.242 395.372 159.466C395.653 159.689 395.873 159.98 396.01 160.312C397.01 162.402 395.14 165.182 393.6 165.662C390.94 166.502 390.54 164.792 390.54 164.792L390.34 174.682C387.04 178.922 377.86 178.562 381.68 174.132V171.212C380.497 171.403 379.297 171.467 378.1 171.402C376.1 171.092 374.91 169.552 374.32 167.402C373.32 164.002 373 161.262 373.81 154.572C374.7 147.242 383.22 147.162 387.81 150.062C392.4 152.962 390.68 161.002 390.68 161.002Z" fill="#B16668"/>
<path d="M390.683 161.855C390.933 161.855 391.863 160.315 392.473 159.765C393.313 159.005 392.223 152.085 392.223 152.085C392.444 151.487 392.486 150.836 392.342 150.214C392.198 149.592 391.875 149.026 391.413 148.585C390.263 147.315 389.013 146.515 385.693 146.335C383.426 146.327 381.16 146.434 378.903 146.655C375.623 146.875 374.413 146.075 372.533 145.545C371.093 145.145 370.933 150.335 374.533 152.065C375.873 152.728 377.331 153.116 378.823 153.205C381.702 153.425 384.595 153.368 387.463 153.035C388.363 152.915 388.553 153.795 389.043 156.185C389.513 158.285 389.863 161.845 390.683 161.855Z" fill="#32C888"/>
<path opacity="0.5" d="M390.683 161.855C390.933 161.855 391.863 160.315 392.473 159.765C393.313 159.005 392.223 152.085 392.223 152.085C392.444 151.487 392.486 150.836 392.342 150.214C392.198 149.592 391.875 149.026 391.413 148.585C390.263 147.315 389.013 146.515 385.693 146.335C383.426 146.327 381.16 146.434 378.903 146.655C375.623 146.875 374.413 146.075 372.533 145.545C371.093 145.145 370.933 150.335 374.533 152.065C375.873 152.728 377.331 153.116 378.823 153.205C381.702 153.425 384.595 153.368 387.463 153.035C388.363 152.915 388.553 153.795 389.043 156.185C389.513 158.285 389.863 161.845 390.683 161.855Z" fill="black"/>
<path d="M392.22 152.623L395.16 151.033C395.066 150.835 394.932 150.658 394.767 150.513C394.603 150.368 394.41 150.258 394.202 150.19C393.993 150.122 393.773 150.096 393.554 150.116C393.336 150.135 393.123 150.199 392.93 150.303C392.535 150.523 392.24 150.887 392.108 151.32C391.975 151.752 392.016 152.219 392.22 152.623Z" fill="#32C888"/>
<path opacity="0.5" d="M392.22 152.623L395.16 151.033C395.066 150.835 394.932 150.658 394.767 150.513C394.603 150.368 394.41 150.258 394.202 150.19C393.993 150.122 393.773 150.096 393.554 150.116C393.336 150.135 393.123 150.199 392.93 150.303C392.535 150.523 392.24 150.887 392.108 151.32C391.975 151.752 392.016 152.219 392.22 152.623Z" fill="black"/>
<path d="M381.695 171.241C383.706 170.859 385.678 170.293 387.585 169.551C388.488 169.09 389.226 168.36 389.695 167.461C389.469 168.356 389.064 169.196 388.505 169.931C387.385 171.351 381.695 172.401 381.695 172.401V171.241Z" fill="#9A4A4D"/>
<path d="M381.906 159.941C381.912 160.114 381.969 160.281 382.069 160.422C382.169 160.562 382.309 160.671 382.47 160.733C382.631 160.795 382.807 160.808 382.976 160.771C383.144 160.733 383.298 160.647 383.418 160.523C383.538 160.399 383.619 160.242 383.651 160.072C383.683 159.902 383.663 159.727 383.596 159.568C383.529 159.409 383.416 159.273 383.272 159.178C383.128 159.082 382.959 159.031 382.786 159.031C382.549 159.037 382.324 159.135 382.159 159.305C381.995 159.476 381.904 159.704 381.906 159.941Z" fill="#263238"/>
<path d="M382.836 156.641L384.706 157.641C384.843 157.386 384.875 157.087 384.794 156.808C384.714 156.53 384.528 156.294 384.276 156.151C384.15 156.085 384.012 156.045 383.87 156.034C383.728 156.023 383.586 156.041 383.451 156.087C383.316 156.133 383.192 156.206 383.087 156.301C382.981 156.396 382.896 156.512 382.836 156.641Z" fill="#263238"/>
<path d="M382.094 166L380.094 166.75C380.139 166.883 380.21 167.006 380.303 167.112C380.396 167.218 380.509 167.304 380.635 167.365C380.762 167.426 380.9 167.462 381.04 167.47C381.181 167.478 381.321 167.457 381.454 167.41C381.72 167.301 381.934 167.094 382.053 166.832C382.172 166.57 382.187 166.272 382.094 166Z" fill="#9A4A4D"/>
<path d="M374.365 157.375L376.065 156.055C375.988 155.937 375.886 155.836 375.767 155.76C375.648 155.683 375.514 155.633 375.374 155.612C375.234 155.592 375.092 155.601 374.956 155.639C374.82 155.678 374.693 155.744 374.585 155.835C374.358 156.015 374.209 156.275 374.168 156.561C374.127 156.848 374.197 157.139 374.365 157.375Z" fill="#263238"/>
<path d="M374.883 159.691C374.889 159.864 374.945 160.031 375.046 160.172C375.146 160.312 375.285 160.421 375.447 160.483C375.608 160.545 375.784 160.558 375.952 160.521C376.121 160.483 376.275 160.397 376.395 160.273C376.515 160.149 376.596 159.992 376.628 159.822C376.659 159.652 376.64 159.477 376.573 159.318C376.505 159.159 376.393 159.023 376.249 158.928C376.105 158.832 375.936 158.781 375.763 158.781C375.645 158.783 375.529 158.807 375.421 158.854C375.313 158.9 375.215 158.968 375.133 159.053C375.051 159.137 374.987 159.237 374.944 159.347C374.901 159.456 374.88 159.574 374.883 159.691Z" fill="#263238"/>
<path d="M379.342 158.859L379.052 164.129L376.312 163.189L379.342 158.859Z" fill="#9A4A4D"/>
<path d="M390.501 297.898V297.078C389.951 297.318 388.661 302.228 386.361 304.318C384.541 305.988 382.051 307.908 381.411 309.768C380.771 311.628 384.881 312.768 386.591 312.458C388.591 312.108 392.011 310.718 392.871 309.458C393.731 308.198 394.131 306.258 394.871 305.308C395.611 304.358 397.181 303.308 397.561 302.208C397.67 301.196 397.558 300.172 397.231 299.208C396.961 298.208 396.671 297.058 396.321 297.158V297.788C395.5 298.441 394.48 298.794 393.431 298.788C392.551 298.718 390.491 298.548 390.501 297.898Z" fill="#263238"/>
<path d="M374.433 291.758C374.133 291.758 373.883 292.198 373.223 292.908C372.234 293.914 371.081 294.742 369.813 295.358C367.643 296.448 363.433 298.118 361.523 298.978C360.333 299.508 360.393 300.978 361.623 301.768C362.853 302.558 365.823 303.178 369.393 302.378C371.343 301.948 373.873 300.148 375.473 300.248C377.073 300.348 380.083 300.318 381.263 299.508C382.443 298.698 381.973 296.948 381.633 295.448C381.293 293.948 380.813 291.268 380.273 291.378V291.998C379.583 293.048 375.993 293.478 374.463 292.698L374.433 291.758Z" fill="#263238"/>
<path opacity="0.15" d="M384.005 230.112C381.012 229.182 378.261 227.605 375.945 225.492C375.945 225.492 377.495 228.402 382.125 231.112L381.505 251.572L384.005 230.112Z" fill="black"/>
<path d="M408.18 205.005C404.47 183.275 400.67 176.675 394.45 176.445C392.53 178.525 392.7 185.095 395.37 189.215C395.37 189.215 401.09 203.025 401.88 207.865C402.56 212.125 403.32 217.475 403.07 221.095C403.019 221.733 402.738 222.33 402.28 222.775C401.05 223.985 400.99 225.005 400.16 226.365C399.52 227.435 398.85 227.815 399.02 228.065C399.248 228.34 399.573 228.517 399.927 228.562C400.282 228.607 400.64 228.515 400.93 228.305C401.499 227.939 402.014 227.494 402.46 226.985C402.19 228.315 401.736 229.601 401.11 230.805C399.65 233.695 399.9 235.225 403.94 234.365C406.48 233.835 408.15 231.825 408.83 225.825C409.118 223.621 409.248 221.398 409.22 219.175C409.13 214.437 408.783 209.706 408.18 205.005Z" fill="#B16668"/>
<path d="M392.932 175.531C394.822 175.871 399.682 176.041 402.172 181.061C404.228 185.813 405.9 190.722 407.172 195.741C405.979 196.877 404.563 197.751 403.013 198.307C401.463 198.863 399.814 199.089 398.172 198.971L395.172 190.291C392.342 186.601 391.632 178.301 392.932 175.531Z" fill="#32C888"/>
<path d="M308.168 225.539C310.498 225.669 311.627 227.219 313.997 233.079C316.367 238.939 320.477 248.959 319.707 251.139C319.167 252.659 304.418 257.439 304.418 257.439L300.688 252.489L311.807 247.489L305.997 234.639L308.168 225.539Z" fill="#FFC1A7"/>
<path d="M278.553 244.461L263.393 245.521L262.883 246.211L275.873 271.791L290.293 269.391L278.553 244.461Z" fill="#32C888"/>
<path opacity="0.3" d="M278.553 244.461L263.393 245.521L262.883 246.211L275.873 271.791L290.293 269.391L278.553 244.461Z" fill="black"/>
<path d="M279.071 243.766L263.391 245.516L276.391 271.096L290.811 268.696L279.071 243.766Z" fill="#32C888"/>
<path d="M278.97 246.195L265.82 247.665L276.66 268.595L288.76 266.575L278.97 246.195Z" fill="#F5F5F5"/>
<path opacity="0.15" d="M276.388 247.239L275.848 246.189C275.548 245.609 274.328 245.239 273.118 245.359L270.788 245.599C269.578 245.729 268.788 246.299 269.138 246.879L269.678 247.929L276.388 247.239Z" fill="black"/>
<path d="M275.136 243.502C275.001 243.305 274.812 243.151 274.593 243.057C274.373 242.964 274.132 242.934 273.896 242.972L272.996 243.092C272.996 243.092 271.826 240.822 269.696 240.892C267.566 240.962 268.696 243.502 268.696 243.502L267.696 243.642C267.166 243.722 266.876 244.082 267.036 244.432L267.326 245.072L275.396 244.172L275.136 243.502Z" fill="#37474F"/>
<path d="M274.446 244.271C273.686 244.321 273.396 244.391 273.856 245.271C274.316 246.151 274.856 247.061 274.856 247.061L271.286 247.461C271.286 247.461 270.636 246.171 270.376 245.671C270.289 245.425 270.125 245.214 269.909 245.068C269.693 244.923 269.436 244.85 269.176 244.861L268.836 244.431L274.496 243.891L274.446 244.271Z" fill="#263238"/>
<path d="M276.58 247.379L276.04 246.329C275.75 245.749 274.52 245.379 273.31 245.499L270.99 245.739C269.78 245.869 269.04 246.439 269.34 247.019L269.88 248.069L276.58 247.379Z" fill="#37474F"/>
<path d="M284.262 256.068C284.262 256.068 284.672 253.738 283.972 252.938C283.272 252.138 280.412 252.248 278.972 251.628C277.532 251.008 277.672 252.688 278.412 253.238C280.052 254.428 283.272 254.998 284.262 256.068Z" fill="#F2A38F"/>
<path d="M293.079 352.328C293.401 353.313 293.671 354.315 293.889 355.328C294.119 356.438 294.439 358.328 294.049 359.138C293.659 359.948 292.139 360.518 289.789 360.498C288.259 360.498 285.879 361.498 284.249 362.428C282.042 363.367 279.638 363.749 277.249 363.538C275.149 363.288 272.979 362.068 272.639 361.208C272.299 360.348 272.009 359.148 277.689 357.328C277.689 357.328 284.559 355.088 286.959 352.448L293.079 352.328Z" fill="#263238"/>
<path d="M293.079 352.482L291.999 352.352L286.999 352.452C284.599 355.092 277.779 357.312 277.729 357.332L276.819 357.632C275.819 358.432 276.669 359.782 279.019 359.992C281.369 360.202 288.659 357.742 290.279 356.992C291.136 356.596 291.858 355.958 292.356 355.157C292.853 354.355 293.105 353.425 293.079 352.482Z" fill="#FFC1A7"/>
<path d="M293.075 350.328C293.075 350.328 293.075 351.698 293.075 352.478C293.075 353.258 292.155 354.428 289.775 354.338C288.095 354.278 286.925 353.828 286.995 352.448V350.448L293.075 350.328Z" fill="#FFC1A7"/>
<path d="M309.111 343.346C309.541 343.516 309.631 344.346 309.651 345.996C309.651 347.236 309.881 349.416 308.411 349.816C306.941 350.216 304.811 349.926 303.911 348.726C302.781 347.236 302.031 345.926 300.411 344.096C299.011 342.506 297.491 341.016 296.971 338.826C296.491 336.826 296.971 336.016 298.311 335.476C299.651 334.936 300.891 335.386 302.761 336.946C303.286 337.296 303.845 337.591 304.431 337.826C305.661 338.206 308.681 343.166 309.111 343.346Z" fill="#263238"/>
<path d="M309.158 341.819L309.098 343.819C309.098 343.819 307.748 346.459 303.998 343.819C303.908 343.629 303.578 339.719 303.578 339.719L309.158 341.819Z" fill="#FFC1A7"/>
<path d="M304.427 337.828C303.842 337.593 303.282 337.298 302.757 336.948C301.247 336.468 298.057 337.028 299.497 339.228C300.687 341.04 302.215 342.605 303.997 343.838C305.687 344.678 306.287 343.638 306.287 343.638L305.687 338.908C305.353 338.459 304.923 338.09 304.427 337.828Z" fill="#FFC1A7"/>
<path d="M311.897 313.892C311.56 310.341 310.826 306.839 309.707 303.452C309.707 303.452 310.997 294.532 311.997 286.002C314.347 265.932 312.787 265.612 309.947 258.632C309.947 258.632 284.217 255.322 283.137 266.022C281.797 279.352 282.407 305.192 282.627 309.912C282.847 314.632 283.237 316.782 284.627 326.682C285.687 334.222 286.707 350.682 286.707 350.682C287.74 351.224 288.899 351.479 290.064 351.419C291.229 351.359 292.356 350.987 293.327 350.342C293.327 350.342 296.547 330.082 296.477 324.632C296.417 320.596 295.829 316.585 294.727 312.702C294.727 312.702 296.917 290.982 297.477 287.532C297.477 287.532 298.097 294.452 298.327 299.182C298.557 303.912 299.827 308.452 300.957 317.252C301.957 324.882 303.567 340.822 303.567 340.822C306.937 342.762 309.297 341.882 309.297 341.882C309.297 341.882 312.637 320.512 311.897 313.892Z" fill="#32C888"/>
<path opacity="0.1" d="M297.477 287.52L298.877 278.52C301.696 278.184 304.409 277.239 306.827 275.75C306.827 275.75 305.077 278.39 300.447 279.49L298.997 289.91L298.417 300.78L297.477 287.52Z" fill="black"/>
<path d="M293.562 220.517L294.513 230.517L303.293 229.957L302.592 218.867L293.562 220.517Z" fill="#FFC1A7"/>
<path d="M311.191 229.102C310.301 226.452 308.481 224.902 304.461 224.852H302.971C302.691 226.332 298.361 227.522 294.091 226.012C293.481 226.172 291.831 226.472 290.901 226.602L288.901 226.902C285.791 227.902 284.411 233.322 284.111 241.902C283.811 250.482 282.531 268.812 282.531 268.812C282.531 268.812 289.231 272.402 299.801 271.012C304.65 270.512 309.176 268.349 312.611 264.892C311.496 260.144 309.856 255.536 307.721 251.152C312.651 239.002 312.511 233.002 311.191 229.102Z" fill="#455A64"/>
<path d="M294.508 271.362C296.26 271.385 298.011 271.282 299.748 271.052C308.368 269.922 312.188 265.172 312.548 264.882C311.429 260.153 309.793 255.562 307.668 251.192C309.675 246.64 311.067 241.841 311.808 236.922C311.398 239.492 307.608 249.422 302.648 252.402C304.782 252.949 306.634 254.276 307.838 256.122C310.228 259.402 308.268 270.662 294.508 271.362Z" fill="#37474F"/>
<path d="M288.996 208.095C288.996 208.095 285.676 204.095 288.276 200.285C291.346 195.735 296.746 194.205 303.426 196.185C306.736 197.185 311.586 201.735 311.826 208.185C312.016 213.115 298.176 216.385 298.396 219.765L288.996 208.095Z" fill="#263238"/>
<path d="M287.05 209.539C287.05 209.539 285.1 212.479 285.35 212.799C285.806 213.097 286.31 213.313 286.84 213.439L287.05 209.539Z" fill="#F2A38F"/>
<path d="M292.996 200.216C291.106 201.216 287.836 203.006 286.996 209.966C286.136 217.126 287.726 219.606 288.706 220.546C289.356 221.176 292.756 221.406 294.526 220.856C296.746 220.166 301.526 217.796 303.796 214.106C306.446 209.756 306.996 203.976 303.936 201.706C302.388 200.552 300.572 199.81 298.659 199.55C296.745 199.289 294.797 199.518 292.996 200.216Z" fill="#FFC1A7"/>
<path d="M292.426 200.515C292.426 200.515 290.776 207.045 292.756 211.165C292.756 211.165 293.916 208.615 296.106 209.345C298.296 210.075 298.106 213.025 296.366 214.525C295.923 214.955 295.368 215.25 294.765 215.377C294.161 215.505 293.534 215.459 292.956 215.245C292.956 215.245 293.016 218.855 296.096 220.245C296.096 220.245 302.556 223.335 308.386 217.105C313.676 211.445 312.986 201.315 305.196 198.725C297.406 196.135 292.426 200.515 292.426 200.515Z" fill="#263238"/>
<path d="M319.367 205.859L319.287 205.949C319.237 206.022 319.177 206.086 319.107 206.139C318.957 206.259 318.867 206.139 318.707 206.139L317.457 205.629L315.687 204.879C315.037 204.599 314.347 204.309 313.687 203.999C313.477 203.909 313.737 203.239 313.957 203.319C314.667 203.569 315.367 203.839 316.027 204.079L317.817 204.779L319.077 205.279C319.227 205.349 319.377 205.329 319.397 205.519C319.407 205.609 319.407 205.699 319.397 205.789L319.367 205.859Z" fill="#32C888"/>
<path d="M319.361 197.512V197.632C319.371 197.718 319.371 197.806 319.361 197.892C319.361 198.082 319.201 198.072 319.051 198.142L317.791 198.662L316.011 199.382C315.361 199.632 314.661 199.922 314.011 200.182C313.801 200.252 313.511 199.602 313.721 199.492C314.401 199.172 315.091 198.872 315.721 198.582C316.351 198.292 316.961 198.042 317.481 197.822L318.731 197.282C318.881 197.282 318.981 197.122 319.121 197.282C319.192 197.338 319.256 197.401 319.311 197.472L319.361 197.512Z" fill="#32C888"/>
<path d="M316.138 200.829C316.14 202.188 315.739 203.517 314.985 204.648C314.232 205.779 313.16 206.661 311.904 207.183C310.649 207.704 309.268 207.842 307.934 207.578C306.601 207.314 305.376 206.66 304.414 205.7C303.452 204.74 302.797 203.516 302.531 202.183C302.265 200.85 302.401 199.468 302.92 198.212C303.44 196.956 304.321 195.883 305.451 195.127C306.581 194.372 307.909 193.969 309.268 193.969C310.17 193.967 311.063 194.144 311.897 194.488C312.73 194.832 313.488 195.337 314.126 195.974C314.764 196.612 315.27 197.368 315.615 198.201C315.961 199.034 316.138 199.927 316.138 200.829Z" fill="#263238"/>
<path d="M287.411 197.585C284.511 200.585 284.341 209.065 292.761 211.165L298.271 196.065C295.061 193.995 290.001 194.995 287.411 197.585Z" fill="#263238"/>
<path d="M291.911 213.51C291.706 213.436 291.517 213.322 291.355 213.175C291.194 213.028 291.063 212.85 290.97 212.652C290.877 212.454 290.824 212.24 290.814 212.022C290.804 211.804 290.837 211.586 290.911 211.38C290.986 211.175 291.099 210.986 291.247 210.824C291.394 210.663 291.571 210.532 291.769 210.439C291.967 210.346 292.181 210.293 292.399 210.283C292.618 210.273 292.836 210.306 293.041 210.38L291.911 213.51Z" fill="#263238"/>
<path d="M300.613 197.512V197.632C300.598 197.718 300.598 197.806 300.613 197.892C300.613 198.082 300.773 198.072 300.923 198.142L302.173 198.662L303.953 199.382C304.613 199.632 305.303 199.922 306.013 200.182C306.223 200.252 306.513 199.602 306.293 199.492C305.613 199.172 304.933 198.872 304.293 198.582C303.653 198.292 303.043 198.042 302.533 197.822L301.283 197.282C301.123 197.282 301.033 197.122 300.883 197.282C300.815 197.338 300.755 197.402 300.703 197.472L300.613 197.512Z" fill="#32C888"/>
<path d="M300.612 205.859L300.682 205.949C300.732 206.024 300.796 206.089 300.872 206.139C301.012 206.259 301.102 206.139 301.262 206.139L302.522 205.629L304.292 204.879L306.292 203.999C306.492 203.909 306.232 203.239 306.012 203.319C305.302 203.569 304.602 203.839 303.952 204.079L302.152 204.779L300.892 205.279C300.742 205.349 300.602 205.329 300.582 205.519C300.567 205.608 300.567 205.7 300.582 205.789L300.612 205.859Z" fill="#32C888"/>
<path d="M289.499 226.851C289.499 226.851 288.119 226.661 282.959 228.041C277.799 229.421 265.649 232.201 265.649 232.201C265.649 232.201 251.369 225.331 250.749 224.581C250.129 223.831 250.479 222.321 250.649 221.481C250.819 220.641 251.099 218.801 251.289 218.281C251.619 217.371 250.289 217.611 249.479 218.461C248.669 219.311 248.339 220.971 247.939 221.261C247.539 221.551 244.539 218.081 243.079 216.421C241.619 214.761 240.939 213.581 239.969 214.271C239.259 214.771 239.709 215.761 240.759 217.191C241.249 217.791 241.7 218.423 242.109 219.081C242.229 219.331 241.849 219.541 241.689 219.681C241.529 219.821 240.909 220.341 240.869 220.741C240.889 220.957 240.889 221.175 240.869 221.391C240.739 221.861 240.149 222.081 239.979 222.551C239.809 223.021 239.979 223.261 239.929 223.621C239.879 223.981 239.759 224.051 239.719 224.271C239.705 224.498 239.74 224.725 239.821 224.937C239.902 225.149 240.027 225.341 240.189 225.501C241.189 226.721 242.609 227.191 243.949 227.931C245.069 228.551 246.219 228.821 247.509 229.391C248.799 229.961 263.679 240.571 266.359 240.331C269.359 240.071 287.859 236.761 287.859 236.761C292.669 233.461 289.499 226.851 289.499 226.851Z" fill="#FFC1A7"/>
</svg>
