<svg xmlns="http://www.w3.org/2000/svg" width="113.334" height="118.067" viewBox="0 0 113.334 118.067"><defs><style>.a{fill:#eb2424;}</style></defs><path class="a" d="M407.835,243.326a43.947,43.947,0,0,1,66.744-23.011,68.47,68.47,0,0,0,7.978-9.9,56.638,56.638,0,0,0-87.317,30.747l5.682,1.093Q404.4,242.922,407.835,243.326Z" transform="translate(-393.101 -195.209)"/><path class="a" d="M491.228,183.62c.13,5.021-2.551,12.415-7.818,20.216a77.19,77.19,0,0,1-8,9.908c-36.919,31.829-77.835,26.7-86.972,23.214a56.717,56.717,0,0,0,2.406,26.19,87.425,87.425,0,0,0,13.578-.11c32.142-2.125,62.512-18.233,77.51-41.125a61.967,61.967,0,0,0,6.447-12.749A53.58,53.58,0,0,0,491.228,183.62Z" transform="translate(-387.86 -183.62)"/><path class="a" d="M420.844,377.06c18.741-2,51.6-11.83,76.954-44.885a85.968,85.968,0,0,0,6.473-12.6q1.13-2.757,1.965-5.389a75.663,75.663,0,0,1-4.713,7.117q-1.9,2.548-4.058,5.024c-17.155,19.63-44.427,32.721-73.061,35.536-3.684.362-7.389.565-11.1.58l-3.394.012A56.951,56.951,0,0,0,420.844,377.06Zm90.6-64.86a61.333,61.333,0,0,1-.562,12.05,68.838,68.838,0,0,1-4.133,15.343c-8.508,21.619-27.669,40.954-51.607,53.169,1.661.148,3.34.232,5.038.232A56.649,56.649,0,0,0,511.449,312.2Z" transform="translate(-403.518 -274.928)"/></svg>