<svg width="16" height="16" viewBox="0 0 16 16" fill="none" xmlns="http://www.w3.org/2000/svg">
<g clip-path="url(#clip0_802_29)">
<path d="M8.7 0.290793C8.51264 0.104542 8.25919 0 7.995 0C7.73081 0 7.47736 0.104542 7.29 0.290793C7.10344 0.478197 6.99871 0.731863 6.99871 0.996293C6.99871 1.26072 7.10344 1.51439 7.29 1.70179L12.17 6.58579H1C0.734784 6.58579 0.48043 6.69115 0.292893 6.87869C0.105357 7.06622 0 7.32058 0 7.58579C0 7.85101 0.105357 8.10536 0.292893 8.2929C0.48043 8.48044 0.734784 8.58579 1 8.58579H12.17L7.294 13.4698C7.10744 13.6572 7.00271 13.9109 7.00271 14.1753C7.00271 14.4397 7.10744 14.6934 7.294 14.8808C7.48136 15.067 7.73481 15.1716 7.999 15.1716C8.26319 15.1716 8.51664 15.067 8.704 14.8808L16 7.58579L8.7 0.290793Z" fill="white"/>
</g>
<defs>
<clipPath id="clip0_802_29">
<rect width="16" height="15.173" fill="white"/>
</clipPath>
</defs>
</svg>
