<svg xmlns="http://www.w3.org/2000/svg" xmlns:xlink="http://www.w3.org/1999/xlink" width="300.135" height="486.921" viewBox="0 0 300.135 486.921">
  <defs>
    <linearGradient id="linear-gradient" x1="0.5" y1="1" x2="0.5" gradientUnits="objectBoundingBox">
      <stop offset="0" stop-color="gray" stop-opacity="0.251"/>
      <stop offset="0.54" stop-color="gray" stop-opacity="0.122"/>
      <stop offset="1" stop-color="gray" stop-opacity="0.102"/>
    </linearGradient>
  </defs>
  <g id="hiw-mobile" transform="translate(-289.038 -133.35)" opacity="0.1">
    <ellipse id="Ellipse_129" data-name="Ellipse 129" cx="84.415" cy="7.494" rx="84.415" ry="7.494" transform="translate(355.656 605.283)" fill="#eb2424" opacity="0.1"/>
    <path id="Path_774" data-name="Path 774" d="M946.713,795.989s27.038-1.482,23.869,15.567a4.072,4.072,0,0,1-2.4,4.388s-.049-1.268-2.774-.838a13.52,13.52,0,0,1-2.938.126,6.418,6.418,0,0,1-3.589-1.334h0s-7.605-2.824-10.56-14.017c0,0-2.189-2.439-2.1-3.061l4.56,1.749s-1.556,2.965-.329,5.434c0,0,.148-5.322,1.021-5.189.181,0,2.37,1.023,2.37,1.023s-2.683,5.189-.658,8.9c0,0-.766-6.36,1.5-8.54l3.21,1.683s-3.136,5.337-1,9.688c0,0-.552-6.671,1.646-9.273l2.914,2.046s-2.947,5.256-1.152,8.9c0,0,.239-7.768,1.786-8.362a16.809,16.809,0,0,1,2.93,2.854s-2.017,3.817-.765,5.834c0,0,.765-5.189,1.4-5.189,0,0,2.535,3.432,2.8,5.782a11.628,11.628,0,0,0-2.181-6.108,7.967,7.967,0,0,1,3.885,1.809s-.4-2.424-4.519-2.639c0,0-2.091-2.6-2.65-2.758,0,0,4.115-.311,6.585.682,0,0-2.19-2.283-7.334-1.245l-2.873-2.113s5.391-.667,7.679.067c0,0-2.634-2.024-8.453-.549l-3.128-1.683a31.52,31.52,0,0,1,7.334-.571s-2.889-1.4-8.231.119l-2.239-.9s3.366-.6,4.354-.689,1.037-.341,1.037-.341a12.886,12.886,0,0,0-6.321.63S946.631,796.27,946.713,795.989Z" transform="translate(-395.295 -229.371)" fill="#eb2424"/>
    <ellipse id="Ellipse_132" data-name="Ellipse 132" cx="19.137" cy="2.913" rx="19.137" ry="2.913" transform="translate(550.9 585.179)" fill="#eb2424" opacity="0.1"/>
    <path id="Path_775" data-name="Path 775" d="M872.025,512.3a47.79,47.79,0,0,1-.9-7.9c0-3.18-4.8-6-4.8-6s-2.963-6.175-4.939-7.087-8.074-8.992-8.074-8.992a6.938,6.938,0,0,0-1.835-4.359,62.549,62.549,0,0,1-5-6.79h0c-.823-.9-.411-1.542-1.646-6.812a7.6,7.6,0,0,0-.231-.793.97.97,0,0,0-.132-.341,8.276,8.276,0,0,0,2.329-9.214,3.69,3.69,0,0,0-1.169-1.631c-1.391-1.023-3.613-.6-5.046-1.572l1.523-6.064c.362-1.483.551-3.358-.889-4.159a8.056,8.056,0,0,0-1.7-.511c-2.469-.741-3.9-3.091-4.543-5.352a16.574,16.574,0,0,1-.494-6.671c.28-2.15.98-4.24,1.235-6.4a16.214,16.214,0,0,0-3.021-11.371,9.38,9.38,0,0,0-3.992-3.395c-1.523-.615-3.292-.741-4.716-1.483-3.062-1.757-2.906-5.93-5.35-8.324s-6.774-2.387-10.338-1.564-7.111,2.224-10.766,1.875c-2.354-.237-4.56-1.2-6.922-1.423a8.086,8.086,0,0,0-2.025.082v-.067c-1.745.282-3.35,1.156-3.762,2.646a3.66,3.66,0,0,0-.115,1.082c0,.867.23,1.772.247,2.6a2.322,2.322,0,0,1-.667,1.831c-.469.452-1.161.689-1.646,1.156a1.76,1.76,0,0,0-.6,1.364c0,1.319,1.827,2.483,3.054,3.017h.049c-.329.3-.658.608-.963.927a18.455,18.455,0,0,0-5.449,12.965c.061,7.884,5.312,14.984,13.367,18.072l-.173.482a26.068,26.068,0,0,1-1.21,2.8,6.763,6.763,0,0,0-5.169.519c-2.354,1.483-6.955,1.364-8.182,1.09s-13.992-1.727-15.021-1.364-3.062-1.268-4.387.912-1.942,3.358-3.292,3.906-3.679,2.268-3.366,2.632-3.375,2.543-3.375,2.543-3.169,2.965-5,3.358a30.66,30.66,0,0,0-5.72,2.639l-4.5,3.173s-3.366.46-2.346-1.631-1.844-4.722-1.844-4.722-5.72-10.444-5.72-12.6-4.7-11.356-4.7-11.356l-.576-.052-.263-.675a68.414,68.414,0,0,0-2.84-6.442c-1.646-3-2.659-3.313-2.659-3.313s-19.82-13.4-32.693-9.318,23.5,16.256,26.767,17.531c1.144.445,1.967,1.883,2.543,3.565a16.463,16.463,0,0,0-7.037,5.7s7.869,15.707,8.075,19.614,5.416,14.825,5.416,14.825,1.943,8.087,12.462,7.628c0,0,14.511,2.4,17.68,0s6.025-4.285,7.564-4.559a6,6,0,0,0,2.856-1.816s-4.8,27.242-7.153,29.606-23.153,32.949-15.688,38.42a151.529,151.529,0,0,0,18.692,11.119c.634.282,2.535-2.572,5.251-4.6v1.579c.049,10.882,1.646,27.427,3.852,31.133,3.292,5.448,1.942,15.982,1.942,15.982a15.271,15.271,0,0,0,5.523,1.193c.1.356.214.741.321,1.112,1.8,6.13,4.724,15.611,6.214,18.132,2.247,3.817,3.877,15.9,3.877,15.9s1.333,11.86.823,13.528c-.2.63.667,5.567,2.025,11.86h0c-.823,8.517-2.387,24.936-2.65,30.874h0v.43a1.611,1.611,0,0,1,0,.2v.363h0a5,5,0,0,0,.049,1.119,3.287,3.287,0,0,1-.14,1.69,27.991,27.991,0,0,1-2.214,4.759,21.378,21.378,0,0,0-.988,2.3,4.234,4.234,0,0,0-2.387,3.054c-1.021,3.543-2.552,13.343-2.552,13.343s-.617,6-1.836,7.361-2.469,9.9,6.231,10.985,12.461-4.151,12.461-4.151l-.3-23.78v-.044a3.58,3.58,0,0,0,.453-.645v-.059c.058-.111.123-.23.181-.363l.074-.178.132-.289a.389.389,0,0,1,0-.1,14.24,14.24,0,0,0,.741-7.079v-1a2.554,2.554,0,0,1,.049-.489v-.089l.049-.289v-.126a.5.5,0,0,1,.066-.3.3.3,0,0,1,0-.074c.082-.341.181-.741.288-1.067v-.082l.123-.356h0c.123-.378.263-.741.411-1.142v-.074a.974.974,0,0,1,.14-.348v-.044c.148-.363.3-.741.453-1.053l.041-.1.132-.3.041-.089.313-.66h0l2.412,6.708s1.333,5,.617,6.175.823,6.086,1.836,6.175l-.947,6.175a85.242,85.242,0,0,0-.914,10.267c-.066.393-.132.741-.181.978-.658,3.165.922,8.073.922,8.073,8.066,8.591,17.68.667,17.68.667s1.119-4.544,0-5.448-.617-4.181-.617-4.181.51-8.087.609-13.988-5.358-11.119-5.358-11.119l-.3.245c-1-2.313-2.132-5.011-1.893-6.219.411-2.09-1.128-24.158-1.128-24.158a117.948,117.948,0,0,0,.362-17.79h0c.132-1,.255-1.987.379-2.965.617-4.744,1.119-8.8,1.317-10.926h0v-.252c.049-.571.074-.979.066-1.171,0-.741,0-1.586.082-2.513.189-2.55.634-5.389.634-5.389l2.14-11.719s1.646-5.722,3.992-8.9l.28-.4h0c.091-.141.181-.3.28-.46l.041-.067c.09-.156.189-.319.28-.489l.041-.067c.329-.586.683-1.26,1.053-2,0-.059.058-.111.082-.171l.28-.563c0-.074.066-.148.107-.222s.173-.378.263-.563a2.068,2.068,0,0,0,.107-.23c.107-.222.222-.452.329-.689l.156-.341c.074-.17.156-.341.239-.511l.2-.452c.058-.111.107-.222.156-.334l.222-.512c0-.074.074-.156.107-.23.584-1.312,1.144-2.609,1.646-3.788h0c.156-.371.313-.741.453-1.067,5.235.289,8.791.548,8.791.548s1.646-10.622,1.119-17.613c-.346-4.774.642-10.778,1.292-14.084.074-.363.14-.689.206-.986l.14.1c2.56,1.816,4.4-4.181,4.4-4.181s-.691-5.6-1.646-12.379l-.1-.675a42.684,42.684,0,0,0,4.469.615s.823-.067,1.951-.193a57.072,57.072,0,0,0,9.828,4l5.44-9.043a36.278,36.278,0,0,1,3.58-5.359c1.646-1.816,7.457-7.628,7.358-8.717s1.942-7.361,3.984-10.178S872.124,512.748,872.025,512.3Zm-22.684,6.9c-2.148.815-4.189,5.359-4.288,6.723s-2.354,7.353-4.7,8.08c-2.165.667-6.3,4.092-6.955,4.64-.675.052-1.44.133-2.239.252-.9-5.73-1.786-10.474-2.354-11.43-1.646-2.728,1.8-11.445,1.8-11.445s.338-8.806,2.469-10.9,1.646-7.361,1.646-7.361.51-2.179.716-3.173,3.037,0,3.062,0h0s5.515,2.72,6.338,6.8,6.848,11.171,6.848,11.171-.922,2.454,0,3.706S851.489,518.381,849.341,519.2Z" transform="translate(-347.546 -125.635)" fill="url(#linear-gradient)"/>
    <path id="Path_776" data-name="Path 776" d="M707,455.338a17.151,17.151,0,0,1,16.462-6.983v10.608h-7.153l-5.6-1.275Z" transform="translate(-352.974 -139.395)" fill="#4c4981"/>
    <path id="Path_777" data-name="Path 777" d="M707,455.338a17.151,17.151,0,0,1,16.462-6.983v10.608h-7.153l-5.6-1.275Z" transform="translate(-352.974 -139.395)" opacity="0.1"/>
    <path id="Path_778" data-name="Path 778" d="M718.7,444.051l-8.766,5.53s-.074-1.1-.3-2.617c-.436-2.861-1.416-7.153-3.531-7.983-3.218-1.275-39.047-13.417-26.339-17.5s32.207,9.3,32.207,9.3,1,.311,2.609,3.3c.823,1.571,1.951,4.247,2.8,6.434C718.163,442.487,718.7,444.051,718.7,444.051Z" transform="translate(-347.675 -132.281)" fill="#ae6e79"/>
    <path id="Path_779" data-name="Path 779" d="M714.175,431.933l1-.422,2.8,2.876-2.288,4.4-3.9-1.408.905-3.514Z" transform="translate(-273.124 -111.645)" fill="#4c4981"/>
    <path id="Path_780" data-name="Path 780" d="M794.75,811s-2.519-.267-3.523,3.269-2.519,13.343-2.519,13.343-.6,5.982-1.811,7.346-2.412,9.881,6.14,10.963,12.281-4.144,12.281-4.144l-.3-23.772Z" transform="translate(-366.958 -233.261)" fill="#444053"/>
    <path id="Path_781" data-name="Path 781" d="M830.044,812.44s5.383,5.189,5.284,11.075-.609,13.958-.609,13.958-.494,3.269.609,4.173,0,5.441,0,5.441-9.466,7.909-17.417-.667c0,0-1.547-4.9-.905-8.058s2.436-17.353,2.436-17.353Z" transform="translate(-372.408 -233.636)" fill="#444053"/>
    <path id="Path_782" data-name="Path 782" d="M838.375,664.469s-5.432,13.684-7.753,16.857-3.918,8.9-3.918,8.9l-2.115,11.69a58.915,58.915,0,0,0-.708,7.887c.1,2.632-5.235,40.97-5.235,40.97l-8.453,9.7s-3.72,6.8-3.12,9.636-.4,7.346-1.646,8.7c0,0-.2,8.9-.5,10.874s1.111,7.62,0,8.613-15.9.549-16.305-1.09,1.811-9.518,1.811-9.518l1.309-7.613s2.617-4.166,2.017-5.53,1.1-4.529,1.2-4.8,2.823-4.714,2.321-6.434,3.169-38.294,3.169-38.294L810.81,659.48Z" transform="translate(-367.405 -194.06)" fill="#ae6e79"/>
    <path id="Path_783" data-name="Path 783" d="M838.375,664.474s-.823,2.061-1.951,4.766c-1.794,4.27-4.379,10.148-5.8,12.09-2.313,3.173-3.926,8.9-3.926,8.9l-2.115,11.7a59.343,59.343,0,0,0-.7,7.887c0,1.038-.774,7.657-1.761,15.285-1.523,11.66-3.473,25.685-3.473,25.685l-8.453,9.7s-.428.741-.963,1.913c-1.062,2.224-2.56,5.834-2.157,7.694.6,2.809-.4,7.339-1.646,8.7,0,0-.206,8.9-.5,10.874s1.111,7.613,0,8.613-15.9.549-16.305-1.082,1.811-9.518,1.811-9.518l1.309-7.62s2.617-4.166,2.008-5.53,1.111-4.529,1.21-4.8,2.823-4.714,2.321-6.434c-.387-1.312,1.646-22.787,2.593-32.972.321-3.2.527-5.285.527-5.285l8.914-56.381.724-4.544.724-4.611Z" transform="translate(-367.405 -194.065)" opacity="0.1"/>
    <path id="Path_784" data-name="Path 784" d="M828.686,802.368c.091,1-14.2,2.453-16.24,1.364s0-14.6,0-14.6l.93-6.16c-1-.1-2.51-4.989-1.811-6.167s-.6-6.16-.6-6.16l-2.37-6.671-1.449-4.084c-2.354-4.677-5.761-18.02-7.877-27.983-1.333-6.256-2.181-11.186-1.992-11.816.5-1.631-.823-13.506-.823-13.506s-1.646-12.06-3.819-15.863c-1.473-2.52-4.346-11.986-6.124-18.094-.905-3.136-1.531-5.389-1.531-5.389s15.21-1.149,24.437-1.549c4.239-.185,7.219-.208,6.873.1s-.436,1.972-.42,4.373c.041,6.219,1,17.16,2.025,20.1,1.407,4.077,2.815,16.308,2.214,17.494s-.4,9.066-.4,9.066a37.073,37.073,0,0,1,1.778,9.837,119.772,119.772,0,0,1-.346,17.709s1.506,22.03,1.1,24.114,3.218,8.613,3.218,9.881,1,9.881,1,9.881S828.62,801.375,828.686,802.368Z" transform="translate(-366.77 -195.632)" fill="#ae6e79"/>
    <path id="Path_785" data-name="Path 785" d="M839.617,479.526l-1.728,1.683-1.128,1.1-6.585,6.375-17.013,1.727-9.054-2.179-2.239-.541s0-4.092.4-9c.576-6.293,1.951-13.936,5.235-16.019a12.065,12.065,0,0,0,3.827-4.366,23.245,23.245,0,0,0,1.646-3.662c.066-.163.115-.319.173-.482a37.45,37.45,0,0,0,1.6-6.723s2.173-1.082,5.194-2.342c7.877-3.313,21.483-7.887,16.75,2.342a37.409,37.409,0,0,0-1.778,4.6c-.074.23-.14.46-.2.682-1.58,5.693-.535,9.147.642,11.052h0a6.914,6.914,0,0,0,.683.941,5.243,5.243,0,0,0,1.144,1.045l1.959,11.2.165.926Z" transform="translate(-369.758 -137.572)" fill="#ae6e79"/>
    <path id="Path_786" data-name="Path 786" d="M839.093,448.176c-.9,1.942.436-1.586,0,0-3.589,2.3-12.042,8.843-16.791,8.843-3.21,0-4.173-.526-6.922-1.646a37.038,37.038,0,0,0,1.77-7.2S845.636,434.033,839.093,448.176Z" transform="translate(-372.148 -137.762)" opacity="0.1"/>
    <path id="Path_787" data-name="Path 787" d="M843.567,427.4c-.009,10.11-8.484,18.586-19.647,19.651-.757.067-1.523.111-2.3.111-12.119,0-21.943-8.848-21.943-19.762s9.824-19.762,21.943-19.762,21.944,8.848,21.943,19.762Z" transform="translate(-369.37 -128.901)" fill="#ae6e79"/>
    <path id="Path_788" data-name="Path 788" d="M845.114,535.419l-3.128,7.346s-2.543.1-6.511.208c-13.392.385-42.9.875-44.216-2.224a7.176,7.176,0,0,1-.461-2.439c-.173-4.722,2.272-11.972,2.272-11.972s1.407-14.507,1.407-15.137-1.21-10.793-1.21-10.793l2.42-8.154,6.741-4.262s3.021,4.173,4.831,4.529a12.785,12.785,0,0,1,4.231,2.365s5.934,3.261,7.852,1.445,16.807-9.792,16.807-9.792l7.852,7.8Z" transform="translate(-367.797 -149.315)" opacity="0.1"/>
    <path id="Path_789" data-name="Path 789" d="M845.119,536.939l-3.128,7.339s-2.543.1-6.51.215h-.387c-1.712.052-3.671.1-5.762.141-10.643.222-25.3.282-32.964-.741-2.881-.371-4.766-.9-5.078-1.631a6.011,6.011,0,0,1-.362-1.349c-.049-.341-.082-.741-.1-1.09-.173-4.722,2.272-11.971,2.272-11.971s1.407-14.507,1.407-15.137-1.21-10.793-1.21-10.793l2.42-8.154,4.634-2.921,2.107-1.334a28.955,28.955,0,0,0,2.313,2.743,6.1,6.1,0,0,0,2.519,1.786,12.826,12.826,0,0,1,4.231,2.365s5.934,3.262,7.852,1.445c1.457-1.386,10.511-6.375,14.692-8.651,1.284-.7,2.115-1.142,2.115-1.142l1.053,1.053,6.8,6.746Z" transform="translate(-367.803 -149.708)" fill="#fff"/>
    <path id="Path_790" data-name="Path 790" d="M725.7,450.966l-8.766,5.53s-.074-1.1-.3-2.617a17.056,17.056,0,0,0,7.72-6.449C725.167,449.4,725.7,450.966,725.7,450.966Z" transform="translate(-354.679 -139.196)" opacity="0.1"/>
    <path id="Path_791" data-name="Path 791" d="M754.786,469.988l-1.91-.46s-3.128,2.965-4.938,3.358a30.036,30.036,0,0,0-5.63,2.624l-4.436,3.173s-3.292.46-2.313-1.631-1.811-4.714-1.811-4.714-5.638-10.422-5.638-12.6-4.659-11.327-4.659-11.327-5.844,10.244-16.511,6.983c0,0,7.753,15.678,7.951,19.577s5.333,14.773,5.333,14.773,1.918,8.072,12.281,7.62c0,0,14.3,2.394,17.416,0s5.935-4.277,7.408-4.551A6.088,6.088,0,0,0,760.144,491V480.225Z" transform="translate(-352.963 -139.449)" fill="#4c4981"/>
    <path id="Path_792" data-name="Path 792" d="M743.3,491.33s2.519,8.436.905,9.34Z" transform="translate(-359.396 -150.554)" opacity="0.1"/>
    <path id="Path_793" data-name="Path 793" d="M835.477,562.513c-13.391.385-42.9.867-44.216-2.224a7.178,7.178,0,0,1-.461-2.439l43.747,2.076Z" transform="translate(-367.799 -167.765)" opacity="0.1"/>
    <path id="Path_794" data-name="Path 794" d="M837.743,664.469s-.823,2.061-1.951,4.766c-5.556-.3-12.914-.623-19.9-.667-2.469,0-4.889,0-7.177.074a59.776,59.776,0,0,0-11.729,1.171,34.339,34.339,0,0,1-10.453,1.216c-.905-3.136-1.531-5.389-1.531-5.389s15.211-1.149,24.437-1.549l.724-4.611Z" transform="translate(-366.773 -194.06)" opacity="0.1"/>
    <path id="Path_795" data-name="Path 795" d="M847.386,605.339l-1.712,3.262s-.239.971-.543,2.513c-.642,3.321-1.646,9.31-1.267,14.084.5,6.983-1.111,17.583-1.111,17.583s-37.039-2.809-47.9,0-16.215,0-16.215,0,1.317-10.511-1.91-15.952c-2.2-3.706-3.745-20.252-3.794-31.133,0-5.018.28-8.821.98-9.592,2.214-2.446,11.671-26.923,11.671-26.923l2.156.1,5.762.274,32.759,1.557,5.144.245.543,1.482Z" transform="translate(-364.638 -168.109)" fill="#444053"/>
    <path id="Path_796" data-name="Path 796" d="M879.949,602.263l.3,2.906s-16.223-4.759-15.4-10.607,0-5.189,0-5.189l13.038.993Z" transform="translate(-380.895 -175.915)" fill="#4c4981"/>
    <path id="Path_797" data-name="Path 797" d="M879.949,602.263l.3,2.906s-16.223-4.759-15.4-10.607,0-5.189,0-5.189l13.038.993Z" transform="translate(-380.895 -175.915)" opacity="0.1"/>
    <path id="Path_798" data-name="Path 798" d="M755.921,493.667a15.065,15.065,0,0,0,5.712,2.676,3.891,3.891,0,0,1-1.646-.741c-1.161-.741-2.263-1.549-3.383-2.335a10.719,10.719,0,0,0-3.144-1.957A16.435,16.435,0,0,0,755.921,493.667Z" transform="translate(-361.193 -150.549)" opacity="0.1"/>
    <path id="Path_799" data-name="Path 799" d="M755.79,498.376a6.492,6.492,0,0,1,1.251,1.786,9.766,9.766,0,0,1-.09,5.611l-2.6-5.649c-.453-.964-.905-1.927-1.449-2.846-.239-.393-1.737-2.031-1.564-2.372C751.8,493.943,755.3,497.835,755.79,498.376Z" transform="translate(-360.815 -151.44)" opacity="0.1"/>
    <path id="Path_800" data-name="Path 800" d="M842.68,541.144a8.805,8.805,0,0,0,4.733-1.994c-2.675.3-5.21,1.253-7.844,1.749a12.849,12.849,0,0,1-7.309-.608C835.289,541.626,839.454,541.67,842.68,541.144Z" transform="translate(-375.134 -162.927)" opacity="0.1"/>
    <path id="Path_801" data-name="Path 801" d="M832.91,516.948a1.992,1.992,0,0,1-1.358-.3q-3.012-1.557-5.943-3.247a39.875,39.875,0,0,1-5.819-3.617C823.782,513.027,827.5,515.77,832.91,516.948Z" transform="translate(-372.928 -155.328)" opacity="0.1"/>
    <path id="Path_802" data-name="Path 802" d="M841.334,544.765a13.879,13.879,0,0,0,3.144-.23,4.272,4.272,0,0,0,2.585-1.527,1.623,1.623,0,0,0-1.095.156,20.353,20.353,0,0,1-10.108,1.09C837.5,544.884,839.6,544.758,841.334,544.765Z" transform="translate(-375.771 -163.916)" opacity="0.1"/>
    <path id="Path_803" data-name="Path 803" d="M813.843,601.9a36.262,36.262,0,0,1-6.428,1.134,43.112,43.112,0,0,1-5.087-.089l-8.231-.467-4.115-.237c-.486,0-2.469,0-1.49-.882.494-.43,3.243-.156,3.951-.178q2.049-.059,4.115-.067c2.724,0,5.457,0,8.181.148C807.794,601.392,810.8,601.6,813.843,601.9Z" transform="translate(-367.343 -178.958)" opacity="0.1"/>
    <path id="Path_804" data-name="Path 804" d="M803.707,606.879c-1.4-.052-3.2.7-4.642.86a34.248,34.248,0,0,1-4.856.17,29.688,29.688,0,0,1-9.358-1.72C791.13,606.479,797.427,606.65,803.707,606.879Z" transform="translate(-366.747 -180.272)" opacity="0.1"/>
    <path id="Path_805" data-name="Path 805" d="M785.724,612.277a14.616,14.616,0,0,1,1.794.445c3.473.889,7.169.1,10.7-.682a6.479,6.479,0,0,1-4.058,2.031,20.844,20.844,0,0,1-7.9.259c-.823-.148-2.889-.415-3.292-1.186C782.292,612.01,784.95,612.166,785.724,612.277Z" transform="translate(-366.394 -181.786)" opacity="0.1"/>
    <path id="Path_806" data-name="Path 806" d="M808.887,619.681a29.252,29.252,0,0,1,3.078.741c3.91.875,7.968-.326,11.894-1.134a61.278,61.278,0,0,1,14.4-1.2,15.384,15.384,0,0,0-3.087.912c-1.111.3-2.239.586-3.366.838-2.214.489-4.461.889-6.725,1.178a76.678,76.678,0,0,1-13.8.541c-2.107-.1-5.762.089-7.564-.867A9.1,9.1,0,0,1,808.887,619.681Z" transform="translate(-370.083 -183.341)" opacity="0.1"/>
    <path id="Path_807" data-name="Path 807" d="M804.915,467.958s.2,8.347-1.309,12.157c-.477,1.186-1.218,3.373-2.025,5.826-.881,2.72-1.844,5.767-2.584,8.154s-1.234,3.988-1.234,3.988-3.4,24.936-4.28,36.819a2.618,2.618,0,0,1-.049.623c-.049.667-.132,1.364-.255,2.083-1.959,11.8-13.26,30-17.054,31.452a11.409,11.409,0,0,0-3.194,1.979c0-5.018.28-8.821.979-9.592,2.214-2.446,11.671-26.923,11.671-26.923l2.156.1c-.049-.341-.082-.741-.1-1.09-.173-4.722,2.272-11.972,2.272-11.972s1.408-14.507,1.408-15.137-1.21-10.793-1.21-10.793l2.42-8.154,4.634-2.921c.576-6.293,1.951-13.936,5.235-16.019a12.068,12.068,0,0,0,3.827-4.366c.65.082-.535-.437-.535-.437Z" transform="translate(-364.638 -143.416)" opacity="0.1"/>
    <path id="Path_808" data-name="Path 808" d="M801.283,463.019a6.57,6.57,0,0,0-5.095.519c-2.321,1.482-6.848,1.356-8.058,1.09s-13.787-1.727-14.816-1.364-3.021-1.268-4.329.912-1.91,3.351-3.218,3.892-3.63,2.268-3.292,2.632-3.292,2.535-3.292,2.535l7.342,21.5s-4.733,27.19-7.046,29.547-22.849,32.9-15.5,38.346A148.349,148.349,0,0,0,762.4,573.742c.823.363,3.72-4.529,7.745-6.071s16.511-21.942,17.285-33.542,4.329-37.434,4.329-37.434,4.329-14.143,5.836-17.953,1.309-12.157,1.309-12.157Z" transform="translate(-359.236 -143.154)" fill="#4c4981"/>
    <path id="Path_809" data-name="Path 809" d="M858.789,582.9l-1.712,3.262s-.239.971-.543,2.513a1.624,1.624,0,0,1-.823-.334c-2.519-1.816-17.285-15.5-18.017-27.649a197.871,197.871,0,0,1-.107-20.125c.049-1.082.1-1.735.1-1.875h0s11.474-12.513,10.165-16.945-4.329-28.168-4.329-28.168l-.445-3.113-.765-5.263-1.827-12.735,1.893.4a5.244,5.244,0,0,0,1.144,1.045l1.959,11.2,6.8,6.746,1.111,41.066-3.128,7.339s-2.544.1-6.511.215h-.387Z" transform="translate(-376.04 -145.674)" opacity="0.1"/>
    <path id="Path_810" data-name="Path 810" d="M865.363,514.926s-2.815-1-3.012,0-.708,3.165-.708,3.165.5,5.263-1.646,7.346-2.469,10.874-2.469,10.874-3.391,8.7-1.786,11.423c.584.986,1.49,5.93,2.4,11.86.576,3.706,1.144,7.776,1.646,11.5.914,6.76,1.6,12.357,1.6,12.357s-1.819,5.982-4.338,4.166-17.285-15.5-18.009-27.649c-.494-8.532-.3-15.945-.131-19.6.066-1.549.131-2.424.131-2.424S850.506,525.43,849.2,520.99s-4.33-28.168-4.33-28.168l-.527-3.669-.568-3.944-.132-.867-1.819-12.6h0c.321.067,11.614,2.365,13.1,3.706s10.7,3.262,10.7,3.262a8.1,8.1,0,0,1,5.935,6.071c1.21,5.263.823,5.893,1.646,6.8S865.363,514.926,865.363,514.926Z" transform="translate(-376.277 -145.486)" fill="#4c4981"/>
    <path id="Path_811" data-name="Path 811" d="M862.222,601.747c-4.115-.741-10.223-2.453-10.083-6.234.123-3.536,4.848-4.811,8.428-5.263C861.144,593.942,861.712,598.026,862.222,601.747Z" transform="translate(-378.651 -176.148)" opacity="0.1"/>
    <path id="Path_812" data-name="Path 812" d="M875.118,599.584c-.164.319-.823.593-1.761.838a52.313,52.313,0,0,1-6.692.986s-13.992-1-13.795-6.716c.148-4.1,6.469-5.189,10.017-5.434q1.178-.1,2.362-.089S875.718,598.413,875.118,599.584Z" transform="translate(-378.78 -175.868)" fill="#ae6e79"/>
    <path id="Path_813" data-name="Path 813" d="M877.108,599.584c-.165.319-.823.593-1.761.838-3.646-4.4-8.733-10.037-11.227-10.534l.757-.63q1.178-.1,2.362-.089S877.709,598.413,877.108,599.584Z" transform="translate(-380.771 -175.868)" opacity="0.1"/>
    <path id="Path_814" data-name="Path 814" d="M873.716,497.69l4.116.549a64.16,64.16,0,0,0,4.938,6.8,7,7,0,0,1,1.811,4.351s6.041,8.065,7.951,8.969,4.831,7.072,4.831,7.072,4.733,2.809,4.733,5.982A48.208,48.208,0,0,0,903,539.3c.107.452-.7,6.078-2.716,8.9s-4.033,9.029-3.926,10.141-5.638,6.894-7.243,8.7a36.247,36.247,0,0,0-3.523,5.352l-5.333,9.066s-11.276-14.959-15.4-15.774c0,0,4.626-3.988,6.939-4.714s4.535-6.671,4.634-8.065,2.115-5.893,4.222-6.671,3.227-1.631,2.321-2.906,0-3.706,0-3.706-5.943-7.072-6.749-11.119-6.239-6.8-6.239-6.8l-3.119-6.894Z" transform="translate(-380.902 -152.2)" fill="#4c4981"/>
    <path id="Path_815" data-name="Path 815" d="M893,542.372a13.931,13.931,0,0,1,8.124-2.772c-1.909.3-3.918.674-5.317,1.875a11.558,11.558,0,0,0-1.473,1.69c-.477.615-4.362,5.063-4.938,4.359C888.434,546.494,892.22,542.973,893,542.372Z" transform="translate(-385.215 -163.043)" opacity="0.1"/>
    <path id="Path_816" data-name="Path 816" d="M882.73,532.515a3.486,3.486,0,0,0,2.872-1.831,9.453,9.453,0,0,0,.9-3.217,43.851,43.851,0,0,1,1.243-5.508,2.327,2.327,0,0,0-.173-2.224,7.231,7.231,0,0,0-.889-1.646c-.741.741-.955,2.469-1.259,3.462-.379,1.23-.724,2.469-1.054,3.706C884.2,525.851,882.829,532.515,882.73,532.515Z" transform="translate(-384.063 -157.478)" opacity="0.1"/>
    <path id="Path_817" data-name="Path 817" d="M865.609,467.346a8.072,8.072,0,0,1-1.391,1.29c-1.646,1.179-3.827,2.172-4.033,4.032a3.937,3.937,0,0,1-.247,1.786c-.527.815-1.819.741-2.848.586a5.284,5.284,0,0,1-2.412-.8c-1.078-.83-1.177-2.313-2-3.358a5.341,5.341,0,0,0-4.116-1.638c-1.539-.044-3.07.267-4.609.326a14.037,14.037,0,0,1-2.955-.178q-.482-.067-.955-.178a13.221,13.221,0,0,1-2.008-.615,9.27,9.27,0,0,1-.979-.415,13.124,13.124,0,0,1-2.84-1.779c-1.506-1.245-2.757-2.965-2.634-4.811.074-1.134.642-2.179.823-3.3.617-3.2-1.745-6.227-4.3-8.517-1.021-.912-2.107-1.794-3.128-2.72a13.649,13.649,0,0,1-3.679-4.729,12.76,12.76,0,0,1-.658-5.93,36.881,36.881,0,0,0,.189-6.093c-.757-7.205-7.589-12.728-14.42-15.73l-.3-.141a23.48,23.48,0,0,1,22.324-6.077c8.12,2,14.252,8.008,15.783,15.463s-1.811,15.041-8.6,19.523c-.074.23-.14.46-.2.682-1.58,5.693-.535,9.147.642,11.052h0c.321.067,11.614,2.365,13.1,3.706s10.7,3.262,10.7,3.262A7.667,7.667,0,0,1,865.609,467.346Z" transform="translate(-370.506 -128.905)" opacity="0.1"/>
    <path id="Path_818" data-name="Path 818" d="M804.212,406.142c.453-.467,1.136-.7,1.6-1.156,1.424-1.394,0-3.669.518-5.508.56-2.039,4.794-1.844,5.663-2.713s4.6-1.376,10.662-2.964,14.524,1.644,16.944,4.068,2.255,6.553,5.268,8.31c1.391.808,3.144.9,4.651,1.483a9.2,9.2,0,0,1,3.934,3.388,16.368,16.368,0,0,1,2.98,11.349c-.255,2.15-.947,4.24-1.226,6.39a16.816,16.816,0,0,0,.494,6.671c.634,2.224,2.009,4.625,4.469,5.337a8.122,8.122,0,0,1,1.646.511c1.424.8,1.235,2.683.872,4.151l-1.465,6.086c1.408.964,3.6.549,4.939,1.564a3.683,3.683,0,0,1,1.152,1.631,8.345,8.345,0,0,1-2.955,9.74c-1.646,1.179-3.827,2.172-4.033,4.025a3.793,3.793,0,0,1-.247,1.786c-.518.815-1.819.741-2.848.586a5.283,5.283,0,0,1-2.4-.8c-1.087-.83-1.177-2.313-2-3.358a5.358,5.358,0,0,0-4.115-1.638c-1.547-.045-3.07.267-4.617.334a14.575,14.575,0,0,1-9.7-3.158c-1.514-1.253-2.757-2.965-2.642-4.818.074-1.127.642-2.179.823-3.3.609-3.195-1.745-6.227-4.3-8.517s-5.564-4.4-6.815-7.45c-1.564-3.773-.049-7.983-.469-11.986-.757-7.213-7.581-12.728-14.421-15.737C805.035,409.744,802.442,407.958,804.212,406.142Z" transform="translate(-370.067 -125.839)" fill="#444053"/>
    <path id="Path_819" data-name="Path 819" d="M858.028,468.731c-1.086-.838-1.177-2.313-2-3.358a5.374,5.374,0,0,0-4.115-1.646c-1.547-.044-3.078.267-4.617.334a14.531,14.531,0,0,1-9.737-3.165c-1.514-1.245-2.749-2.965-2.634-4.811.074-1.134.642-2.187.823-3.3.617-3.2-1.745-6.234-4.3-8.525s-5.556-4.4-6.815-7.45c-1.556-3.766,0-7.976-.461-11.986-.765-7.213-7.589-12.728-14.42-15.737-1.6-.7-4.19-2.491-2.42-4.307.445-.467,1.128-.7,1.589-1.156,1.424-1.386,0-3.669.527-5.5a2.894,2.894,0,0,1,.518-1.016c-1.72.289-3.292,1.164-3.712,2.646-.5,1.838.905,4.114-.519,5.508-.461.452-1.144.689-1.6,1.149-1.77,1.816.823,3.61,2.42,4.307,6.84,3.009,13.663,8.532,14.421,15.737.42,4.01-1.095,8.221.469,11.994,1.251,3.039,4.255,5.189,6.815,7.45s4.938,5.315,4.3,8.517a26.028,26.028,0,0,0-.823,3.3c-.115,1.846,1.128,3.566,2.642,4.811a14.5,14.5,0,0,0,9.729,3.165c1.547-.067,3.07-.371,4.617-.334A5.383,5.383,0,0,1,852.842,467c.823,1.045.914,2.528,2,3.358a5.287,5.287,0,0,0,2.4.793c1.029.171,2.329.23,2.848-.578a1.832,1.832,0,0,0,.23-1.067,5.059,5.059,0,0,1-2.3-.778Z" transform="translate(-370.053 -126.176)" opacity="0.1"/>
    <path id="Path_820" data-name="Path 820" d="M632.217,196.761h-31.5V168.808H632.24Zm-.455-42.148H601.174c0-43.44,45.848-40.9,45.848-68.384,0-15.138-13.757-27.265-30.566-27.265S585.9,72.04,585.9,86.66H555.33c-.028-14.608,6.4-28.625,17.873-38.954a64.611,64.611,0,0,1,43.254-16.1c33.762,0,61.127,24.259,61.127,54.62,0,34.364-45.844,38.277-45.844,68.384Z" transform="translate(-266.292 101.74)" fill="#eb2424"/>
    <path id="Path_824" data-name="Path 824" d="M814.078,326.734h-6.017V321.4h6.017Zm-.091-8.043h-5.869c0-8.287,8.75-7.806,8.75-13.054a4.945,4.945,0,0,0-1.711-3.69,6.109,6.109,0,0,0-4.116-1.5,5.683,5.683,0,0,0-5.836,5.285H799.37c.142-5.7,5.3-10.254,11.623-10.276s11.52,4.5,11.711,10.194C822.737,312.168,813.988,312.946,813.988,318.691Z" transform="translate(-369.315 -99.876)" fill="#eb2424" opacity="0.1"/>
    <path id="Path_825" data-name="Path 825" d="M925.846,654.2h-6.017v-5.337h6.017Zm-.09-8.043h-5.836c0-8.295,8.758-7.806,8.758-13.054a5.546,5.546,0,0,0-5.836-5.189,5.675,5.675,0,0,0-5.836,5.285H911.17c.142-5.7,5.3-10.253,11.623-10.275s11.52,4.5,11.711,10.193c.033,6.545-8.716,7.294-8.716,13.039Z" transform="translate(-389.095 -184.603)" fill="#eb2424" opacity="0.1"/>
  </g>
</svg>
