<svg xmlns="http://www.w3.org/2000/svg" xmlns:xlink="http://www.w3.org/1999/xlink" width="530.609" height="486.921" viewBox="0 0 530.609 486.921">
  <defs>
    <linearGradient id="linear-gradient" x1="0.5" y1="1" x2="0.5" gradientUnits="objectBoundingBox">
      <stop offset="0" stop-color="gray" stop-opacity="0.251"/>
      <stop offset="0.54" stop-color="gray" stop-opacity="0.122"/>
      <stop offset="1" stop-color="gray" stop-opacity="0.102"/>
    </linearGradient>
  </defs>
  <g id="hiw-big" transform="translate(0 -133.35)">
    <ellipse id="Ellipse_129" data-name="Ellipse 129" cx="76.024" cy="7.494" rx="76.024" ry="7.494" transform="translate(320.304 605.283)" fill="#eb2424" opacity="0.1"/>
    <path id="Path_772" data-name="Path 772" d="M341.823,800.4s35.774-2.157,31.556,22.913c0,0,.838,4.448-3.18,6.442,0,0-.059-1.861-3.669-1.23a16.159,16.159,0,0,1-3.884.193,8.1,8.1,0,0,1-4.752-1.964h0s-10.059-4.151-13.966-20.593c0,0-2.9-3.58-2.78-4.507l6.034,2.58s-2.061,4.359-.437,7.976c0,0,.193-7.813,1.357-7.635.23.037,3.136,1.483,3.136,1.483s-3.551,7.583-.875,13.1c0,0-1.016-9.347,1.979-12.55l4.255,2.483s-4.151,7.835-1.334,14.225c0,0-.741-9.807,2.224-13.625l3.855,2.965s-3.9,7.724-1.52,13.031c0,0,.3-11.423,2.35-12.283,0,0,3.373,2.965,3.884,4.2,0,0-2.669,5.6-1.016,8.562,0,0,1.016-7.605,1.853-7.642,0,0,3.35,5.04,3.706,8.495a18.343,18.343,0,0,0-2.9-8.977,10.119,10.119,0,0,1,5.144,2.661s-.526-3.566-5.967-3.877c0,0-2.772-3.818-3.521-4.055,0,0,5.419-.452,8.7,1.008,0,0-2.891-3.365-9.7-1.838l-3.8-3.1s7.138-.978,10.155.1c0,0-3.477-2.965-11.178-.808l-4.136-2.476s6.078-1.312,9.7-.838c0,0-3.825-2.061-10.919.17l-2.965-1.327s4.448-.875,5.76-1.015,1.371-.5,1.371-.5a15.433,15.433,0,0,0-8.369.927S341.712,800.834,341.823,800.4Z" transform="translate(-293.506 -230.509)" fill="#eb2424"/>
    <ellipse id="Ellipse_130" data-name="Ellipse 130" cx="25.322" cy="4.277" rx="25.322" ry="4.277" transform="translate(47.635 597.158)" fill="#eb2424" opacity="0.1"/>
    <path id="Path_773" data-name="Path 773" d="M277.272,777.661s20.17-1.216,17.79,12.92a3.432,3.432,0,0,1-1.786,3.632s-.037-1.045-2.068-.689a8.99,8.99,0,0,1-2.187.1,4.491,4.491,0,0,1-2.683-1.1h0s-5.663-2.35-7.887-11.616c0,0-1.631-2.024-1.572-2.542l3.41,1.483a6.125,6.125,0,0,0-.252,4.5s.111-4.411.741-4.307c.133,0,1.772.852,1.772.852s-2,4.277-.489,7.413c0,0-.578-5.27,1.112-7.079l2.394,1.4s-2.335,4.448-.741,8.02c0,0-.408-5.53,1.253-7.679l2.172,1.69s-2.224,4.351-.853,7.346c0,0,.171-6.442,1.327-6.923a13.2,13.2,0,0,1,2.187,2.365s-1.483,3.158-.571,4.826c0,0,.571-4.284,1.045-4.307,0,0,1.89,2.839,2.083,4.789a10.378,10.378,0,0,0-1.631-5.063,5.657,5.657,0,0,1,2.9,1.483s-.289-2.009-3.365-2.187a13.1,13.1,0,0,0-1.979-2.283,12.394,12.394,0,0,1,4.907.563s-1.631-1.9-5.471-1.038l-2.142-1.749s4.025-.548,5.73.06c0,0-1.964-1.675-6.308-.452l-2.328-1.4a21.182,21.182,0,0,1,5.463-.467s-2.15-1.164-6.153.1l-1.668-.741s2.513-.5,3.247-.571.778-.282.778-.282a8.74,8.74,0,0,0-4.722.526S277.213,777.906,277.272,777.661Z" transform="translate(-276.878 -224.63)" fill="#eb2424"/>
    <ellipse id="Ellipse_131" data-name="Ellipse 131" cx="14.277" cy="2.417" rx="14.277" ry="2.417" transform="translate(0.009 568.39)" fill="#eb2424" opacity="0.1"/>
    <path id="Path_774" data-name="Path 774" d="M946.664,795.989s24.351-1.482,21.5,15.567A4.181,4.181,0,0,1,966,815.944s-.044-1.268-2.5-.838a10.98,10.98,0,0,1-2.646.126,5.449,5.449,0,0,1-3.232-1.334h0s-6.849-2.824-9.511-14.017c0,0-1.972-2.439-1.89-3.061l4.107,1.749s-1.4,2.965-.3,5.434c0,0,.133-5.322.919-5.189.163,0,2.135,1.023,2.135,1.023s-2.417,5.189-.593,8.9c0,0-.689-6.36,1.349-8.54l2.891,1.683s-2.824,5.337-.9,9.688c0,0-.5-6.671,1.482-9.273l2.624,2.046s-2.654,5.256-1.038,8.9c0,0,.215-7.768,1.609-8.362a15.987,15.987,0,0,1,2.639,2.854s-1.816,3.817-.689,5.834c0,0,.689-5.189,1.26-5.189,0,0,2.283,3.432,2.521,5.782a12.462,12.462,0,0,0-1.965-6.108,6.886,6.886,0,0,1,3.5,1.809s-.356-2.424-4.07-2.639c0,0-1.883-2.6-2.387-2.758,0,0,3.706-.311,5.93.682,0,0-1.972-2.283-6.6-1.245l-2.587-2.113s4.855-.667,6.916.067c0,0-2.372-2.024-7.613-.549l-2.817-1.683a25.656,25.656,0,0,1,6.6-.571s-2.6-1.4-7.413.119l-2.016-.9s3.032-.6,3.921-.689.934-.341.934-.341a10.525,10.525,0,0,0-5.693.63S946.59,796.27,946.664,795.989Z" transform="translate(-450.057 -229.371)" fill="#eb2424"/>
    <ellipse id="Ellipse_132" data-name="Ellipse 132" cx="17.234" cy="2.913" rx="17.234" ry="2.913" transform="translate(496.14 585.179)" fill="#eb2424" opacity="0.1"/>
    <path id="Path_775" data-name="Path 775" d="M852.572,512.3a52.858,52.858,0,0,1-.808-7.9c0-3.18-4.322-6-4.322-6s-2.669-6.175-4.448-7.087-7.272-8.992-7.272-8.992a7.347,7.347,0,0,0-1.653-4.359,62.653,62.653,0,0,1-4.5-6.79h0c-.741-.9-.371-1.542-1.482-6.812-.059-.274-.126-.541-.208-.793a1.038,1.038,0,0,0-.119-.341,8.9,8.9,0,0,0,2.1-9.214,3.705,3.705,0,0,0-1.052-1.631c-1.253-1.023-3.254-.6-4.544-1.572l1.371-6.064c.326-1.483.5-3.358-.8-4.159a6.73,6.73,0,0,0-1.527-.511c-2.224-.741-3.514-3.091-4.092-5.352a18.34,18.34,0,0,1-.445-6.671c.252-2.15.882-4.24,1.112-6.4a17.568,17.568,0,0,0-2.72-11.371,8.756,8.756,0,0,0-3.6-3.395c-1.371-.615-2.965-.741-4.247-1.483-2.757-1.757-2.617-5.93-4.818-8.324s-6.1-2.387-9.31-1.564-6.4,2.224-9.7,1.875c-2.12-.237-4.107-1.2-6.234-1.423a6.568,6.568,0,0,0-1.824.082v-.067a3.955,3.955,0,0,0-3.388,2.646,4.047,4.047,0,0,0-.1,1.082c0,.867.208,1.772.222,2.6a2.476,2.476,0,0,1-.6,1.831c-.422.452-1.045.689-1.482,1.156a1.853,1.853,0,0,0-.541,1.364c0,1.319,1.646,2.483,2.75,3.017h.044c-.3.3-.593.608-.867.927a19.525,19.525,0,0,0-4.907,12.965A19.792,19.792,0,0,0,780.6,441.645l-.156.482a27.667,27.667,0,0,1-1.09,2.8,5.552,5.552,0,0,0-4.655.519c-2.12,1.483-6.264,1.364-7.368,1.09s-12.6-1.727-13.528-1.364-2.758-1.268-3.951.912-1.749,3.358-2.965,3.906-3.313,2.268-3.032,2.632-3.039,2.543-3.039,2.543-2.854,2.965-4.507,3.358a26.467,26.467,0,0,0-5.152,2.639l-4.055,3.173s-3.032.46-2.113-1.631-1.66-4.722-1.66-4.722-5.152-10.444-5.152-12.6-4.233-11.356-4.233-11.356l-.519-.052-.237-.675c-.778-2.187-1.786-4.87-2.557-6.442-1.482-3-2.394-3.313-2.394-3.313s-17.85-13.4-29.443-9.318,21.163,16.256,24.106,17.531c1.03.445,1.772,1.883,2.291,3.565a15.256,15.256,0,0,0-6.338,5.7s7.087,15.707,7.272,19.614S711,475.462,711,475.462s1.749,8.087,11.223,7.628c0,0,13.069,2.4,15.923,0s5.426-4.285,6.812-4.559a5.374,5.374,0,0,0,2.572-1.816s-4.322,27.242-6.442,29.606-20.852,32.949-14.129,38.42A134.312,134.312,0,0,0,743.8,555.86c.571.282,2.283-2.572,4.729-4.6v1.579c.045,10.882,1.482,27.427,3.469,31.133,2.965,5.448,1.749,15.982,1.749,15.982a12.6,12.6,0,0,0,4.974,1.193c.089.356.193.741.289,1.112,1.623,6.13,4.255,15.611,5.6,18.132,2.024,3.817,3.491,15.9,3.491,15.9s1.2,11.86.741,13.528c-.178.63.6,5.567,1.824,11.86h0c-.741,8.517-2.15,24.936-2.387,30.874h0v.43a1.8,1.8,0,0,1,0,.2v.363h0a5.55,5.55,0,0,0,.044,1.119,3.632,3.632,0,0,1-.126,1.69,29.516,29.516,0,0,1-1.994,4.759,22.687,22.687,0,0,0-.889,2.3,4.153,4.153,0,0,0-2.15,3.054c-.919,3.543-2.3,13.343-2.3,13.343s-.556,6-1.653,7.361-2.224,9.9,5.611,10.985,11.223-4.151,11.223-4.151l-.274-23.78v-.044a3.61,3.61,0,0,0,.408-.645v-.059c.052-.111.111-.23.163-.363l.067-.178.118-.289a.428.428,0,0,1,0-.1,15.717,15.717,0,0,0,.667-7.079v-1a2.824,2.824,0,0,1,.044-.489v-.089l.044-.289v-.126a.547.547,0,0,1,.059-.3.327.327,0,0,1,0-.074c.074-.341.163-.741.259-1.067v-.082l.111-.356h0c.111-.378.237-.741.371-1.142v-.074a1.038,1.038,0,0,1,.126-.348v-.044c.133-.363.274-.741.408-1.053l.037-.1.119-.3.037-.089.282-.66h0l2.172,6.708s1.2,5,.556,6.175.741,6.086,1.653,6.175l-.852,6.175a94.43,94.43,0,0,0-.823,10.267c-.059.393-.119.741-.163.978-.593,3.165.83,8.073.83,8.073,7.264,8.591,15.922.667,15.922.667s1.008-4.544,0-5.448-.556-4.181-.556-4.181.46-8.087.549-13.988-4.826-11.119-4.826-11.119l-.274.245c-.9-2.313-1.92-5.011-1.7-6.219.371-2.09-1.016-24.158-1.016-24.158a130.913,130.913,0,0,0,.326-17.79h0c.119-1,.23-1.987.341-2.965.556-4.744,1.008-8.8,1.186-10.926h0v-.252c.044-.571.067-.979.059-1.171,0-.741,0-1.586.074-2.513.17-2.55.571-5.389.571-5.389l1.927-11.719s1.483-5.722,3.6-8.9l.252-.4h0c.082-.141.163-.3.252-.46l.037-.067c.081-.156.17-.319.252-.489l.037-.067c.3-.586.615-1.26.949-2,0-.059.052-.111.074-.171l.252-.563a.579.579,0,0,1,.1-.222c.037-.074.156-.378.237-.563a2.182,2.182,0,0,0,.1-.23c.1-.222.2-.452.3-.689l.141-.341c.067-.17.141-.341.215-.511L802,605.3c.052-.111.1-.222.141-.334l.2-.512c0-.074.067-.156.1-.23.526-1.312,1.03-2.609,1.482-3.788h0c.141-.371.282-.741.408-1.067,4.714.289,7.917.548,7.917.548s1.482-10.622,1.008-17.613a65.444,65.444,0,0,1,1.164-14.084c.067-.363.126-.689.185-.986l.126.1c2.305,1.816,3.958-4.181,3.958-4.181s-.623-5.6-1.483-12.379l-.089-.675a34.85,34.85,0,0,0,4.025.615s.741-.067,1.757-.193a48.627,48.627,0,0,0,8.851,4l4.9-9.043a36.8,36.8,0,0,1,3.225-5.359c1.483-1.816,6.716-7.628,6.627-8.717s1.749-7.361,3.588-10.178S852.661,512.748,852.572,512.3Zm-20.429,6.9c-1.935.815-3.773,5.359-3.862,6.723s-2.12,7.353-4.233,8.08c-1.95.667-5.671,4.092-6.264,4.64-.608.052-1.3.133-2.016.252-.808-5.73-1.609-10.474-2.12-11.43-1.483-2.728,1.623-11.445,1.623-11.445s.3-8.806,2.224-10.9,1.483-7.361,1.483-7.361.46-2.179.645-3.173,2.735,0,2.758,0h0s4.966,2.72,5.708,6.8,6.167,11.171,6.167,11.171-.83,2.454,0,3.706S834.078,518.381,832.143,519.2Z" transform="translate(-380.227 -125.635)" fill="url(#linear-gradient)"/>
    <path id="Path_776" data-name="Path 776" d="M707,455.338a14.825,14.825,0,0,1,14.826-6.983v10.608h-6.442l-5.041-1.275Z" transform="translate(-388.164 -139.395)" fill="#4c4981"/>
    <path id="Path_777" data-name="Path 777" d="M707,455.338a14.825,14.825,0,0,1,14.826-6.983v10.608h-6.442l-5.041-1.275Z" transform="translate(-388.164 -139.395)" opacity="0.1"/>
    <path id="Path_778" data-name="Path 778" d="M714.558,444.051l-7.894,5.53s-.067-1.1-.267-2.617c-.393-2.861-1.275-7.153-3.18-7.983-2.9-1.275-35.166-13.417-23.721-17.5s29.006,9.3,29.006,9.3.9.311,2.35,3.3c.741,1.571,1.757,4.247,2.52,6.434C714.076,442.487,714.558,444.051,714.558,444.051Z" transform="translate(-380.415 -132.281)" fill="#ae6e79"/>
    <path id="Path_779" data-name="Path 779" d="M713.937,431.933l.9-.422,2.52,2.876-2.061,4.4-3.514-1.408.815-3.514Z" transform="translate(-316.727 -111.645)" fill="#4c4981"/>
    <path id="Path_780" data-name="Path 780" d="M793.885,811s-2.268-.267-3.173,3.269-2.268,13.343-2.268,13.343-.541,5.982-1.631,7.346-2.172,9.881,5.53,10.963,11.06-4.144,11.06-4.144L803.128,818Z" transform="translate(-408.616 -233.261)" fill="#444053"/>
    <path id="Path_781" data-name="Path 781" d="M828.733,812.44s4.848,5.189,4.759,11.075-.549,13.958-.549,13.958-.445,3.269.549,4.173,0,5.441,0,5.441-8.525,7.909-15.685-.667c0,0-1.394-4.9-.815-8.058s2.194-17.353,2.194-17.353Z" transform="translate(-416.586 -233.636)" fill="#444053"/>
    <path id="Path_782" data-name="Path 782" d="M833.424,664.469s-4.892,13.684-6.983,16.857-3.528,8.9-3.528,8.9l-1.905,11.69a65.255,65.255,0,0,0-.638,7.887c.089,2.632-4.714,40.97-4.714,40.97l-7.613,9.7s-3.35,6.8-2.81,9.636-.363,7.346-1.482,8.7c0,0-.178,8.9-.452,10.874s1,7.62,0,8.613-14.321.549-14.684-1.09,1.631-9.518,1.631-9.518l1.179-7.613s2.357-4.166,1.816-5.53.993-4.529,1.082-4.8,2.543-4.714,2.09-6.434,2.854-38.294,2.854-38.294L808.6,659.48Z" transform="translate(-409.269 -194.06)" fill="#ae6e79"/>
    <path id="Path_783" data-name="Path 783" d="M833.424,664.474s-.741,2.061-1.757,4.766c-1.616,4.27-3.943,10.148-5.226,12.09-2.083,3.173-3.536,8.9-3.536,8.9L821,701.923a65.737,65.737,0,0,0-.63,7.887c0,1.038-.7,7.657-1.586,15.285-1.371,11.66-3.128,25.685-3.128,25.685l-7.613,9.7s-.385.741-.867,1.913c-.956,2.224-2.305,5.834-1.942,7.694.541,2.809-.363,7.339-1.482,8.7,0,0-.185,8.9-.452,10.874s1,7.613,0,8.613-14.321.549-14.684-1.082,1.631-9.518,1.631-9.518l1.179-7.62s2.357-4.166,1.809-5.53,1-4.529,1.09-4.8,2.543-4.714,2.09-6.434c-.348-1.312,1.482-22.787,2.335-32.972.289-3.2.474-5.285.474-5.285l8.028-56.381.652-4.544.652-4.611Z" transform="translate(-409.269 -194.065)" opacity="0.1"/>
    <path id="Path_784" data-name="Path 784" d="M824.341,802.368c.082,1-12.787,2.453-14.625,1.364s0-14.6,0-14.6l.838-6.16c-.9-.1-2.261-4.989-1.631-6.167s-.541-6.16-.541-6.16l-2.135-6.671-1.3-4.084c-2.12-4.677-5.189-18.02-7.094-27.983-1.2-6.256-1.964-11.186-1.794-11.816.452-1.631-.741-13.506-.741-13.506s-1.483-12.06-3.44-15.863c-1.327-2.52-3.914-11.986-5.515-18.094-.815-3.136-1.379-5.389-1.379-5.389s13.7-1.149,22.008-1.549c3.818-.185,6.5-.208,6.19.1s-.393,1.972-.378,4.373c.037,6.219.9,17.16,1.824,20.1,1.268,4.077,2.535,16.308,1.994,17.494s-.363,9.066-.363,9.066a40.763,40.763,0,0,1,1.6,9.837,132.956,132.956,0,0,1-.311,17.709s1.357,22.03.993,24.114,2.9,8.613,2.9,9.881.9,9.881.9,9.881S824.282,801.375,824.341,802.368Z" transform="translate(-408.34 -195.632)" fill="#ae6e79"/>
    <path id="Path_785" data-name="Path 785" d="M835.865,479.526l-1.557,1.683-1.016,1.1-5.93,6.375-15.322,1.727-8.154-2.179-2.016-.541s0-4.092.363-9c.519-6.293,1.757-13.936,4.715-16.019a11.777,11.777,0,0,0,3.447-4.366,24.582,24.582,0,0,0,1.483-3.662c.059-.163.1-.319.156-.482a40.942,40.942,0,0,0,1.438-6.723s1.957-1.082,4.678-2.342c7.094-3.313,19.347-7.887,15.085,2.342a40.017,40.017,0,0,0-1.6,4.6c-.067.23-.126.46-.178.682-1.423,5.693-.482,9.147.578,11.052h0a6.939,6.939,0,0,0,.615.941,4.946,4.946,0,0,0,1.031,1.045l1.764,11.2.148.926Z" transform="translate(-412.71 -137.572)" fill="#ae6e79"/>
    <path id="Path_786" data-name="Path 786" d="M836.736,448.176c-.808,1.942.393-1.586,0,0-3.232,2.3-10.845,8.843-15.122,8.843-2.891,0-3.758-.526-6.234-1.646a40.439,40.439,0,0,0,1.594-7.2S842.629,434.033,836.736,448.176Z" transform="translate(-416.206 -137.762)" opacity="0.1"/>
    <path id="Path_787" data-name="Path 787" d="M839.2,427.4a19.777,19.777,0,0,1-17.694,19.651c-.682.067-1.371.111-2.068.111A19.762,19.762,0,1,1,839.2,427.4Z" transform="translate(-412.143 -128.901)" fill="#ae6e79"/>
    <path id="Path_788" data-name="Path 788" d="M839.714,535.419l-2.817,7.346s-2.291.1-5.863.208c-12.061.385-38.635.875-39.821-2.224a7.881,7.881,0,0,1-.415-2.439c-.156-4.722,2.046-11.972,2.046-11.972s1.268-14.507,1.268-15.137-1.09-10.793-1.09-10.793l2.179-8.154,6.071-4.262s2.72,4.173,4.351,4.529,3.81,2.365,3.81,2.365,5.345,3.261,7.072,1.445,15.137-9.792,15.137-9.792l7.072,7.8Z" transform="translate(-409.843 -149.315)" opacity="0.1"/>
    <path id="Path_789" data-name="Path 789" d="M839.721,536.939l-2.817,7.339s-2.29.1-5.863.215h-.348c-1.542.052-3.306.1-5.189.141-9.585.222-22.787.282-29.688-.741-2.595-.371-4.292-.9-4.574-1.631a6.544,6.544,0,0,1-.326-1.349c-.044-.341-.074-.741-.089-1.09-.156-4.722,2.046-11.971,2.046-11.971s1.267-14.507,1.267-15.137-1.089-10.793-1.089-10.793l2.179-8.154,4.173-2.921,1.9-1.334a28.445,28.445,0,0,0,2.083,2.743,5.544,5.544,0,0,0,2.268,1.786,11.344,11.344,0,0,1,3.81,2.365s5.344,3.262,7.072,1.445c1.312-1.386,9.466-6.375,13.232-8.651,1.156-.7,1.905-1.142,1.905-1.142l.949,1.053,6.123,6.746Z" transform="translate(-409.851 -149.708)" fill="#fff"/>
    <path id="Path_790" data-name="Path 790" d="M724.8,450.966l-7.895,5.53s-.067-1.1-.267-2.617a15.98,15.98,0,0,0,6.953-6.449C724.32,449.4,724.8,450.966,724.8,450.966Z" transform="translate(-390.658 -139.196)" opacity="0.1"/>
    <path id="Path_791" data-name="Path 791" d="M750.03,469.988l-1.72-.46s-2.817,2.965-4.448,3.358a25.955,25.955,0,0,0-5.07,2.624l-4,3.173s-2.965.46-2.083-1.631-1.631-4.714-1.631-4.714-5.078-10.422-5.078-12.6-4.2-11.327-4.2-11.327-5.263,10.244-14.87,6.983c0,0,6.983,15.678,7.161,19.577s4.8,14.773,4.8,14.773,1.727,8.072,11.06,7.62c0,0,12.876,2.394,15.685,0s5.345-4.277,6.672-4.551A5.5,5.5,0,0,0,754.856,491V480.225Z" transform="translate(-388.149 -139.449)" fill="#4c4981"/>
    <path id="Path_792" data-name="Path 792" d="M743.3,491.33s2.268,8.436.815,9.34Z" transform="translate(-397.556 -150.554)" opacity="0.1"/>
    <path id="Path_793" data-name="Path 793" d="M831.036,562.513c-12.06.385-38.635.867-39.821-2.224a7.882,7.882,0,0,1-.415-2.439l39.4,2.076Z" transform="translate(-409.846 -167.765)" opacity="0.1"/>
    <path id="Path_794" data-name="Path 794" d="M832.5,664.469s-.741,2.061-1.757,4.766c-5-.3-11.63-.623-17.924-.667-2.224,0-4.4,0-6.464.074a48.693,48.693,0,0,0-10.563,1.171,28.019,28.019,0,0,1-9.414,1.216c-.815-3.136-1.379-5.389-1.379-5.389s13.7-1.149,22.008-1.549l.652-4.611Z" transform="translate(-408.345 -194.06)" opacity="0.1"/>
    <path id="Path_795" data-name="Path 795" d="M839.985,605.339l-1.542,3.262s-.215.971-.489,2.513a64.252,64.252,0,0,0-1.141,14.084c.452,6.983-1,17.583-1,17.583s-33.357-2.809-43.142,0-14.6,0-14.6,0,1.186-10.511-1.72-15.952c-1.979-3.706-3.373-20.252-3.417-31.133,0-5.018.252-8.821.882-9.592,1.994-2.446,10.511-26.923,10.511-26.923l1.942.1,5.189.274,29.5,1.557,4.633.245.489,1.482Z" transform="translate(-405.222 -168.109)" fill="#444053"/>
    <path id="Path_796" data-name="Path 796" d="M878.445,602.263l.274,2.906s-14.61-4.759-13.869-10.607,0-5.189,0-5.189l11.742.993Z" transform="translate(-428.998 -175.915)" fill="#4c4981"/>
    <path id="Path_797" data-name="Path 797" d="M878.445,602.263l.274,2.906s-14.61-4.759-13.869-10.607,0-5.189,0-5.189l11.742.993Z" transform="translate(-428.998 -175.915)" opacity="0.1"/>
    <path id="Path_798" data-name="Path 798" d="M755.677,493.667a13.015,13.015,0,0,0,5.144,2.676,3.35,3.35,0,0,1-1.483-.741c-1.045-.741-2.039-1.549-3.047-2.335a9.56,9.56,0,0,0-2.832-1.957A15.619,15.619,0,0,0,755.677,493.667Z" transform="translate(-400.185 -150.549)" opacity="0.1"/>
    <path id="Path_799" data-name="Path 799" d="M755.346,498.376a6.544,6.544,0,0,1,1.127,1.786,10.8,10.8,0,0,1-.081,5.611l-2.342-5.649c-.408-.964-.815-1.927-1.3-2.846-.215-.393-1.564-2.031-1.408-2.372C751.751,493.943,754.909,497.835,755.346,498.376Z" transform="translate(-399.632 -151.44)" opacity="0.1"/>
    <path id="Path_800" data-name="Path 800" d="M841.645,541.144a7.547,7.547,0,0,0,4.262-1.994c-2.409.3-4.692,1.253-7.064,1.749a10.5,10.5,0,0,1-6.583-.608C834.988,541.626,838.739,541.67,841.645,541.144Z" transform="translate(-420.573 -162.927)" opacity="0.1"/>
    <path id="Path_801" data-name="Path 801" d="M831.606,516.948a1.654,1.654,0,0,1-1.223-.3q-2.713-1.557-5.352-3.247a35.549,35.549,0,0,1-5.241-3.617C823.385,513.027,826.736,515.77,831.606,516.948Z" transform="translate(-417.346 -155.328)" opacity="0.1"/>
    <path id="Path_802" data-name="Path 802" d="M840.79,544.765a11.286,11.286,0,0,0,2.831-.23,3.8,3.8,0,0,0,2.328-1.527,1.334,1.334,0,0,0-.986.156,16.634,16.634,0,0,1-9.1,1.09A13.148,13.148,0,0,0,840.79,544.765Z" transform="translate(-421.504 -163.916)" opacity="0.1"/>
    <path id="Path_803" data-name="Path 803" d="M811.3,601.9a29.735,29.735,0,0,1-5.789,1.134,34.978,34.978,0,0,1-4.581-.089l-7.413-.467-3.706-.237c-.437,0-2.224,0-1.342-.882.445-.43,2.921-.156,3.558-.178q1.846-.059,3.706-.067c2.454,0,4.915,0,7.368.148C805.848,601.392,808.554,601.6,811.3,601.9Z" transform="translate(-409.179 -178.958)" opacity="0.1"/>
    <path id="Path_804" data-name="Path 804" d="M801.833,606.879c-1.26-.052-2.884.7-4.181.86a27.8,27.8,0,0,1-4.374.17,24.388,24.388,0,0,1-8.428-1.72C790.506,606.479,796.177,606.65,801.833,606.879Z" transform="translate(-408.307 -180.272)" opacity="0.1"/>
    <path id="Path_805" data-name="Path 805" d="M785.439,612.277a12.1,12.1,0,0,1,1.616.445c3.128.889,6.456.1,9.636-.682a5.655,5.655,0,0,1-3.654,2.031,16.949,16.949,0,0,1-7.116.259c-.741-.148-2.6-.415-2.965-1.186C782.348,612.01,784.742,612.166,785.439,612.277Z" transform="translate(-407.791 -181.786)" opacity="0.1"/>
    <path id="Path_806" data-name="Path 806" d="M808.373,619.681a24.185,24.185,0,0,1,2.772.741c3.521.875,7.176-.326,10.711-1.134a49.861,49.861,0,0,1,12.965-1.2,12.835,12.835,0,0,0-2.78.912c-1,.3-2.016.586-3.032.838-1.994.489-4.018.889-6.056,1.178a62.254,62.254,0,0,1-12.431.541c-1.9-.1-5.189.089-6.812-.867A7.51,7.51,0,0,1,808.373,619.681Z" transform="translate(-413.186 -183.341)" opacity="0.1"/>
    <path id="Path_807" data-name="Path 807" d="M801.736,467.958s.178,8.347-1.179,12.157c-.43,1.186-1.1,3.373-1.823,5.826-.793,2.72-1.661,5.767-2.328,8.154s-1.112,3.988-1.112,3.988-3.061,24.936-3.855,36.819a2.9,2.9,0,0,1-.045.623c-.044.667-.119,1.364-.23,2.083-1.764,11.8-11.942,30-15.359,31.452a10.171,10.171,0,0,0-2.876,1.979c0-5.018.252-8.821.882-9.592,1.994-2.446,10.511-26.923,10.511-26.923l1.942.1c-.044-.341-.074-.741-.089-1.09-.156-4.722,2.046-11.972,2.046-11.972s1.268-14.507,1.268-15.137-1.09-10.793-1.09-10.793l2.179-8.154,4.173-2.921c.519-6.293,1.757-13.936,4.714-16.019a11.781,11.781,0,0,0,3.447-4.366c.586.082-.482-.437-.482-.437Z" transform="translate(-405.222 -143.416)" opacity="0.1"/>
    <path id="Path_808" data-name="Path 808" d="M795.43,463.019a5.4,5.4,0,0,0-4.588.519c-2.09,1.482-6.167,1.356-7.257,1.09s-12.416-1.727-13.343-1.364-2.72-1.268-3.9.912-1.72,3.351-2.9,3.892-3.269,2.268-2.965,2.632-2.965,2.535-2.965,2.535l6.612,21.5s-4.262,27.19-6.345,29.547-20.578,32.9-13.958,38.346a131.743,131.743,0,0,0,16.59,11.119c.741.363,3.351-4.529,6.975-6.071s14.87-21.942,15.567-33.542,3.9-37.434,3.9-37.434,3.9-14.143,5.256-17.953,1.179-12.157,1.179-12.157Z" transform="translate(-397.323 -143.154)" fill="#4c4981"/>
    <path id="Path_809" data-name="Path 809" d="M856.661,582.9l-1.542,3.262s-.215.971-.489,2.513a1.387,1.387,0,0,1-.741-.334c-2.268-1.816-15.567-15.5-16.226-27.649-.467-8.962-.245-16.686-.1-20.125.045-1.082.089-1.735.089-1.875h0s10.333-12.513,9.155-16.945-3.9-28.168-3.9-28.168l-.4-3.113-.689-5.263-1.646-12.735,1.7.4a4.948,4.948,0,0,0,1.03,1.045l1.764,11.2,6.123,6.746,1,41.066-2.817,7.339s-2.291.1-5.864.215h-.348Z" transform="translate(-421.898 -145.674)" opacity="0.1"/>
    <path id="Path_810" data-name="Path 810" d="M862.715,514.926s-2.535-1-2.713,0-.637,3.165-.637,3.165.452,5.263-1.483,7.346-2.224,10.874-2.224,10.874-3.054,8.7-1.609,11.423c.526.986,1.342,5.93,2.157,11.86.519,3.706,1.03,7.776,1.482,11.5.823,6.76,1.438,12.357,1.438,12.357s-1.638,5.982-3.906,4.166-15.567-15.5-16.219-27.649c-.445-8.532-.267-15.945-.118-19.6.059-1.549.118-2.424.118-2.424s10.333-12.513,9.155-16.953-3.9-28.168-3.9-28.168l-.474-3.669-.511-3.944-.119-.867-1.638-12.6h0c.289.067,10.459,2.365,11.8,3.706s9.636,3.262,9.636,3.262a7.25,7.25,0,0,1,5.145,5.278c.081.252.141.519.2.793,1.09,5.263.741,5.893,1.483,6.8S862.715,514.926,862.715,514.926Z" transform="translate(-422.244 -145.486)" fill="#4c4981"/>
    <path id="Path_811" data-name="Path 811" d="M861.22,601.747c-3.706-.741-9.207-2.453-9.081-6.234.111-3.536,4.366-4.811,7.591-5.263C860.249,593.942,860.76,598.026,861.22,601.747Z" transform="translate(-425.716 -176.148)" opacity="0.1"/>
    <path id="Path_812" data-name="Path 812" d="M872.906,599.584c-.148.319-.741.593-1.586.838a42.758,42.758,0,0,1-6.027.986s-12.6-1-12.424-6.716c.133-4.1,5.826-5.189,9.021-5.434a20.771,20.771,0,0,1,2.128-.089S873.447,598.413,872.906,599.584Z" transform="translate(-425.905 -175.868)" fill="#ae6e79"/>
    <path id="Path_813" data-name="Path 813" d="M875.817,599.584c-.148.319-.741.593-1.586.838-3.284-4.4-7.865-10.037-10.111-10.534l.682-.63a20.77,20.77,0,0,1,2.128-.089S876.358,598.413,875.817,599.584Z" transform="translate(-428.816 -175.868)" opacity="0.1"/>
    <path id="Path_814" data-name="Path 814" d="M872.836,497.69l3.707.549a64.372,64.372,0,0,0,4.448,6.8,7.415,7.415,0,0,1,1.631,4.351s5.441,8.065,7.161,8.969,4.351,7.072,4.351,7.072,4.262,2.809,4.262,5.982a53.314,53.314,0,0,0,.815,7.887c.1.452-.63,6.078-2.446,8.9s-3.632,9.029-3.536,10.141-5.078,6.894-6.523,8.7a36.839,36.839,0,0,0-3.173,5.352l-4.8,9.066s-10.155-14.959-13.869-15.774c0,0,4.166-3.988,6.249-4.714s4.085-6.671,4.173-8.065,1.9-5.893,3.8-6.671,2.906-1.631,2.09-2.906,0-3.706,0-3.706-5.352-7.072-6.078-11.119-5.619-6.8-5.619-6.8l-2.809-6.894Z" transform="translate(-429.008 -152.2)" fill="#4c4981"/>
    <path id="Path_815" data-name="Path 815" d="M892.628,542.372a11.765,11.765,0,0,1,7.316-2.772,8.918,8.918,0,0,0-4.789,1.875,11.294,11.294,0,0,0-1.327,1.69c-.43.615-3.929,5.063-4.448,4.359C888.514,546.494,891.924,542.973,892.628,542.372Z" transform="translate(-435.316 -163.043)" opacity="0.1"/>
    <path id="Path_816" data-name="Path 816" d="M882.73,532.515a3.136,3.136,0,0,0,2.587-1.831,10.27,10.27,0,0,0,.808-3.217,48,48,0,0,1,1.119-5.508,2.55,2.55,0,0,0-.156-2.224,7.516,7.516,0,0,0-.8-1.646c-.667.741-.86,2.469-1.134,3.462-.341,1.23-.652,2.469-.949,3.706C884.049,525.851,882.819,532.515,882.73,532.515Z" transform="translate(-433.631 -157.478)" opacity="0.1"/>
    <path id="Path_817" data-name="Path 817" d="M859.694,467.346a7.633,7.633,0,0,1-1.253,1.29c-1.483,1.179-3.447,2.172-3.632,4.032a4.338,4.338,0,0,1-.222,1.786c-.474.815-1.638.741-2.565.586a4.447,4.447,0,0,1-2.172-.8c-.971-.83-1.06-2.313-1.8-3.358a4.574,4.574,0,0,0-3.706-1.638c-1.386-.044-2.765.267-4.151.326a11.407,11.407,0,0,1-2.661-.178,8.422,8.422,0,0,1-.86-.178,11.049,11.049,0,0,1-1.809-.615,7.918,7.918,0,0,1-.882-.415,11.716,11.716,0,0,1-2.557-1.779,6.358,6.358,0,0,1-2.372-4.811c.067-1.134.578-2.179.741-3.3.556-3.2-1.572-6.227-3.877-8.517-.919-.912-1.9-1.794-2.817-2.72a13.557,13.557,0,0,1-3.313-4.729,14.083,14.083,0,0,1-.593-5.93,40.929,40.929,0,0,0,.17-6.093c-.682-7.205-6.834-12.728-12.987-15.73l-.274-.141a19.755,19.755,0,1,1,26.575,28.909c-.067.23-.126.46-.178.682-1.423,5.693-.482,9.147.578,11.052h0c.289.067,10.459,2.365,11.8,3.706s9.637,3.262,9.637,3.262A7.25,7.25,0,0,1,859.694,467.346Z" transform="translate(-413.805 -128.905)" opacity="0.1"/>
    <path id="Path_818" data-name="Path 818" d="M804.153,406.142c.408-.467,1.023-.7,1.438-1.156,1.282-1.394,0-3.669.467-5.508.5-2.039,3.01-2.928,5.1-2.713s4.047,1.179,6.138,1.416c3.247.363,6.39-1.045,9.555-1.868s6.99-.867,9.169,1.557,2.031,6.553,4.744,8.31c1.253.808,2.832.9,4.188,1.483a8.605,8.605,0,0,1,3.543,3.388,17.744,17.744,0,0,1,2.683,11.349c-.23,2.15-.853,4.24-1.1,6.39a18.608,18.608,0,0,0,.445,6.671c.571,2.224,1.809,4.625,4.025,5.337a6.8,6.8,0,0,1,1.483.511c1.282.8,1.112,2.683.786,4.151l-1.32,6.086c1.268.964,3.24.549,4.448,1.564a3.705,3.705,0,0,1,1.038,1.631,8.9,8.9,0,0,1-2.661,9.74c-1.483,1.179-3.447,2.172-3.632,4.025a4.179,4.179,0,0,1-.222,1.786c-.467.815-1.638.741-2.565.586a4.447,4.447,0,0,1-2.165-.8c-.979-.83-1.06-2.313-1.8-3.358a4.588,4.588,0,0,0-3.706-1.638c-1.393-.045-2.765.267-4.158.334a12.29,12.29,0,0,1-8.74-3.158,6.38,6.38,0,0,1-2.379-4.818c.067-1.127.578-2.179.741-3.3.549-3.195-1.571-6.227-3.877-8.517s-5.011-4.4-6.138-7.45c-1.409-3.773-.045-7.983-.423-11.986-.682-7.213-6.827-12.728-12.987-15.737C804.894,409.744,802.559,407.958,804.153,406.142Z" transform="translate(-413.162 -125.839)" fill="#444053"/>
    <path id="Path_819" data-name="Path 819" d="M852.611,468.731c-.979-.838-1.06-2.313-1.8-3.358a4.6,4.6,0,0,0-3.706-1.646c-1.394-.044-2.772.267-4.158.334a12.253,12.253,0,0,1-8.769-3.165,6.357,6.357,0,0,1-2.372-4.811c.067-1.134.578-2.187.741-3.3.556-3.2-1.571-6.234-3.877-8.525s-5-4.4-6.138-7.45c-1.4-3.766,0-7.976-.415-11.986-.689-7.213-6.834-12.728-12.987-15.737-1.438-.7-3.773-2.491-2.179-4.307.4-.467,1.016-.7,1.431-1.156,1.282-1.386,0-3.669.474-5.5a3.023,3.023,0,0,1,.467-1.016,3.953,3.953,0,0,0-3.343,2.646c-.452,1.838.815,4.114-.467,5.508-.415.452-1.03.689-1.438,1.149-1.594,1.816.741,3.61,2.179,4.307,6.16,3.009,12.305,8.532,12.987,15.737.378,4.01-.986,8.221.423,11.994,1.127,3.039,3.832,5.189,6.138,7.45s4.448,5.315,3.877,8.517a28.408,28.408,0,0,0-.741,3.3,6.365,6.365,0,0,0,2.379,4.811,12.224,12.224,0,0,0,8.762,3.165c1.394-.067,2.765-.371,4.158-.334A4.611,4.611,0,0,1,847.941,467c.741,1.045.823,2.528,1.8,3.358a4.448,4.448,0,0,0,2.165.793c.926.171,2.1.23,2.565-.578a2,2,0,0,0,.207-1.067,4.262,4.262,0,0,1-2.068-.778Z" transform="translate(-413.141 -126.176)" opacity="0.1"/>
    <path id="Path_820" data-name="Path 820" d="M624.575,196.761H596.207V168.808H624.6Zm-.41-42.148H596.617c0-43.44,41.291-40.9,41.291-68.384A27.388,27.388,0,0,0,610.38,58.965c-15.138,0-27.523,13.075-27.523,27.7H555.33a55.051,55.051,0,0,1,110.1-.431c0,34.364-41.287,38.277-41.287,68.384Z" transform="translate(-295.022 101.74)" fill="#eb2424"/>
    <path id="Path_821" data-name="Path 821" d="M367.93,387.093H354.706V374.032H367.93Zm-.2-19.644H354.906c0-20.237,19.236-19.058,19.236-31.874a12.765,12.765,0,0,0-12.824-12.713,13.1,13.1,0,0,0-12.794,12.9H335.7a25.654,25.654,0,1,1,51.307-.2c-.041,16.011-19.276,17.835-19.276,31.86Z" transform="translate(-318.451 -109.965)" fill="#eb2424" opacity="0.1"/>
    <path id="Path_822" data-name="Path 822" d="M502.99,509.513H489.765V496.49H502.99Zm-.193-19.636H489.973c0-20.244,19.236-19.058,19.236-31.875A12.757,12.757,0,0,0,496.385,445.3a13.1,13.1,0,0,0-12.861,12.913H470.7a25.654,25.654,0,1,1,51.307-.2C522.025,474.022,502.8,475.853,502.8,489.877Z" transform="translate(-336.513 -189.084)" fill="#eb2424" opacity="0.1"/>
    <path id="Path_823" data-name="Path 823" d="M588.24,300.217h-9.585V290.8h9.585Zm-.141-14.24h-9.3c0-14.662,13.943-13.81,13.943-23.091a9.251,9.251,0,0,0-9.3-9.207,9.488,9.488,0,0,0-9.3,9.355h-9.3a18.591,18.591,0,1,1,37.182-.148C602.027,274.488,588.1,275.815,588.1,285.977Z" transform="translate(-351.388 -86.658)" fill="#eb2424" opacity="0.1"/>
    <path id="Path_824" data-name="Path 824" d="M812.616,326.734H807.2V321.4h5.419Zm-.082-8.043H807.25c0-8.287,7.88-7.806,7.88-13.054a5.189,5.189,0,0,0-5.248-5.189,5.367,5.367,0,0,0-5.256,5.285H799.37a10.511,10.511,0,0,1,21.015-.081C820.415,312.168,812.535,312.946,812.535,318.691Z" transform="translate(-412.063 -99.876)" fill="#eb2424" opacity="0.1"/>
    <path id="Path_825" data-name="Path 825" d="M924.387,654.2h-5.419v-5.337h5.419Zm-.081-8.043H919.05c0-8.295,7.887-7.806,7.887-13.054a5.226,5.226,0,0,0-5.256-5.189,5.36,5.36,0,0,0-5.256,5.285H911.17a10.511,10.511,0,0,1,21.015-.082c.03,6.545-7.85,7.294-7.85,13.039Z" transform="translate(-440.989 -184.603)" fill="#eb2424" opacity="0.1"/>
  </g>
</svg>
