<svg width="193" height="356" viewBox="0 0 193 356" fill="none" xmlns="http://www.w3.org/2000/svg">
<path d="M52.4315 9.00032C57.0982 4.84698 63.1415 2.12698 70.5615 0.840317C77.9815 -0.44635 85.8249 0.370317 94.0915 3.29032C102.332 6.21032 109.868 11.4837 116.702 19.1103C123.055 26.2037 127.348 33.6337 129.582 41.4003C131.809 48.5824 132.013 56.2397 130.172 63.5303C128.421 70.2881 124.696 76.3706 119.472 81.0003C115.753 84.4861 111.217 86.9795 106.282 88.2503C101.874 89.348 97.3251 89.7661 92.7915 89.4903C88.4382 89.2103 80.8849 88.467 70.1315 87.2603C67.6141 86.9864 65.0838 86.8462 62.5515 86.8403C60.8174 86.8289 59.0882 87.027 57.4015 87.4303C56.0636 87.7714 54.7636 88.2472 53.5215 88.8503C52.3215 89.4403 50.2915 90.5303 47.4115 92.1403C41.4915 95.7603 36.3449 95.127 31.9715 90.2403C30.885 89.0848 30.0384 87.7254 29.4806 86.2407C28.9227 84.756 28.6647 83.1754 28.7215 81.5903C28.8349 78.3703 30.5282 75.2937 33.8015 72.3603C40.4689 65.9715 49.3993 62.4899 58.6315 62.6803C63.8871 62.8557 69.1304 63.2963 74.3415 64.0003C79.8815 64.6703 83.9715 65.0903 86.6115 65.2303C89.2325 65.3801 91.8614 65.1613 94.4215 64.5803C96.9753 64.0145 99.3368 62.7907 101.272 61.0303C103.165 59.3867 104.681 57.3539 105.716 55.0706C106.752 52.7873 107.282 50.3074 107.272 47.8003C107.352 42.467 105.352 37.5103 101.272 32.9303C96.4515 27.5503 91.5482 24.807 86.5615 24.7003C81.5749 24.5936 75.6382 26.027 68.7515 29.0003C61.7449 32.287 56.1615 31.6203 52.0015 27.0003C50.8177 25.7312 49.9118 24.2289 49.3418 22.5896C48.7719 20.9503 48.5504 19.2101 48.6915 17.4803C48.7216 15.8895 49.0677 14.3205 49.7098 12.8647C50.3519 11.4089 51.2771 10.0953 52.4315 9.00032ZM4.09153 116.69C1.47845 113.851 0.0198337 110.139 0.00153119 106.28C-0.0584688 102.334 1.64487 98.8037 5.11153 95.6903C6.53816 94.3708 8.22302 93.3616 10.0596 92.7264C11.8962 92.0913 13.8445 91.844 15.7815 92.0003C17.7434 92.119 19.6613 92.6317 21.4207 93.5079C23.18 94.3842 24.7448 95.606 26.0215 97.1003C27.3343 98.5216 28.3481 100.192 29.0027 102.013C29.6573 103.833 29.9393 105.767 29.832 107.699C29.7248 109.631 29.2304 111.521 28.3783 113.258C27.5261 114.995 26.3336 116.543 24.8715 117.81C21.4515 120.87 17.7849 122.177 13.8715 121.73C10.0908 121.35 6.59549 119.548 4.09153 116.69Z" fill="#407BFF"/>
<g opacity="0.5">
<path d="M141.851 76.0505C143.256 72.7142 145.584 69.8485 148.561 67.7905C152.061 65.2973 156.147 63.7538 160.421 63.3105C165.401 62.7748 170.434 63.5111 175.051 65.4505C179.413 67.064 183.352 69.6454 186.571 73.0005C189.362 75.9039 191.299 79.5193 192.171 83.4505C192.976 87.1248 192.662 90.9557 191.271 94.4505C190.328 97.014 188.753 99.2979 186.691 101.091C184.846 102.677 182.768 103.972 180.531 104.931C178.385 105.844 174.588 107.304 169.141 109.311C167.868 109.778 166.622 110.319 165.411 110.931C164.578 111.339 163.799 111.85 163.091 112.451C162.529 112.932 162.02 113.471 161.571 114.061C161.141 114.631 160.431 115.641 159.441 117.061C157.441 120.221 154.825 121.154 151.591 119.861C150.793 119.568 150.061 119.121 149.436 118.544C148.811 117.967 148.307 117.273 147.951 116.501C147.595 115.597 147.43 114.628 147.468 113.657C147.506 112.686 147.745 111.734 148.171 110.861C149.829 106.201 153.267 102.389 157.731 100.261C160.287 99.0703 162.9 98.009 165.561 97.0805C168.371 96.0805 170.431 95.2905 171.731 94.7305C173.021 94.1709 174.226 93.4338 175.311 92.5405C176.398 91.6534 177.236 90.499 177.741 89.1905C178.254 87.9497 178.491 86.6128 178.438 85.2715C178.384 83.9303 178.041 82.6165 177.431 81.4205C176.093 78.7881 173.789 76.7745 171.001 75.8005C167.401 74.3805 164.401 74.2438 162.001 75.3905C159.087 76.9415 156.537 79.0961 154.521 81.7105C151.948 84.9705 149.108 85.9705 146.001 84.7105C145.13 84.3846 144.336 83.8812 143.67 83.2322C143.004 82.5832 142.48 81.8028 142.131 80.9405C141.763 80.1847 141.548 79.3632 141.5 78.5236C141.452 77.6841 141.571 76.8434 141.851 76.0505ZM144.581 139.251C142.649 138.518 141.059 137.092 140.121 135.251C139.641 134.282 139.381 133.22 139.361 132.139C139.34 131.058 139.559 129.987 140.001 129.001C140.362 128.022 140.922 127.13 141.647 126.381C142.372 125.632 143.246 125.043 144.211 124.651C145.18 124.237 146.223 124.024 147.276 124.024C148.33 124.024 149.372 124.237 150.341 124.651C151.311 125.016 152.198 125.572 152.949 126.286C153.7 127 154.299 127.858 154.712 128.808C155.126 129.759 155.344 130.782 155.354 131.818C155.364 132.855 155.166 133.882 154.771 134.841C154.426 135.867 153.858 136.805 153.107 137.586C152.357 138.368 151.443 138.973 150.431 139.361C148.537 140.064 146.448 140.025 144.581 139.251Z" fill="#407BFF"/>
</g>
<path d="M27.7866 348.617L20.2266 346.657L24.7366 329.367L32.2966 331.327L27.7866 348.617Z" fill="#FFC3BD"/>
<path d="M20.1455 344.66L28.5855 347.33C28.6557 347.347 28.7217 347.378 28.7795 347.422C28.8374 347.465 28.8859 347.52 28.9223 347.582C28.9587 347.645 28.9821 347.714 28.9912 347.785C29.0004 347.857 28.995 347.93 28.9755 348L27.1955 354.55C27.0706 354.893 26.8179 355.176 26.4901 355.338C26.1622 355.5 25.7845 355.529 25.4355 355.42C22.5155 354.42 21.1655 353.84 17.4355 352.66C15.1455 351.94 9.62551 350.31 6.43551 349.31C3.24551 348.31 4.43551 345.31 5.82551 345.5C12.2455 346.17 15.9755 345.63 18.6455 344.7C19.1274 344.521 19.6548 344.507 20.1455 344.66Z" fill="#263238"/>
<path opacity="0.2" d="M32.2941 331.343L24.7341 329.383L22.4141 338.293L29.9741 340.253L32.2941 331.343Z" fill="black"/>
<path d="M51.3491 154.531C51.3491 154.531 37.5091 220.301 33.8291 241.831C29.8291 265.411 21.0391 332.921 21.0391 332.921L33.8891 337.591C33.8891 337.591 53.9991 266.001 57.0491 243.331C63.4391 221.171 79.6291 154.531 79.6291 154.531H51.3491Z" fill="#407BFF"/>
<path opacity="0.3" d="M69.1134 176C64.6234 186.78 62.9934 206.41 63.7734 218.15C67.3334 204.29 71.2834 188.46 74.3434 176.06C73.3534 172.65 71.9934 169.07 69.1134 176Z" fill="black"/>
<path d="M33.6237 339.107L19.8438 335.127L20.3637 329.297L36.7637 333.907L33.6237 339.107Z" fill="#263238"/>
<path d="M17.0433 345.083C17.7253 345.278 18.4257 345.402 19.1333 345.453C19.169 345.459 19.2057 345.454 19.2381 345.438C19.2704 345.421 19.2968 345.395 19.3133 345.363C19.3322 345.335 19.3423 345.302 19.3423 345.268C19.3423 345.234 19.3322 345.201 19.3133 345.173C19.1233 344.933 17.4733 342.863 16.4433 342.923C16.3249 342.928 16.2096 342.962 16.1082 343.023C16.0067 343.085 15.9225 343.17 15.8633 343.273C15.7615 343.417 15.6995 343.585 15.6837 343.761C15.6679 343.937 15.6988 344.113 15.7733 344.273C16.0832 344.689 16.5351 344.978 17.0433 345.083ZM18.7433 345.083C17.3033 344.913 16.3333 344.563 16.0933 344.083C16.0467 343.979 16.0294 343.865 16.0435 343.752C16.0577 343.639 16.1025 343.532 16.1733 343.443C16.2014 343.392 16.2417 343.349 16.2905 343.318C16.3394 343.286 16.3954 343.268 16.4533 343.263C16.9933 343.243 18.0533 344.253 18.7433 345.063V345.083Z" fill="#407BFF"/>
<path d="M19.0972 345.447H19.1872C19.2168 345.443 19.2448 345.431 19.2692 345.414C19.2935 345.397 19.3134 345.374 19.3272 345.347C19.3272 345.257 20.2472 343.227 19.7272 342.287C19.6561 342.167 19.5606 342.063 19.4469 341.982C19.3333 341.901 19.2039 341.845 19.0672 341.817C18.9168 341.774 18.7564 341.781 18.6103 341.837C18.4641 341.893 18.3402 341.995 18.2572 342.127C17.8072 342.867 18.4172 344.727 19.0172 345.387C19.0368 345.415 19.0648 345.436 19.0972 345.447ZM19.0972 342.187C19.1661 342.208 19.23 342.243 19.285 342.289C19.34 342.336 19.385 342.393 19.4172 342.457C19.598 343.283 19.4959 344.146 19.1272 344.907C18.6572 344.167 18.2972 342.787 18.5972 342.307C18.5972 342.217 18.7472 342.117 19.0072 342.167L19.0972 342.187Z" fill="#407BFF"/>
<path d="M62.0589 98.1965C61.3889 99.8165 60.7489 101.256 60.0589 102.736C59.3689 104.216 58.6289 105.666 57.8789 107.116C56.3589 110.006 54.7589 112.856 52.9989 115.636C49.497 121.415 45.2618 126.716 40.3989 131.406L40.2189 131.586C39.9637 131.816 39.6816 132.014 39.3789 132.176C38.5462 132.625 37.6311 132.901 36.6889 132.986C36.1496 133.025 35.6082 133.025 35.0689 132.986C34.262 132.934 33.4599 132.824 32.6689 132.656C31.2489 132.356 29.9889 131.986 28.7489 131.596C26.2889 130.816 23.9989 129.866 21.7489 128.906C19.4989 127.946 17.2789 126.906 15.0989 125.776C12.9189 124.646 10.7789 123.516 8.65888 122.236C8.16727 121.936 7.79884 121.471 7.61983 120.923C7.44082 120.376 7.46297 119.782 7.68228 119.25C7.9016 118.717 8.3037 118.28 8.81632 118.017C9.32893 117.755 9.91843 117.683 10.4789 117.816C15.1189 118.936 19.7489 120.186 24.3089 121.296C26.5789 121.866 28.8489 122.366 31.0289 122.786C32.0563 122.994 33.0946 123.145 34.1389 123.236C34.5319 123.259 34.9259 123.259 35.3189 123.236C35.4689 123.236 35.5289 123.236 35.4889 123.236C35.1334 123.246 34.7875 123.353 34.4889 123.546L33.4889 124.316C35.4237 122.175 37.2174 119.91 38.8589 117.536C40.5389 115.106 42.1289 112.536 43.6589 109.956C45.1889 107.376 46.6589 104.666 48.0489 101.956C49.4389 99.2465 50.8189 96.4565 52.0489 93.8465L52.1089 93.7165C52.699 92.3904 53.7917 91.353 55.1467 90.8326C56.5016 90.3122 58.0078 90.3514 59.3339 90.9415C60.66 91.5316 61.6973 92.6243 62.2177 93.9792C62.7381 95.3342 62.699 96.8404 62.1089 98.1665L62.0589 98.1965Z" fill="#FFC3BD"/>
<path d="M60.5175 87.6218C54.0775 87.8018 49.6575 94.7918 45.4375 103.502C48.6722 109.094 53.3078 113.746 58.8875 117.002C58.8875 117.002 75.8075 87.1918 60.5175 87.6218Z" fill="#E0E0E0"/>
<path d="M8.33907 122.282L2.53906 120.802L7.05907 114.992C7.05907 114.992 12.0591 115.782 13.9591 119.992L11.8991 121.462C11.3993 121.846 10.8227 122.119 10.2084 122.26C9.59412 122.402 8.95654 122.409 8.33907 122.282Z" fill="#FFC3BD"/>
<path d="M1.1263 114.861L2.2463 113.861C2.7045 113.459 3.28952 113.232 3.89855 113.219C4.50758 113.207 5.10163 113.409 5.5763 113.791L7.05629 114.981L2.53629 120.791L0.686299 117.911C0.379933 117.434 0.255744 116.864 0.336583 116.303C0.417423 115.743 0.697858 115.231 1.1263 114.861Z" fill="#FFC3BD"/>
<path d="M95.4563 347.722H87.5462L85.6562 330.102H93.5663L95.4563 347.722Z" fill="#FFC3BD"/>
<path d="M86.8526 346.837H95.7426C95.8896 346.829 96.0339 346.879 96.1443 346.976C96.2547 347.073 96.3224 347.21 96.3326 347.357L96.7626 354.117C96.7548 354.48 96.6049 354.826 96.3451 355.08C96.0852 355.335 95.7362 355.477 95.3726 355.477C92.2826 355.417 90.8026 355.247 86.8926 355.247C84.4926 355.247 77.8926 355.487 74.5426 355.487C71.1926 355.487 71.3126 352.327 72.7226 352.047C79.0326 350.757 83.2526 348.987 85.4926 347.307C85.8819 347.005 86.36 346.84 86.8526 346.837Z" fill="#263238"/>
<path opacity="0.2" d="M93.5663 330.102H85.6562L86.6362 339.192H94.5462L93.5663 330.102Z" fill="black"/>
<path d="M66.8047 154.528C66.8047 154.528 68.5547 220.648 69.8047 242.438C71.2047 266.298 83.0547 336.988 83.0547 336.988H97.5547C97.5547 336.988 94.3747 265.398 91.9747 241.988C92.9747 216.348 93.6347 154.508 93.6347 154.508L66.8047 154.528Z" fill="#407BFF"/>
<path d="M98.1341 336.993H81.6941L80.9141 331.703L98.5741 332.003L98.1341 336.993Z" fill="#263238"/>
<path d="M84.0586 348.161C84.7695 348.146 85.4768 348.055 86.1687 347.891C86.2025 347.885 86.2334 347.868 86.2568 347.843C86.2803 347.818 86.2949 347.786 86.2987 347.751C86.3082 347.718 86.3065 347.682 86.2939 347.65C86.2812 347.617 86.2583 347.59 86.2286 347.571C85.9786 347.411 83.7387 345.931 82.7687 346.301C82.6605 346.341 82.5642 346.408 82.489 346.496C82.4138 346.583 82.362 346.688 82.3386 346.801C82.276 346.972 82.2643 347.158 82.3052 347.336C82.346 347.513 82.4375 347.675 82.5687 347.801C83.0065 348.095 83.5349 348.223 84.0586 348.161ZM85.6587 347.641C84.2387 347.911 83.1987 347.861 82.8287 347.511C82.7524 347.428 82.7001 347.325 82.6772 347.214C82.6543 347.103 82.6617 346.988 82.6986 346.881C82.708 346.826 82.7313 346.774 82.7663 346.73C82.8013 346.687 82.8468 346.653 82.8986 346.631C83.4186 346.431 84.7387 347.071 85.6587 347.641Z" fill="#407BFF"/>
<path d="M86.1171 347.903H86.2072C86.2339 347.887 86.2568 347.865 86.2741 347.839C86.2914 347.813 86.3027 347.783 86.3072 347.753C86.3072 347.663 86.4872 345.473 85.6872 344.753C85.5848 344.655 85.461 344.582 85.3256 344.54C85.1902 344.499 85.0469 344.489 84.9072 344.513C84.7526 344.515 84.6031 344.568 84.4819 344.664C84.3607 344.759 84.2747 344.893 84.2372 345.043C84.0572 345.873 85.2372 347.463 86.0272 347.913L86.1171 347.903ZM84.9972 344.813C85.0712 344.81 85.145 344.823 85.2138 344.851C85.2826 344.878 85.345 344.92 85.3971 344.973C85.835 345.699 86.018 346.551 85.9172 347.393C85.2272 346.833 84.4372 345.623 84.5572 345.083C84.5572 344.973 84.6472 344.853 84.9172 344.823L84.9972 344.813Z" fill="#407BFF"/>
<path d="M54.6789 92.7132C55.1055 91.4186 55.873 90.2627 56.9006 89.367C57.9282 88.4714 59.1781 87.869 60.5189 87.6232C62.4729 87.1674 64.4534 86.8335 66.4489 86.6232C72.4443 86.2923 78.4534 86.2923 84.4489 86.6232C87.5889 86.7632 90.7889 87.1332 93.3389 87.4932H93.4289C94.084 87.5695 94.7168 87.7782 95.2887 88.1068C95.8605 88.4355 96.3595 88.877 96.7553 89.4047C97.151 89.9323 97.4352 90.535 97.5906 91.176C97.7459 91.817 97.7691 92.483 97.6589 93.1332C95.6626 103.324 94.3563 113.637 93.7489 124.003C93.1289 139.063 93.9689 150.883 93.6689 154.513H51.3489C48.7789 117.783 52.0989 101.083 54.6789 92.7132Z" fill="#E0E0E0"/>
<path d="M87.3161 64.2131C88.0543 64.7462 88.6415 65.4618 89.0202 66.2899C89.3989 67.1181 89.5561 68.0303 89.4765 68.9374C89.3969 69.8445 89.0831 70.7154 88.5659 71.4649C88.0488 72.2144 87.3459 72.8168 86.526 73.2131C88.236 76.0431 83.686 81.0431 79.106 77.9031C74.526 74.7631 80.9961 61.5431 87.3161 64.2131Z" fill="#263238"/>
<path d="M68.375 61.1695C67.7467 61.1881 67.1242 61.0432 66.5687 60.749C66.0132 60.4548 65.5436 60.0213 65.2059 59.4911C64.8682 58.9609 64.674 58.352 64.6423 57.7242C64.6106 57.0964 64.7425 56.4711 65.025 55.9095C62.895 55.0795 63.275 50.4295 67.115 50.2295C70.955 50.0295 72.935 59.9995 68.375 61.1695Z" fill="#263238"/>
<path d="M67.1239 90.5506C66.8377 90.2879 66.6247 89.9553 66.5058 89.5854C66.387 89.2155 66.3664 88.8211 66.4461 88.4408C66.5257 88.0606 66.703 87.7076 66.9603 87.4165C67.2177 87.1254 67.5463 86.9063 67.9139 86.7806C71.7739 85.3606 72.4739 82.5606 72.1639 79.5106C72.0752 78.653 71.935 77.8014 71.7439 76.9606L78.2939 71.7306L83.1139 67.8906C81.9139 72.8906 80.5739 81.6006 83.1139 86.0106C83.3986 86.4721 83.5087 87.0202 83.4244 87.5558C83.34 88.0913 83.0667 88.579 82.6539 88.9306C80.9939 90.4006 77.5939 92.3006 71.9939 92.0006C69.4239 91.8706 67.9939 91.2806 67.1239 90.5506Z" fill="#FFC3BD"/>
<path d="M52.5055 92.8855C52.9825 91.4457 53.8233 90.1534 54.9462 89.1338C56.0692 88.1141 57.4364 87.4017 58.9155 87.0655C60.8135 86.7641 62.7262 86.5638 64.6455 86.4655C64.8459 86.4367 65.0502 86.4583 65.2402 86.5282C65.4302 86.5981 65.5998 86.7142 65.7337 86.8659C65.8676 87.0177 65.9616 87.2004 66.0074 87.3976C66.0531 87.5948 66.049 87.8003 65.9955 87.9955C62.6455 100.436 57.8655 125.326 59.3455 156.156C59.3524 156.347 59.3199 156.539 59.2503 156.718C59.1806 156.896 59.0751 157.059 58.9403 157.196C58.8055 157.333 58.6441 157.44 58.4662 157.513C58.2883 157.585 58.0975 157.62 57.9055 157.616H49.5055C49.1411 157.622 48.7881 157.489 48.5186 157.243C48.2491 156.998 48.0835 156.659 48.0555 156.296C45.5255 118.626 49.9955 99.8555 52.5055 92.8855Z" fill="#263238"/>
<path d="M93.1025 86.7377C90.4136 86.3526 87.7067 86.1056 84.9925 85.9977C84.5012 85.9619 84.013 86.1008 83.6142 86.3899C83.2153 86.679 82.9314 87.0997 82.8125 87.5777C79.7025 101.278 76.9325 131.718 76.8125 156.208C76.8164 156.394 76.857 156.578 76.932 156.749C77.007 156.92 77.1149 157.074 77.2495 157.203C77.3842 157.332 77.5429 157.433 77.7168 157.501C77.8906 157.569 78.076 157.602 78.2625 157.598H93.2625C93.6341 157.606 93.9941 157.468 94.2652 157.214C94.5363 156.96 94.6969 156.609 94.7125 156.238C94.8125 151.308 94.1325 139.758 94.7125 125.418C95.2669 115.199 96.5502 105.033 98.5525 94.9977C99.0725 92.1877 96.0725 87.1577 93.1025 86.7377Z" fill="#263238"/>
<path d="M98.3747 91.0931C101.585 95.9331 104.505 100.783 107.265 105.873C108.625 108.423 109.965 111.013 111.175 113.733C111.775 115.093 112.365 116.483 112.915 117.953C113.521 119.543 113.989 121.183 114.315 122.853C114.561 124.071 114.615 125.319 114.475 126.553C114.311 127.552 114.053 128.533 113.705 129.483C113.134 131.032 112.435 132.531 111.615 133.963C110.143 136.561 108.503 139.059 106.705 141.443C103.246 146.059 99.4628 150.424 95.3847 154.503C94.9135 154.975 94.2853 155.258 93.6194 155.297C92.9535 155.337 92.2963 155.13 91.7729 154.716C91.2495 154.303 90.8963 153.711 90.7804 153.054C90.6646 152.397 90.7943 151.721 91.1447 151.153V151.093C94.0547 146.403 96.9947 141.623 99.6547 136.883C100.975 134.523 102.235 132.123 103.245 129.803C104.255 127.483 104.995 124.943 104.475 124.873C104.156 123.809 103.768 122.767 103.315 121.753C102.815 120.613 102.245 119.433 101.645 118.263C100.425 115.913 99.1147 113.523 97.7447 111.173C95.0047 106.453 92.0847 101.693 89.1947 97.0831V97.0231C88.4083 95.8058 88.1378 94.3259 88.4425 92.9091C88.7473 91.4922 89.6024 90.2545 90.8197 89.4681C92.037 88.6818 93.5169 88.4112 94.9337 88.7159C96.3506 89.0207 97.5883 89.8758 98.3747 91.0931Z" fill="#FFC3BD"/>
<path d="M92.1532 86.6113C98.5932 86.4913 102.003 91.9413 106.223 100.611C101.443 109.461 92.3232 113.291 92.3232 113.291C92.3232 113.291 79.4932 86.8313 92.1532 86.6113Z" fill="#E0E0E0"/>
<path d="M88.8584 150.889L85.1484 152.069L92.0184 157.289C92.0184 157.289 97.6384 154.369 95.8784 151.719L94.7384 151.209C92.8828 150.39 90.792 150.276 88.8584 150.889Z" fill="#FFC3BD"/>
<path d="M83.0687 156.65L87.2387 160.84C87.3735 160.972 87.5341 161.074 87.7104 161.14C87.8867 161.206 88.0748 161.235 88.2628 161.225C88.4508 161.214 88.6346 161.165 88.8026 161.08C88.9706 160.995 89.1191 160.876 89.2387 160.73L92.0087 157.29L85.1387 152.07L82.9987 155C82.8014 155.234 82.6991 155.533 82.712 155.839C82.725 156.145 82.8523 156.434 83.0687 156.65Z" fill="#FFC3BD"/>
<path opacity="0.2" d="M71.75 76.9956C71.941 77.8364 72.0813 78.688 72.17 79.5456C74.65 80.1756 78.17 77.3356 78.5 74.9256C78.5424 73.8682 78.4753 72.8093 78.3 71.7656L71.75 76.9956Z" fill="black"/>
<path d="M87.2248 60.79C85.5348 68.17 84.9348 72.57 80.3948 75.86C78.9097 76.9463 77.1631 77.6194 75.3331 77.811C73.5031 78.0026 71.6551 77.7057 69.9772 76.9506C68.2992 76.1955 66.8514 75.0091 65.7812 73.5124C64.711 72.0156 64.0567 70.262 63.8848 68.43C63.3048 61.51 66.1648 50.6 74.2448 48.66C82.3248 46.72 88.9148 53.4 87.2248 60.79Z" fill="#FFC3BD"/>
<path d="M83.8033 67.2494C81.6633 67.3594 79.3833 59.8094 84.1033 56.1694C83.3533 56.5794 81.3033 55.8294 81.6633 54.4194C80.2733 54.9994 74.1933 54.7494 75.6633 52.2794C72.5733 53.0794 65.8333 51.7394 65.1133 48.7894C64.3933 45.8394 67.8733 45.7394 68.4133 46.1294C66.8833 43.9894 66.9133 40.8494 70.9733 39.7094C75.0333 38.5694 81.1533 44.4394 81.1533 44.4394C80.5133 42.8894 82.7633 41.6394 85.0933 42.9694C87.4233 44.2994 88.5133 48.0794 88.5133 48.0794C88.5133 46.9394 93.9533 48.4694 91.3733 53.2494C94.0433 54.2494 95.2633 55.6694 95.0933 58.1394C94.9233 60.6094 93.2333 60.7494 93.2333 60.7494C93.591 61.6387 93.6406 62.6221 93.3741 63.5428C93.1077 64.4636 92.5406 65.2686 91.7633 65.8294C88.9933 68.0594 86.5733 65.4394 83.8033 67.2494Z" fill="#263238"/>
<path d="M88.0489 67.8208C87.1084 69.1971 85.7194 70.2044 84.1189 70.6708C82.0589 71.2208 81.3589 69.3808 82.1989 67.4608C82.9589 65.7308 84.9389 63.3508 86.8789 63.6508C88.8189 63.9508 89.2089 66.1008 88.0489 67.8208Z" fill="#FFC3BD"/>
<path d="M74.998 60.4891C74.898 61.0891 74.478 61.5391 74.068 61.4891C73.658 61.4391 73.398 60.8991 73.498 60.2891C73.598 59.6791 74.018 59.2891 74.428 59.2891C74.838 59.2891 75.048 59.8791 74.998 60.4891Z" fill="#263238"/>
<path d="M67.6755 59.1609C67.5755 59.7709 67.1655 60.2209 66.7555 60.1609C66.3455 60.1009 66.0855 59.5709 66.1855 58.9609C66.2855 58.3509 66.6955 57.9609 67.1055 57.9609C67.5155 57.9609 67.7755 58.5609 67.6755 59.1609Z" fill="#263238"/>
<path d="M70.5653 60.5156C69.5 62.2754 68.1978 63.8804 66.6953 65.2856C67.0844 65.6513 67.547 65.9297 68.0523 66.1021C68.5576 66.2746 69.0939 66.3371 69.6253 66.2856L70.5653 60.5156Z" fill="#ED847E"/>
<path d="M70.9243 69.2658C71.6516 69.348 72.3879 69.2842 73.0903 69.0781C73.7926 68.8721 74.4467 68.5279 75.0143 68.0658C75.0473 68.0306 75.0657 67.9841 75.0657 67.9358C75.0657 67.8875 75.0473 67.841 75.0143 67.8058C74.9781 67.7748 74.932 67.7578 74.8843 67.7578C74.8366 67.7578 74.7905 67.7748 74.7543 67.8058C74.1301 68.3011 73.4018 68.6484 72.6241 68.8216C71.8464 68.9948 71.0396 68.9894 70.2643 68.8058C70.2406 68.7999 70.216 68.7989 70.1919 68.8029C70.1679 68.8068 70.1448 68.8156 70.1243 68.8287C70.1037 68.8418 70.086 68.8589 70.0722 68.879C70.0585 68.8992 70.049 68.9219 70.0443 68.9458C70.0384 68.9689 70.0375 68.9929 70.0415 69.0164C70.0455 69.0398 70.0544 69.0621 70.0676 69.0819C70.0808 69.1017 70.098 69.1185 70.1181 69.1313C70.1382 69.144 70.1607 69.1524 70.1843 69.1558C70.4279 69.2106 70.6752 69.2473 70.9243 69.2658Z" fill="#263238"/>
<path d="M75.2937 56.3329C75.2337 56.349 75.1786 56.3799 75.1337 56.4229C75.0989 56.4556 75.0711 56.4951 75.0522 56.539C75.0332 56.5828 75.0234 56.6301 75.0234 56.6779C75.0234 56.7257 75.0332 56.7729 75.0522 56.8168C75.0711 56.8606 75.0989 56.9001 75.1337 56.9329C75.5231 57.3683 76.012 57.703 76.5588 57.9085C77.1056 58.114 77.6939 58.1841 78.2737 58.1129C78.3217 58.1081 78.3683 58.0935 78.4104 58.0699C78.4525 58.0462 78.4892 58.0142 78.5184 57.9757C78.5475 57.9372 78.5683 57.8931 78.5796 57.8461C78.5908 57.7992 78.5922 57.7504 78.5837 57.7029C78.5753 57.6549 78.5574 57.6091 78.5312 57.568C78.505 57.5269 78.471 57.4914 78.431 57.4636C78.391 57.4357 78.346 57.416 78.2984 57.4056C78.2508 57.3952 78.2016 57.3942 78.1537 57.4029C77.6952 57.4433 77.2337 57.3737 76.8075 57.1998C76.3814 57.0258 76.0029 56.7526 75.7037 56.4029C75.6484 56.3547 75.5808 56.3227 75.5085 56.3104C75.4362 56.298 75.3619 56.3058 75.2937 56.3329Z" fill="#263238"/>
<path d="M65.6086 54.5231C65.6636 54.5477 65.7233 54.5604 65.7836 54.5604C65.8439 54.5604 65.9035 54.5477 65.9586 54.5231C66.3855 54.3103 66.8539 54.1936 67.3308 54.1815C67.8077 54.1695 68.2814 54.2622 68.7186 54.4531C68.8039 54.5015 68.9046 54.515 68.9997 54.4907C69.0948 54.4665 69.1768 54.4065 69.2286 54.3232C69.2721 54.2364 69.2809 54.1363 69.253 54.0433C69.2251 53.9503 69.1627 53.8716 69.0786 53.8232C68.5386 53.5641 67.9474 53.4297 67.3486 53.4297C66.7497 53.4297 66.1585 53.5641 65.6186 53.8232C65.5748 53.8422 65.5355 53.8702 65.5033 53.9054C65.471 53.9406 65.4466 53.9822 65.4315 54.0275C65.4164 54.0727 65.411 54.1207 65.4157 54.1682C65.4203 54.2157 65.435 54.2617 65.4586 54.3032C65.4812 54.3918 65.5343 54.4697 65.6086 54.5231Z" fill="#263238"/>
</svg>
