<svg width="500" height="500" viewBox="0 0 500 500" fill="none" xmlns="http://www.w3.org/2000/svg">
<path d="M250.958 480.346C364.248 480.346 456.088 432.006 456.088 372.376C456.088 312.746 364.248 264.406 250.958 264.406C137.668 264.406 45.8281 312.746 45.8281 372.376C45.8281 432.006 137.668 480.346 250.958 480.346Z" fill="#F5F5F5"/>
<path d="M302.802 423.882L217.492 374.632L351.542 297.242L436.852 346.492L302.802 423.882Z" fill="#E0E0E0"/>
<path d="M163.858 449.724C197.526 449.724 224.818 433.969 224.818 414.534C224.818 395.099 197.526 379.344 163.858 379.344C130.191 379.344 102.898 395.099 102.898 414.534C102.898 433.969 130.191 449.724 163.858 449.724Z" fill="#E0E0E0"/>
<path d="M420.604 321.78C420.604 321.78 420.094 309.69 424.554 299.56C429.014 289.43 436.234 282.4 443.704 280.61C451.174 278.82 458.394 284.83 451.044 290.89C443.694 296.95 430.044 304.07 426.244 323L420.604 321.78Z" fill="#32C888"/>
<path opacity="0.15" d="M420.604 321.78C420.604 321.78 420.094 309.69 424.554 299.56C429.014 289.43 436.234 282.4 443.704 280.61C451.174 278.82 458.394 284.83 451.044 290.89C443.694 296.95 430.044 304.07 426.244 323L420.604 321.78Z" fill="black"/>
<path d="M422.344 322.353H422.264C422.158 322.325 422.067 322.257 422.01 322.164C421.952 322.072 421.932 321.96 421.954 321.853C426.864 300.933 440.784 286.333 447.464 283.653C447.565 283.614 447.677 283.616 447.776 283.659C447.875 283.702 447.954 283.783 447.994 283.883C448.033 283.984 448.031 284.096 447.988 284.195C447.945 284.295 447.864 284.373 447.764 284.413C441.224 287.033 427.584 301.413 422.764 322.043C422.737 322.134 422.682 322.213 422.606 322.269C422.53 322.325 422.438 322.355 422.344 322.353Z" fill="white"/>
<path d="M440.067 338.331C438.937 341.991 436.167 343.981 432.417 344.711C430.027 345.181 426.187 344.711 424.177 343.221C421.367 341.131 420.417 339.641 419.827 337.611C419.089 334.907 418.683 332.123 418.617 329.321C418.688 327.475 419.351 325.701 420.507 324.261C420.95 323.686 421.435 323.145 421.957 322.641C422.527 322.031 423.177 321.501 423.777 320.931C424.643 320.203 425.305 319.262 425.697 318.201C426.167 316.681 425.697 315.051 425.697 313.461C425.728 311.855 426.29 310.304 427.296 309.052C428.302 307.8 429.695 306.917 431.257 306.541C432.818 306.146 434.406 305.866 436.007 305.701C438.397 305.481 441.007 306.171 443.297 305.441C445.587 304.711 447.637 303.531 450.017 303.071C451.265 302.781 452.562 302.778 453.811 303.063C455.059 303.347 456.228 303.91 457.227 304.711C457.799 305.171 458.248 305.765 458.536 306.44C458.824 307.115 458.941 307.85 458.877 308.581C458.617 310.171 457.257 311.331 455.967 312.291C454.677 313.251 453.257 314.291 452.837 315.861C451.977 319.001 455.577 322.151 454.587 325.251C454.33 325.885 453.948 326.46 453.463 326.943C452.979 327.426 452.402 327.806 451.767 328.061C450.767 328.541 449.637 328.831 448.567 329.211C448.044 329.341 447.513 329.438 446.977 329.501C445.374 329.563 443.835 330.15 442.597 331.171C440.767 333.001 440.827 335.871 440.067 338.331Z" fill="#32C888"/>
<path d="M432.268 319.651C432.992 318.735 433.763 317.857 434.578 317.021C436.372 315.179 438.345 313.521 440.468 312.071C443.744 309.781 447.349 308.001 451.158 306.791C451.908 306.554 452.673 306.367 453.448 306.231C453.542 306.216 453.638 306.24 453.715 306.296C453.792 306.352 453.843 306.437 453.858 306.531C453.866 306.577 453.866 306.624 453.856 306.67C453.846 306.715 453.827 306.759 453.8 306.797C453.772 306.835 453.738 306.868 453.698 306.892C453.658 306.917 453.614 306.933 453.568 306.941C450.248 307.491 440.518 311.011 433.638 319.131C436.296 318.403 439.077 318.232 441.804 318.63C444.532 319.027 447.148 319.984 449.488 321.441C449.564 321.497 449.616 321.581 449.631 321.674C449.646 321.768 449.623 321.864 449.568 321.941C449.531 321.988 449.484 322.026 449.43 322.052C449.377 322.078 449.318 322.091 449.258 322.091C449.185 322.092 449.114 322.067 449.058 322.021C446.288 320.217 443.063 319.236 439.758 319.191C437.648 319.115 435.538 319.355 433.498 319.901C432.308 320.211 431.888 320.981 431.408 322.051C430.179 324.773 429.117 327.569 428.228 330.421C427.788 331.851 427.388 333.291 427.038 334.741C426.868 335.421 426.698 336.091 426.538 336.741C426.296 337.468 426.132 338.219 426.048 338.981C425.758 340.421 425.488 341.871 425.248 343.321C425.248 343.411 425.248 343.511 425.198 343.601C425.199 343.675 425.183 343.749 425.152 343.816C425.121 343.883 425.075 343.943 425.018 343.991C424.929 344.028 424.829 344.029 424.739 343.993C424.65 343.958 424.577 343.889 424.538 343.801C424.487 343.611 424.487 343.411 424.538 343.221C425.234 338.78 426.311 334.407 427.758 330.151C428.848 326.521 429.888 322.721 432.268 319.651Z" fill="white"/>
<path d="M445.284 215.34L442.544 216.97L340.234 157.63L342.974 156L445.284 215.34Z" fill="#FAFAFA"/>
<path d="M342.977 156.001L442.547 213.751V129.271L342.977 71.5312V156.001Z" fill="white"/>
<path d="M392.686 97.4744V185.174L387.516 182.194V94.4844L392.686 97.4744Z" fill="#F0F0F0"/>
<path d="M395.267 95.9688L392.688 97.4688V185.169L395.267 183.669V95.9688Z" fill="#E0E0E0"/>
<path d="M335.078 160.61L447.708 225.91V126.29L335.078 61V160.61ZM340.238 69.92L442.548 129.27V217L340.238 157.63V69.92Z" fill="#F0F0F0"/>
<path d="M340.234 157.632L342.974 156.002V71.5319L340.234 69.9219V157.632Z" fill="#E0E0E0"/>
<path d="M335.078 60.9806L337.858 59.3906L450.488 124.701L447.708 126.291L335.078 60.9806Z" fill="#FAFAFA"/>
<path d="M450.491 124.703L447.711 126.293V225.913L450.491 224.323V124.703Z" fill="#E0E0E0"/>
<path d="M392.689 100.439L387.539 97.4688V100.449L392.689 103.419V100.439Z" fill="#E0E0E0"/>
<path opacity="0.15" d="M392.688 103.417L395.267 101.927L392.688 100.438V103.417Z" fill="black"/>
<path d="M247.198 201.443L53.7578 313.123V311.393L247.198 199.703V201.443Z" fill="#37474F"/>
<path d="M241.606 196.477L247.196 199.707L53.7562 311.397L48.1562 308.167L241.606 196.477Z" fill="#455A64"/>
<path d="M48.1562 308.164L53.7562 311.394V313.124L48.1562 309.894V308.164Z" fill="#263238"/>
<path d="M237.303 198.966L52.4531 305.686V151.806L237.303 45.0859V198.966Z" fill="#32C888"/>
<path opacity="0.2" d="M237.303 198.966L52.4531 305.686V151.806L237.303 45.0859V198.966Z" fill="black"/>
<path d="M57.3984 296.25V155.53L232.378 54.5V195.22L57.3984 296.25Z" fill="#D7EEE4"/>
<path d="M232.378 54.5L61.1684 153.35L57.3984 155.53V160.57V296.25L61.1684 294.07V158.38L232.378 59.54V54.5Z" fill="#D7EEE4"/>
<path opacity="0.3" d="M57.3931 296.257L52.4531 305.687L237.303 198.967L232.373 195.227L57.3931 296.257Z" fill="black"/>
<path opacity="0.15" d="M232.373 54.5059L237.303 45.0859L52.4531 151.806L57.3931 155.536L232.373 54.5059Z" fill="black"/>
<path d="M48.1562 149.32L52.4562 151.8V305.68L48.1562 303.19V149.32Z" fill="#32C888"/>
<path opacity="0.35" d="M48.1562 149.32L52.4562 151.8V305.68L48.1562 303.19V149.32Z" fill="black"/>
<path d="M237.306 45.0838L233.006 42.5938L48.1562 149.324L52.4562 151.804L237.306 45.0838Z" fill="#32C888"/>
<path opacity="0.1" d="M237.306 45.0838L233.006 42.5938L48.1562 149.324L52.4562 151.804L237.306 45.0838Z" fill="black"/>
<path d="M207.396 164.05C207.446 164.126 207.48 164.211 207.496 164.3L207.366 164.07C207.206 164.14 207.046 164.19 206.876 164.28C207.066 164.01 207.216 163.94 207.336 164.01C207.021 163.434 206.664 162.883 206.266 162.36C205.266 160.741 203.731 159.524 201.926 158.92C199.636 158.32 196.806 159.67 194.096 161.38C197.656 153.03 201.936 145.16 201.926 136.56C201.926 127.56 195.356 127.56 190.016 134.84C186.176 140.1 182.356 145.434 178.556 150.84C182.936 141.61 186.156 132.12 184.766 124.16C183.766 118.61 179.476 118.37 175.206 122.33C172.626 124.73 169.866 128.54 166.936 132.44C164.566 135.59 162.126 138.8 159.866 142.17C161.638 138.702 162.904 134.998 163.626 131.17C164.486 125.55 163.226 118.41 158.516 120.03C154.626 121.38 151.426 124.88 148.426 129.03C149.646 124.33 149.696 119.56 146.936 118.21C145.166 117.36 143.176 118.28 141.276 120.08L141.396 119.9C140.26 120.88 139.279 122.027 138.486 123.3C138.276 123.6 138.086 123.91 137.896 124.22C134.396 129.04 131.676 134.95 128.746 140.37C126.916 143.74 125.186 147.08 123.376 150.37C123.886 143.37 121.606 137.93 115.156 143.02C112.406 145.19 110.056 148.62 107.706 151.31C107.406 151.65 107.096 151.99 106.756 152.31C106.49 151.576 106.015 150.936 105.389 150.469C104.764 150.001 104.015 149.727 103.236 149.68C99.7059 149.62 95.8059 151.31 91.8959 155.45C86.3859 161.29 82.8059 176.02 90.3559 174.05C91.4359 173.77 92.5159 173.26 93.5859 172.9C93.6476 174.014 93.8838 175.11 94.2859 176.15C95.6559 179.57 98.3759 179.33 101.406 177.42C99.2559 182.79 96.9959 188 94.9159 193.34C93.4659 197.12 92.0959 201.21 90.4759 204.95C87.8359 211.01 84.8959 216.87 83.3759 223.32C83.1039 224.379 82.9695 225.468 82.9759 226.56C82.5659 227.62 82.1759 228.68 81.7959 229.75C79.2259 237 81.4959 245.34 86.7359 243.67C94.2359 241.28 102.276 226.94 107.786 217.91C110.556 213.36 113.476 208.83 116.426 204.34L116.366 204.45C115.176 206.98 113.836 209.58 112.726 212.14C112.336 213.14 111.986 214.14 111.616 215.14C111.616 215.2 111.566 215.23 111.536 215.3C106.216 224.67 99.2659 243.11 103.536 250C104.956 252.3 107.416 253.52 110.356 251.28C117.226 246.03 123.066 234.28 127.976 225.56C131.256 219.76 134.696 213.81 138.026 207.81C137.242 210.564 136.64 213.367 136.226 216.2C135.146 224.27 138.446 228.49 144.076 225.53C148.226 223.36 152.566 216.42 155.706 211.53C159.916 205.03 164.346 198.88 168.586 192.44C168.318 194.399 168.268 196.381 168.436 198.35C169.086 205.35 173.266 207.61 178.766 202.04C183.916 196.83 188.466 188.67 193.856 185.16C194.439 186.033 195.109 186.843 195.856 187.58C198.406 190.08 201.856 190.27 205.706 188.32C215.276 183.52 217.186 160 207.396 164.05Z" fill="#D7EEE4"/>
<path d="M238.729 198.008L195.389 189.438C195.149 189.438 194.859 189.788 194.859 190.148V223.738C194.859 223.998 195.019 224.118 195.209 224.008L238.559 199.008C238.909 198.778 238.999 198.078 238.729 198.008ZM201.509 211.608V197.688L219.589 201.168L201.509 211.608Z" fill="#32C888"/>
<path d="M102.276 279.074C102.246 278.511 102.084 277.963 101.803 277.475C101.521 276.986 101.128 276.571 100.656 276.264C100.492 276.144 100.298 276.071 100.096 276.052C99.894 276.033 99.6904 276.068 99.5062 276.153L81.1562 286.754L83.4562 290.754L101.806 280.153C101.975 280.033 102.109 279.869 102.192 279.679C102.274 279.489 102.304 279.279 102.276 279.074Z" fill="#FAFAFA"/>
<path d="M82.3097 286.864C82.7818 287.172 83.1747 287.587 83.4562 288.075C83.7377 288.563 83.8999 289.111 83.9297 289.674C83.9297 290.674 83.1997 291.124 82.3097 290.614C81.8355 290.305 81.4407 289.889 81.1575 289.399C80.8743 288.909 80.7106 288.359 80.6797 287.794C80.6797 286.764 81.4097 286.344 82.3097 286.864Z" fill="#E6E6E6"/>
<path d="M179.713 179.097C175.913 179.097 174.363 177.437 173.713 176.047C172.213 172.777 174.163 167.667 179.063 162.047C186.693 153.227 199.173 146.047 206.883 146.047C210.673 146.047 212.233 147.707 212.883 149.047C214.383 152.317 212.423 157.437 207.533 163.047C199.903 171.917 187.423 179.097 179.713 179.097ZM206.903 147.697C199.613 147.697 187.703 154.617 180.343 163.107C176.033 168.107 174.073 172.787 175.253 175.357C176.033 177.057 178.103 177.417 179.713 177.417C186.993 177.417 198.913 170.507 206.263 162.007C210.583 157.007 212.533 152.337 211.363 149.767C210.583 148.057 208.503 147.697 206.903 147.697Z" fill="#FAFAFA"/>
<path d="M175.376 169.776C175.243 169.778 175.111 169.748 174.991 169.689C174.872 169.629 174.769 169.542 174.69 169.434C174.611 169.326 174.56 169.201 174.54 169.069C174.521 168.937 174.533 168.802 174.576 168.676L192.516 115.206C192.568 115.051 192.664 114.915 192.792 114.814C192.92 114.712 193.074 114.651 193.236 114.636C193.398 114.622 193.561 114.656 193.704 114.732C193.848 114.808 193.967 114.924 194.046 115.066L211.996 147.826C212.08 148.018 212.089 148.235 212.021 148.434C211.953 148.633 211.812 148.799 211.628 148.899C211.443 148.999 211.228 149.027 211.024 148.977C210.82 148.926 210.643 148.801 210.526 148.626L193.526 117.546L176.166 169.206C176.112 169.372 176.006 169.516 175.864 169.619C175.722 169.721 175.551 169.776 175.376 169.776Z" fill="#FAFAFA"/>
<path d="M193.307 163.393C193.197 163.393 193.088 163.371 192.987 163.329C192.885 163.286 192.793 163.224 192.716 163.146C192.639 163.068 192.578 162.975 192.537 162.874C192.496 162.772 192.475 162.663 192.477 162.553V115.463C192.477 115.353 192.498 115.244 192.541 115.143C192.583 115.042 192.645 114.95 192.723 114.872C192.801 114.795 192.894 114.734 192.996 114.693C193.098 114.652 193.207 114.632 193.317 114.633C193.537 114.633 193.748 114.72 193.904 114.876C194.059 115.032 194.147 115.243 194.147 115.463V162.553C194.147 162.776 194.058 162.989 193.901 163.147C193.743 163.304 193.529 163.393 193.307 163.393Z" fill="#FAFAFA"/>
<path d="M185.198 121.001C185.05 121.001 184.905 120.962 184.777 120.888C184.649 120.814 184.543 120.709 184.468 120.581C184.359 120.389 184.331 120.161 184.389 119.947C184.447 119.734 184.587 119.552 184.778 119.441L187.678 117.771C187.773 117.715 187.877 117.679 187.986 117.664C188.094 117.649 188.205 117.656 188.311 117.684C188.417 117.711 188.516 117.76 188.603 117.827C188.69 117.893 188.763 117.976 188.818 118.071C188.927 118.265 188.956 118.494 188.898 118.709C188.84 118.925 188.7 119.108 188.508 119.221L185.608 120.891C185.484 120.965 185.342 121.004 185.198 121.001Z" fill="#FAFAFA"/>
<path d="M147.999 142.444C147.852 142.444 147.708 142.406 147.582 142.332C147.455 142.258 147.35 142.152 147.279 142.024C147.223 141.929 147.187 141.825 147.172 141.716C147.157 141.608 147.164 141.497 147.191 141.391C147.219 141.285 147.268 141.186 147.334 141.099C147.401 141.012 147.484 140.938 147.579 140.884L153.779 137.304C153.969 137.22 154.183 137.21 154.38 137.274C154.577 137.339 154.743 137.475 154.847 137.655C154.95 137.835 154.982 138.047 154.939 138.25C154.895 138.453 154.777 138.632 154.609 138.754L148.419 142.324C148.293 142.401 148.147 142.443 147.999 142.444ZM160.389 135.294C160.241 135.293 160.096 135.254 159.968 135.18C159.84 135.107 159.734 135.001 159.659 134.874C159.55 134.681 159.522 134.453 159.58 134.24C159.638 134.026 159.778 133.845 159.969 133.734L166.159 130.154C166.35 130.06 166.569 130.043 166.772 130.105C166.975 130.167 167.148 130.304 167.254 130.488C167.361 130.671 167.393 130.889 167.346 131.096C167.299 131.303 167.175 131.484 166.999 131.604L160.799 135.184C160.685 135.248 160.559 135.285 160.429 135.294H160.389ZM172.769 128.144C172.622 128.144 172.478 128.106 172.352 128.032C172.225 127.958 172.12 127.852 172.049 127.724C171.993 127.629 171.957 127.525 171.942 127.416C171.927 127.308 171.933 127.197 171.961 127.091C171.989 126.985 172.038 126.886 172.104 126.799C172.171 126.712 172.254 126.638 172.349 126.584L178.539 123.004C178.635 122.948 178.741 122.912 178.85 122.898C178.96 122.883 179.071 122.891 179.178 122.92C179.285 122.948 179.385 122.998 179.473 123.066C179.561 123.133 179.634 123.218 179.689 123.314C179.798 123.506 179.826 123.734 179.768 123.947C179.71 124.161 179.57 124.343 179.379 124.454L173.229 128.004C173.103 128.084 172.958 128.132 172.809 128.144H172.769Z" fill="#FAFAFA"/>
<path d="M138.996 147.682C138.849 147.682 138.705 147.644 138.577 147.572C138.45 147.5 138.342 147.397 138.266 147.272C138.156 147.078 138.128 146.849 138.186 146.634C138.244 146.419 138.384 146.235 138.576 146.122L141.476 144.452C141.667 144.359 141.886 144.342 142.089 144.404C142.292 144.466 142.464 144.602 142.571 144.786C142.677 144.97 142.71 145.187 142.663 145.394C142.615 145.601 142.491 145.783 142.316 145.902L139.416 147.572C139.288 147.647 139.143 147.685 138.996 147.682Z" fill="#FAFAFA"/>
<path d="M185.198 168.083C185.05 168.082 184.905 168.043 184.777 167.97C184.649 167.896 184.543 167.79 184.468 167.663C184.359 167.47 184.331 167.243 184.389 167.029C184.447 166.816 184.587 166.634 184.778 166.523L187.678 164.853C187.772 164.796 187.877 164.759 187.986 164.743C188.094 164.727 188.205 164.733 188.312 164.761C188.418 164.789 188.518 164.838 188.605 164.906C188.692 164.973 188.764 165.057 188.818 165.153C188.927 165.347 188.956 165.576 188.898 165.791C188.84 166.006 188.7 166.19 188.508 166.303L185.608 167.973C185.484 168.047 185.342 168.086 185.198 168.083Z" fill="#FAFAFA"/>
<path d="M147.999 189.537C147.852 189.538 147.708 189.5 147.582 189.426C147.455 189.352 147.35 189.245 147.279 189.117C147.223 189.023 147.187 188.918 147.172 188.81C147.157 188.701 147.164 188.591 147.191 188.485C147.219 188.379 147.268 188.279 147.334 188.192C147.401 188.105 147.484 188.032 147.579 187.977L153.779 184.397C153.969 184.314 154.183 184.303 154.38 184.368C154.577 184.433 154.743 184.569 154.847 184.749C154.95 184.929 154.982 185.141 154.939 185.344C154.895 185.547 154.777 185.726 154.609 185.847L148.419 189.417C148.293 189.495 148.147 189.537 147.999 189.537ZM160.389 182.387C160.241 182.387 160.096 182.348 159.968 182.274C159.84 182.2 159.734 182.095 159.659 181.967C159.55 181.775 159.522 181.547 159.58 181.334C159.638 181.12 159.778 180.938 159.969 180.827L166.159 177.247C166.35 177.154 166.569 177.137 166.772 177.199C166.975 177.261 167.148 177.397 167.254 177.581C167.361 177.765 167.393 177.982 167.346 178.19C167.299 178.397 167.175 178.578 166.999 178.697L160.799 182.277C160.685 182.341 160.559 182.379 160.429 182.387H160.389ZM172.769 175.237C172.622 175.238 172.478 175.2 172.352 175.126C172.225 175.052 172.12 174.945 172.049 174.817C171.993 174.723 171.957 174.618 171.942 174.51C171.927 174.401 171.933 174.291 171.961 174.185C171.989 174.079 172.038 173.979 172.104 173.892C172.171 173.805 172.254 173.732 172.349 173.677L178.539 170.097C178.635 170.042 178.741 170.006 178.85 169.992C178.96 169.977 179.071 169.985 179.178 170.013C179.285 170.042 179.385 170.092 179.473 170.159C179.561 170.227 179.634 170.311 179.689 170.407C179.798 170.6 179.826 170.828 179.768 171.041C179.71 171.255 179.57 171.436 179.379 171.547L173.189 175.127C173.072 175.191 172.942 175.229 172.809 175.237H172.769Z" fill="#FAFAFA"/>
<path d="M138.995 194.776C138.847 194.775 138.702 194.736 138.574 194.663C138.446 194.589 138.34 194.483 138.265 194.356C138.156 194.163 138.128 193.936 138.186 193.722C138.244 193.509 138.384 193.327 138.575 193.216L141.475 191.546C141.666 191.453 141.885 191.436 142.088 191.497C142.291 191.559 142.464 191.696 142.57 191.88C142.677 192.064 142.709 192.281 142.662 192.488C142.615 192.695 142.491 192.877 142.315 192.996L139.415 194.666C139.288 194.741 139.142 194.779 138.995 194.776Z" fill="#FAFAFA"/>
<path d="M129.472 151.727C128.292 152.787 126.752 149.617 126.932 148.617C127.072 147.867 125.722 147.217 125.512 148.117C124.921 150.185 124.223 152.221 123.422 154.217C123.212 154.827 123.042 155.437 122.792 156.037C122.704 156.348 122.559 156.64 122.362 156.897C122.209 156.977 122.189 157.057 122.302 157.137C122.125 156.987 122.002 156.784 121.952 156.557C121.382 155.197 121.892 153.297 122.162 151.887C122.372 150.797 122.782 149.317 122.012 148.347C121.752 148.017 121.192 147.757 120.842 148.117C120.242 148.727 116.592 155.017 115.782 154.217C115.721 154.135 115.641 154.067 115.549 154.021C115.457 153.975 115.355 153.951 115.252 153.951C115.149 153.951 115.048 153.975 114.956 154.021C114.864 154.067 114.784 154.135 114.722 154.217C114.212 155.067 113.832 155.997 113.332 156.867C113.082 157.297 112.672 157.747 112.472 158.187C112.472 158.187 112.472 158.187 112.402 158.247C112.347 158.088 112.307 157.924 112.282 157.757C112.182 157.227 111.282 156.597 110.952 157.247C110.382 158.247 110.192 159.447 109.572 160.397C109.494 160.51 109.403 160.614 109.302 160.707C109.302 160.707 109.302 160.637 109.302 160.607C109.304 160.164 109.24 159.722 109.112 159.297C108.972 158.787 107.822 158.197 107.522 158.877C106.722 160.647 106.262 162.997 104.762 164.337C104.573 164.509 104.342 164.63 104.092 164.687C104.692 163.607 105.682 161.997 105.152 160.687C105.066 160.463 104.929 160.263 104.752 160.101C104.575 159.939 104.363 159.82 104.132 159.754C103.901 159.688 103.658 159.677 103.422 159.721C103.186 159.765 102.964 159.863 102.772 160.007C101.99 160.549 101.449 161.372 101.262 162.305C101.076 163.238 101.259 164.207 101.772 165.007C101.267 165.903 100.587 166.689 99.7724 167.317C98.5724 168.167 96.5424 168.527 95.2824 167.567C95.056 167.369 94.8869 167.113 94.7924 166.827C95.2642 165.684 95.5998 164.489 95.7924 163.267C95.8724 162.797 95.2224 162.087 94.7324 162.357C93.8024 162.877 93.4724 164.357 93.4124 165.427C93.0256 166.351 92.5814 167.249 92.0824 168.117C91.6408 168.987 91.0673 169.783 90.3824 170.477C89.5124 171.237 89.3024 170.237 89.0424 169.427C88.8524 168.847 87.7024 168.147 87.2324 168.867C86.5431 169.942 85.9186 171.058 85.3624 172.207C84.9712 173.267 84.4506 174.275 83.8124 175.207C83.6524 174.957 83.5324 174.577 83.4324 174.437C83.24 174.154 82.9737 173.929 82.6624 173.787C82.3154 173.637 81.9331 173.589 81.5596 173.647C81.1862 173.705 80.837 173.868 80.5524 174.117C80.4324 174.217 80.3224 174.327 80.2124 174.437C80.4074 174.004 80.5777 173.56 80.7224 173.107C81.3124 171.257 81.3724 168.827 79.9724 167.287C77.4824 164.557 73.5024 168.087 74.0324 171.087C74.1424 171.697 75.2724 172.317 75.2624 171.377C75.3239 170.751 75.5385 170.15 75.8873 169.627C76.2361 169.104 76.7084 168.675 77.2624 168.377C78.8524 167.527 78.8124 170.377 78.6624 171.377C78.2224 174.197 76.2724 176.547 75.5324 179.297C75.2124 180.467 77.0624 180.657 77.6824 180.117C79.1068 178.907 80.4435 177.597 81.6824 176.197L81.8924 175.967L81.9924 176.007C82.3525 176.564 82.887 176.986 83.5124 177.207C85.1224 177.697 85.9424 176.057 86.5124 174.857C87.0824 173.657 87.6024 172.517 88.2024 171.367C89.0724 172.427 90.2924 173.007 91.6924 171.887C92.8247 170.801 93.7171 169.489 94.3124 168.037C94.8364 168.61 95.5073 169.029 96.2524 169.247C99.4224 170.197 101.602 168.417 103.252 166.057C103.394 166.119 103.541 166.166 103.692 166.197C106.192 166.797 107.442 164.197 108.302 161.927C108.481 162.167 108.735 162.339 109.024 162.415C109.313 162.491 109.619 162.467 109.892 162.347C111.152 161.997 111.472 160.587 111.822 159.347C112.292 159.857 112.912 160.017 113.672 159.347C114.732 158.347 115.192 156.847 115.812 155.547C117.652 156.157 119.452 153.267 120.812 151.117C120.742 151.367 120.682 151.587 120.662 151.717C120.492 152.563 120.372 153.418 120.302 154.277C120.192 155.837 120.472 158.537 122.552 158.667C124.072 158.767 124.612 156.797 124.952 155.667C125.432 154.107 126.032 152.607 126.472 151.067C127.472 152.967 129.272 154.567 130.632 152.717C130.992 152.197 129.992 151.287 129.472 151.727Z" fill="#FAFAFA"/>
<path d="M109.776 209.703C108.716 210.533 107.926 212.583 106.446 212.703C106.154 212.73 105.861 212.668 105.606 212.523C106.126 211.758 106.517 210.914 106.766 210.023C107.176 208.463 106.576 206.453 104.596 206.593C102.186 206.773 102.936 210.593 103.536 212.003C103.536 212.103 103.636 212.203 103.686 212.303L103.476 212.523C103.146 212.853 102.546 213.443 102.016 213.413C101.326 213.413 101.196 212.413 101.076 211.863C100.956 211.313 100.266 210.943 99.8859 211.323C98.9659 212.263 98.6559 213.793 98.0159 214.923H97.8859C97.8158 214.724 97.7253 214.533 97.6159 214.353C97.3894 213.923 97.0062 213.597 96.5459 213.443C96.4145 213.379 96.2639 213.366 96.1235 213.407C95.9831 213.447 95.8628 213.539 95.7859 213.663C95.2959 214.663 94.9459 215.663 94.5359 216.663C94.3264 217.183 94.086 217.691 93.8159 218.183C93.6025 218.482 93.365 218.763 93.1059 219.023C93.0969 218.866 93.0969 218.709 93.1059 218.553C93.1609 217.941 93.1609 217.325 93.1059 216.713C93.0359 216.213 92.0359 215.513 91.6559 216.103C89.6559 219.233 87.6559 222.603 84.9459 225.103C84.6259 225.393 83.7359 226.293 83.2359 226.213C82.7359 226.133 82.9559 224.313 83.1059 223.793C83.6398 222.267 84.3728 220.817 85.2859 219.483C85.8859 218.483 86.5959 217.053 87.7059 216.483C87.6051 217.393 87.1661 218.231 86.4759 218.833C86.1059 219.173 86.6359 220.113 87.0959 219.753C87.713 219.266 88.213 218.646 88.5592 217.94C88.9053 217.234 89.0887 216.459 89.0959 215.673C89.0658 215.472 88.975 215.284 88.8356 215.136C88.6962 214.988 88.5149 214.885 88.3159 214.843C85.5259 214.453 83.9259 218.203 82.8059 220.193C81.6859 222.183 80.1859 225.403 82.2359 227.193C84.9659 229.593 88.8259 223.493 90.0459 221.793C90.5959 221.023 91.1459 220.233 91.6659 219.443C91.7659 220.223 92.0859 220.853 92.9559 220.943C93.8259 221.033 94.7259 219.863 95.1559 219.133C95.7906 217.921 96.3354 216.664 96.7859 215.373C96.8538 215.613 96.962 215.839 97.1059 216.043C97.2902 216.228 97.5254 216.355 97.7818 216.407C98.0382 216.458 98.3041 216.433 98.5459 216.333C99.8259 215.873 99.9559 214.483 100.416 213.333C100.536 213.614 100.712 213.866 100.934 214.076C101.157 214.285 101.42 214.446 101.707 214.548C101.995 214.65 102.3 214.692 102.605 214.671C102.909 214.649 103.206 214.565 103.476 214.423C103.971 214.165 104.421 213.827 104.806 213.423C105.151 213.714 105.554 213.929 105.989 214.053C106.423 214.177 106.879 214.208 107.326 214.143C108.189 213.91 108.964 213.426 109.553 212.754C110.142 212.081 110.519 211.249 110.636 210.363C110.616 210.173 110.186 209.373 109.776 209.703ZM104.536 210.613C104.406 210.013 104.156 208.533 104.816 208.113C105.476 207.693 105.496 208.343 105.456 208.763C105.362 209.567 105.081 210.337 104.636 211.013C104.596 210.883 104.566 210.743 104.536 210.613Z" fill="#FAFAFA"/>
<path d="M132.668 201.484C132.043 200.94 131.637 200.186 131.528 199.364C131.438 198.624 131.588 197.874 131.468 197.134C131.447 196.867 131.361 196.61 131.217 196.384C131.073 196.158 130.876 195.971 130.643 195.839C130.411 195.707 130.149 195.634 129.881 195.626C129.614 195.618 129.348 195.676 129.108 195.794C128.189 196.456 127.445 197.331 126.938 198.344C126.668 198.774 126.418 199.214 126.168 199.644C125.818 199.174 125.028 198.914 124.628 199.444C124.07 200.191 123.549 200.965 123.068 201.764C123.068 201.664 123.068 201.564 123.068 201.464C122.947 200.815 122.587 200.235 122.06 199.837C121.533 199.439 120.876 199.253 120.218 199.314C119.391 199.467 118.614 199.821 117.955 200.344C117.296 200.867 116.775 201.543 116.438 202.314C116.091 202.985 115.945 203.742 116.018 204.494C116.023 204.707 116.095 204.913 116.224 205.082C116.354 205.251 116.534 205.374 116.738 205.434C116.841 205.477 116.953 205.492 117.064 205.478C117.174 205.464 117.279 205.421 117.368 205.354C117.458 205.274 117.698 204.914 117.558 204.784C117.418 204.654 117.948 203.404 118.048 203.214C118.335 202.701 118.696 202.232 119.118 201.824C119.455 201.491 119.852 201.227 120.288 201.044C120.525 200.963 120.77 200.909 121.018 200.884C121.438 201.114 121.388 202.244 121.398 202.644C121.398 203.434 121.398 204.214 121.398 205.004C121.398 205.794 122.768 206.354 123.198 205.604C123.948 204.294 124.668 202.964 125.478 201.694V201.754C125.718 202.194 126.698 202.644 127.018 202.034C127.818 200.524 128.588 198.644 129.878 197.464C129.878 197.954 129.878 198.554 129.878 198.644C129.914 199.384 130.104 200.108 130.434 200.771C130.765 201.433 131.229 202.02 131.798 202.494C132.668 203.194 133.548 202.164 132.668 201.484Z" fill="#FAFAFA"/>
<path d="M302.801 331.908L227.211 288.268L352.711 215.648L428.291 259.288L302.801 331.908Z" fill="#32C888"/>
<g opacity="0.2">
<path d="M302.801 331.908L227.211 288.268L352.711 215.648L428.291 259.288L302.801 331.908Z" fill="black"/>
</g>
<path d="M227.211 288.266V375.546L231.191 377.846V372.316L298.821 411.356V416.886L302.801 419.186V331.906L227.211 288.266Z" fill="#32C888"/>
<g opacity="0.45">
<path d="M227.211 288.266V375.546L231.191 377.846V372.316L298.821 411.356V416.886L302.801 419.186V331.906L227.211 288.266Z" fill="black"/>
</g>
<path d="M231.188 377.85L235.167 375.55V374.62L231.188 372.32V377.85Z" fill="#32C888"/>
<g opacity="0.6">
<path d="M231.188 377.85L235.167 375.55V374.62L231.188 372.32V377.85Z" fill="black"/>
</g>
<path d="M302.805 419.189L306.785 416.889V411.359L424.325 343.329V348.869L428.295 346.569V259.289L302.805 331.909V419.189Z" fill="#32C888"/>
<g opacity="0.3">
<path d="M302.805 419.189L306.785 416.889V411.359L424.325 343.329V348.869L428.295 346.569V259.289L302.805 331.909V419.189Z" fill="black"/>
</g>
<path d="M424.324 348.868L420.344 346.568V345.628L424.324 343.328V348.868Z" fill="#32C888"/>
<g opacity="0.6">
<path d="M424.324 348.868L420.344 346.568V345.628L424.324 343.328V348.868Z" fill="black"/>
</g>
<g opacity="0.15">
<path d="M275.193 270.494L302.053 286.004C302.287 286.122 302.546 286.184 302.808 286.184C303.071 286.184 303.329 286.122 303.563 286.004L323.333 274.594C323.428 274.565 323.51 274.507 323.569 274.428C323.627 274.348 323.659 274.252 323.659 274.154C323.659 274.055 323.627 273.959 323.569 273.88C323.51 273.801 323.428 273.743 323.333 273.714L296.473 258.204C296.239 258.085 295.981 258.023 295.718 258.023C295.456 258.023 295.197 258.085 294.963 258.204L275.193 269.624C275.103 269.655 275.024 269.714 274.968 269.792C274.913 269.87 274.883 269.963 274.883 270.059C274.883 270.155 274.913 270.248 274.968 270.326C275.024 270.404 275.103 270.463 275.193 270.494Z" fill="black"/>
</g>
<g opacity="0.15">
<path d="M275.19 273.26L302.05 288.77C302.284 288.889 302.543 288.951 302.805 288.951C303.068 288.951 303.326 288.889 303.56 288.77L323.33 277.36C323.425 277.332 323.507 277.273 323.566 277.194C323.624 277.115 323.656 277.019 323.656 276.921C323.656 276.822 323.624 276.726 323.566 276.647C323.507 276.568 323.425 276.509 323.33 276.48L296.47 261C296.238 260.877 295.978 260.812 295.715 260.812C295.452 260.812 295.193 260.877 294.96 261L275.19 272.41C275.106 272.445 275.034 272.504 274.984 272.58C274.933 272.656 274.906 272.744 274.906 272.835C274.906 272.926 274.933 273.015 274.984 273.091C275.034 273.167 275.106 273.226 275.19 273.26Z" fill="black"/>
</g>
<path d="M275.193 271.878L302.053 287.378C302.286 287.501 302.545 287.566 302.808 287.566C303.071 287.566 303.331 287.501 303.563 287.378L323.333 275.998C323.424 275.967 323.502 275.908 323.558 275.83C323.614 275.752 323.643 275.659 323.643 275.563C323.643 275.467 323.614 275.374 323.558 275.296C323.502 275.218 323.424 275.159 323.333 275.128L296.473 259.618C296.239 259.499 295.98 259.438 295.718 259.438C295.456 259.438 295.197 259.499 294.963 259.618L275.193 270.998C275.099 271.027 275.016 271.085 274.958 271.164C274.899 271.243 274.867 271.339 274.867 271.438C274.867 271.537 274.899 271.632 274.958 271.712C275.016 271.791 275.099 271.849 275.193 271.878Z" fill="#EBEBEB"/>
<path d="M295.004 259.587L276.234 270.427L302.094 285.357C302.328 285.475 302.587 285.537 302.849 285.537C303.112 285.537 303.37 285.475 303.604 285.357L322.384 274.517L296.514 259.587C296.28 259.468 296.022 259.406 295.759 259.406C295.497 259.406 295.238 259.468 295.004 259.587Z" fill="#E0E0E0"/>
<path d="M275.19 269.15L302.05 284.65C302.284 284.769 302.543 284.831 302.805 284.831C303.067 284.831 303.326 284.769 303.56 284.65L323.33 273.24C323.421 273.209 323.499 273.15 323.555 273.072C323.611 272.994 323.64 272.901 323.64 272.805C323.64 272.709 323.611 272.616 323.555 272.538C323.499 272.46 323.421 272.401 323.33 272.37L296.47 256.86C296.236 256.741 295.977 256.68 295.715 256.68C295.453 256.68 295.194 256.741 294.96 256.86L275.19 268.27C274.77 268.51 274.77 268.9 275.19 269.15Z" fill="#FAFAFA"/>
<path opacity="0.15" d="M323.44 293.007C322.58 293.447 324.74 295.007 325.81 294.377L344.56 283.377L346.81 281.007C346.834 280.983 346.849 280.952 346.853 280.919C346.858 280.885 346.851 280.852 346.833 280.823C346.816 280.794 346.789 280.772 346.758 280.76C346.727 280.748 346.692 280.747 346.66 280.757L342.32 282.087L323.44 293.007Z" fill="black"/>
<path d="M342.492 280.384L346.492 279.604C346.517 279.599 346.543 279.602 346.566 279.613C346.589 279.624 346.608 279.642 346.62 279.664C346.632 279.686 346.637 279.711 346.634 279.737C346.631 279.762 346.62 279.785 346.602 279.804L343.892 282.874L342.492 280.384Z" fill="#FFA8A7"/>
<path d="M346.601 279.804C346.618 279.785 346.629 279.762 346.633 279.737C346.636 279.711 346.631 279.686 346.619 279.664C346.606 279.642 346.587 279.624 346.565 279.613C346.542 279.602 346.516 279.599 346.491 279.604L345.711 279.754C345.817 279.822 345.903 279.917 345.959 280.03C346.015 280.142 346.04 280.268 346.031 280.394V280.464L346.601 279.804Z" fill="#263238"/>
<path d="M329 291.413L329.32 291.223L329.72 291.003L343.89 282.873C344.024 282.432 343.985 281.956 343.78 281.543C343.676 281.259 343.504 281.005 343.279 280.803C343.054 280.601 342.783 280.457 342.49 280.383L328.33 288.503L327.57 288.943C328.08 288.683 329.5 291.153 329 291.413Z" fill="#455A64"/>
<path d="M330.242 290.707L330.973 290.287C331.193 290.177 331.062 289.647 330.812 289.097C330.482 288.367 329.813 287.667 329.543 287.817L329.003 288.127L328.812 288.237C329.102 288.087 329.752 288.787 330.082 289.517C330.332 290.047 330.452 290.517 330.272 290.697L330.242 290.707Z" fill="#EBEBEB"/>
<path d="M330.418 290.59C330.928 290.33 329.488 287.86 328.988 288.13L328.258 288.54C328.758 288.28 330.188 290.75 329.688 291.01L330.418 290.59Z" fill="#32C888"/>
<path d="M329.002 291.417L329.722 291.007C330.212 290.747 328.852 288.357 328.332 288.507L327.602 288.927C328.082 288.687 329.502 291.157 329.002 291.417Z" fill="#EBEBEB"/>
<path opacity="0.15" d="M346.623 279.662L346.483 279.602L343.593 281.182L328.593 289.782C328.593 289.782 328.543 289.782 328.523 289.782C328.953 290.452 329.273 291.282 328.993 291.432L329.313 291.242L329.713 291.022L343.883 282.892L346.593 279.822C346.618 279.804 346.634 279.777 346.64 279.747C346.645 279.718 346.639 279.687 346.623 279.662Z" fill="black"/>
<path d="M325.944 293.162L329.004 291.412C329.214 291.302 329.094 290.772 328.854 290.232C328.514 289.502 327.854 288.792 327.574 288.942L324.504 290.702C323.894 291.052 324.454 292.372 325.134 292.972C325.233 293.082 325.364 293.16 325.509 293.194C325.654 293.228 325.805 293.217 325.944 293.162Z" fill="#F28F8F"/>
<path opacity="0.1" d="M326.116 292.213C326.036 291.883 325.882 291.575 325.665 291.314C325.449 291.052 325.175 290.843 324.866 290.703C324.79 290.675 324.709 290.666 324.629 290.676C324.549 290.687 324.472 290.716 324.406 290.763C323.946 291.193 324.486 292.413 325.126 292.973C325.225 293.078 325.352 293.152 325.492 293.187C325.632 293.223 325.779 293.218 325.916 293.173C326.146 293.003 326.236 292.683 326.116 292.213Z" fill="black"/>
<path opacity="0.15" d="M334.903 293.101C334.033 293.551 336.223 295.101 337.313 294.501L356.313 283.361L358.603 280.951C358.63 280.927 358.648 280.895 358.653 280.859C358.658 280.823 358.65 280.787 358.631 280.757C358.611 280.726 358.582 280.704 358.547 280.694C358.513 280.683 358.476 280.686 358.443 280.701L354.043 282.041L334.903 293.101Z" fill="black"/>
<path d="M354.234 280.347L358.294 279.547C358.319 279.546 358.344 279.551 358.366 279.564C358.388 279.576 358.406 279.594 358.417 279.617C358.429 279.639 358.434 279.664 358.432 279.689C358.429 279.714 358.42 279.737 358.404 279.757L355.664 282.867L354.234 280.347Z" fill="#FFA8A7"/>
<path d="M358.4 279.757C358.415 279.737 358.425 279.714 358.427 279.689C358.429 279.664 358.424 279.639 358.413 279.617C358.401 279.594 358.383 279.576 358.362 279.564C358.34 279.551 358.315 279.546 358.29 279.547L357.5 279.707C357.607 279.774 357.693 279.87 357.749 279.982C357.806 280.095 357.83 280.221 357.82 280.347V280.427L358.4 279.757Z" fill="#263238"/>
<path d="M340.542 291.534L340.872 291.344L341.272 291.114L355.662 282.864C355.792 282.418 355.749 281.939 355.542 281.524C355.436 281.235 355.261 280.977 355.033 280.772C354.804 280.566 354.529 280.419 354.232 280.344L339.862 288.584L339.102 289.024C339.612 288.764 341.052 291.274 340.542 291.534Z" fill="#455A64"/>
<path d="M341.812 290.82L342.552 290.39C342.762 290.28 342.642 289.74 342.382 289.19C342.052 288.45 341.382 287.73 341.092 287.89L340.542 288.2L340.352 288.32C340.642 288.16 341.352 288.88 341.652 289.61C341.892 290.15 342.012 290.66 341.832 290.81L341.812 290.82Z" fill="#EBEBEB"/>
<path d="M342.005 290.708C342.515 290.438 341.055 287.938 340.545 288.208L339.805 288.628C340.315 288.358 341.805 290.868 341.265 291.138L342.005 290.708Z" fill="#32C888"/>
<path d="M340.543 291.536L341.273 291.116C341.773 290.856 340.393 288.426 339.863 288.586L339.133 289.016C339.613 288.766 341.053 291.276 340.543 291.536Z" fill="#EBEBEB"/>
<path opacity="0.15" d="M358.42 279.617L358.29 279.547L355.35 281.157L340.14 289.887C340.14 289.837 340.09 289.837 340.07 289.887C340.5 290.557 340.83 291.407 340.54 291.557L340.87 291.367L341.27 291.137L355.66 282.887L358.4 279.777C358.423 279.757 358.437 279.73 358.441 279.701C358.445 279.671 358.437 279.641 358.42 279.617Z" fill="black"/>
<path d="M337.43 293.318L340.54 291.538C340.76 291.428 340.64 290.898 340.39 290.338C340.05 289.598 339.39 288.878 339.1 289.028L336 290.818C335.38 291.168 335.95 292.518 336.64 293.118C336.736 293.227 336.863 293.305 337.004 293.34C337.145 293.376 337.293 293.368 337.43 293.318Z" fill="#F28F8F"/>
<path opacity="0.1" d="M337.626 292.35C337.546 292.015 337.39 291.702 337.169 291.437C336.949 291.172 336.671 290.961 336.356 290.82C336.28 290.792 336.199 290.783 336.119 290.793C336.039 290.804 335.962 290.833 335.896 290.88C335.426 291.32 335.966 292.55 336.626 293.12C336.725 293.229 336.853 293.306 336.996 293.342C337.138 293.377 337.288 293.37 337.426 293.32C337.656 293.19 337.746 292.83 337.626 292.35Z" fill="black"/>
<path opacity="0.15" d="M296.409 314.182C298.949 316.182 303.839 316.602 307.309 315.182C310.779 313.762 311.529 311.002 308.999 309.002C306.469 307.002 301.559 306.582 298.099 308.002C294.639 309.422 293.859 312.212 296.409 314.182Z" fill="black"/>
<path d="M299.843 298.142C298.677 298.104 297.526 298.417 296.54 299.041C295.553 299.665 294.778 300.571 294.313 301.642C292.523 305.322 294.313 309.882 297.053 311.812C300.493 314.232 305.883 314.382 309.053 311.482C312.563 308.282 312.823 302.222 310.423 299.562C308.023 296.902 304.343 297.662 303.373 298.072C301.943 298.682 301.003 298.082 299.843 298.142Z" fill="#32C888"/>
<path opacity="0.6" d="M299.843 298.142C298.677 298.104 297.526 298.417 296.54 299.041C295.553 299.665 294.778 300.571 294.313 301.642C292.523 305.322 294.313 309.882 297.053 311.812C300.493 314.232 305.883 314.382 309.053 311.482C312.563 308.282 312.823 302.222 310.423 299.562C308.023 296.902 304.343 297.662 303.373 298.072C301.943 298.682 301.003 298.082 299.843 298.142Z" fill="white"/>
<path opacity="0.1" d="M307.07 310.747C305.17 311.695 303.046 312.103 300.93 311.927C298.814 311.75 296.787 310.996 295.07 309.747C295.59 310.527 296.247 311.205 297.01 311.747C300.45 314.167 305.84 314.318 309.01 311.418C310.241 310.207 311.132 308.693 311.594 307.029C312.055 305.366 312.071 303.61 311.64 301.938C311.84 302.848 311.19 308.497 307.07 310.747Z" fill="black"/>
<path opacity="0.2" d="M298.333 299.438C297.703 299.485 297.096 299.695 296.571 300.045C296.046 300.395 295.619 300.875 295.333 301.438C294.53 303.124 294.278 305.02 294.613 306.858C295.163 310.128 298.323 311.858 298.613 311.568C298.903 311.278 296.613 309.148 297.883 305.898C299.153 302.648 299.863 299.567 298.333 299.438Z" fill="white"/>
<path opacity="0.2" d="M297.616 300.003C297.055 300.31 296.56 300.725 296.16 301.225C295.761 301.724 295.463 302.298 295.286 302.913C294.996 303.993 295.136 304.723 295.286 304.843C295.436 304.963 297.476 303.193 298.106 302.343C299.006 301.103 299.156 299.443 297.616 300.003Z" fill="white"/>
<path d="M301.346 300.944C300.836 300.544 300.346 300.334 300.106 300.944C299.866 301.554 301.206 302.504 302.706 302.074C304.206 301.644 304.706 300.654 304.706 300.164C304.321 300.763 303.719 301.19 303.026 301.354C302.435 301.422 301.839 301.277 301.346 300.944Z" fill="#32C888"/>
<path opacity="0.1" d="M301.346 300.944C300.836 300.544 300.346 300.334 300.106 300.944C299.866 301.554 301.206 302.504 302.706 302.074C304.206 301.644 304.706 300.654 304.706 300.164C304.321 300.763 303.719 301.19 303.026 301.354C302.435 301.422 301.839 301.277 301.346 300.944Z" fill="black"/>
<path d="M302.703 301.684C302.679 300.295 302.45 298.916 302.023 297.594C301.61 296.283 300.849 295.108 299.823 294.194C299.3 293.997 298.741 293.912 298.183 293.944C297.423 293.944 296.503 294.474 296.753 294.764C297.711 295.26 298.616 295.853 299.453 296.534C300.881 297.908 301.807 299.722 302.083 301.684C302.176 301.743 302.283 301.774 302.393 301.774C302.503 301.774 302.61 301.743 302.703 301.684Z" fill="#37474F"/>
<path d="M299.771 294.172C299.745 294.163 299.717 294.163 299.691 294.172C299.206 294.021 298.699 293.957 298.191 293.982C297.668 293.985 297.165 294.185 296.781 294.542C296.781 294.652 296.901 294.802 297.591 294.902C298.264 294.994 298.948 294.929 299.591 294.712C299.891 294.562 300.001 294.292 299.771 294.172Z" fill="#455A64"/>
<path opacity="0.1" d="M301.7 299.271C300.944 297.612 299.637 296.265 298 295.461C298.522 295.761 299.009 296.12 299.45 296.531C300.878 297.905 301.804 299.718 302.08 301.681C302.173 301.74 302.28 301.771 302.39 301.771C302.5 301.771 302.607 301.74 302.7 301.681C302.7 301.681 302.7 301.161 302.62 300.401C302.58 301.111 302.25 300.861 301.7 299.271Z" fill="black"/>
<path d="M302.333 298.676C302.958 298.77 303.596 298.699 304.184 298.469C304.772 298.239 305.289 297.859 305.683 297.366C305.986 296.896 306.176 296.364 306.241 295.809C306.305 295.254 306.241 294.692 306.053 294.166C305.523 294.075 304.979 294.112 304.466 294.274C303.953 294.435 303.486 294.717 303.103 295.096C302.699 295.588 302.419 296.17 302.285 296.793C302.151 297.415 302.168 298.061 302.333 298.676Z" fill="#32C888"/>
<path opacity="0.1" d="M302.333 298.676C302.958 298.77 303.596 298.699 304.184 298.469C304.772 298.239 305.289 297.859 305.683 297.366C305.986 296.896 306.176 296.364 306.241 295.809C306.305 295.254 306.241 294.692 306.053 294.166C305.523 294.075 304.979 294.112 304.466 294.274C303.953 294.435 303.486 294.717 303.103 295.096C302.699 295.588 302.419 296.17 302.285 296.793C302.151 297.415 302.168 298.061 302.333 298.676Z" fill="black"/>
<path d="M306.053 294.166C305.523 294.075 304.979 294.112 304.466 294.274C303.953 294.435 303.486 294.717 303.103 295.096C302.699 295.588 302.419 296.17 302.285 296.793C302.151 297.415 302.168 298.061 302.333 298.676C303.097 296.836 304.392 295.265 306.053 294.166Z" fill="#32C888"/>
<path opacity="0.15" d="M386.362 241.253C379.932 237.543 354.862 223.133 354.862 223.133L304.282 252.313C303.542 252.743 303.542 253.433 304.282 253.853L334.382 271.173C334.798 271.381 335.256 271.489 335.722 271.489C336.187 271.489 336.645 271.381 337.062 271.173L386.362 242.803C387.092 242.373 387.102 241.683 386.362 241.253Z" fill="black"/>
<path d="M304.531 249.27V250.27C304.532 250.748 304.659 251.217 304.897 251.631C305.136 252.045 305.478 252.389 305.891 252.63L331.841 267.56C332.256 267.796 332.724 267.92 333.201 267.92C333.678 267.92 334.147 267.796 334.561 267.56L382.161 240C382.575 239.76 382.918 239.416 383.157 239.002C383.395 238.588 383.521 238.118 383.521 237.64V237L333.201 266L304.531 249.27Z" fill="#EBEBEB"/>
<path d="M383.525 237.003L355.305 220.733C355.059 220.59 354.779 220.516 354.495 220.516C354.21 220.516 353.931 220.59 353.685 220.733L304.685 249.003C304.631 249.034 304.586 249.08 304.555 249.134C304.524 249.189 304.508 249.25 304.508 249.313C304.508 249.375 304.524 249.437 304.555 249.491C304.586 249.546 304.631 249.591 304.685 249.623L333.175 266.083L383.525 237.003Z" fill="#FAFAFA"/>
<path d="M332.939 263.683L317.719 254.903L362.229 229.203L377.529 237.933L332.939 263.683Z" fill="#E0E0E0"/>
<path d="M325.461 239.247L325.741 239.417L333.201 243.717L346.471 236.057L346.751 235.908L339.001 231.438L325.461 239.247Z" fill="#E0E0E0"/>
<path d="M325.742 239.418L333.202 243.718L346.472 236.058L339.002 231.758L325.742 239.418Z" fill="#E6E6E6"/>
<path d="M333.203 266.07V267.88C333.68 267.88 334.149 267.756 334.563 267.52L382.163 240C382.577 239.76 382.92 239.416 383.158 239.002C383.397 238.588 383.523 238.118 383.523 237.64V237L333.203 266.07Z" fill="#EBEBEB"/>
<path d="M333.203 266.07V267.88C333.68 267.88 334.149 267.756 334.563 267.52L382.163 240C382.577 239.76 382.92 239.416 383.158 239.002C383.397 238.588 383.523 238.118 383.523 237.64V237L333.203 266.07Z" fill="#E0E0E0"/>
<path d="M334 266.481C334.451 266.653 334.934 266.723 335.415 266.685C335.896 266.647 336.362 266.502 336.78 266.261L384.17 238.901C384.579 238.663 384.931 238.338 385.2 237.949C385.47 237.56 385.651 237.117 385.73 236.651L390.92 205.711C390.951 205.536 390.968 205.358 390.97 205.181C390.964 204.752 390.873 204.328 390.701 203.935C390.529 203.541 390.281 203.186 389.97 202.891L340.72 231.321C340.418 231.499 340.159 231.74 339.961 232.029C339.762 232.317 339.629 232.645 339.57 232.991L334 266.481Z" fill="#32C888"/>
<g opacity="0.7">
<path d="M334 266.481C334.451 266.653 334.934 266.723 335.415 266.685C335.896 266.647 336.362 266.502 336.78 266.261L384.17 238.901C384.579 238.663 384.931 238.338 385.2 237.949C385.47 237.56 385.651 237.117 385.73 236.651L390.92 205.711C390.951 205.536 390.968 205.358 390.97 205.181C390.964 204.752 390.873 204.328 390.701 203.935C390.529 203.541 390.281 203.186 389.97 202.891L340.72 231.321C340.418 231.499 340.159 231.74 339.961 232.029C339.762 232.317 339.629 232.645 339.57 232.991L334 266.481Z" fill="white"/>
</g>
<path d="M333.203 266.081L333.533 266.261L333.973 266.481L339.583 233.001C339.642 232.655 339.775 232.327 339.974 232.039C340.173 231.75 340.432 231.509 340.733 231.331L390.003 202.891C389.809 202.697 389.59 202.529 389.353 202.391L340.003 230.881C339.698 231.053 339.436 231.292 339.235 231.579C339.034 231.866 338.9 232.195 338.843 232.541L333.203 266.081Z" fill="#FAFAFA"/>
<path d="M360.658 237.91C361.008 235.84 363.148 233.09 365.438 231.77C367.728 230.45 369.298 231.05 368.958 233.12C368.618 235.19 366.468 237.95 364.178 239.27C361.888 240.59 360.308 240 360.658 237.91Z" fill="#32C888"/>
<path opacity="0.15" d="M382.174 283.417L358.844 269.997C358.771 269.972 358.707 269.924 358.663 269.862C358.618 269.799 358.594 269.724 358.594 269.647C358.594 269.57 358.618 269.494 358.663 269.432C358.707 269.369 358.771 269.322 358.844 269.297L395.384 248.197C395.572 248.103 395.779 248.055 395.989 248.055C396.199 248.055 396.406 248.103 396.594 248.197L419.924 261.667C420.254 261.867 420.254 262.177 419.924 262.367L383.384 283.467C383.192 283.552 382.983 283.592 382.773 283.584C382.563 283.575 382.358 283.518 382.174 283.417Z" fill="black"/>
<path d="M362.562 269.25L382.783 280.78L416.203 261.61L395.973 250.07L362.562 269.25Z" fill="black"/>
<path d="M383.001 279.908L363.491 268.708C363.996 267.054 363.961 265.282 363.391 263.648L382.771 274.728C383.081 276.437 383.158 278.179 383.001 279.908Z" fill="#F5F5F5"/>
<path d="M381.793 273.148C382.335 273.501 382.787 273.976 383.112 274.535C383.437 275.095 383.625 275.723 383.663 276.368V280.138C383.663 281.328 382.823 281.808 381.793 281.218L362.562 270.218V269.288L381.562 280.108C382.183 280.468 382.682 280.178 382.682 279.458V275.968C382.661 275.58 382.549 275.202 382.354 274.865C382.159 274.528 381.888 274.241 381.562 274.028L362.612 263.208V262.148L381.793 273.148Z" fill="#263238"/>
<path d="M362.562 262.11L396.003 242.93L415.233 253.93C415.779 254.281 416.235 254.756 416.562 255.318C416.889 255.88 417.077 256.511 417.112 257.16V261C417.137 261.231 417.099 261.464 417.003 261.675C416.906 261.887 416.754 262.068 416.562 262.2L383.143 281.38C383.334 281.248 383.486 281.067 383.583 280.855C383.679 280.644 383.717 280.411 383.693 280.18V276.4C383.656 275.752 383.468 275.123 383.143 274.561C382.818 274 382.366 273.524 381.823 273.17L362.562 262.11Z" fill="#455A64"/>
<path d="M383.109 274.539C383.447 275.092 383.637 275.722 383.659 276.369V280.149C383.684 280.38 383.646 280.614 383.549 280.825C383.453 281.036 383.301 281.217 383.109 281.349L416.529 262.169C416.721 262.037 416.873 261.856 416.97 261.645C417.066 261.434 417.104 261.2 417.079 260.969V257.199C417.058 256.549 416.868 255.915 416.529 255.359L383.109 274.539Z" fill="#37474F"/>
<path d="M364.547 259.507L383.307 270.197L414.287 252.417L395.527 241.727L364.547 259.507Z" fill="#32C888"/>
<path opacity="0.35" d="M364.547 259.507L383.307 270.197L414.287 252.417L395.527 241.727L364.547 259.507Z" fill="black"/>
<path d="M383.518 269.393L365.428 259.003C365.899 257.469 365.863 255.825 365.328 254.312L383.328 264.582C383.607 266.17 383.67 267.788 383.518 269.393Z" fill="white"/>
<path d="M382.376 263.116C382.882 263.443 383.304 263.885 383.607 264.407C383.909 264.928 384.084 265.514 384.116 266.116V269.616C384.116 270.716 383.336 271.166 382.376 270.616L364.546 260.386V259.516L382.136 269.516C382.716 269.846 383.186 269.576 383.136 268.916V265.696C383.115 265.336 383.009 264.986 382.826 264.675C382.644 264.364 382.39 264.1 382.086 263.906L364.516 253.906V252.906L382.376 263.116Z" fill="#32C888"/>
<path opacity="0.2" d="M382.376 263.116C382.882 263.443 383.304 263.885 383.607 264.407C383.909 264.928 384.084 265.514 384.116 266.116V269.616C384.116 270.716 383.336 271.166 382.376 270.616L364.546 260.386V259.516L382.136 269.516C382.716 269.846 383.186 269.576 383.136 268.916V265.696C383.115 265.336 383.009 264.986 382.826 264.675C382.644 264.364 382.39 264.1 382.086 263.906L364.516 253.906V252.906L382.376 263.116Z" fill="black"/>
<path d="M364.547 252.889L395.547 235.109L413.367 245.339C413.874 245.666 414.296 246.108 414.598 246.63C414.9 247.151 415.075 247.737 415.107 248.339V251.839C415.131 252.055 415.096 252.273 415.006 252.47C414.917 252.667 414.775 252.836 414.597 252.959L383.597 270.739C383.775 270.616 383.917 270.447 384.006 270.25C384.096 270.053 384.131 269.835 384.107 269.619V266.119C384.075 265.517 383.9 264.931 383.598 264.41C383.296 263.888 382.874 263.446 382.367 263.119L364.547 252.889Z" fill="#32C888"/>
<path opacity="0.3" d="M364.547 252.889L395.547 235.109L413.367 245.339C413.874 245.666 414.296 246.108 414.598 246.63C414.9 247.151 415.075 247.737 415.107 248.339V251.839C415.131 252.055 415.096 252.273 415.006 252.47C414.917 252.667 414.775 252.836 414.597 252.959L383.597 270.739C383.775 270.616 383.917 270.447 384.006 270.25C384.096 270.053 384.131 269.835 384.107 269.619V266.119C384.075 265.517 383.9 264.931 383.598 264.41C383.296 263.888 382.874 263.446 382.367 263.119L364.547 252.889Z" fill="white"/>
<path d="M383.609 264.413C383.925 264.925 384.101 265.511 384.119 266.113V269.613C384.143 269.828 384.109 270.046 384.019 270.243C383.929 270.44 383.788 270.61 383.609 270.733L414.609 252.953C414.788 252.83 414.929 252.66 415.019 252.463C415.109 252.266 415.143 252.048 415.119 251.833V248.333C415.101 247.731 414.925 247.145 414.609 246.633L383.609 264.413Z" fill="#32C888"/>
<path opacity="0.1" d="M383.609 264.413C383.925 264.925 384.101 265.511 384.119 266.113V269.613C384.143 269.828 384.109 270.046 384.019 270.243C383.929 270.44 383.788 270.61 383.609 270.733L414.609 252.953C414.788 252.83 414.929 252.66 415.019 252.463C415.109 252.266 415.143 252.048 415.119 251.833V248.333C415.101 247.731 414.925 247.145 414.609 246.633L383.609 264.413Z" fill="black"/>
<path opacity="0.15" d="M266.913 285.003C270.833 287.173 270.833 290.693 266.913 292.863C264.7 293.934 262.273 294.49 259.813 294.49C257.354 294.49 254.927 293.934 252.713 292.863C248.793 290.693 248.793 287.173 252.713 285.003C254.926 283.926 257.353 283.367 259.813 283.367C262.273 283.367 264.701 283.926 266.913 285.003Z" fill="black"/>
<path d="M253.724 272.112C257.82 270.925 262.184 271.037 266.214 272.432C269.574 273.812 269.524 275.912 266.094 277.112C261.998 278.302 257.634 278.19 253.604 276.792C250.124 275.412 250.184 273.312 253.724 272.112Z" fill="#263238"/>
<path d="M251 267.789L269 268.269L267.09 289.439C266.99 290.209 266.25 290.959 264.86 291.509C261.337 292.677 257.517 292.578 254.06 291.229C252.65 290.599 251.93 289.819 251.86 289.049L251 267.789Z" fill="#FAFAFA"/>
<path d="M269 268.269L268.61 272.569C268.133 272.881 267.624 273.14 267.09 273.339C262.404 274.828 257.353 274.697 252.75 272.969L252.28 272.739C251.894 272.542 251.524 272.319 251.17 272.069L251 267.789L269 268.269Z" fill="#EBEBEB"/>
<path d="M249.883 268.381L249.963 265.141L252.063 265.201C252.365 265.048 252.675 264.914 252.993 264.801C257.678 263.303 262.732 263.434 267.333 265.171C267.653 265.311 267.933 265.461 268.203 265.611L270.203 265.671L270.113 268.911C270.113 269.911 269.113 271.001 267.113 271.751C262.428 273.244 257.376 273.113 252.773 271.381C250.833 270.521 249.853 269.441 249.883 268.381Z" fill="#37474F"/>
<path d="M253.063 262.304C257.745 260.813 262.794 260.943 267.393 262.674C271.253 264.384 271.183 267.004 267.243 268.514C262.56 270.003 257.513 269.873 252.913 268.144C248.923 266.424 249.003 263.814 253.063 262.304Z" fill="#455A64"/>
<path d="M251.851 264.41L252.571 261.75L257.721 261.89C259.427 261.723 261.147 261.767 262.841 262.02L267.841 262.15L268.431 264.84C268.731 265.84 267.931 266.84 266.031 267.51C262.162 268.686 258.016 268.581 254.211 267.21C252.261 266.41 251.491 265.37 251.851 264.41Z" fill="#37474F"/>
<path d="M254.842 260.102C258.406 259.087 262.195 259.185 265.702 260.382C268.622 261.572 268.572 263.382 265.602 264.382C262.038 265.4 258.248 265.302 254.742 264.102C251.722 262.932 251.772 261.132 254.842 260.102Z" fill="#455A64"/>
<path d="M253.562 262.085C253.634 262.243 253.748 262.378 253.893 262.475C254.271 262.758 254.689 262.984 255.133 263.145C256.765 263.721 258.481 264.025 260.212 264.045C261.903 264.114 263.594 263.898 265.212 263.405C265.65 263.267 266.065 263.065 266.443 262.805C266.693 262.605 266.763 262.465 266.763 262.425C266.763 262.385 266.512 261.875 265.272 261.365C263.668 260.789 261.977 260.488 260.272 260.475C258.542 260.401 256.811 260.618 255.152 261.115C253.902 261.535 253.572 262.005 253.562 262.085Z" fill="#263238"/>
<path d="M253.891 262.473C254.269 262.755 254.687 262.981 255.131 263.143C256.763 263.719 258.479 264.023 260.211 264.043C261.901 264.112 263.592 263.895 265.211 263.403C265.648 263.265 266.063 263.063 266.441 262.803C266.083 262.516 265.681 262.29 265.251 262.133C263.647 261.553 261.956 261.248 260.251 261.233C258.52 261.16 256.79 261.376 255.131 261.873C254.69 262.011 254.272 262.213 253.891 262.473Z" fill="#37474F"/>
<g opacity="0.5">
<path d="M256.944 262.625C256.773 262.502 256.578 262.416 256.371 262.371C256.165 262.326 255.952 262.324 255.744 262.365C255.524 262.485 255.694 262.795 256.134 263.065C256.306 263.187 256.501 263.273 256.708 263.318C256.914 263.363 257.127 263.365 257.334 263.325C257.554 263.195 257.384 262.885 256.944 262.625Z" fill="black"/>
</g>
<path d="M268.007 282.613C268.007 283.403 267.167 284.183 265.547 284.753C261.686 285.871 257.573 285.762 253.777 284.443C252.147 283.793 251.337 282.983 251.357 282.183L251.047 274.383C251.047 275.233 251.877 276.103 253.617 276.793C257.647 278.191 262.011 278.302 266.107 277.113C267.827 276.513 268.697 275.693 268.717 274.843L268.007 282.613Z" fill="#455A64"/>
<path d="M262.484 282.933C262.756 282.511 263.003 282.074 263.224 281.623C263.687 280.813 264.425 280.196 265.304 279.883C265.362 279.862 265.425 279.862 265.482 279.884C265.539 279.906 265.586 279.949 265.614 280.003C265.771 280.538 265.779 281.106 265.636 281.646C265.492 282.185 265.204 282.674 264.802 283.061C264.4 283.448 263.899 283.717 263.355 283.839C262.81 283.961 262.243 283.931 261.714 283.753C261.714 283.753 261.654 283.623 261.714 283.603C262.014 283.435 262.276 283.207 262.484 282.933Z" fill="#32C888"/>
<path d="M264.823 279.622C264.344 279.795 263.901 280.053 263.513 280.382C263.097 280.726 262.757 281.151 262.513 281.632C262.248 282.232 261.831 282.753 261.303 283.142C261.276 283.162 261.246 283.177 261.214 283.185C261.181 283.194 261.147 283.195 261.114 283.189C261.082 283.184 261.05 283.171 261.022 283.153C260.994 283.134 260.971 283.11 260.953 283.082C260.687 282.538 260.612 281.92 260.741 281.328C260.87 280.737 261.195 280.206 261.663 279.822C262.056 279.397 262.573 279.107 263.14 278.992C263.707 278.878 264.295 278.944 264.823 279.182C264.866 279.2 264.902 279.231 264.928 279.27C264.953 279.309 264.967 279.355 264.967 279.402C264.967 279.449 264.953 279.494 264.928 279.533C264.902 279.572 264.866 279.603 264.823 279.622Z" fill="#32C888"/>
<path d="M245.93 194.291L250.93 183.531C251.624 183.419 252.336 183.509 252.981 183.789C253.626 184.069 254.177 184.528 254.57 185.111L249.82 195.761L245.93 194.291Z" fill="#E0E0E0"/>
<path d="M214.001 224.327C212.16 227.489 210.849 230.931 210.121 234.517C209.271 239.447 211.931 244.417 215.311 243.457C218.691 242.497 222.561 237.927 225.431 233.307C228.301 228.687 239.111 210.097 239.111 210.097C241.15 210.157 243.149 209.522 244.781 208.297C247.101 206.297 251.021 195.357 251.021 195.357C251.021 195.357 248.511 195.437 245.671 195.647C246.741 193.917 246.461 192.347 245.911 192.197C245.181 192.007 243.331 193.437 241.911 194.007C239.551 194.957 236.651 195.007 236.111 195.447C234.531 196.667 233.201 200.817 231.111 203.647C225.151 212.007 214.001 224.327 214.001 224.327Z" fill="#FFA8A7"/>
<path d="M183.5 207.102C187.72 208.192 191.5 211.572 195.84 215.232C200.18 218.892 211.35 227.002 211.35 227.002L219.29 218.412L229.81 227.002C229.81 227.002 224.81 236.002 220.21 241.072C216.36 245.362 215.21 245.392 209.04 242.012C203.54 239.012 185.53 229.012 185.53 229.012L183.5 207.102Z" fill="#32C888"/>
<path opacity="0.8" d="M183.5 207.102C187.72 208.192 191.5 211.572 195.84 215.232C200.18 218.892 211.35 227.002 211.35 227.002L219.29 218.412L229.81 227.002C229.81 227.002 224.81 236.002 220.21 241.072C216.36 245.362 215.21 245.392 209.04 242.012C203.54 239.012 185.53 229.012 185.53 229.012L183.5 207.102Z" fill="white"/>
<path opacity="0.1" d="M211.348 227C209.702 229.01 208.404 231.281 207.508 233.72C207.597 230.964 208.46 228.289 209.998 226L211.348 227Z" fill="black"/>
<path d="M239.139 210.091C237.943 209.411 237.005 208.357 236.469 207.091C237.343 207.017 238.175 206.683 238.857 206.133C239.54 205.582 240.042 204.839 240.299 204.001C241.099 201.111 240.169 200.171 242.299 198.951C243.641 198.143 244.827 197.1 245.799 195.871L250.799 195.641C250.799 195.641 249.189 202.191 248.269 204.501C247.349 206.811 244.849 210.331 239.139 210.091Z" fill="#F28F8F"/>
<path d="M246.308 193.781C246.308 193.781 249.468 193.131 251.228 193.661C251.988 193.881 252.478 194.341 252.228 195.851C252.118 196.255 251.921 196.629 251.649 196.947C251.378 197.265 251.039 197.52 250.658 197.691C250.971 197.91 251.226 198.202 251.4 198.542C251.574 198.882 251.663 199.259 251.658 199.641C251.605 200.208 251.388 200.747 251.032 201.191C250.677 201.635 250.199 201.966 249.658 202.141C249.862 202.384 249.997 202.678 250.048 202.991C250.099 203.305 250.064 203.626 249.948 203.921C249.739 204.338 249.439 204.703 249.071 204.989C248.702 205.274 248.274 205.473 247.818 205.571C247.965 206.256 247.847 206.97 247.488 207.571C246.888 208.381 244.488 209.371 242.488 209.671C242.18 209.769 241.849 209.77 241.541 209.674C241.233 209.578 240.961 209.39 240.763 209.135C240.564 208.88 240.449 208.571 240.432 208.248C240.415 207.925 240.497 207.605 240.668 207.331C241.122 206.693 241.745 206.194 242.468 205.891C242.235 205.668 242.057 205.394 241.949 205.09C241.842 204.786 241.807 204.461 241.848 204.141C242.038 203.141 244.238 202.411 244.238 202.411C244.238 202.411 242.768 201.681 242.998 200.411C243.228 199.141 245.848 198.411 245.848 198.411C245.528 198.418 245.215 198.316 244.96 198.122C244.706 197.927 244.525 197.652 244.448 197.341C245.538 196.051 246.358 194.751 246.308 193.781Z" fill="#FFA8A7"/>
<path d="M136.993 395.527C136.993 395.527 134.643 371.657 136.733 357.827C138.533 345.967 140.523 341.057 140.893 338.357C140.893 338.357 144.213 307.467 144.773 283.727C145.043 272.477 145.633 266.607 154.253 253.727L157.493 249.977C158.003 254.357 162.193 254.227 168.133 255.177C173.863 256.087 181.133 255.267 189.783 252.767C191.163 264.097 192.333 288.617 193.453 312.077C194.003 323.537 193.363 333.137 193.213 340.477C193.003 350.477 190.273 389.407 190.273 389.407L190.213 391.057C190.213 392.877 190.563 394.157 191.703 397.107C193.125 400.895 195.185 404.412 197.793 407.507C198.613 408.417 204.283 413.507 205.033 414.597C207.453 417.507 202.323 419.057 198.543 418.497C194.543 417.907 188.343 416.307 186.613 413.847C185.463 412.207 184.613 406.497 183.473 404.847C179.473 399.237 177.833 396.847 177.823 395.057C177.823 391.847 178.933 390.597 179.353 388.787C179.073 385.007 172.353 364.947 172.353 353.927C172.353 348.677 173.953 339.437 173.953 339.437L168.993 297.897C166.993 308.577 162.993 335.647 161.643 343.307C159.733 353.857 153.643 371.567 149.693 385.507C148.203 390.747 147.473 393.087 147.013 396.507C147.013 396.507 146.873 397.737 146.873 397.747C146.773 399.317 145.873 416.017 145.193 419.527C143.803 426.877 137.273 425.857 136.303 419.887C135.483 414.807 136.813 399.137 136.863 397.217L136.993 395.527Z" fill="#FFA8A7"/>
<path d="M136.747 395.414C134.897 395.414 136.017 402.584 135.477 407.174C134.897 412.094 133.237 415.674 132.717 419.704C132.042 423.221 132.533 426.862 134.117 430.074C135.367 433.074 141.777 437.174 144.287 432.984C146.797 428.794 147.407 423.984 147.187 419.384C146.957 414.624 146.717 411.144 146.667 407.534C146.667 404.344 149.177 396.904 146.797 396.414L146.657 397.654C145.777 399.354 137.567 400.424 136.657 397.114L136.747 395.414Z" fill="#37474F"/>
<path d="M177.139 398.82C176.549 401.11 177.049 407.43 177.049 407.43C177.049 407.43 178.049 409.62 181.549 411.12L183.259 402.36L177.139 398.82Z" fill="#263238"/>
<path d="M181.547 411.117L189.407 408.657L191.387 401.727L182.527 406.067L181.547 411.117Z" fill="black"/>
<path d="M189.994 390.947L190.054 389.307C191.104 389.837 193.334 398.437 196.424 404.357C199.234 409.757 204.924 412.827 206.754 415.187C209.204 418.347 204.314 422.307 196.574 420.537C192.724 419.667 186.924 417.117 185.384 414.537C183.844 411.957 183.384 407.137 182.094 405.207C180.804 403.277 177.784 401.037 177.164 398.857C176.684 396.881 176.719 394.815 177.264 392.857C177.894 390.857 178.464 388.497 179.134 388.727V390.227C179.634 391.297 181.494 392.557 185.414 392.817C187.274 392.897 189.084 392.637 189.994 390.947Z" fill="#37474F"/>
<path d="M191.141 254.346C192.141 260.806 192.541 269.786 193.491 286.906C194.441 304.026 195.051 321.906 194.781 331.116C194.511 340.326 193.841 349.026 193.841 349.026C193.841 349.026 184.421 356.406 166.121 356.416C143.261 356.416 137.391 349.026 137.391 349.026L140.141 336.716C140.141 336.716 142.911 294.896 142.781 282.576C142.651 270.256 146.551 261.466 152.531 253.016L191.141 254.346Z" fill="#455A64"/>
<path d="M163.188 206.232L156.628 206.522C158.568 218.062 149.758 228.462 149.758 228.462L153.388 246.742C153.188 247.062 153.938 249.672 152.558 252.982C158.888 261.442 184.118 262.472 191.168 254.312C190.805 251.706 190.257 249.129 189.528 246.602L190.888 237.602C200.598 227.472 190.758 213.832 183.398 207.092L176.088 205.352L163.188 206.232Z" fill="#32C888"/>
<path opacity="0.8" d="M163.188 206.232L156.628 206.522C158.568 218.062 149.758 228.462 149.758 228.462L153.388 246.742C153.188 247.062 153.938 249.672 152.558 252.982C158.888 261.442 184.118 262.472 191.168 254.312C190.805 251.706 190.257 249.129 189.528 246.602L190.888 237.602C200.598 227.472 190.758 213.832 183.398 207.092L176.088 205.352L163.188 206.232Z" fill="white"/>
<path d="M180.55 222.493C171.21 219.583 162.9 210.493 162.32 204.893L153.42 207.363L148.59 231.223C148.59 231.223 151.4 241.903 152.38 245.723C152.787 247.17 152.881 248.688 152.655 250.174C152.429 251.661 151.889 253.082 151.07 254.343C148.83 257.907 146.862 261.634 145.18 265.493C145.18 265.493 148.9 268.653 158.86 270.793C164.494 271.871 170.26 272.09 175.96 271.443L179.1 259.343L180.9 270.553C180.9 270.553 188.19 269.973 193.55 266.053L190.37 246.623L191.14 237.833C193.554 235.268 195.064 231.985 195.44 228.483C195.83 222.993 193.72 218.593 189.84 213.483C185.96 208.373 183.5 207.093 183.5 207.093L178.65 204.883C181.411 210.324 182.087 216.588 180.55 222.493Z" fill="#32C888"/>
<path opacity="0.2" d="M180.55 222.493C171.21 219.583 162.9 210.493 162.32 204.893L153.42 207.363L148.59 231.223C148.59 231.223 151.4 241.903 152.38 245.723C152.787 247.17 152.881 248.688 152.655 250.174C152.429 251.661 151.889 253.082 151.07 254.343C148.83 257.907 146.862 261.634 145.18 265.493C145.18 265.493 148.9 268.653 158.86 270.793C164.494 271.871 170.26 272.09 175.96 271.443L179.1 259.343L180.9 270.553C180.9 270.553 188.19 269.973 193.55 266.053L190.37 246.623L191.14 237.833C193.554 235.268 195.064 231.985 195.44 228.483C195.83 222.993 193.72 218.593 189.84 213.483C185.96 208.373 183.5 207.093 183.5 207.093L178.65 204.883C181.411 210.324 182.087 216.588 180.55 222.493Z" fill="black"/>
<path d="M175.997 213.264C175.997 213.264 167.207 211.324 163.457 206.004V201.594C161.257 201.964 160.757 205.384 160.757 205.384C160.757 205.384 160.187 210.114 162.757 213.004C165.327 215.894 170.257 214.524 170.257 214.524C170.257 214.524 172.257 216.844 173.257 217.114C174.257 217.384 175.997 213.264 175.997 213.264Z" fill="#32C888"/>
<path opacity="0.65" d="M175.997 213.264C175.997 213.264 167.207 211.324 163.457 206.004V201.594C161.257 201.964 160.757 205.384 160.757 205.384C160.757 205.384 160.187 210.114 162.757 213.004C165.327 215.894 170.257 214.524 170.257 214.524C170.257 214.524 172.257 216.844 173.257 217.114C174.257 217.384 175.997 213.264 175.997 213.264Z" fill="white"/>
<path d="M176 213.265C177.27 212.095 178 208.515 177.22 205.425C177.22 205.185 177.22 202.825 177.22 202.825C177.484 202.806 177.749 202.848 177.993 202.949C178.238 203.05 178.456 203.206 178.63 203.405L181.17 205.775C181.965 207.085 182.348 208.604 182.27 210.135C182.241 210.758 182.049 211.362 181.714 211.889C181.379 212.415 180.912 212.844 180.36 213.135C180.485 214.047 180.448 214.975 180.25 215.875C179.87 216.575 176 213.265 176 213.265Z" fill="#32C888"/>
<path opacity="0.65" d="M176 213.265C177.27 212.095 178 208.515 177.22 205.425C177.22 205.185 177.22 202.825 177.22 202.825C177.484 202.806 177.749 202.848 177.993 202.949C178.238 203.05 178.456 203.206 178.63 203.405L181.17 205.775C181.965 207.085 182.348 208.604 182.27 210.135C182.241 210.758 182.049 211.362 181.714 211.889C181.379 212.415 180.912 212.844 180.36 213.135C180.485 214.047 180.448 214.975 180.25 215.875C179.87 216.575 176 213.265 176 213.265Z" fill="white"/>
<path d="M183.52 188.553C185.63 186.333 187.03 183.553 188.67 181.023C189.302 179.852 190.085 178.77 191 177.803C191.88 177.023 193 176.513 193.83 175.673C195.027 174.557 195.786 173.05 195.97 171.423C196.032 170.618 195.86 169.813 195.475 169.103C195.09 168.393 194.508 167.81 193.8 167.423C194.347 166.751 194.747 165.97 194.973 165.133C195.198 164.296 195.245 163.42 195.11 162.563C194.988 161.778 194.706 161.027 194.282 160.355C193.858 159.683 193.301 159.105 192.645 158.657C191.989 158.209 191.248 157.901 190.468 157.75C189.688 157.6 188.885 157.611 188.11 157.783C189.11 155.583 187.9 152.783 185.86 151.563C184.799 150.979 183.627 150.627 182.421 150.528C181.214 150.43 180 150.589 178.86 150.993C176.633 151.791 174.526 152.891 172.6 154.263L172.49 154.333C167.44 157.573 161.68 158.573 157.15 162.803C155.078 164.686 153.462 167.014 152.423 169.612C151.383 172.211 150.948 175.012 151.15 177.803C151.67 189.703 161.28 195.803 164.52 199.313C164.68 199.473 165.78 199.313 165.99 199.373L169.28 199.523C170.07 199.523 171.08 199.993 171.84 199.743C172.84 199.433 173.59 198.103 174.19 197.313C176.77 193.743 180.56 191.643 183.52 188.553Z" fill="#263238"/>
<path d="M157.536 156.005C161.606 158.815 160.176 162.935 157.226 167.205C154.276 171.475 150.916 174.265 146.846 171.455C144.896 169.999 143.586 167.842 143.194 165.44C142.801 163.038 143.355 160.577 144.74 158.575C146.125 156.573 148.233 155.187 150.62 154.707C153.006 154.228 155.486 154.693 157.536 156.005Z" fill="#263238"/>
<path d="M191.355 184.607C191.105 195.607 187.545 198.307 185.755 199.087C183.965 199.867 180.525 199.387 177.175 198.837V205.427C177.175 205.427 179.095 210.257 175.955 213.267C168.735 211.977 164.955 208.267 163.955 207.107C163.595 206.686 163.396 206.15 163.395 205.597V190.087C163.395 190.087 161.565 192.027 158.315 189.807C157.617 189.359 157.02 188.771 156.56 188.081C156.101 187.391 155.789 186.613 155.646 185.797C155.502 184.98 155.529 184.143 155.725 183.337C155.921 182.532 156.282 181.776 156.785 181.117C158.195 179.447 161.785 179.337 163.505 181.917C164.505 183.807 164.605 185.717 165.695 184.917C168.585 182.837 167.035 178.097 170.525 175.757C171.663 175.14 172.851 174.618 174.075 174.197C180.315 172.047 185.705 170.197 187.015 165.977C189.465 167.447 191.665 171.647 191.355 184.607Z" fill="#FFA8A7"/>
<path d="M179.53 182.002C179.532 182.292 179.448 182.576 179.29 182.819C179.131 183.062 178.905 183.253 178.639 183.368C178.372 183.483 178.078 183.518 177.793 183.467C177.507 183.417 177.242 183.283 177.032 183.084C176.821 182.884 176.674 182.627 176.609 182.344C176.543 182.062 176.562 181.766 176.663 181.494C176.764 181.222 176.943 180.986 177.177 180.815C177.411 180.644 177.691 180.545 177.98 180.532C178.38 180.523 178.767 180.673 179.057 180.948C179.347 181.224 179.517 181.602 179.53 182.002Z" fill="#263238"/>
<path d="M189.925 181.52C189.938 181.706 189.915 181.893 189.856 182.069C189.796 182.246 189.703 182.41 189.58 182.55C189.457 182.691 189.308 182.805 189.14 182.888C188.973 182.97 188.791 183.018 188.605 183.03C188.415 183.048 188.223 183.026 188.042 182.965C187.861 182.903 187.696 182.804 187.557 182.673C187.417 182.542 187.308 182.383 187.235 182.207C187.162 182.03 187.128 181.84 187.135 181.65C187.112 181.459 187.129 181.265 187.185 181.081C187.24 180.897 187.333 180.727 187.457 180.58C187.582 180.434 187.735 180.314 187.907 180.23C188.08 180.145 188.268 180.096 188.46 180.087C188.652 180.079 188.844 180.109 189.023 180.178C189.203 180.246 189.366 180.351 189.504 180.485C189.641 180.619 189.749 180.78 189.822 180.958C189.894 181.136 189.929 181.327 189.925 181.52Z" fill="#263238"/>
<path d="M177.18 198.836C173.65 198.366 166.38 196.286 165.25 193.406C165.698 194.862 166.585 196.144 167.79 197.076C169.97 198.936 177.18 201.076 177.18 201.076V198.836Z" fill="#F28F8F"/>
<path d="M178.048 176.11L174.458 177.26C174.32 176.77 174.373 176.247 174.607 175.795C174.841 175.344 175.239 174.999 175.718 174.83C175.955 174.754 176.205 174.727 176.453 174.751C176.7 174.774 176.941 174.848 177.159 174.968C177.377 175.088 177.568 175.251 177.721 175.447C177.874 175.644 177.985 175.869 178.048 176.11Z" fill="#263238"/>
<path d="M176.474 190.242L181.904 192.132C181.794 192.493 181.613 192.828 181.371 193.118C181.129 193.407 180.831 193.645 180.495 193.816C180.159 193.988 179.792 194.09 179.415 194.117C179.039 194.144 178.661 194.095 178.304 193.972C177.934 193.855 177.591 193.665 177.296 193.411C177.001 193.158 176.761 192.848 176.59 192.499C176.419 192.15 176.321 191.77 176.301 191.383C176.281 190.995 176.34 190.607 176.474 190.242Z" fill="#B16668"/>
<path d="M190.571 176.434L186.891 175.434C186.943 175.192 187.044 174.963 187.188 174.762C187.331 174.56 187.514 174.389 187.725 174.26C187.937 174.131 188.172 174.047 188.417 174.011C188.662 173.976 188.911 173.99 189.151 174.054C189.649 174.191 190.075 174.515 190.34 174.958C190.604 175.402 190.687 175.931 190.571 176.434Z" fill="#263238"/>
<path d="M183.188 180.56V189.43L188.048 187.92L183.537 180.51C183.419 180.502 183.3 180.519 183.188 180.56Z" fill="#F28F8F"/>
<path d="M176.997 191.531C176.784 191.536 176.573 191.566 176.367 191.621C176.439 192.164 176.665 192.675 177.02 193.092C177.375 193.509 177.843 193.814 178.367 193.971C178.691 194.069 179.029 194.113 179.367 194.101C179.372 194.035 179.372 193.968 179.367 193.901C179.367 193.273 179.117 192.67 178.673 192.225C178.229 191.781 177.626 191.531 176.997 191.531Z" fill="#F28F8F"/>
<path d="M139.775 258.719C140.531 259.965 141.363 261.164 142.265 262.309C142.981 263.325 144.051 264.038 145.265 264.309C147.763 264.641 150.221 265.221 152.605 266.039C154.695 266.699 156.015 266.529 156.085 267.039C156.155 267.549 155.805 268.519 153.915 268.919C152.523 269.086 151.116 269.086 149.725 268.919C151.389 270.882 153.322 272.602 155.465 274.029C159.705 276.819 161.135 278.929 156.735 281.609C153.505 283.609 147.895 283.049 140.145 275.809C136.423 272.193 133.045 268.239 130.055 263.999L139.775 258.719Z" fill="#FFA8A7"/>
<path d="M130.457 265.119C117.987 249.569 117.657 246.849 121.457 241.489C141.457 213.249 142.527 209.959 153.457 207.359C158.207 215.519 155.167 224.939 151.197 229.359L134.317 247.359C136.397 251.789 140.477 259.779 140.477 259.779C137.619 262.345 134.181 264.178 130.457 265.119Z" fill="#32C888"/>
<path opacity="0.8" d="M130.457 265.119C117.987 249.569 117.657 246.849 121.457 241.489C141.457 213.249 142.527 209.959 153.457 207.359C158.207 215.519 155.167 224.939 151.197 229.359L134.317 247.359C136.397 251.789 140.477 259.779 140.477 259.779C137.619 262.345 134.181 264.178 130.457 265.119Z" fill="white"/>
<path opacity="0.1" d="M134.276 247.368C132.896 245.219 130.918 243.519 128.586 242.478C129.943 242.454 131.283 242.781 132.476 243.427C133.67 244.074 134.675 245.018 135.396 246.168L134.276 247.368Z" fill="black"/>
<path opacity="0.2" d="M177.456 238.535C171.696 241.535 162.006 240.185 159.626 233.305C159.626 233.305 158.756 239.305 166.106 241.405C173.906 243.635 177.456 238.535 177.456 238.535Z" fill="black"/>
<path d="M364.602 208.553L361.872 201.483L364.072 195.153V191.273L357.352 195.153V199.003L360.242 205.943C360.287 206.018 360.353 206.077 360.432 206.113L364.602 208.553Z" fill="#32C888"/>
<path opacity="0.2" d="M364.602 208.553L361.872 201.483L364.072 195.153V191.273L357.352 195.153V199.003L360.242 205.943C360.287 206.018 360.353 206.077 360.432 206.113L364.602 208.553Z" fill="black"/>
<path d="M376.654 166.792C376.617 166.095 376.417 165.415 376.07 164.809C375.722 164.203 375.237 163.687 374.654 163.302L373.014 162.362C372.394 162.047 371.709 161.883 371.014 161.883C370.319 161.883 369.633 162.047 369.014 162.362L348.594 174.122C348.012 174.509 347.528 175.025 347.181 175.631C346.834 176.237 346.633 176.915 346.594 177.612V201.272C346.631 201.97 346.832 202.649 347.179 203.255C347.526 203.861 348.011 204.377 348.594 204.762L350.234 205.702C350.853 206.019 351.538 206.184 352.234 206.184C352.929 206.184 353.615 206.019 354.234 205.702L361.594 201.472L364.474 208.402C364.514 208.474 364.575 208.533 364.648 208.571C364.721 208.61 364.804 208.626 364.886 208.619C364.969 208.611 365.047 208.58 365.112 208.53C365.177 208.479 365.226 208.41 365.254 208.332L368.254 197.602L374.624 193.942C375.206 193.557 375.69 193.04 376.037 192.434C376.385 191.829 376.585 191.15 376.624 190.452L376.654 166.792Z" fill="#32C888"/>
<path opacity="0.2" d="M346.541 201.269C346.578 201.967 346.778 202.646 347.125 203.253C347.473 203.859 347.958 204.375 348.541 204.759L350.181 205.699C350.749 205.984 351.369 206.146 352.003 206.175C352.637 206.205 353.27 206.1 353.861 205.869C352.911 206.219 352.191 205.689 352.191 204.539V180.879C352.214 180.173 352.418 179.485 352.781 178.879L347.111 175.609C346.75 176.216 346.551 176.904 346.531 177.609L346.541 201.269Z" fill="black"/>
<path opacity="0.5" d="M376.583 166.223C376.353 165.363 375.583 165.093 374.643 165.633L354.213 177.403C353.616 177.77 353.127 178.287 352.793 178.903L347.133 175.633C347.471 175.02 347.959 174.504 348.553 174.133L369.003 162.363C369.624 162.052 370.309 161.891 371.003 161.891C371.697 161.891 372.382 162.052 373.003 162.363L374.643 163.313C375.149 163.639 375.582 164.065 375.916 164.566C376.25 165.067 376.477 165.631 376.583 166.223Z" fill="white"/>
<path d="M360.703 196.325C360.33 196.327 359.959 196.274 359.603 196.165C358.963 195.942 358.416 195.51 358.053 194.938C357.69 194.366 357.531 193.688 357.603 193.014V190.335C357.606 190.286 357.62 190.239 357.642 190.196C357.664 190.153 357.695 190.115 357.732 190.084C357.77 190.054 357.813 190.031 357.859 190.017C357.906 190.003 357.955 189.999 358.003 190.005C358.052 190.003 358.101 190.012 358.147 190.03C358.193 190.048 358.235 190.075 358.271 190.109C358.306 190.144 358.334 190.185 358.354 190.231C358.373 190.276 358.383 190.325 358.383 190.374V193.005C358.324 193.516 358.439 194.033 358.709 194.472C358.979 194.911 359.389 195.246 359.873 195.424C362.063 196.104 365.673 193.984 367.923 190.684C368.918 189.362 369.505 187.777 369.613 186.124V183.404C369.627 183.316 369.673 183.235 369.742 183.176C369.81 183.118 369.897 183.086 369.988 183.086C370.078 183.086 370.165 183.118 370.234 183.176C370.302 183.235 370.348 183.316 370.363 183.404V186.135C370.258 187.943 369.625 189.682 368.543 191.135C366.373 194.245 363.163 196.325 360.703 196.325Z" fill="#FAFAFA"/>
<path d="M364.005 192.565C363.969 192.574 363.931 192.574 363.895 192.565L354.895 189.765C354.837 189.75 354.784 189.721 354.741 189.681C354.697 189.641 354.664 189.591 354.645 189.535C354.626 189.478 354.62 189.418 354.629 189.359C354.638 189.3 354.66 189.243 354.695 189.195L363.695 176.025C363.74 175.959 363.805 175.908 363.88 175.882C363.956 175.855 364.038 175.852 364.115 175.875L373.115 178.675C373.171 178.693 373.221 178.725 373.263 178.766C373.305 178.808 373.336 178.859 373.355 178.915C373.382 178.965 373.396 179.022 373.396 179.08C373.396 179.137 373.382 179.194 373.355 179.245L364.355 192.425C364.314 192.476 364.26 192.517 364.198 192.541C364.137 192.566 364.07 192.574 364.005 192.565ZM355.615 189.185L363.855 191.755L372.395 179.225L364.165 176.655L355.615 189.185Z" fill="#FAFAFA"/>
<path d="M372.512 189.395C372.413 189.398 372.315 189.38 372.223 189.342C372.132 189.304 372.05 189.247 371.982 189.175C371.845 189.017 371.774 188.814 371.782 188.605L372.312 186.055C372.326 186 372.35 185.949 372.385 185.904C372.419 185.859 372.462 185.822 372.512 185.795C372.593 185.766 372.681 185.766 372.762 185.795C372.857 185.758 372.938 185.692 372.992 185.605C373.031 185.542 373.088 185.491 373.156 185.459C373.223 185.428 373.298 185.416 373.372 185.425C373.444 185.436 373.512 185.467 373.567 185.514C373.622 185.562 373.662 185.625 373.682 185.695L374.182 187.575C374.187 187.608 374.187 187.642 374.182 187.675C374.127 188.104 373.934 188.503 373.633 188.813C373.332 189.123 372.939 189.327 372.512 189.395ZM372.992 186.485L372.522 188.675C372.684 188.604 372.838 188.517 372.982 188.415C373.219 188.236 373.383 187.976 373.442 187.685L373.112 186.435L372.992 186.485Z" fill="#FAFAFA"/>
<path d="M372.828 185.58C372.723 185.58 372.62 185.552 372.528 185.5C372.405 185.415 372.306 185.299 372.241 185.164C372.176 185.029 372.148 184.879 372.158 184.73C372.154 184.481 372.209 184.234 372.321 184.011C372.432 183.788 372.596 183.596 372.798 183.45C372.895 183.391 373.005 183.359 373.118 183.359C373.231 183.359 373.342 183.391 373.438 183.45C373.565 183.532 373.666 183.647 373.732 183.783C373.797 183.919 373.824 184.07 373.808 184.22C373.813 184.468 373.758 184.713 373.646 184.935C373.535 185.156 373.371 185.347 373.168 185.49C373.066 185.552 372.948 185.583 372.828 185.58ZM373.058 184.23C372.968 184.375 372.917 184.54 372.908 184.71C372.999 184.565 373.05 184.4 373.058 184.23Z" fill="#FAFAFA"/>
<path d="M363.901 184.132C363.819 184.128 363.74 184.098 363.677 184.045C363.613 183.993 363.569 183.921 363.55 183.841C363.53 183.761 363.538 183.677 363.571 183.601C363.603 183.526 363.66 183.463 363.731 183.422L372.811 178.682C372.868 178.653 372.931 178.639 372.995 178.641C373.058 178.643 373.12 178.662 373.174 178.695C373.229 178.728 373.273 178.775 373.304 178.83C373.335 178.886 373.352 178.948 373.351 179.012V183.612C373.353 183.661 373.344 183.711 373.326 183.757C373.308 183.803 373.281 183.845 373.247 183.88C373.212 183.916 373.171 183.944 373.125 183.963C373.08 183.982 373.031 183.992 372.981 183.992C372.881 183.992 372.784 183.952 372.713 183.881C372.641 183.809 372.601 183.713 372.601 183.612V179.612L364.081 184.072C364.025 184.102 363.964 184.122 363.901 184.132Z" fill="#FAFAFA"/>
</svg>
