<svg width="441" height="424" viewBox="0 0 441 424" fill="none" xmlns="http://www.w3.org/2000/svg">
<path d="M276.082 8.31334C270.428 4.26116 263.802 1.77629 256.878 1.11069C249.953 0.445089 242.975 1.62243 236.652 4.52334C174.222 33.2333 -31.8376 134.543 11.5724 202.273C62.5724 281.873 243.572 407.453 309.942 401.463C376.312 395.473 451.562 284.123 434.662 210.833C420.462 149.253 325.002 43.4933 276.082 8.31334Z" fill="#32C888"/>
<path opacity="0.7" d="M276.082 8.31334C270.428 4.26116 263.802 1.77629 256.878 1.11069C249.953 0.445089 242.975 1.62243 236.652 4.52334C174.222 33.2333 -31.8376 134.543 11.5724 202.273C62.5724 281.873 243.572 407.453 309.942 401.463C376.312 395.473 451.562 284.123 434.662 210.833C420.462 149.253 325.002 43.4933 276.082 8.31334Z" fill="white"/>
<path d="M333.937 215.94C335.467 219.6 342.027 225.59 342.037 225.59C342.047 225.59 344.667 220.07 344.787 219.7C346.197 215.41 346.397 206.28 342.297 203.31C341.603 202.837 340.818 202.514 339.992 202.363C339.165 202.212 338.317 202.237 337.5 202.435C336.684 202.633 335.918 203 335.253 203.512C334.587 204.025 334.037 204.672 333.637 205.41C331.847 208.5 332.637 212.83 333.937 215.94Z" fill="white"/>
<path d="M438.937 274.463C435.677 270.593 426.597 271.463 422.417 273.163C422.057 273.313 416.667 276.273 416.737 276.343L416.817 276.413C415.377 276.533 413.817 276.683 412.167 276.883C409.067 277.273 405.577 277.743 401.817 278.503C397.763 279.272 393.757 280.274 389.817 281.503C385.395 282.895 381.105 284.675 376.997 286.823L376.847 286.913C377.897 285.853 380.707 282.813 380.897 282.553C383.577 278.913 386.607 270.303 383.647 266.203C383.135 265.536 382.489 264.984 381.75 264.582C381.011 264.181 380.196 263.94 379.358 263.874C378.52 263.808 377.677 263.919 376.885 264.199C376.092 264.48 375.367 264.924 374.757 265.503C372.087 267.873 371.497 272.233 371.757 275.603C372.057 279.393 376.057 286.603 376.377 287.183C372.248 289.467 368.273 292.019 364.477 294.823C362.257 296.453 360.077 298.153 357.907 299.893C358.777 298.953 359.557 298.103 359.647 297.973C362.327 294.333 365.347 285.723 362.387 281.623C361.875 280.957 361.23 280.407 360.492 280.006C359.754 279.606 358.94 279.365 358.103 279.299C357.266 279.233 356.424 279.344 355.633 279.623C354.841 279.903 354.117 280.346 353.507 280.923C350.837 283.293 350.237 287.653 350.507 291.023C350.777 294.393 354.067 300.653 354.957 302.293L352.477 304.293C348.527 307.553 344.607 310.813 340.657 313.893C339.267 314.983 337.857 316.003 336.457 317.023C337.227 316.193 337.867 315.483 337.957 315.363C340.637 311.723 343.667 303.113 340.707 299.013C340.195 298.346 339.549 297.794 338.81 297.392C338.071 296.991 337.256 296.75 336.418 296.684C335.58 296.618 334.737 296.729 333.945 297.009C333.152 297.29 332.427 297.734 331.817 298.313C329.147 300.683 328.557 305.043 328.817 308.403C329.077 311.763 332.057 317.403 333.107 319.403C331.637 320.403 330.167 321.403 328.697 322.333C327.697 322.923 326.697 323.573 325.697 324.113L322.627 325.783C320.627 326.783 318.627 327.783 316.627 328.703C315.257 329.353 313.947 329.943 312.627 330.543C314.027 329.473 316.717 327.333 316.917 327.123C319.629 324.216 321.544 320.657 322.477 316.793C322.795 316.487 323.083 316.152 323.337 315.793C323.835 315.116 324.186 314.343 324.366 313.522C324.547 312.702 324.552 311.853 324.384 311.03C324.215 310.207 323.875 309.428 323.387 308.745C322.898 308.062 322.271 307.489 321.547 307.063C317.117 304.633 308.947 308.693 305.657 311.793C305.467 311.983 303.587 314.203 302.417 315.623C302.977 314.683 303.527 313.773 304.087 312.803C305.217 310.883 306.277 308.933 307.437 306.803C307.957 305.803 308.437 304.743 309.007 303.693C309.577 302.643 310.007 301.503 310.517 300.403C311.647 297.823 312.667 295.153 313.627 292.403C315.307 293.403 321.337 296.773 324.707 297.133C328.077 297.493 332.437 297.033 334.887 294.433C335.482 293.839 335.945 293.128 336.247 292.344C336.55 291.56 336.684 290.722 336.641 289.883C336.599 289.044 336.381 288.223 336.001 287.474C335.622 286.724 335.089 286.063 334.437 285.533C330.437 282.453 321.737 285.233 318.017 287.803C317.787 287.963 315.327 290.103 314.017 291.303C314.587 289.673 315.157 288.043 315.677 286.373C317.187 281.543 318.557 276.613 319.937 271.693C320.367 270.193 320.807 268.693 321.247 267.193C321.837 267.553 328.907 271.743 332.687 272.193C336.037 272.553 340.417 272.083 342.867 269.483C343.463 268.89 343.927 268.179 344.23 267.396C344.533 266.612 344.668 265.774 344.626 264.935C344.585 264.096 344.368 263.275 343.989 262.525C343.61 261.776 343.078 261.114 342.427 260.583C338.427 257.503 329.717 260.283 325.997 262.853C325.717 263.043 322.187 266.133 321.327 266.963C322.327 263.663 323.277 260.383 324.327 257.193C325.802 252.872 327.552 248.65 329.567 244.553C329.847 244.723 337.207 249.123 341.067 249.553C344.427 249.923 348.797 249.453 351.247 246.853C351.843 246.26 352.307 245.549 352.61 244.766C352.913 243.982 353.048 243.144 353.006 242.305C352.965 241.466 352.748 240.645 352.369 239.895C351.99 239.146 351.458 238.484 350.807 237.953C346.807 234.873 338.107 237.653 334.387 240.223C334.097 240.423 330.297 243.743 329.647 244.393C329.767 244.163 329.857 243.903 329.987 243.663C332.127 239.617 334.62 235.769 337.437 232.163C338.967 230.163 340.547 228.313 342.117 226.563C343.407 227.563 349.337 231.843 352.767 232.613C356.197 233.383 360.467 233.353 363.187 231.043C363.845 230.519 364.385 229.863 364.773 229.117C365.161 228.371 365.387 227.552 365.438 226.713C365.489 225.874 365.363 225.033 365.068 224.246C364.774 223.459 364.317 222.742 363.727 222.143C360.077 218.643 351.127 220.453 347.157 222.593C346.937 222.713 344.867 224.143 343.377 225.203C344.097 224.423 344.827 223.603 345.537 222.873C348.187 220.103 350.787 217.743 353.097 215.663C354.427 214.493 355.647 213.463 356.797 212.513C358.557 212.793 365.637 213.853 368.977 212.953C372.317 212.053 376.157 210.073 377.497 206.763C377.838 205.995 378.014 205.165 378.014 204.325C378.014 203.486 377.838 202.655 377.497 201.888C377.155 201.121 376.657 200.434 376.034 199.871C375.41 199.309 374.675 198.884 373.877 198.623C369.027 197.193 361.877 202.923 359.377 206.623C359.157 206.953 356.307 212.393 356.377 212.413H356.477C355.357 213.303 354.157 214.273 352.867 215.363C350.497 217.363 347.867 219.713 345.127 222.423C342.167 225.32 339.375 228.385 336.767 231.603C333.83 235.193 331.22 239.038 328.967 243.093C328.967 243.093 328.967 243.193 328.897 243.243C329.187 241.783 329.897 237.693 329.897 237.373C330.117 232.863 327.897 224.003 323.157 222.223C322.363 221.951 321.521 221.848 320.684 221.922C319.848 221.996 319.036 222.244 318.302 222.652C317.568 223.059 316.927 223.615 316.422 224.286C315.916 224.956 315.557 225.725 315.367 226.543C314.447 229.993 316.367 233.953 318.437 236.613C320.777 239.613 328.097 243.423 328.677 243.723C326.492 247.906 324.584 252.229 322.967 256.663C321.967 259.243 321.127 261.873 320.277 264.513C320.487 263.253 320.667 262.113 320.677 261.953C320.897 257.443 318.677 248.593 313.937 246.803C313.143 246.531 312.301 246.428 311.464 246.502C310.628 246.576 309.816 246.824 309.082 247.232C308.348 247.639 307.707 248.195 307.202 248.866C306.696 249.536 306.337 250.305 306.147 251.123C305.227 254.573 307.147 258.543 309.217 261.193C311.287 263.843 317.497 267.273 319.147 268.143C318.827 269.143 318.497 270.143 318.147 271.193C316.647 276.083 315.147 280.973 313.587 285.723C313.027 287.393 312.407 289.023 311.807 290.653C311.987 289.523 312.137 288.583 312.137 288.433C312.367 283.923 310.137 275.063 305.407 273.283C304.614 273.011 303.772 272.908 302.936 272.981C302.1 273.054 301.289 273.302 300.555 273.708C299.821 274.114 299.18 274.67 298.674 275.339C298.168 276.008 297.808 276.776 297.617 277.593C296.697 281.053 298.617 285.013 300.687 287.673C302.757 290.333 308.367 293.413 310.317 294.463C309.647 296.113 308.977 297.763 308.247 299.333C307.727 300.393 307.297 301.453 306.717 302.493C306.137 303.533 305.617 304.553 305.067 305.573C303.957 307.493 302.807 309.483 301.677 311.333C300.887 312.623 300.117 313.833 299.347 315.063C299.927 313.403 300.987 310.133 301.047 309.853C301.947 305.423 301.047 296.333 296.687 293.853C295.943 293.463 295.126 293.233 294.287 293.179C293.449 293.124 292.608 293.247 291.82 293.538C291.032 293.83 290.314 294.283 289.712 294.87C289.11 295.456 288.639 296.162 288.327 296.943C286.897 300.213 288.187 304.423 289.837 307.363C291.657 310.603 298.027 315.363 298.837 315.903C297.557 317.903 296.287 319.903 295.057 321.713C294.437 322.643 293.837 323.543 293.247 324.403L295.417 326.693C296.117 325.623 296.837 324.513 297.577 323.353C298.887 321.353 300.247 319.083 301.577 316.793C303.944 317.745 306.365 318.557 308.827 319.223C308.767 323.033 311.297 329.993 311.627 330.893C309.437 331.893 307.307 332.803 305.277 333.653C304.438 333.957 303.58 334.204 302.707 334.393L305.027 336.823C305.519 336.726 306.001 336.585 306.467 336.403C308.687 335.403 311.047 334.323 313.467 333.163C314.017 333.973 318.557 340.493 321.747 342.403C324.637 344.143 328.807 345.553 332.127 344.213C332.915 343.923 333.632 343.471 334.234 342.887C334.836 342.302 335.308 341.598 335.621 340.82C335.934 340.042 336.08 339.206 336.05 338.368C336.02 337.53 335.815 336.707 335.447 335.953C333.097 331.473 324.037 330.353 319.587 331.123C319.327 331.173 316.537 331.983 314.777 332.533C315.777 332.053 316.717 331.603 317.727 331.103C319.727 330.103 321.727 329.103 323.797 327.973L326.797 326.253C327.797 325.693 328.797 324.973 329.867 324.333C332.237 322.803 334.557 321.143 336.867 319.413C337.727 321.153 340.867 327.313 343.487 329.473C346.107 331.633 349.987 333.653 353.487 332.833C354.311 332.667 355.09 332.329 355.775 331.842C356.46 331.356 357.035 330.731 357.463 330.008C357.891 329.285 358.163 328.48 358.26 327.645C358.357 326.811 358.278 325.965 358.027 325.163C356.377 320.383 347.597 317.903 343.077 317.993C342.797 317.993 339.567 318.433 337.797 318.703C339.167 317.653 340.547 316.613 341.897 315.503C345.817 312.303 349.687 308.953 353.557 305.613C354.737 304.613 355.927 303.613 357.117 302.613C357.417 303.233 361.007 310.613 363.927 313.053C366.527 315.203 370.437 317.233 373.927 316.413C374.751 316.247 375.53 315.909 376.215 315.422C376.9 314.936 377.475 314.311 377.903 313.588C378.331 312.865 378.603 312.06 378.7 311.225C378.797 310.391 378.718 309.545 378.467 308.743C376.817 303.963 368.037 301.483 363.467 301.573C363.127 301.573 358.467 302.213 357.297 302.423C359.917 300.203 362.557 298.013 365.237 295.963C368.848 293.171 372.636 290.616 376.577 288.313C376.717 288.603 380.427 296.313 383.417 298.823C386.017 300.973 389.927 303.003 393.417 302.183C394.242 302.018 395.022 301.681 395.709 301.195C396.395 300.709 396.971 300.084 397.4 299.361C397.829 298.638 398.101 297.832 398.199 296.997C398.297 296.162 398.218 295.316 397.967 294.513C396.317 289.733 387.527 287.253 383.017 287.343C382.657 287.343 377.657 288.033 376.757 288.213C376.987 288.083 377.207 287.923 377.437 287.793C381.453 285.602 385.656 283.774 389.997 282.333C392.387 281.493 394.717 280.833 396.997 280.243C397.537 281.753 400.097 288.633 402.547 291.163C404.997 293.693 408.547 296.033 412.097 295.593C412.934 295.519 413.746 295.269 414.48 294.862C415.215 294.454 415.856 293.896 416.361 293.225C416.866 292.554 417.225 291.784 417.414 290.965C417.603 290.147 417.617 289.298 417.457 288.473C416.347 283.543 407.887 280.113 403.387 279.713C403.137 279.713 400.627 279.713 398.797 279.803C399.797 279.553 400.897 279.273 401.887 279.043C405.617 278.203 409.087 277.663 412.167 277.213C413.917 276.963 415.507 276.773 416.997 276.623C418.297 277.823 423.627 282.623 426.907 283.713C430.187 284.803 434.477 285.263 437.427 283.253C438.139 282.804 438.748 282.211 439.215 281.512C439.682 280.812 439.997 280.023 440.139 279.194C440.282 278.365 440.248 277.516 440.041 276.701C439.834 275.886 439.458 275.123 438.937 274.463Z" fill="white"/>
<path d="M397.542 279.414C397.542 279.504 402.792 276.264 403.102 276.024C406.642 273.214 411.832 265.714 410.102 261.024C409.782 260.249 409.303 259.549 408.696 258.97C408.089 258.391 407.368 257.946 406.578 257.664C405.788 257.381 404.948 257.267 404.112 257.329C403.275 257.391 402.461 257.628 401.722 258.024C398.512 259.614 396.792 263.654 396.162 266.974C395.382 270.794 397.542 279.414 397.542 279.414Z" fill="white"/>
<path d="M106.91 215.94C105.38 219.6 98.82 225.59 98.82 225.59C98.82 225.59 96.1799 220.07 96.0599 219.7C94.6499 215.41 94.46 206.28 98.55 203.31C99.2437 202.837 100.029 202.514 100.855 202.363C101.682 202.212 102.531 202.237 103.347 202.435C104.163 202.633 104.929 203 105.594 203.512C106.26 204.025 106.81 204.672 107.21 205.41C109 208.5 108.21 212.83 106.91 215.94Z" fill="white"/>
<path d="M1.90826 274.463C5.16826 270.593 14.2583 271.463 18.4383 273.163C18.7983 273.313 24.1783 276.273 24.1183 276.343L24.0383 276.413C25.4683 276.533 27.0383 276.683 28.6883 276.883C31.7783 277.273 35.2683 277.743 39.0383 278.503C43.0922 279.273 47.0987 280.275 51.0383 281.503C55.4657 282.881 59.7624 284.647 63.8783 286.783L64.0183 286.873C63.0183 285.813 60.1583 282.773 60.0183 282.513C57.3483 278.873 54.3183 270.263 57.2783 266.163C57.7901 265.497 58.4359 264.947 59.1739 264.546C59.912 264.146 60.7257 263.905 61.5627 263.839C62.3997 263.773 63.2411 263.884 64.0327 264.163C64.8244 264.443 65.5485 264.886 66.1583 265.463C68.8283 267.833 69.4283 272.193 69.1583 275.563C68.8583 279.353 64.8583 286.563 64.5383 287.143C68.6686 289.425 72.6439 291.977 76.4383 294.783C78.6583 296.413 80.8483 298.113 83.0183 299.853C82.1383 298.913 81.3683 298.063 81.2783 297.933C78.5983 294.293 75.5683 285.683 78.5283 281.583C79.0401 280.916 79.6864 280.364 80.4253 279.962C81.1642 279.561 81.9792 279.32 82.8174 279.254C83.6556 279.188 84.4984 279.299 85.291 279.579C86.0836 279.86 86.8083 280.304 87.4183 280.883C90.0883 283.253 90.6783 287.613 90.4183 290.983C90.1583 294.353 86.8583 300.613 85.9683 302.253L88.4383 304.253C92.4383 307.513 96.3183 310.773 100.258 313.853C101.648 314.943 103.058 315.963 104.468 316.983C103.698 316.153 103.048 315.443 102.958 315.323C100.288 311.683 97.2583 303.073 100.218 298.973C100.73 298.307 101.376 297.757 102.114 297.356C102.852 296.956 103.666 296.715 104.503 296.649C105.34 296.583 106.181 296.694 106.973 296.973C107.764 297.253 108.488 297.696 109.098 298.273C111.768 300.643 112.368 305.003 112.098 308.363C111.828 311.723 108.858 317.363 107.808 319.363C109.278 320.363 110.808 321.363 112.228 322.293C113.228 322.883 114.228 323.533 115.228 324.073L118.308 325.743C120.308 326.743 122.308 327.743 124.308 328.663C125.668 329.313 126.978 329.903 128.308 330.503C126.918 329.433 124.228 327.293 124.018 327.083C121.314 324.171 119.399 320.614 118.458 316.753C118.144 316.447 117.86 316.112 117.608 315.753C117.11 315.077 116.759 314.304 116.578 313.484C116.397 312.664 116.39 311.815 116.557 310.992C116.725 310.169 117.064 309.391 117.552 308.707C118.039 308.023 118.665 307.449 119.388 307.023C123.828 304.593 131.998 308.653 135.278 311.753C135.478 311.943 137.358 314.163 138.518 315.583C137.958 314.643 137.408 313.733 136.848 312.763C135.728 310.843 134.658 308.893 133.508 306.763L131.928 303.653C131.378 302.653 130.928 301.463 130.418 300.363C129.298 297.783 128.278 295.113 127.308 292.363C125.628 293.363 119.608 296.733 116.238 297.093C112.868 297.453 108.508 296.993 106.058 294.393C105.463 293.8 104.999 293.089 104.696 292.306C104.393 291.522 104.258 290.684 104.299 289.845C104.341 289.006 104.558 288.185 104.937 287.435C105.316 286.686 105.848 286.024 106.498 285.493C110.498 282.413 119.208 285.193 122.918 287.763C123.158 287.923 125.618 290.063 126.918 291.263C126.358 289.633 125.778 288.003 125.258 286.333C123.758 281.503 122.388 276.573 120.998 271.653C120.578 270.153 120.128 268.653 119.698 267.153C119.098 267.513 112.028 271.703 108.258 272.153C104.898 272.513 100.528 272.043 98.0783 269.443C97.4831 268.85 97.0189 268.139 96.7159 267.356C96.4129 266.572 96.2778 265.734 96.3193 264.895C96.3608 264.056 96.5779 263.235 96.9567 262.485C97.3355 261.736 97.8675 261.074 98.5183 260.543C102.518 257.463 111.228 260.243 114.938 262.813C115.218 263.003 118.758 266.093 119.618 266.923C118.618 263.623 117.668 260.343 116.558 257.153C115.088 252.83 113.338 248.608 111.318 244.513C111.048 244.683 103.688 249.083 99.8183 249.513C96.4683 249.883 92.0883 249.413 89.6383 246.813C89.0431 246.22 88.5789 245.509 88.2759 244.726C87.9729 243.942 87.8378 243.104 87.8793 242.265C87.9207 241.426 88.1379 240.605 88.5167 239.855C88.8955 239.106 89.4275 238.444 90.0783 237.913C94.0783 234.833 102.788 237.613 106.508 240.183C106.798 240.383 110.598 243.703 111.238 244.353C111.128 244.123 111.028 243.863 110.908 243.623C108.769 239.577 106.276 235.729 103.458 232.123C101.928 230.123 100.348 228.273 98.7683 226.523C97.4883 227.523 91.5583 231.803 88.1183 232.573C84.8283 233.303 80.4283 233.313 77.7083 231.003C77.0507 230.479 76.5105 229.823 76.1228 229.077C75.735 228.331 75.5084 227.512 75.4575 226.673C75.4065 225.834 75.5325 224.993 75.8272 224.206C76.122 223.419 76.5788 222.702 77.1683 222.103C80.8183 218.603 89.7583 220.413 93.7383 222.553C93.9583 222.673 96.0183 224.103 97.5083 225.163C96.7883 224.383 96.0583 223.563 95.3483 222.833C92.7083 220.063 90.1083 217.703 87.7883 215.623C86.4683 214.453 85.2483 213.423 84.0883 212.473C82.3383 212.753 75.2483 213.813 71.9083 212.913C68.5683 212.013 64.7383 210.033 63.3883 206.723C63.0538 205.958 62.8825 205.132 62.8854 204.298C62.8883 203.463 63.0653 202.638 63.405 201.876C63.7448 201.114 64.2398 200.43 64.8585 199.87C65.4773 199.31 66.206 198.885 66.9983 198.623C71.8583 197.193 78.9983 202.923 81.4983 206.623C81.7183 206.953 84.5783 212.393 84.4983 212.413H84.3883C85.5183 213.303 86.7183 214.273 88.0083 215.363C90.3683 217.363 93.0083 219.713 95.7483 222.423C98.7055 225.32 101.493 228.385 104.098 231.603C107.035 235.193 109.646 239.038 111.898 243.093C111.928 243.14 111.951 243.19 111.968 243.243C111.678 241.783 110.968 237.693 110.968 237.373C110.748 232.863 112.968 224.003 117.698 222.223C118.493 221.949 119.337 221.845 120.174 221.918C121.012 221.991 121.824 222.239 122.56 222.647C123.295 223.054 123.937 223.611 124.443 224.283C124.949 224.954 125.309 225.724 125.498 226.543C126.408 229.993 124.498 233.953 122.428 236.613C120.078 239.613 112.768 243.423 112.178 243.723C114.367 247.906 116.278 252.228 117.898 256.663C118.848 259.243 119.728 261.873 120.578 264.513C120.378 263.253 120.198 262.113 120.188 261.953C119.968 257.443 122.188 248.593 126.918 246.803C127.713 246.529 128.557 246.425 129.394 246.498C130.232 246.571 131.044 246.82 131.78 247.227C132.515 247.634 133.157 248.191 133.663 248.863C134.169 249.534 134.529 250.304 134.718 251.123C135.638 254.573 133.718 258.543 131.648 261.193C129.578 263.843 123.368 267.273 121.718 268.143C122.038 269.143 122.358 270.143 122.718 271.193C124.218 276.083 125.718 280.973 127.288 285.723C127.848 287.393 128.458 289.023 129.068 290.653C128.878 289.523 128.738 288.583 128.728 288.433C128.508 283.923 130.728 275.063 135.458 273.283C136.252 273.009 137.095 272.905 137.932 272.977C138.769 273.05 139.581 273.297 140.317 273.703C141.052 274.11 141.694 274.666 142.2 275.336C142.707 276.006 143.068 276.775 143.258 277.593C144.178 281.053 142.258 285.013 140.188 287.673C138.118 290.333 132.508 293.413 130.558 294.463C131.228 296.113 131.898 297.763 132.628 299.333C133.148 300.393 133.568 301.453 134.148 302.493C134.728 303.533 135.258 304.553 135.798 305.573C136.918 307.493 138.058 309.483 139.198 311.333C139.978 312.623 140.748 313.833 141.518 315.063C140.938 313.403 139.878 310.133 139.828 309.853C138.918 305.423 139.828 296.333 144.188 293.853C144.932 293.464 145.749 293.236 146.586 293.183C147.423 293.129 148.263 293.252 149.049 293.543C149.836 293.835 150.553 294.288 151.154 294.873C151.755 295.459 152.227 296.164 152.538 296.943C153.968 300.213 152.688 304.423 151.038 307.363C149.218 310.603 142.848 315.363 142.038 315.903C143.318 317.903 144.588 319.903 145.808 321.713C146.428 322.643 147.038 323.543 147.628 324.403L145.458 326.693C144.748 325.623 144.038 324.513 143.298 323.353C141.988 321.353 140.628 319.083 139.248 316.793C136.882 317.747 134.461 318.558 131.998 319.223C132.068 323.033 129.538 329.993 129.198 330.893C131.388 331.893 133.528 332.803 135.558 333.653C136.394 333.957 137.249 334.204 138.118 334.393L135.808 336.823C135.316 336.727 134.834 336.587 134.368 336.403C132.138 335.403 129.778 334.323 127.368 333.163C126.818 333.973 122.288 340.493 119.098 342.403C116.198 344.143 112.028 345.553 108.718 344.213C107.93 343.924 107.211 343.473 106.609 342.889C106.006 342.305 105.532 341.601 105.218 340.823C104.904 340.044 104.757 339.209 104.787 338.37C104.816 337.531 105.021 336.707 105.388 335.953C107.748 331.473 116.798 330.353 121.248 331.123C121.518 331.173 124.308 331.983 126.058 332.533C125.058 332.053 124.118 331.603 123.118 331.103C121.118 330.103 119.118 329.103 117.048 327.973L114.048 326.253C113.048 325.693 112.048 324.973 110.968 324.333C108.608 322.803 106.288 321.143 103.968 319.413C103.108 321.153 99.9683 327.313 97.3483 329.473C94.7283 331.633 90.8383 333.653 87.3483 332.833C86.5246 332.667 85.7451 332.329 85.0602 331.842C84.3753 331.356 83.8002 330.731 83.3722 330.008C82.9442 329.285 82.6728 328.48 82.5757 327.645C82.4786 326.811 82.5578 325.965 82.8083 325.163C84.4583 320.383 93.2383 317.903 97.8083 317.993C98.0883 317.993 101.328 318.433 103.098 318.703C101.718 317.653 100.348 316.613 98.9883 315.503C95.0683 312.303 91.2083 308.953 87.3383 305.613C86.1583 304.613 84.9583 303.613 83.7683 302.613C83.4683 303.233 79.8783 310.613 76.9583 313.053C74.3583 315.203 70.4583 317.233 66.9583 316.413C66.1346 316.247 65.3551 315.909 64.6702 315.422C63.9853 314.936 63.4102 314.311 62.9822 313.588C62.5542 312.865 62.2828 312.06 62.1857 311.225C62.0885 310.391 62.1678 309.545 62.4183 308.743C64.0683 303.963 72.8483 301.483 77.4183 301.573C77.7583 301.573 82.4183 302.213 83.5783 302.423C80.9583 300.203 78.3283 298.013 75.6383 295.963C72.0304 293.167 68.2422 290.611 64.2983 288.313C64.1683 288.603 60.4583 296.313 57.4583 298.823C54.8683 300.973 50.9583 303.003 47.4583 302.183C46.6346 302.017 45.8551 301.679 45.1702 301.193C44.4853 300.706 43.9102 300.081 43.4822 299.358C43.0542 298.635 42.7828 297.83 42.6857 296.995C42.5885 296.161 42.6678 295.315 42.9183 294.513C44.5683 289.733 53.3483 287.253 57.9183 287.343C58.2683 287.343 63.2783 288.033 64.1783 288.213L63.4883 287.793C59.4745 285.593 55.2709 283.759 50.9283 282.313C48.5383 281.473 46.2083 280.813 43.9283 280.223C43.3883 281.733 40.8283 288.613 38.3883 291.143C35.9483 293.673 32.3883 296.013 28.8283 295.573C27.9923 295.497 27.1815 295.247 26.4482 294.839C25.715 294.43 25.0756 293.872 24.5714 293.201C24.0671 292.53 23.7093 291.761 23.521 290.943C23.3327 290.125 23.3182 289.277 23.4783 288.453C24.5883 283.523 33.0483 280.093 37.5483 279.693C37.7883 279.693 40.2983 279.693 42.1283 279.783C41.1283 279.533 40.0383 279.253 39.0383 279.023C35.3083 278.183 31.8383 277.643 28.7683 277.193C27.0083 276.943 25.4283 276.753 23.9383 276.603C22.6283 277.803 17.2983 282.603 14.0183 283.693C10.7383 284.783 6.44826 285.243 3.49826 283.233C2.78383 282.791 2.17024 282.203 1.69725 281.509C1.22425 280.814 0.902384 280.028 0.752493 279.201C0.602602 278.375 0.628028 277.526 0.827126 276.709C1.02622 275.893 1.39455 275.128 1.90826 274.463Z" fill="white"/>
<path d="M43.3105 279.414C43.3105 279.504 38.0605 276.264 37.7605 276.024C34.2205 273.214 29.0205 265.714 30.7605 261.024C31.0805 260.249 31.5594 259.549 32.1664 258.97C32.7734 258.391 33.495 257.946 34.2846 257.664C35.0742 257.381 35.9144 257.267 36.7508 257.329C37.5872 257.391 38.4013 257.628 39.1405 258.024C42.3405 259.614 44.0705 263.654 44.7005 266.974C45.4805 270.794 43.3105 279.414 43.3105 279.414Z" fill="white"/>
<path d="M222.563 423.809C265.288 423.809 299.923 419.623 299.923 414.459C299.923 409.296 265.288 405.109 222.563 405.109C179.838 405.109 145.203 409.296 145.203 414.459C145.203 419.623 179.838 423.809 222.563 423.809Z" fill="white"/>
<path d="M416.862 363.727H365.922V381.707H416.862V363.727Z" stroke="white" stroke-linecap="round" stroke-linejoin="round"/>
<path d="M415.263 381.672H367.523V410.622H415.263V381.672Z" stroke="white" stroke-linecap="round" stroke-linejoin="round"/>
<path d="M396.862 363.812H385.922V410.872H396.862V363.812Z" stroke="white" stroke-linecap="round" stroke-linejoin="round"/>
<path d="M391.003 363.715C391.003 363.715 385.533 352.215 379.123 353.535C372.713 354.855 375.933 364.285 391.003 363.715Z" stroke="white" stroke-linecap="round" stroke-linejoin="round"/>
<path d="M391.484 363.715C391.484 363.715 396.954 352.215 403.364 353.535C409.774 354.855 406.574 364.285 391.484 363.715Z" stroke="white" stroke-linecap="round" stroke-linejoin="round"/>
<path d="M405.739 339.383C406.109 342.023 404.789 344.853 400.829 346.553C396.869 348.253 394.829 343.553 390.649 347.873C386.469 352.193 391.479 363.713 391.479 363.713C391.479 363.713 405.169 361.833 405.739 367.113C406.309 372.393 401.959 374.843 403.289 378.053C404.619 381.263 408.759 378.993 409.129 375.413" stroke="white" stroke-linecap="round" stroke-linejoin="round"/>
<path d="M400.817 55.4384C415.187 55.4384 426.837 43.7889 426.837 29.4184C426.837 15.048 415.187 3.39844 400.817 3.39844C386.446 3.39844 374.797 15.048 374.797 29.4184C374.797 43.7889 386.446 55.4384 400.817 55.4384Z" stroke="white" stroke-linecap="round" stroke-linejoin="round"/>
<path d="M400.997 50.4984V46.9984C398.097 46.8784 395.947 45.9384 394.527 44.1684C393.107 42.3984 392.328 39.8884 392.188 36.6284L397.577 35.6284C397.611 36.7625 397.752 37.8908 397.997 38.9984C398.174 39.8741 398.59 40.6838 399.198 41.3384C399.484 41.6156 399.825 41.8313 400.198 41.9723C400.571 42.1133 400.969 42.1767 401.367 42.1584C401.775 42.1968 402.186 42.1349 402.564 41.978C402.943 41.8211 403.277 41.5741 403.538 41.2584C403.995 40.5813 404.223 39.775 404.188 38.9584C404.254 37.6629 403.903 36.3802 403.188 35.2984C402.407 34.2424 401.508 33.2794 400.508 32.4284L396.168 28.6384C395.414 27.967 394.724 27.2272 394.107 26.4284C393.51 25.6331 393.041 24.749 392.717 23.8084C392.358 22.7151 392.186 21.5691 392.207 20.4184C392.144 19.3219 392.306 18.224 392.683 17.1922C393.059 16.1605 393.643 15.2165 394.397 14.4184C395.997 12.9146 398.102 12.0653 400.297 12.0384V8.64844H402.117V11.9984C403.356 12.0321 404.569 12.3576 405.658 12.9484C406.55 13.4686 407.307 14.1914 407.867 15.0584C408.429 15.9658 408.837 16.9589 409.077 17.9984C409.35 19.0892 409.511 20.205 409.557 21.3284L404.247 22.2584C404.209 21.2883 404.099 20.3223 403.918 19.3684C403.792 18.6266 403.463 17.9342 402.967 17.3684C402.704 17.1172 402.388 16.9284 402.041 16.8159C401.695 16.7034 401.328 16.6701 400.967 16.7184C400.56 16.7047 400.154 16.7809 399.779 16.9416C399.404 17.1024 399.069 17.3437 398.797 17.6484C398.287 18.2767 398.024 19.0698 398.057 19.8784C398.014 20.9144 398.293 21.9384 398.857 22.8084C399.447 23.6111 400.117 24.3516 400.857 25.0184L405.158 28.7684C406.057 29.5899 406.896 30.4756 407.668 31.4184C408.445 32.3877 409.068 33.4702 409.517 34.6284C409.992 35.9078 410.226 37.264 410.207 38.6284C410.233 40.0371 409.924 41.4318 409.307 42.6984C408.721 43.8654 407.842 44.8609 406.758 45.5884C405.58 46.3482 404.234 46.8083 402.837 46.9284V50.4984H400.997Z" fill="white"/>
<path d="M69.5779 28.8608C74.2087 27.7806 77.0871 23.1509 76.0069 18.5201C74.9267 13.8892 70.297 11.0108 65.6662 12.091C61.0353 13.1712 58.1569 17.8009 59.2371 22.4318C60.3173 27.0626 64.947 29.941 69.5779 28.8608Z" stroke="white" stroke-linecap="round" stroke-linejoin="round"/>
<path d="M79.9303 45.23C79.7003 37.33 74.2803 31 67.6203 31C60.9603 31 55.5503 37.33 55.3203 45.23" stroke="white" stroke-linecap="round" stroke-linejoin="round"/>
<path d="M87.4256 26.1716C91.38 26.1716 94.5856 22.9659 94.5856 19.0116C94.5856 15.0572 91.38 11.8516 87.4256 11.8516C83.4713 11.8516 80.2656 15.0572 80.2656 19.0116C80.2656 22.9659 83.4713 26.1716 87.4256 26.1716Z" stroke="white" stroke-linecap="round" stroke-linejoin="round"/>
<path d="M97.6425 39.6056C97.4525 33.0056 93.0025 27.7656 87.4225 27.7656C85.6093 27.8304 83.8484 28.3902 82.3306 29.3844C80.8129 30.3786 79.5962 31.7693 78.8125 33.4056" stroke="white" stroke-linecap="round" stroke-linejoin="round"/>
<path d="M48.0662 26.1716C52.0206 26.1716 55.2262 22.9659 55.2262 19.0116C55.2262 15.0572 52.0206 11.8516 48.0662 11.8516C44.1119 11.8516 40.9062 15.0572 40.9062 19.0116C40.9062 22.9659 44.1119 26.1716 48.0662 26.1716Z" stroke="white" stroke-linecap="round" stroke-linejoin="round"/>
<path d="M37.8438 39.6056C38.0037 33.0056 42.5338 27.7656 48.0638 27.7656C49.8771 27.8351 51.6373 28.3968 53.1558 29.3903C54.6744 30.3839 55.8939 31.7719 56.6838 33.4056" stroke="white" stroke-linecap="round" stroke-linejoin="round"/>
<path d="M65.3467 402.066C79.5347 399.784 89.1858 386.432 86.9031 372.244C84.6204 358.056 71.2682 348.404 57.0803 350.687C42.8923 352.97 33.2411 366.322 35.5238 380.51C37.8065 394.698 51.1587 404.349 65.3467 402.066Z" stroke="white" stroke-linecap="round" stroke-linejoin="round"/>
<path d="M61.1875 361.75V391.03" stroke="white" stroke-width="4" stroke-linecap="round" stroke-linejoin="round"/>
<path d="M75.8269 376.391H46.5469" stroke="white" stroke-width="4" stroke-linecap="round" stroke-linejoin="round"/>
<path d="M304.6 54.2988V357.759C304.6 361.758 303.012 365.594 300.183 368.422C297.355 371.25 293.52 372.839 289.52 372.839H158.4C154.401 372.839 150.565 371.25 147.737 368.422C144.909 365.594 143.32 361.758 143.32 357.759V54.2988C143.32 50.3011 144.908 46.467 147.734 43.6392C150.559 40.8114 154.393 39.2215 158.39 39.2188H214.67L214.72 39.3988C216.12 44.3988 219.35 47.7288 222.93 47.7288H224.93C228.52 47.7288 231.75 44.4388 233.15 39.3988L233.2 39.2188H289.47C291.455 39.2123 293.421 39.5975 295.257 40.3523C297.092 41.1072 298.76 42.217 300.166 43.6179C301.571 45.0189 302.687 46.6835 303.448 48.5164C304.209 50.3493 304.6 52.3143 304.6 54.2988Z" fill="white" stroke="#263238" stroke-linecap="round" stroke-linejoin="round"/>
<path d="M314.847 126.78V96.47H312.107V57.67C312.107 51.326 309.587 45.2419 305.101 40.756C300.615 36.2701 294.531 33.75 288.187 33.75H159.717C153.373 33.75 147.289 36.2701 142.803 40.756C138.317 45.2419 135.797 51.326 135.797 57.67V366C135.797 372.344 138.317 378.428 142.803 382.914C147.289 387.4 153.373 389.92 159.717 389.92H288.187C294.531 389.92 300.615 387.4 305.101 382.914C309.587 378.428 312.107 372.344 312.107 366V152.61H314.847V134.7H312.107V126.78H314.847ZM304.597 348.92C304.594 355.263 302.073 361.346 297.588 365.831C293.103 370.316 287.02 372.837 280.677 372.84H167.237C160.893 372.84 154.809 370.32 150.323 365.834C145.837 361.348 143.317 355.264 143.317 348.92V63.14C143.317 56.796 145.837 50.7119 150.323 46.226C154.809 41.7401 160.893 39.22 167.237 39.22H214.667L214.717 39.4C216.117 44.4 219.347 47.73 222.927 47.73H224.927C228.517 47.73 231.747 44.44 233.147 39.4L233.197 39.22H280.627C283.772 39.2147 286.887 39.8295 289.794 41.0291C292.702 42.2287 295.344 43.9897 297.57 46.2112C299.796 48.4328 301.563 51.0714 302.769 53.9762C303.974 56.881 304.596 59.9949 304.597 63.14V348.92Z" fill="#32C888" stroke="#263238" stroke-linecap="round" stroke-linejoin="round"/>
<path d="M286.28 37.0469H161.64C158.611 37.0469 155.611 37.6436 152.812 38.803C150.013 39.9623 147.47 41.6617 145.327 43.8039C143.185 45.9462 141.486 48.4894 140.326 51.2884C139.167 54.0873 138.57 57.0873 138.57 60.1169V363.557C138.57 369.675 141.001 375.543 145.327 379.87C149.654 384.196 155.522 386.627 161.64 386.627H286.28C289.309 386.627 292.309 386.03 295.107 384.871C297.906 383.711 300.448 382.012 302.59 379.869C304.731 377.727 306.43 375.184 307.588 372.385C308.746 369.586 309.342 366.586 309.34 363.557V60.1169C309.342 57.0878 308.746 54.088 307.588 51.2891C306.43 48.4902 304.731 45.9469 302.59 43.8045C300.448 41.6621 297.906 39.9627 295.107 38.8032C292.309 37.6437 289.309 37.0469 286.28 37.0469ZM304.6 349.767C304.6 355.885 302.17 361.753 297.843 366.08C293.517 370.406 287.649 372.837 281.53 372.837H166.39C160.272 372.837 154.404 370.406 150.077 366.08C145.751 361.753 143.32 355.885 143.32 349.767V62.2769C143.32 56.161 145.75 50.2956 150.074 45.971C154.399 41.6464 160.264 39.2169 166.38 39.2169H214.67L214.72 39.3969C216.12 44.3969 219.35 47.7269 222.93 47.7269H224.93C228.52 47.7269 231.75 44.4369 233.15 39.3969L233.2 39.2169H281.48C284.514 39.2103 287.519 39.8022 290.324 40.9586C293.129 42.115 295.678 43.8133 297.826 45.9562C299.973 48.0991 301.677 50.6446 302.839 53.4468C304.002 56.249 304.6 59.2531 304.6 62.2869V349.767Z" fill="#263238" stroke="#263238" stroke-linecap="round" stroke-linejoin="round"/>
<path d="M225.703 40.3694C225.705 39.9235 225.575 39.4871 225.328 39.1156C225.082 38.744 224.73 38.4541 224.319 38.2826C223.907 38.111 223.454 38.0656 223.017 38.1521C222.579 38.2386 222.177 38.4531 221.862 38.7684C221.547 39.0837 221.332 39.4855 221.246 39.9229C221.159 40.3603 221.205 40.8135 221.376 41.225C221.548 41.6366 221.838 41.9879 222.209 42.2343C222.581 42.4808 223.017 42.6113 223.463 42.6094C224.057 42.6094 224.627 42.3734 225.047 41.9533C225.467 41.5332 225.703 40.9634 225.703 40.3694Z" fill="white"/>
<path d="M157.648 49.0038C157.648 51.2738 155.098 52.0938 155.088 53.8238V53.9438H157.568V54.7138H154.258V54.0038C154.258 51.5738 156.808 51.0938 156.808 49.0038C156.808 48.2338 156.558 47.8238 155.928 47.8238C155.298 47.8238 155.048 48.2638 155.048 48.9338V49.6038H154.258V49.0038C154.258 47.8538 154.788 47.0938 155.948 47.0938C157.108 47.0938 157.648 47.8238 157.648 49.0038Z" fill="#263238"/>
<path d="M161.779 48.9994V49.1894C161.818 49.513 161.749 49.8403 161.583 50.1206C161.416 50.4008 161.162 50.6184 160.859 50.7394C161.164 50.8641 161.418 51.0853 161.585 51.3689C161.751 51.6526 161.819 51.983 161.779 52.3094V52.8894C161.779 54.0394 161.239 54.7894 160.079 54.7894C158.919 54.7894 158.389 54.0394 158.389 52.8894V52.3694H159.169V52.9394C159.169 53.6194 159.449 54.0294 160.059 54.0294C160.669 54.0294 160.939 53.6294 160.939 52.8694V52.2794C160.939 51.5394 160.629 51.1894 159.989 51.1594H159.539V50.4094H159.999C160.127 50.41 160.253 50.3838 160.37 50.3326C160.486 50.2813 160.591 50.2061 160.677 50.1119C160.763 50.0176 160.828 49.9063 160.868 49.7853C160.908 49.6643 160.922 49.5362 160.909 49.4094V48.9994C160.909 48.2294 160.639 47.8294 160.029 47.8294C159.419 47.8294 159.139 48.2494 159.139 48.9294V49.3194H158.359V48.9994C158.359 47.8494 158.899 47.1094 160.049 47.1094C161.199 47.1094 161.779 47.8094 161.779 48.9994Z" fill="#263238"/>
<path d="M163.394 49.5312V50.5312H162.594V49.5312H163.394ZM163.394 53.6312V54.6813H162.594V53.6312H163.394Z" fill="#263238"/>
<path d="M165.107 50.2106C165.216 50.0121 165.379 49.8485 165.577 49.7388C165.775 49.6291 166 49.5777 166.227 49.5906C167.227 49.5906 167.617 50.3006 167.617 51.3706V52.8506C167.617 54.0006 167.077 54.7506 165.917 54.7506C164.757 54.7506 164.227 54.0006 164.227 52.8506V52.3406H164.997V52.9006C164.997 53.5806 165.277 53.9906 165.877 53.9906C166.477 53.9906 166.767 53.5806 166.767 52.9006V51.4406C166.767 50.7606 166.487 50.3506 165.877 50.3506C165.767 50.3466 165.658 50.3645 165.556 50.4033C165.454 50.4421 165.36 50.501 165.281 50.5764C165.202 50.6519 165.138 50.7425 165.095 50.8428C165.051 50.9432 165.028 51.0512 165.027 51.1606V51.3306H164.247L164.447 47.1406H167.447V47.8906H165.227L165.107 50.2106Z" fill="#263238"/>
<path d="M171.804 49.0003V49.1403H170.994V48.9003C170.994 48.2203 170.714 47.8203 170.104 47.8203C169.494 47.8203 169.184 48.2303 169.184 49.0403V50.7303C169.271 50.4805 169.437 50.2661 169.657 50.1198C169.878 49.9735 170.14 49.9034 170.404 49.9203C171.404 49.9203 171.804 50.6203 171.804 51.7103V52.8503C171.804 54.0003 171.224 54.7503 170.074 54.7503C168.924 54.7503 168.344 54.0003 168.344 52.8503V49.0003C168.344 47.8103 168.884 47.0703 170.074 47.0703C171.264 47.0703 171.804 47.8003 171.804 49.0003ZM169.214 51.8203V52.9003C169.214 53.5803 169.494 53.9903 170.104 53.9903C170.714 53.9903 171.004 53.5803 171.004 52.9003V51.7703C171.004 51.0903 170.714 50.6803 170.104 50.6803C169.494 50.6803 169.214 51.0903 169.214 51.7703V51.8203Z" fill="#263238"/>
<path d="M254.083 49.2812H251.953V54.6012H254.083V49.2812Z" fill="#263238"/>
<path d="M256.927 48.2188H254.797V54.6087H256.927V48.2188Z" fill="#263238"/>
<path d="M259.755 47.4609H257.625V54.6009H259.755V47.4609Z" fill="#263238"/>
<path d="M262.599 46.1406H260.469V54.6006H262.599V46.1406Z" fill="#263238"/>
<path d="M288.926 54.4484H276.156V46.6484H288.926V54.4484ZM276.866 53.7484H288.216V47.3584H276.866V53.7484Z" fill="#263238"/>
<path d="M284.677 48.1328H277.938V52.9728H284.677V48.1328Z" fill="#263238"/>
<path d="M290.094 49.6328H288.484V51.4728H290.094V49.6328Z" fill="#263238"/>
<path d="M271.475 52.7563C271.39 52.7567 271.307 52.7324 271.235 52.6863C268.635 51.1463 266.915 52.5763 266.845 52.6863C266.802 52.7308 266.749 52.7661 266.692 52.7902C266.634 52.8142 266.573 52.8267 266.51 52.8267C266.448 52.8267 266.386 52.8142 266.329 52.7902C266.271 52.7661 266.219 52.7308 266.175 52.6863C266.088 52.5967 266.039 52.4765 266.039 52.3513C266.039 52.2262 266.088 52.1059 266.175 52.0163C266.275 51.9363 268.465 50.0163 271.685 52.0163C271.739 52.0482 271.785 52.0903 271.823 52.1404C271.86 52.1904 271.886 52.2474 271.901 52.3078C271.916 52.3683 271.919 52.4312 271.909 52.4927C271.9 52.5542 271.878 52.6133 271.845 52.6663C271.793 52.7052 271.733 52.7333 271.669 52.7487C271.606 52.7642 271.54 52.7668 271.475 52.7563Z" fill="#263238"/>
<path d="M272.44 51.1486C272.357 51.1479 272.274 51.1273 272.2 51.0886C268.44 48.8486 265.92 51.0186 265.89 51.0886C265.793 51.1602 265.673 51.1927 265.553 51.1797C265.434 51.1667 265.323 51.1092 265.244 51.0186C265.164 50.928 265.122 50.8108 265.125 50.6904C265.128 50.57 265.176 50.4552 265.26 50.3686C265.26 50.3686 268.34 47.7286 272.69 50.3686C272.744 50.4005 272.79 50.4427 272.827 50.4927C272.864 50.5428 272.891 50.5997 272.906 50.6602C272.921 50.7207 272.924 50.7835 272.914 50.845C272.904 50.9066 272.883 50.9656 272.85 51.0186C272.797 51.0714 272.732 51.1107 272.661 51.1333C272.59 51.1559 272.514 51.1612 272.44 51.1486Z" fill="#263238"/>
<path d="M273.313 49.3003C273.225 49.302 273.138 49.2777 273.063 49.2303C268.303 46.4003 265.143 49.0703 265.013 49.2303C264.966 49.2717 264.912 49.3032 264.852 49.3231C264.793 49.343 264.73 49.3509 264.668 49.3462C264.606 49.3416 264.545 49.3245 264.489 49.296C264.433 49.2675 264.384 49.2282 264.343 49.1803C264.299 49.1366 264.264 49.0844 264.24 49.0269C264.216 48.9694 264.203 48.9077 264.203 48.8453C264.203 48.783 264.216 48.7212 264.24 48.6637C264.264 48.6062 264.299 48.554 264.343 48.5103C264.343 48.5103 268.143 45.2703 273.513 48.5103C273.622 48.5768 273.7 48.6828 273.732 48.8059C273.764 48.9291 273.746 49.0597 273.683 49.1703C273.634 49.2168 273.576 49.2524 273.512 49.2748C273.449 49.2972 273.381 49.3059 273.313 49.3003Z" fill="#263238"/>
<path d="M270.048 53.5594C270.048 53.7968 269.978 54.0288 269.846 54.2261C269.714 54.4234 269.527 54.5772 269.308 54.6681C269.088 54.7589 268.847 54.7827 268.614 54.7364C268.382 54.6901 268.168 54.5758 268 54.4079C267.832 54.2401 267.718 54.0263 267.672 53.7935C267.625 53.5607 267.649 53.3195 267.74 53.1002C267.831 52.8809 267.984 52.6935 268.182 52.5616C268.379 52.4298 268.611 52.3594 268.848 52.3594C269.006 52.3581 269.163 52.3882 269.309 52.448C269.455 52.5079 269.588 52.5962 269.7 52.7079C269.812 52.8196 269.9 52.9524 269.96 53.0986C270.02 53.2448 270.05 53.4015 270.048 53.5594Z" fill="#263238"/>
<path d="M65.4766 94.5078H77.1366" stroke="white" stroke-linecap="round" stroke-linejoin="round"/>
<path d="M155.867 94.5078H167.527" stroke="#263238" stroke-linecap="round" stroke-linejoin="round"/>
<path d="M77.1328 63.8984L83.6928 68.9984" stroke="white" stroke-linecap="round" stroke-linejoin="round"/>
<path d="M154.404 63.8984L147.844 68.9984" stroke="#263238" stroke-linecap="round" stroke-linejoin="round"/>
<path d="M103.375 51.5078L104.105 62.4378" stroke="white" stroke-linecap="round" stroke-linejoin="round"/>
<path d="M128.897 52.9609L127.438 62.4409" stroke="white" stroke-linecap="round" stroke-linejoin="round"/>
<path d="M145.44 80.8594H82.5V135.169H145.44V80.8594Z" fill="white" stroke="#263238" stroke-linecap="round" stroke-linejoin="round"/>
<path d="M105.87 80.8594H94V135.169H105.87V80.8594Z" fill="#32C888" stroke="#263238" stroke-linecap="round" stroke-linejoin="round"/>
<path d="M145.434 80.8594H117.844V135.169H145.434V80.8594Z" fill="white" stroke="#263238" stroke-linecap="round" stroke-linejoin="round"/>
<path d="M109.53 76.4316L100.3 72.4316C100.073 72.4123 99.8459 72.4123 99.6197 72.4316L99.4697 72.3516H90.1797L97.4197 75.7516C97.4564 76.2602 97.5333 76.7651 97.6497 77.2616C97.8921 78.0203 98.3199 78.7066 98.8944 79.2584C99.4688 79.8101 100.172 80.2099 100.94 80.4216L101 80.7116H102L118.07 80.9316C118.07 80.9316 113.91 78.6416 109.53 76.4316Z" fill="#32C888" stroke="#263238" stroke-linecap="round" stroke-linejoin="round"/>
<path d="M108.785 80.8584C108.785 80.8584 98.7851 75.4684 93.3651 73.0984C87.9451 70.7284 87.7551 74.3884 88.3651 77.1884C88.9751 79.9884 92.6751 80.6384 92.6751 80.6384L108.785 80.8584Z" fill="#32C888" stroke="#263238" stroke-linecap="round" stroke-linejoin="round"/>
<path d="M111.165 76.9297H107.635C107.131 76.9284 106.633 77.0265 106.167 77.2186C105.702 77.4106 105.279 77.6926 104.924 78.0485C104.568 78.4044 104.286 78.8272 104.094 79.2925C103.902 79.7577 103.803 80.2564 103.805 80.7597H114.995C114.995 79.7439 114.591 78.7697 113.873 78.0515C113.155 77.3332 112.18 76.9297 111.165 76.9297Z" fill="#32C888" stroke="#263238" stroke-linecap="round" stroke-linejoin="round"/>
<path d="M133.228 72.3874H125.068L124.008 76.3874C119.628 78.5974 115.508 80.8174 115.508 80.8174L131.578 80.5974H132.578L132.628 80.3074C133.398 80.0972 134.103 79.6981 134.679 79.1462C135.255 78.5944 135.684 77.9073 135.928 77.1474C136.418 74.8674 136.358 71.9974 133.228 72.3874Z" fill="#32C888" stroke="#263238" stroke-linecap="round" stroke-linejoin="round"/>
<path d="M105.867 80.8584C105.867 80.8584 115.867 75.4684 121.297 73.0984C126.727 70.7284 126.897 74.3884 126.247 77.1884C125.597 79.9884 121.937 80.6384 121.937 80.6384L105.867 80.8584Z" fill="#32C888" stroke="#263238" stroke-linecap="round" stroke-linejoin="round"/>
<path d="M84.5478 138.999C84.5478 138.999 79.2878 135.499 80.4378 134.389C81.5878 133.279 87.2378 135.719 88.5278 137.389C89.8178 139.059 89.1678 140.179 88.0978 140.279C87.0278 140.379 84.5478 138.999 84.5478 138.999Z" fill="white" stroke="#263238" stroke-linecap="round" stroke-linejoin="round"/>
<path d="M88.9943 134.916C88.9943 134.916 80.8443 130.686 82.8043 134.596C84.7643 138.506 89.6443 142.096 91.6043 143.076C93.5643 144.056 104.324 143.726 104.324 143.726C104.324 143.726 102.324 140.136 100.404 139.156C98.4843 138.176 88.9943 134.916 88.9943 134.916Z" fill="white" stroke="#263238" stroke-linecap="round" stroke-linejoin="round"/>
<path d="M96.8178 134.919C96.8178 134.919 86.0578 129.059 85.7278 131.339C85.3978 133.619 94.2078 141.119 97.1378 142.419C99.4368 143.27 101.867 143.713 104.318 143.729L96.8178 134.919Z" fill="white" stroke="#263238" stroke-linecap="round" stroke-linejoin="round"/>
<path d="M139.195 144.995C139.195 144.995 135.285 135.865 132.345 134.565C129.405 133.265 103.005 135.865 103.005 135.865C103.005 135.865 90.2848 125.435 91.2648 130.645C92.2448 135.855 100.395 142.065 102.675 143.645C104.955 145.225 121.915 144.645 121.915 144.645L127.135 149.535L139.195 144.995Z" fill="white" stroke="#263238" stroke-linecap="round" stroke-linejoin="round"/>
<path d="M299.717 159.656C299.107 160.839 298.944 162.202 299.257 163.496C299.769 164.774 300.554 165.924 301.557 166.866L302.327 171.626L312.767 172.086L308.467 156.086L299.717 159.656Z" fill="white" stroke="#263238" stroke-linecap="round" stroke-linejoin="round"/>
<path d="M292.625 129.996C292.625 129.996 296.975 158.296 297.625 159.996C298.275 161.696 303.285 163.696 305.035 162.826C306.785 161.956 303.725 157.826 303.725 157.826L304.595 130.616C304.595 130.616 297.195 127.796 292.625 129.996Z" fill="#263238" stroke="#263238" stroke-linecap="round" stroke-linejoin="round"/>
<path d="M304.816 138.896C304.816 138.896 298.716 138.466 298.496 139.556C298.276 140.646 298.286 144.336 299.376 144.776C300.466 145.216 307.866 145.866 309.166 145.426C309.601 145.205 309.987 144.899 310.301 144.525C310.616 144.151 310.851 143.718 310.994 143.251C311.137 142.785 311.184 142.294 311.133 141.808C311.081 141.323 310.933 140.853 310.696 140.426C309.386 138.466 304.816 138.896 304.816 138.896Z" fill="white" stroke="#263238" stroke-linecap="round" stroke-linejoin="round"/>
<path d="M304.814 145.871C304.814 145.871 298.934 145.871 299.154 147.171C299.374 148.471 298.714 151.311 301.154 151.751C304.049 152.111 306.982 152.037 309.854 151.531C310.343 151.44 310.796 151.21 311.156 150.867C311.517 150.524 311.77 150.084 311.885 149.601C312.001 149.117 311.973 148.61 311.806 148.141C311.639 147.673 311.34 147.263 310.944 146.961C309.164 145.431 304.814 145.871 304.814 145.871Z" fill="white" stroke="#263238" stroke-linecap="round" stroke-linejoin="round"/>
<path d="M295.367 147.536C295.367 147.536 294.617 142.056 292.847 142.206C291.527 142.316 288.377 143.316 288.667 145.726C289.165 148.603 290.095 151.388 291.427 153.986C291.657 154.427 292.011 154.792 292.444 155.037C292.878 155.281 293.373 155.394 293.87 155.362C294.366 155.33 294.843 155.155 295.242 154.858C295.641 154.56 295.945 154.153 296.117 153.686C297.067 151.576 295.367 147.536 295.367 147.536Z" fill="white" stroke="#263238" stroke-linecap="round" stroke-linejoin="round"/>
<path d="M305.149 151.741C305.149 151.741 299.829 151.741 300.029 153.001C300.229 154.261 299.629 157.001 301.799 157.401C304.42 157.743 307.079 157.673 309.679 157.191C310.134 157.08 310.55 156.844 310.879 156.51C311.208 156.176 311.438 155.757 311.542 155.3C311.645 154.843 311.62 154.366 311.467 153.923C311.315 153.479 311.042 153.087 310.679 152.791C309.089 151.331 305.149 151.741 305.149 151.741Z" fill="white" stroke="#263238" stroke-linecap="round" stroke-linejoin="round"/>
<path d="M305.394 156.517C305.394 156.517 300.944 156.517 301.114 157.517C301.284 158.517 300.784 160.847 302.594 161.197C304.786 161.493 307.011 161.435 309.184 161.027C309.563 160.932 309.909 160.733 310.181 160.453C310.454 160.172 310.643 159.822 310.728 159.44C310.814 159.058 310.791 158.661 310.663 158.291C310.535 157.921 310.307 157.595 310.004 157.347C308.694 156.167 305.394 156.517 305.394 156.517Z" fill="white" stroke="#263238" stroke-linecap="round" stroke-linejoin="round"/>
<path d="M291.414 101.337C288.593 101.347 285.834 102.158 283.456 103.676C281.078 105.194 279.181 107.356 277.984 109.911C276.788 112.465 276.341 115.307 276.697 118.105C277.053 120.904 278.196 123.543 279.994 125.717C282.724 129.007 287.194 131.367 291.454 131.097C304.514 130.297 338.754 148.637 338.754 148.637V83.7969C338.754 83.7969 304.994 101.607 291.414 101.337Z" fill="white" stroke="#263238" stroke-linecap="round" stroke-linejoin="round"/>
<path d="M288.754 116.748C288.754 113.401 289.657 110.115 291.368 107.238C293.078 104.36 295.533 101.998 298.474 100.398C296.167 100.991 293.797 101.307 291.414 101.338C288.593 101.349 285.834 102.16 283.456 103.678C281.078 105.196 279.181 107.358 277.984 109.912C276.788 112.467 276.341 115.309 276.697 118.107C277.053 120.905 278.196 123.545 279.994 125.718C282.724 129.008 287.194 131.368 291.454 131.098C292.968 131.039 294.483 131.143 295.974 131.408C293.732 129.678 291.915 127.457 290.664 124.916C289.413 122.375 288.759 119.581 288.754 116.748Z" fill="#32C888" stroke="#263238" stroke-linecap="round" stroke-linejoin="round"/>
<path d="M370.199 123.873C374.434 106.476 363.763 88.9403 346.366 84.7057C328.969 80.4712 311.433 91.1416 307.199 108.539C302.964 125.936 313.634 143.472 331.032 147.706C348.429 151.941 365.965 141.27 370.199 123.873Z" fill="white" stroke="#263238" stroke-linecap="round" stroke-linejoin="round"/>
<path d="M366.35 116.216C366.352 121.683 364.733 127.028 361.697 131.575C358.661 136.121 354.345 139.666 349.295 141.759C344.244 143.853 338.686 144.401 333.324 143.336C327.962 142.271 323.036 139.639 319.169 135.774C315.303 131.909 312.669 126.984 311.602 121.622C310.535 116.26 311.082 110.702 313.173 105.651C315.265 100.6 318.808 96.2824 323.353 93.2448C327.899 90.2072 333.243 88.5859 338.71 88.5859C346.038 88.5886 353.066 91.5001 358.248 96.6809C363.431 101.862 366.345 108.888 366.35 116.216Z" fill="#A6A6A6" stroke="#263238" stroke-linecap="round" stroke-linejoin="round"/>
<path d="M338.706 109.468V122.998L317.446 133.888C314.207 129.977 312.107 125.25 311.375 120.225C310.643 115.201 311.307 110.071 313.296 105.398L338.706 109.468Z" fill="white" stroke="#263238" stroke-linecap="round" stroke-linejoin="round"/>
<path d="M345.453 116.219C345.453 117.554 345.057 118.86 344.315 119.97C343.573 121.08 342.518 121.945 341.284 122.456C340.05 122.966 338.692 123.1 337.383 122.838C336.073 122.577 334.87 121.933 333.927 120.988C332.983 120.043 332.341 118.84 332.082 117.529C331.822 116.219 331.957 114.862 332.47 113.629C332.982 112.395 333.849 111.342 334.96 110.601C336.072 109.861 337.378 109.467 338.713 109.469C340.502 109.471 342.216 110.184 343.48 111.449C344.743 112.715 345.453 114.43 345.453 116.219Z" fill="white" stroke="#263238" stroke-linecap="round" stroke-linejoin="round"/>
<path d="M300.135 172.057L299.055 167.527L313.075 165.797L312.765 172.087L300.135 172.057Z" fill="white" stroke="#263238" stroke-linecap="round" stroke-linejoin="round"/>
<path d="M126.3 151.347L123.07 146.167L137.95 138.617L139.2 144.967L126.3 151.347Z" fill="white" stroke="#263238" stroke-linecap="round" stroke-linejoin="round"/>
<path d="M216.75 143.859C216.75 143.859 192.83 141.199 190.75 142.259C188.67 143.319 158.33 179.199 158.33 179.199L139.69 141.999L124 148.899C124 148.899 143.66 215.899 146.85 216.659C150.04 217.419 180.33 197.269 180.33 197.269L178.47 223.839C178.47 223.839 184.05 246.159 208.77 250.409C233.49 254.659 248.09 235.529 251.28 229.149C253.655 224.064 255.696 218.83 257.39 213.479L268.82 179.729C268.82 179.729 301 205.999 308.16 209.219C315.32 212.439 321.97 215.339 322.77 213.739C323.57 212.139 315.6 169.629 315.6 169.629L298.6 170.429L299.4 177.069C299.4 177.069 277.34 148.069 275.48 145.179C273.62 142.289 268.04 142.789 261.4 140.929C254.76 139.069 216.75 143.859 216.75 143.859Z" fill="#32C888" stroke="#263238" stroke-linecap="round" stroke-linejoin="round"/>
<path d="M180.336 197.267L198.146 183.977" stroke="#263238" stroke-linecap="round" stroke-linejoin="round"/>
<path d="M191.766 189.03L200.796 187.43" stroke="#263238" stroke-linecap="round" stroke-linejoin="round"/>
<path d="M268.828 179.725L274.938 158.195" stroke="#263238" stroke-linecap="round" stroke-linejoin="round"/>
<path d="M271.219 172.816L277.859 163.516" stroke="#263238" stroke-linecap="round" stroke-linejoin="round"/>
<path d="M300.18 192.539L300.45 197.799" stroke="#263238" stroke-linecap="round" stroke-linejoin="round"/>
<path d="M299.383 177.07L299.863 186.54" stroke="#263238" stroke-linecap="round" stroke-linejoin="round"/>
<path d="M158.289 179.195L163.869 190.885" stroke="#263238" stroke-linecap="round" stroke-linejoin="round"/>
<path d="M225.778 140.927L214.088 143.057C214.088 143.057 209.838 146.507 207.448 154.477C205.996 159.346 204.93 164.321 204.258 169.357L214.358 169.897L206.358 177.897C206.358 177.897 208.758 181.347 213.798 188.787C217.78 194.396 222.123 199.741 226.798 204.787L211.998 223.837C211.998 223.837 230.068 219.837 241.228 207.627C252.388 195.417 258.998 177.067 258.998 177.067L250.228 170.157L259.528 168.297C259.528 168.297 261.388 153.157 251.528 143.297C241.668 133.437 225.778 140.927 225.778 140.927Z" fill="#32C888" stroke="#263238" stroke-linecap="round" stroke-linejoin="round"/>
<path d="M252.084 147.311C252.084 147.311 248.984 153.451 248.364 164.851C247.884 173.751 243.214 185.091 239.094 193.111C235.824 199.491 232.894 203.771 232.684 203.111C232.684 203.111 230.964 200.351 228.214 192.311C227.544 190.391 226.824 188.151 226.044 185.561C222.044 172.271 218.604 150.751 220.194 146.501C220.94 144.406 221.828 142.364 222.854 140.391C235.614 157.671 252.084 147.311 252.084 147.311Z" fill="white" stroke="#263238" stroke-linecap="round" stroke-linejoin="round"/>
<path d="M235.879 183.72L239.099 193.11C235.829 199.49 232.899 203.77 232.689 203.11C232.689 203.11 230.969 200.35 228.219 192.31L232.689 184.24L228.249 175.93L233.489 170.68L240.659 177.86L235.879 183.72Z" fill="#263238" stroke="#263238" stroke-linecap="round" stroke-linejoin="round"/>
<path d="M224.719 179.727L233.489 170.688L244.169 180.768" stroke="#263238" stroke-linecap="round" stroke-linejoin="round"/>
<path d="M222.859 140.398C223.158 145.752 224.233 151.034 226.049 156.078C228.062 161.173 230.553 166.065 233.489 170.688L245.999 152.888C245.999 152.888 232.429 154.218 222.859 140.398Z" stroke="#263238" stroke-linecap="round" stroke-linejoin="round"/>
<path d="M260.867 112.239C260.867 112.239 264.667 111.649 264.667 116.839C264.667 122.029 262.467 128.419 262.467 128.419L260.867 112.239Z" fill="white" stroke="#263238" stroke-linecap="round" stroke-linejoin="round"/>
<path d="M259.529 93.0976C259.529 93.0976 262.189 117.278 262.449 124.458C262.709 131.638 261.919 138.008 259.529 141.198C257.139 144.388 247.529 157.138 242.529 157.668C237.529 158.198 231.899 155.548 229.779 153.668C227.659 151.788 217.549 135.858 217.549 135.858C217.549 135.858 209.849 135.328 207.989 125.228C206.129 115.128 216.489 117.528 216.489 117.528C216.489 117.528 210.909 108.758 210.379 100.258C209.849 91.7576 208.249 88.5576 231.109 88.0276C253.969 87.4976 259.529 93.0976 259.529 93.0976Z" fill="white" stroke="#263238" stroke-linecap="round" stroke-linejoin="round"/>
<path d="M247.567 110.109L253.947 132.159L244.117 129.239" stroke="#263238" stroke-linecap="round" stroke-linejoin="round"/>
<path d="M234.288 126.578L226.578 128.178" stroke="#263238" stroke-linecap="round" stroke-linejoin="round"/>
<path d="M230.57 127.906C231.31 130.163 232.677 132.162 234.512 133.669C236.347 135.176 238.573 136.129 240.93 136.416C249.43 137.736 253.68 136.146 253.68 136.146" stroke="#263238" stroke-linecap="round" stroke-linejoin="round"/>
<path d="M232.69 132.156C232.69 132.156 232.43 145.446 237.21 145.976C241.99 146.506 240.93 136.416 240.93 136.416C237.912 135.598 235.103 134.146 232.69 132.156Z" fill="#263238" stroke="#263238" stroke-linecap="round" stroke-linejoin="round"/>
<path d="M233.664 141.352C234.314 143.772 235.404 145.782 237.204 145.982C237.657 146.045 238.119 145.986 238.541 145.81C238.963 145.634 239.33 145.348 239.604 144.982C238.674 143.352 235.464 142.002 233.664 141.352Z" fill="white" stroke="#263238" stroke-linecap="round" stroke-linejoin="round"/>
<path d="M235.998 116.215C235.998 117.685 235.348 118.875 234.538 118.875C233.728 118.875 233.078 117.685 233.078 116.215C233.078 114.745 233.728 113.555 234.538 113.555C235.348 113.555 235.998 114.745 235.998 116.215Z" fill="#263238"/>
<path d="M253.813 113.824C253.813 115.294 253.153 116.484 252.343 116.484C251.533 116.484 250.883 115.294 250.883 113.824C250.883 112.354 251.543 111.164 252.343 111.164C253.143 111.164 253.813 112.354 253.813 113.824Z" fill="#263238"/>
<path d="M229.766 111.696C231.007 110.284 232.581 109.205 234.344 108.556C236.108 107.906 238.006 107.707 239.866 107.976" stroke="#263238" stroke-linecap="round" stroke-linejoin="round"/>
<path d="M248.367 106.919C248.367 106.919 251.817 100.539 257.367 103.729" stroke="#263238" stroke-linecap="round" stroke-linejoin="round"/>
<path d="M231.36 93.6301C231.36 93.6301 223.13 92.3001 224.99 94.7001C226.85 97.1001 231.1 100.01 228.99 101.87C226.88 103.73 221.55 106.87 221.82 108.51C222.09 110.15 222.61 116.75 221.82 118.35C221.03 119.95 219.16 120.21 217.3 119.94C215.44 119.67 212.78 114.89 211.72 113.56C210.66 112.23 201.09 102.67 202.95 94.9601C204.81 87.2501 224.74 81.1401 224.74 81.1401C224.74 81.1401 237.47 66.8001 246 66.5301C254.53 66.2601 251.31 74.2401 251 75.0301C250.69 75.8201 263.22 74.2401 265.61 81.9401C268 89.6401 267.21 91.7701 256.31 94.7001C245.41 97.6301 231.36 93.6301 231.36 93.6301Z" fill="#263238" stroke="#263238" stroke-linecap="round" stroke-linejoin="round"/>
<path d="M398.977 83.0156L377.317 88.6156L381.797 90.8556L369.477 94.5956L394.487 91.2356L388.147 88.2456L398.977 83.0156Z" fill="white"/>
<path d="M403.416 135.749L381.506 131.219L384.546 135.199L371.836 133.119L395.766 141.139L391.386 135.659L403.416 135.749Z" fill="white"/>
<path d="M379.858 171.861L361.408 159.201L362.668 164.051L351.758 157.211L370.718 173.881L368.808 167.131L379.858 171.861Z" fill="white"/>
<path d="M180.234 301.803V271.193H187.564C189.339 271.148 191.109 271.394 192.804 271.923C194.151 272.354 195.302 273.246 196.054 274.443C196.873 275.916 197.261 277.59 197.174 279.273C197.184 280.392 197.07 281.509 196.834 282.603C196.634 283.516 196.238 284.376 195.674 285.123C195.082 285.849 194.305 286.401 193.424 286.723L197.694 301.803H192.104L188.404 287.803H185.834V301.803H180.234ZM185.834 284.263H187.564C188.452 284.305 189.338 284.144 190.154 283.793C190.795 283.49 191.29 282.948 191.534 282.283C191.841 281.431 191.984 280.528 191.954 279.623C192.043 278.409 191.746 277.197 191.104 276.163C190.534 275.393 189.454 275.003 187.874 275.003H185.874L185.834 284.263Z" fill="#32C888"/>
<path d="M201.367 301.805V271.195H214.217V275.125H206.997V283.925H212.697V287.825H206.997V298.005H214.327V301.855L201.367 301.805Z" fill="#32C888"/>
<path d="M217.547 301.805V271.195H230.137V275.005H223.137V284.005H228.847V287.905H223.137V301.805H217.547Z" fill="#32C888"/>
<path d="M233.047 301.805V271.195H245.897V275.125H238.637V283.925H244.347V287.825H238.637V298.005H245.997V301.855L233.047 301.805Z" fill="#32C888"/>
<path d="M249.227 301.803V271.193H256.557C258.328 271.148 260.095 271.394 261.787 271.923C263.137 272.352 264.291 273.244 265.047 274.443C265.861 275.917 266.246 277.591 266.157 279.273C266.171 280.392 266.057 281.509 265.817 282.603C265.619 283.516 265.227 284.375 264.667 285.123C264.074 285.849 263.297 286.401 262.417 286.723L266.687 301.803H261.087L257.387 287.803H254.817V301.803H249.227ZM254.817 284.263H256.557C257.444 284.304 258.33 284.143 259.147 283.793C259.782 283.484 260.276 282.944 260.527 282.283C260.825 281.429 260.964 280.527 260.937 279.623C261.025 278.409 260.728 277.198 260.087 276.163C259.527 275.393 258.447 275.003 256.857 275.003H254.857L254.817 284.263Z" fill="#32C888"/>
<path d="M156.938 341.165L163.057 310.555H169.057L175.188 341.165H169.997L168.787 334.105H163.458L162.208 341.165H156.938ZM163.997 330.545H168.147L166.068 317.695L163.997 330.545Z" fill="#32C888"/>
<path d="M187.25 341.165V310.555H199.84V314.405H192.84V323.325H198.54V327.225H192.84V341.165H187.25Z" fill="#32C888"/>
<path d="M202.75 341.162V310.552H210.08C211.855 310.508 213.625 310.754 215.32 311.282C216.666 311.713 217.817 312.605 218.57 313.802C219.385 315.276 219.769 316.95 219.68 318.632C219.692 319.751 219.582 320.867 219.35 321.962C219.149 322.876 218.754 323.735 218.19 324.482C217.598 325.208 216.82 325.761 215.94 326.082L220.21 341.162H214.62L210.92 327.162H208.35V341.162H202.75ZM208.35 323.632H210.08C210.969 323.671 211.854 323.507 212.67 323.152C213.308 322.846 213.803 322.305 214.05 321.642C214.357 320.79 214.5 319.887 214.47 318.982C214.553 317.768 214.256 316.559 213.62 315.522C213.05 314.752 211.97 314.362 210.39 314.362H208.39L208.35 323.632Z" fill="#32C888"/>
<path d="M224 341.165V310.555H229.52V341.165H224Z" fill="#32C888"/>
<path d="M234.281 341.165V310.555H247.131V314.485H239.871V323.285H245.581V327.185H239.871V337.315H247.201V341.165H234.281Z" fill="#32C888"/>
<path d="M250.445 341.165V310.555H254.345L261.785 328.005V310.555H266.405V341.165H262.695L255.215 322.875V341.165H250.445Z" fill="#32C888"/>
<path d="M271.047 341.166V310.556H278.267C280.267 310.456 282.264 310.798 284.117 311.556C285.472 312.189 286.542 313.305 287.117 314.686C287.762 316.401 288.064 318.225 288.007 320.056V331.246C288.061 333.132 287.759 335.012 287.117 336.786C286.56 338.217 285.491 339.39 284.117 340.076C282.343 340.87 280.408 341.237 278.467 341.146L271.047 341.166ZM276.647 337.276H278.347C279.317 337.36 280.287 337.121 281.107 336.596C281.685 336.083 282.044 335.367 282.107 334.596C282.247 333.535 282.311 332.466 282.297 331.396V319.696C282.321 318.689 282.23 317.683 282.027 316.696C281.976 316.36 281.859 316.038 281.682 315.747C281.505 315.457 281.272 315.205 280.997 315.006C280.163 314.593 279.235 314.41 278.307 314.476H276.687L276.647 337.276Z" fill="#32C888"/>
</svg>
