<svg width="34" height="34" viewBox="0 0 34 34" fill="none" xmlns="http://www.w3.org/2000/svg">
<g clip-path="url(#clip0)">
<path d="M26.6345 17.8812C26.6343 17.5458 26.5592 17.2494 26.4072 16.9951C26.2579 16.745 26.0344 16.5353 25.7345 16.3696C23.2594 15.0073 20.7818 13.6492 18.3075 12.2855C17.6404 11.9179 16.9936 11.9313 16.3315 12.3041C15.3463 12.8587 10.4138 15.5562 8.94402 16.3688C8.33871 16.7033 8.04417 17.2152 8.04402 17.8805C8.04308 20.6202 8.04402 23.3598 8.04308 26.0995C8.04322 26.4275 8.11517 26.7181 8.26044 26.9687C8.40978 27.2263 8.63646 27.4417 8.94322 27.6112C10.4131 28.4239 15.3462 31.1211 16.3312 31.6758C16.9936 32.0489 17.6404 32.0623 18.3077 31.6945C20.7821 30.3308 23.2598 28.9727 25.7353 27.6104C26.0421 27.441 26.2688 27.2254 26.4181 26.968C26.5632 26.7174 26.6353 26.4268 26.6354 26.0987C26.6354 26.0987 26.6354 20.6209 26.6345 17.8812Z" fill="#5C8DBC"/>
<path d="M17.3676 21.9648L8.26033 26.9701C8.40968 27.2278 8.63635 27.4432 8.94312 27.6127C10.413 28.4253 15.3461 31.1226 16.3311 31.6773C16.9935 32.0504 17.6403 32.0637 18.3076 31.696C20.782 30.3322 23.2597 28.9742 25.7352 27.6119C26.042 27.4425 26.2687 27.2269 26.418 26.9695L17.3676 21.9648Z" fill="#1A4674"/>
<path d="M14.6702 23.4474C15.2001 24.3305 16.1963 24.9262 17.3392 24.9262C18.489 24.9262 19.491 24.323 20.0182 23.4304L17.3676 21.9648L14.6702 23.4474Z" fill="#1A4674"/>
<path d="M26.6345 17.8828C26.6344 17.5474 26.5592 17.251 26.4073 16.9967L17.3677 21.9649L26.4182 26.9696C26.5632 26.719 26.6353 26.4284 26.6355 26.1003C26.6355 26.1003 26.6355 20.6225 26.6345 17.8828Z" fill="#1B598E"/>
<path d="M26.1363 22.3226H25.4291V22.9978H24.7217V22.3226H24.0145V21.6476H24.7217V20.9725H25.4291V21.6476H26.1363V22.3226ZM23.5557 22.3226H22.8485V22.9978H22.1413V22.3226H21.434V21.6476H22.1413V20.9725H22.8485V21.6476H23.5557V22.3226Z" fill="white"/>
<path d="M20.0189 23.4305C19.4916 24.323 18.4897 24.9262 17.3398 24.9262C16.197 24.9262 15.2007 24.3306 14.6708 23.4475C14.4046 23.0044 14.2647 22.5023 14.2653 21.9915C14.2653 20.3708 15.6419 19.0569 17.3398 19.0569C18.4753 19.0569 19.4663 19.6451 19.9988 20.5192L22.6861 19.0421C21.618 17.2821 19.6238 16.0981 17.3398 16.0981C13.9298 16.0981 11.1656 18.7367 11.1656 21.9915C11.1656 23.0593 11.4632 24.0607 11.9833 24.9244C13.0487 26.6937 15.0485 27.885 17.3398 27.885C19.6353 27.885 21.6382 26.6889 22.7021 24.9144L20.0189 23.4305Z" fill="white"/>
</g>
<path d="M12.4839 2.2372H13.8202V8.77089H17.2695V9.91375H12.4839V2.2372Z" fill="#F44336"/>
<path d="M18.187 4.469H19.4714V9.91375H18.187V4.469ZM19.5439 2V3.32615H18.1041V2H19.5439Z" fill="#F44336"/>
<path d="M25.8392 4.47978L23.55 9.91375H22.4209L20.1628 4.47978H21.5197L23.0217 8.38275L24.5547 4.47978H25.8392Z" fill="#F44336"/>
<path d="M30.9995 7.26146H27.3948C27.4224 7.84367 27.5605 8.27493 27.8091 8.55526C28.0646 8.82839 28.441 8.96496 28.9382 8.96496C29.5114 8.96496 30.0431 8.77089 30.5334 8.38275L30.9063 9.30997C30.6577 9.51842 30.3504 9.68733 29.9844 9.81671C29.6253 9.9389 29.2593 10 28.8864 10C28.0301 10 27.3568 9.74843 26.8665 9.24528C26.3762 8.74214 26.1311 8.05211 26.1311 7.1752C26.1311 6.62174 26.2381 6.12938 26.4522 5.69811C26.6663 5.26685 26.9666 4.93261 27.3534 4.69542C27.7401 4.45103 28.1786 4.32884 28.6689 4.32884C29.3871 4.32884 29.9533 4.57323 30.3677 5.062C30.7889 5.54358 30.9995 6.20845 30.9995 7.0566V7.26146ZM28.7 5.29919C28.3547 5.29919 28.0715 5.40701 27.8506 5.62264C27.6365 5.83109 27.4984 6.13657 27.4362 6.53908H29.8705C29.829 6.12938 29.7082 5.82031 29.5079 5.61186C29.3146 5.40341 29.0452 5.29919 28.7 5.29919Z" fill="#F44336"/>
<path d="M9.32239 6.23534C9.32239 8.05463 7.90707 9.52946 6.16119 9.52946C4.41532 9.52946 3 8.05463 3 6.23534C3 4.41605 4.41532 2.94122 6.16119 2.94122C7.90707 2.94122 9.32239 4.41605 9.32239 6.23534Z" fill="url(#paint0_radial)"/>
<path d="M8.62031 6.23531C8.62031 7.65031 7.51951 8.7974 6.1616 8.7974C4.8037 8.7974 3.7029 7.65031 3.7029 6.23531C3.7029 4.82031 4.8037 3.67322 6.1616 3.67322C7.51951 3.67322 8.62031 4.82031 8.62031 6.23531Z" fill="url(#paint1_radial)"/>
<defs>
<radialGradient id="paint0_radial" cx="0" cy="0" r="1" gradientUnits="userSpaceOnUse" gradientTransform="translate(6.16119 6.23534) rotate(90) scale(3.29412 3.16119)">
<stop stop-color="#F44336"/>
<stop offset="1" stop-color="#FAA9A3"/>
</radialGradient>
<radialGradient id="paint1_radial" cx="0" cy="0" r="1" gradientUnits="userSpaceOnUse" gradientTransform="translate(6.1616 6.23531) rotate(90) scale(2.56209 2.45871)">
<stop stop-color="#F44336"/>
<stop offset="1" stop-color="#F6655A" stop-opacity="0.03"/>
</radialGradient>
<clipPath id="clip0">
<rect width="18.6228" height="20" fill="white" transform="translate(8.04308 12)"/>
</clipPath>
</defs>
</svg>
