<svg width="34" height="34" viewBox="0 0 34 34" fill="none" xmlns="http://www.w3.org/2000/svg">
<path d="M29.5301 24.0517C29.2782 23.9258 29.0264 23.9258 28.9005 24.0517C26.3819 25.9406 22.1005 27.0739 17.3153 27.0739C12.5301 27.0739 8.24862 25.9406 5.73008 24.0517C5.47821 23.9258 5.2264 23.9258 5.10043 24.0517C4.84856 24.1776 4.72266 24.4295 4.72266 24.5554V26.4443C4.72266 29.5924 10.2634 32.1109 17.3152 32.1109C24.367 32.1109 29.9078 29.5924 29.9078 26.4443V24.5554C29.9078 24.3036 29.7819 24.0517 29.5301 24.0517Z" fill="#FB813E"/>
<path d="M29.5301 11.3333C29.2782 11.2074 29.0264 11.2074 28.9005 11.3333C26.3819 13.2222 22.1005 14.3555 17.3153 14.3555C12.5301 14.3555 8.24862 13.2222 5.73008 11.3333C5.47821 11.2074 5.2264 11.2074 5.10043 11.3333C4.84856 11.4592 4.72266 11.7111 4.72266 11.837V13.7258C4.72266 16.8739 10.2634 19.3925 17.3152 19.3925C24.367 19.3925 29.9078 16.8739 29.9078 13.7258V11.837C29.9078 11.7111 29.7819 11.4592 29.5301 11.3333Z" fill="#FB813E"/>
<path d="M17.3162 13.2221C24.3681 13.2221 29.9088 10.7036 29.9088 7.5555C29.9088 4.4074 24.368 1.88889 17.3162 1.88889C10.2644 1.88889 4.72363 4.4074 4.72363 7.5555C4.72363 10.7036 10.2643 13.2221 17.3162 13.2221Z" fill="#FB813E"/>
<path d="M29.5301 17.6296C29.2782 17.5037 29.0264 17.5037 28.9005 17.6296C26.3819 19.5185 22.1005 20.6518 17.3153 20.6518C12.5301 20.6518 8.24862 19.5185 5.73008 17.6296C5.47821 17.5037 5.2264 17.5037 5.10043 17.6296C4.84856 17.7555 4.72266 18.0074 4.72266 18.1333V20.0221C4.72266 23.1702 10.2634 25.6887 17.3152 25.6887C24.367 25.6887 29.9078 23.1702 29.9078 20.0221V18.1333C29.9078 18.0074 29.7819 17.7555 29.5301 17.6296Z" fill="#FB813E"/>
</svg>
