<svg width="34" height="34" viewBox="0 0 34 34" fill="none" xmlns="http://www.w3.org/2000/svg">
<path d="M7.71863 15.6875L6.21863 14.1875L4.90332 15.5028C5.28184 12.4215 6.82193 9.60083 9.20929 7.61639C11.5967 5.63195 14.6513 4.63335 17.7499 4.82438C20.8484 5.01542 23.7573 6.38169 25.8828 8.64436C28.0083 10.907 29.1902 13.8955 29.1874 17H30.5936L27.7811 19.8125L24.9686 17H26.3749C26.3724 14.6292 25.4717 12.3474 23.8543 10.614C22.2368 8.88064 20.0228 7.82443 17.6578 7.65805C15.2929 7.49168 12.9527 8.22748 11.1085 9.71732C9.26432 11.2072 8.05306 13.3404 7.71863 15.6875Z" fill="#F0AE42"/>
<path d="M29.0966 18.4972C28.718 21.5785 27.1779 24.3991 24.7906 26.3836C22.4032 28.368 19.3486 29.3666 16.25 29.1756C13.1515 28.9846 10.2426 27.6183 8.1171 25.3556C5.99159 23.0929 4.80965 20.1044 4.8125 17H3.40625L6.21875 14.1875L9.03125 17H7.625C7.62274 19.3739 8.52111 21.6602 10.1388 23.3975C11.7565 25.1349 13.973 26.1939 16.341 26.3607C18.709 26.5276 21.0521 25.7899 22.8974 24.2966C24.7428 22.8033 25.9529 20.6656 26.2836 18.3148L27.7812 19.8125L29.0966 18.4972Z" fill="#B52F28"/>
<path d="M3.6077 14.2915L2.68848 14.104C2.75223 13.7895 2.8291 13.4708 2.91488 13.1567L3.81863 13.4051C3.73801 13.7 3.66723 14 3.6077 14.2915ZM30.3883 14.2714C30.3288 13.9784 30.2566 13.6803 30.1755 13.3869L31.0793 13.137C31.1664 13.4511 31.2429 13.7698 31.3066 14.0839L30.3883 14.2714ZM4.09145 12.537L3.20457 12.2276C3.31238 11.9201 3.43098 11.614 3.5566 11.3187L4.4191 11.6876C4.30098 11.9633 4.19035 12.2487 4.09004 12.5365L4.09145 12.537ZM29.9046 12.5187C29.8043 12.2337 29.6932 11.9487 29.5764 11.6708L30.438 11.3019C30.5655 11.5986 30.6841 11.9033 30.791 12.2079L29.9046 12.5187ZM4.80488 10.8617L3.96863 10.4375C4.11676 10.1473 4.27473 9.86045 4.4402 9.58435L5.24551 10.0625C5.09082 10.3226 4.9427 10.5908 4.80488 10.8617ZM29.1874 10.8467C29.051 10.58 28.9029 10.3123 28.7468 10.0498L29.5502 9.56748C29.718 9.84873 29.8783 10.1333 30.0222 10.4192L29.1874 10.8467ZM5.7391 9.29842L4.96801 8.76545C5.15082 8.50154 5.34582 8.23857 5.54879 7.98357L6.28238 8.56717C6.09207 8.80623 5.90973 9.05185 5.7391 9.29842ZM28.2527 9.28623C28.0802 9.03779 27.8969 8.79217 27.7089 8.55592L28.4411 7.97092C28.6427 8.22357 28.8386 8.48654 29.0224 8.75138L28.2527 9.28623ZM6.87488 7.87388L6.1802 7.24248C6.3977 7.00389 6.62598 6.76904 6.85848 6.54545L7.50863 7.22139C7.28988 7.43139 7.07863 7.64888 6.87488 7.87388ZM27.1188 7.86357C26.9141 7.63889 26.7021 7.42138 26.4827 7.21107L27.1296 6.53467C27.3611 6.75639 27.5894 6.99076 27.8093 7.23076L27.1188 7.86357ZM8.18738 6.61201L7.5827 5.89435C7.82973 5.6867 8.08707 5.48467 8.3477 5.29342L8.9027 6.04998C8.65738 6.22904 8.41895 6.41639 8.18738 6.61201ZM25.803 6.60264C25.5702 6.40701 25.3311 6.21951 25.0858 6.04014L25.6399 5.2831C25.8996 5.47389 26.1555 5.67545 26.4054 5.88404L25.803 6.60264ZM9.6541 5.53576L9.1516 4.74451C9.42348 4.57201 9.70473 4.4056 9.98879 4.25092L10.4374 5.07357C10.1718 5.21951 9.91067 5.37357 9.6541 5.53576ZM24.3325 5.52732C24.076 5.36514 23.8139 5.21107 23.5464 5.06514L23.995 4.24154C24.2763 4.39576 24.5575 4.5617 24.8341 4.73514L24.3325 5.52732ZM11.2511 4.66435L10.8593 3.81264C11.1536 3.67717 11.4555 3.54967 11.756 3.43482L12.0907 4.30998C11.8061 4.4192 11.5258 4.53732 11.2511 4.66435ZM22.7322 4.65639C22.4566 4.52935 22.1739 4.41076 21.8922 4.30342L22.226 3.42732C22.5274 3.54217 22.8297 3.6692 23.1241 3.80514L22.7322 4.65639ZM12.9499 4.0156L12.6738 3.11982C12.9846 3.02607 13.3005 2.93795 13.6113 2.86436L13.8264 3.77701C13.5358 3.84357 13.2405 3.92185 12.9499 4.0156ZM21.0311 4.00717C20.7408 3.91904 20.4474 3.83982 20.1508 3.76951L20.365 2.85686C20.6768 2.92998 20.9932 3.01529 21.3025 3.11092L21.0311 4.00717ZM14.7213 3.59373L14.5666 2.66936C14.883 2.61639 15.2074 2.57326 15.5304 2.54092L15.6241 3.47373C15.32 3.50404 15.0191 3.54404 14.7213 3.59373ZM19.2574 3.58998C18.9602 3.54311 18.656 3.50092 18.355 3.47139L18.4455 2.53857C18.7675 2.56998 19.0929 2.61264 19.4107 2.66514L19.2574 3.58998ZM16.5311 3.4142L16.4997 2.4767C16.8232 2.46545 17.1489 2.46545 17.4729 2.4767L17.4433 3.4142C17.1405 3.40623 16.8344 3.40623 16.5311 3.4142Z" fill="#CCCCCC"/>
<path d="M17.0352 31.5313C16.8637 31.5289 16.6949 31.5313 16.5243 31.5233L16.5557 30.5858C16.7151 30.5909 16.8759 30.5947 17.0338 30.5928C17.1796 30.5928 17.323 30.59 17.4665 30.5853L17.4984 31.5228C17.3446 31.5284 17.1899 31.5313 17.0352 31.5313ZM15.5545 31.4609C15.2352 31.4295 14.9109 31.3869 14.5893 31.3339L14.7426 30.4091C15.0398 30.4559 15.3412 30.4981 15.6449 30.5277L15.5545 31.4609ZM18.4691 31.4586L18.3754 30.5253C18.6787 30.4953 18.9801 30.455 19.2777 30.4058L19.4315 31.3302C19.1123 31.3841 18.7874 31.4267 18.4691 31.4586ZM13.6345 31.1436C13.3195 31.0695 13.004 30.9838 12.697 30.8895L12.9707 29.9933C13.2607 30.0814 13.5541 30.1606 13.851 30.2309L13.6345 31.1436ZM20.3873 31.138L20.1712 30.2263C20.4679 30.1555 20.7609 30.0763 21.0505 29.9867L21.3262 30.883C21.0187 30.9772 20.7032 31.0625 20.3873 31.138ZM11.774 30.5755C11.4707 30.4597 11.1688 30.3327 10.8759 30.1977L11.2677 29.3464C11.5424 29.473 11.8232 29.5906 12.1077 29.6994L11.774 30.5755ZM22.2445 30.5675L21.9107 29.6914C22.192 29.585 22.4732 29.4659 22.7484 29.338L23.1421 30.1897C22.8463 30.3238 22.544 30.4531 22.2445 30.5652V30.5675ZM10.0049 29.758C9.71992 29.6028 9.43727 29.4364 9.16586 29.2644L9.66742 28.4727C9.92399 28.6349 10.186 28.7889 10.4535 28.9349L10.0049 29.758ZM24.0112 29.7495L23.5626 28.9264C23.8288 28.7811 24.0902 28.627 24.3468 28.4642L24.8493 29.2555C24.5746 29.4294 24.2934 29.5953 24.0112 29.75V29.7495ZM8.36148 28.7183C8.09992 28.5264 7.84477 28.3264 7.59602 28.1183L8.19789 27.3997C8.4307 27.5947 8.66992 27.7822 8.91555 27.9622L8.36148 28.7183ZM25.6523 28.7084L25.0973 27.9528C25.3423 27.7734 25.5812 27.5859 25.814 27.3903L26.4173 28.108C26.1707 28.3124 25.9134 28.5144 25.6523 28.7061V28.7084ZM6.87039 27.4653C6.63602 27.2422 6.40867 27.0078 6.1907 26.7692L6.88305 26.1364C7.08773 26.3614 7.29977 26.5789 7.51914 26.7889L6.87039 27.4653ZM27.142 27.4531L26.4909 26.7781C26.7096 26.5672 26.9216 26.3494 27.127 26.1247L27.8198 26.7561C27.6032 26.9947 27.3754 27.2291 27.142 27.4531ZM5.55883 26.0291C5.35492 25.7741 5.15945 25.5111 4.97711 25.2477L5.75008 24.7138C5.92023 24.9599 6.10305 25.2055 6.29336 25.4441L5.55883 26.0291ZM28.4512 26.0164L27.7176 25.4324C27.9074 25.1942 28.0898 24.9486 28.2609 24.7016L29.032 25.235C28.8487 25.4994 28.6532 25.7624 28.4512 26.0164ZM4.45117 24.4311C4.28336 24.1499 4.12305 23.8653 3.97914 23.5789L4.81258 23.1533C4.94898 23.42 5.09711 23.6881 5.2532 23.9502L4.45117 24.4311ZM29.5602 24.4166L28.7545 23.9375C28.9091 23.6797 29.0573 23.4116 29.1951 23.1406L30.0313 23.5625C29.8827 23.8536 29.7248 24.1405 29.5593 24.4166H29.5602ZM3.56523 22.6986C3.4382 22.4024 3.31914 22.0981 3.21227 21.7935L4.0968 21.4822C4.19711 21.7691 4.30648 22.0516 4.42492 22.3297L3.56523 22.6986ZM30.4434 22.6813L29.5809 22.3133C29.6995 22.0358 29.8101 21.7508 29.909 21.4635L30.7945 21.7733C30.6876 22.0789 30.5699 22.3845 30.4434 22.6813ZM2.92117 20.863C2.83398 20.5485 2.75758 20.2302 2.69336 19.9161L3.61164 19.7286C3.67164 20.022 3.74336 20.3197 3.82492 20.6136L2.92117 20.863ZM31.0851 20.8438L30.1813 20.5958C30.262 20.301 30.3332 20.0028 30.3923 19.7103L31.3115 19.8978C31.2501 20.2081 31.1718 20.5269 31.0851 20.8438Z" fill="#CCCCCC"/>
<path d="M23.5625 18.4062V15.5938H22.4408C22.31 15.0858 22.1083 14.5989 21.8417 14.1472L22.6348 13.3541L20.6459 11.3652L19.8528 12.1583C19.4011 11.8917 18.9142 11.69 18.4062 11.5592V10.4375H15.5938V11.5592C15.0858 11.69 14.5989 11.8917 14.1472 12.1583L13.3541 11.3652L11.3652 13.3541L12.1583 14.1472C11.8917 14.5989 11.69 15.0858 11.5592 15.5938H10.4375V18.4062H11.5592C11.69 18.9142 11.8917 19.4011 12.1583 19.8528L11.3652 20.6459L13.3541 22.6348L14.1472 21.8417C14.5989 22.1083 15.0858 22.31 15.5938 22.4408V23.5625H18.4062V22.4408C18.9142 22.31 19.4011 22.1083 19.8528 21.8417L20.6459 22.6348L22.6348 20.6459L21.8417 19.8528C22.1083 19.4011 22.31 18.9142 22.4408 18.4062H23.5625Z" fill="#474747"/>
<path d="M17 20.2812C18.8122 20.2812 20.2812 18.8122 20.2812 17C20.2812 15.1878 18.8122 13.7188 17 13.7188C15.1878 13.7188 13.7188 15.1878 13.7188 17C13.7188 18.8122 15.1878 20.2812 17 20.2812Z" fill="#F2F2F2"/>
</svg>
