<svg width="40" height="40" viewBox="0 0 40 40" fill="none" xmlns="http://www.w3.org/2000/svg">
<path fill-rule="evenodd" clip-rule="evenodd" d="M26.0197 21.9371H23.1423V25.0933H26.0197V21.9371ZM26.0197 15.6242H23.1423V18.7804H26.0197V15.6242ZM28.8965 28.2493H17.387V25.0931H20.2644V21.9369H17.387V18.7807H20.2644V15.6245H17.387V12.4683H28.8965V28.2493ZM14.5101 9.31166H11.6327V6.15546H14.5101V9.31166ZM14.5101 15.6245H11.6327V12.4683H14.5101V15.6245ZM14.5101 21.9373H11.6327V18.7811H14.5101V21.9373ZM14.5101 28.2492H11.6327V25.093H14.5101V28.2492ZM8.75593 9.31166H5.87854V6.15546H8.75593V9.31166ZM8.75593 15.6245H5.87854V12.4683H8.75593V15.6245ZM8.75593 21.9373H5.87854V18.7811H8.75593V21.9373ZM8.75593 28.2492H5.87854V25.093H8.75593V28.2492ZM17.3869 9.31239V3H3V31.4058H31.7739V9.31239H17.3869Z" fill="#5281EE"/>
<path d="M35.96 27.4171C35.96 32.2277 32.4259 35.9598 28.2639 35.9598C24.1018 35.9598 20.5677 32.2277 20.5677 27.4171C20.5677 22.6065 24.1018 18.8745 28.2639 18.8745C32.4259 18.8745 35.96 22.6065 35.96 27.4171Z" fill="#DFCDFE" stroke="#8F5FE3" stroke-width="2.08"/>
<g clip-path="url(#clip0)">
<path d="M34.3389 26.0361L32.7543 25.3756L34.3445 24.7183C34.4425 24.6778 34.5068 24.575 34.5068 24.4597C34.5068 24.3444 34.4425 24.2416 34.3445 24.2011L30.5567 22.6404C30.5007 22.6186 30.4391 22.6186 30.3832 22.6404L28.2639 23.5158L26.1559 22.6435C26.0999 22.6217 26.0383 22.6217 25.9823 22.6435L22.1946 24.2011C22.0966 24.2416 22.0322 24.3444 22.0322 24.4597C22.0322 24.575 22.0966 24.6778 22.1946 24.7183L23.7707 25.3725L22.1862 26.0236C22.0882 26.0641 22.0238 26.1669 22.0238 26.2822C22.0238 26.3974 22.0882 26.5002 22.1862 26.5407L24.2354 27.3819V30.3726C24.2354 30.4878 24.2998 30.5906 24.3978 30.6311L28.1771 32.1857C28.2051 32.1981 28.2331 32.2044 28.2639 32.2044C28.2947 32.2044 28.3227 32.1981 28.3507 32.1857L32.1301 30.6311C32.228 30.5906 32.2924 30.4878 32.2924 30.3726V27.3881L34.3389 26.547C34.4369 26.5065 34.5012 26.4037 34.5012 26.2884C34.5012 26.1794 34.4369 26.0766 34.3389 26.0361ZM28.0148 31.5346L24.7337 30.1856V27.5906L25.9739 28.0984C26.0019 28.1108 26.0299 28.114 26.0607 28.114C26.0887 28.114 26.1195 28.1077 26.1475 28.0984L28.0148 27.3289V31.5346ZM28.2639 26.6373L25.2013 25.3725L28.2667 24.1077L31.3294 25.3725L28.2639 26.6373ZM30.4643 27.5532L29.6217 27.2012L28.975 26.9333L32.0405 25.6685L33.5354 26.2915L30.4643 27.5532Z" fill="#8F5FE3"/>
</g>
<defs>
<clipPath id="clip0">
<rect width="12.4802" height="9.58267" fill="white" transform="translate(22.0238 22.6255)"/>
</clipPath>
</defs>
</svg>
