<svg width="34" height="34" viewBox="0 0 34 34" fill="none" xmlns="http://www.w3.org/2000/svg">
<path d="M32 17.0034C32 14.7718 29.5112 12.6569 25.6955 11.3454C26.576 6.97826 26.1847 3.50378 24.4603 2.39139C24.0628 2.13046 23.598 2.00687 23.0905 2.00687V3.53811C23.3718 3.53811 23.598 3.59991 23.7876 3.71664C24.6192 4.25223 24.98 6.2916 24.6987 8.91463C24.6315 9.56008 24.5214 10.2399 24.3869 10.9334C23.1883 10.6038 21.8797 10.3497 20.5039 10.1849C19.6784 8.91463 18.8223 7.76104 17.96 6.75166C19.9535 4.67109 21.8247 3.53124 23.0966 3.53124V2C21.415 2 19.2136 3.34585 16.9878 5.68048C14.7619 3.35958 12.5605 2.02747 10.8789 2.02747V3.55871C12.1447 3.55871 14.022 4.69169 16.0155 6.75853C15.1594 7.76791 14.3033 8.91463 13.49 10.1849C12.108 10.3497 10.7994 10.6038 9.6009 10.9403C9.46025 10.2536 9.3563 9.58755 9.28292 8.94896C8.99552 6.32593 9.35018 4.28656 10.1757 3.74411C10.3592 3.62051 10.5976 3.56558 10.8789 3.56558V2.03433C10.3653 2.03433 9.90053 2.15793 9.49694 2.41886C7.77864 3.53124 7.3934 6.99886 8.28007 11.3523C4.47656 12.6706 2 14.7787 2 17.0034C2 19.2351 4.48879 21.35 8.30452 22.6615C7.42397 27.0286 7.81533 30.5031 9.53975 31.6155C9.93722 31.8764 10.402 32 10.9156 32C12.5972 32 14.7986 30.6542 17.0245 28.3195C19.2503 30.6404 21.4517 31.9725 23.1333 31.9725C23.647 31.9725 24.1117 31.8489 24.5153 31.588C26.2336 30.4756 26.6188 27.008 25.7322 22.6546C29.5234 21.3431 32 19.2282 32 17.0034ZM24.0383 12.4234C23.8121 13.3092 23.5308 14.2225 23.2128 15.1357C22.9621 14.5864 22.6991 14.0371 22.4117 13.4878C22.1305 12.9384 21.8308 12.4028 21.5312 11.881C22.3995 12.0252 23.2373 12.2037 24.0383 12.4234ZM21.2377 19.7363C20.7607 20.6633 20.2715 21.5422 19.764 22.3593C18.8528 22.4486 17.9295 22.4967 17 22.4967C16.0766 22.4967 15.1533 22.4486 14.2483 22.3662C13.7407 21.5491 13.2454 20.677 12.7684 19.7569C12.3037 18.8574 11.8818 17.9441 11.4965 17.024C11.8757 16.1039 12.3037 15.1838 12.7623 14.2843C13.2393 13.3573 13.7285 12.4784 14.236 11.6612C15.1472 11.572 16.0705 11.5239 17 11.5239C17.9234 11.5239 18.8467 11.572 19.7517 11.6544C20.2593 12.4715 20.7546 13.3436 21.2316 14.2637C21.6963 15.1632 22.1182 16.0764 22.5035 16.9966C22.1182 17.9167 21.6963 18.8368 21.2377 19.7363ZM23.2128 18.8437C23.543 19.7638 23.8243 20.6839 24.0567 21.5766C23.2556 21.7963 22.4117 21.9817 21.5373 22.1259C21.8369 21.5972 22.1366 21.0547 22.4179 20.4985C22.6991 19.9492 22.9621 19.393 23.2128 18.8437ZM17.0122 26.1703C16.4435 25.5111 15.8748 24.7764 15.3123 23.973C15.8626 24.0005 16.4252 24.0211 16.9939 24.0211C17.5687 24.0211 18.1374 24.0073 18.6938 23.973C18.1435 24.7764 17.5748 25.5111 17.0122 26.1703ZM12.4627 22.1259C11.5944 21.9817 10.7566 21.8032 9.95556 21.5834C10.1818 20.6976 10.4631 19.7844 10.7811 18.8711C11.0318 19.4205 11.2947 19.9698 11.5821 20.5191C11.8695 21.0684 12.1631 21.604 12.4627 22.1259ZM16.9817 7.83658C17.5503 8.49577 18.119 9.23049 18.6816 10.0339C18.1313 10.0064 17.5687 9.98581 17 9.98581C16.4252 9.98581 15.8565 9.99954 15.3 10.0339C15.8504 9.23049 16.4191 8.49577 16.9817 7.83658ZM12.4566 11.881C12.157 12.4097 11.8573 12.9522 11.576 13.5084C11.2947 14.0577 11.0318 14.607 10.7811 15.1563C10.4509 14.2362 10.1696 13.3161 9.93722 12.4234C10.7383 12.2106 11.5821 12.0252 12.4566 11.881ZM6.92254 20.4779C4.75785 19.4411 3.35752 18.0815 3.35752 17.0034C3.35752 15.9254 4.75785 14.5589 6.92254 13.529C7.44843 13.2749 8.02324 13.0483 8.61639 12.8354C8.96494 14.1813 9.42356 15.5821 9.99225 17.0172C9.42968 18.4454 8.97717 19.8393 8.63473 21.1783C8.02935 20.9654 7.45455 20.732 6.92254 20.4779ZM10.2124 30.2902C9.38076 29.7546 9.01998 27.7153 9.30126 25.0922C9.36853 24.4468 9.4786 23.767 9.61313 23.0735C10.8117 23.4031 12.1203 23.6571 13.4961 23.8219C14.3216 25.0922 15.1777 26.2458 16.04 27.2552C14.0465 29.3358 12.1753 30.4756 10.9034 30.4756C10.6282 30.4688 10.3958 30.407 10.2124 30.2902ZM24.7171 25.0579C25.0045 27.6809 24.6498 29.7203 23.8243 30.2628C23.6408 30.3864 23.4024 30.4413 23.1211 30.4413C21.8553 30.4413 19.978 29.3083 17.9845 27.2415C18.8406 26.2321 19.6967 25.0854 20.51 23.8151C21.892 23.6503 23.2006 23.3962 24.3991 23.0597C24.5397 23.7533 24.6498 24.4193 24.7171 25.0579ZM27.0713 20.4779C26.5455 20.732 25.9706 20.9586 25.3775 21.1714C25.0289 19.8256 24.5703 18.4248 24.0016 16.9897C24.5642 15.5615 25.0167 14.1675 25.3592 12.8286C25.9645 13.0414 26.5393 13.2749 27.0775 13.529C29.2422 14.5658 30.6425 15.9254 30.6425 17.0034C30.6364 18.0815 29.236 19.4479 27.0713 20.4779Z" fill="#61DAFB"/>
<path d="M16.9938 20.1417C18.5371 20.1417 19.7883 18.7368 19.7883 17.0037C19.7883 15.2706 18.5371 13.8657 16.9938 13.8657C15.4504 13.8657 14.1992 15.2706 14.1992 17.0037C14.1992 18.7368 15.4504 20.1417 16.9938 20.1417Z" fill="#61DAFB"/>
</svg>
