<svg width="34" height="34" viewBox="0 0 34 34" fill="none" xmlns="http://www.w3.org/2000/svg">
<path d="M21.308 8.37669V25.6087H33.155V11.9039L29.714 8.37669H21.308ZM22.9235 14.8387V11.0692C22.9235 10.9264 22.9802 10.7894 23.0812 10.6884C23.1822 10.5874 23.3192 10.5307 23.462 10.5307H26.693C26.8358 10.5307 26.9728 10.5874 27.0738 10.6884C27.1748 10.7894 27.2315 10.9264 27.2315 11.0692V14.8387C27.2315 14.9815 27.1748 15.1185 27.0738 15.2195C26.9728 15.3205 26.8358 15.3772 26.693 15.3772H23.462C23.3192 15.3772 23.1822 15.3205 23.0812 15.2195C22.9802 15.1185 22.9235 14.9815 22.9235 14.8387ZM31.001 23.4547H23.462V22.3777H31.001V23.4547ZM31.001 20.7622H23.462V19.6852H31.001V20.7622ZM31.001 18.0697H23.462V16.9927H31.001V18.0697ZM31.001 15.3772H28.3085V14.3002H31.001V15.3772ZM31.001 12.6847H28.3085V11.6077H31.001V12.6847Z" fill="#F5726E"/>
<path d="M26.1545 11.6077H24.0005V14.3002H26.1545V11.6077Z" fill="#FFAE00"/>
<path d="M2.99897 20.2237H5.69148V22.3777H3.53747V23.4547H8.92248V22.3777H6.76848V20.2237H9.46098C10.0323 20.2237 10.5801 19.9967 10.9841 19.5928C11.388 19.1888 11.615 18.641 11.615 18.0697V13.7617C11.615 13.1904 11.388 12.6425 10.9841 12.2386C10.5801 11.8346 10.0323 11.6077 9.46098 11.6077H2.99897C2.4277 11.6077 1.87982 11.8346 1.47586 12.2386C1.07191 12.6425 0.844971 13.1904 0.844971 13.7617V18.0697C0.844971 18.641 1.07191 19.1888 1.47586 19.5928C1.87982 19.9967 2.4277 20.2237 2.99897 20.2237ZM15.3818 29.9167C18.2868 29.9097 21.0811 28.8013 23.2008 26.8149L22.0161 25.7379C21.9379 25.6675 21.882 25.5757 21.8554 25.4738C21.8289 25.3719 21.8327 25.2645 21.8665 25.1648C21.9003 25.0651 21.9626 24.9775 22.0457 24.9129C22.1287 24.8482 22.2289 24.8093 22.3339 24.8009L25.3279 24.5317C25.3987 24.5262 25.4699 24.5349 25.5374 24.557C25.6049 24.5792 25.6673 24.6145 25.721 24.6609C25.7756 24.7072 25.8203 24.764 25.8527 24.8278C25.885 24.8915 25.9043 24.9612 25.9095 25.0325L26.1518 28.2635C26.1628 28.3734 26.1398 28.4839 26.0859 28.5802C26.0319 28.6766 25.9497 28.754 25.8503 28.802C25.7751 28.8322 25.6941 28.8451 25.6133 28.8397C25.478 28.8407 25.3473 28.7907 25.2472 28.6997L23.9978 27.5527C22.8 28.6898 21.3894 29.5793 19.847 30.17C18.3046 30.7608 16.6607 31.0411 15.0097 30.9951C13.3587 30.9491 11.733 30.5775 10.2259 29.9018C8.7188 29.226 7.35995 28.2594 6.2273 27.0573L7.00813 26.3141C8.08552 27.4525 9.38382 28.3592 10.8236 28.9786C12.2634 29.598 13.8144 29.9172 15.3818 29.9167ZM6.76848 10.5307H9.99949C10.1058 10.5301 10.2096 10.4982 10.2977 10.4387C10.3859 10.3793 10.4545 10.2951 10.4949 10.1968C10.5361 10.0987 10.5474 9.99065 10.5273 9.88619C10.5072 9.78172 10.4565 9.68556 10.3818 9.60984L9.0948 8.32282C11.1096 6.39223 13.761 5.2652 16.5492 5.15411C19.3374 5.04302 22.07 5.95553 24.2321 7.7197L24.9052 6.87964C22.5346 4.95029 19.5404 3.9543 16.4865 4.07928C13.4326 4.20425 10.5297 5.44156 8.32475 7.55815L7.15082 6.37883C7.07509 6.30411 6.97893 6.25349 6.87446 6.23337C6.77 6.21324 6.66192 6.22451 6.56385 6.26575C6.46551 6.30615 6.38133 6.37475 6.32191 6.46291C6.2625 6.55108 6.23051 6.65485 6.22998 6.76117V9.99217C6.22998 10.135 6.28671 10.272 6.3877 10.373C6.48869 10.4739 6.62566 10.5307 6.76848 10.5307ZM15.923 14.8387C15.9225 14.7324 15.8905 14.6286 15.8311 14.5404C15.7716 14.4523 15.6875 14.3837 15.5891 14.3433C15.4911 14.302 15.383 14.2908 15.2785 14.3109C15.174 14.331 15.0779 14.3816 15.0022 14.4563L12.8482 16.6103C12.7977 16.6604 12.7576 16.72 12.7303 16.7856C12.7029 16.8512 12.6889 16.9216 12.6889 16.9927C12.6889 17.0638 12.7029 17.1342 12.7303 17.1998C12.7576 17.2654 12.7977 17.325 12.8482 17.375L15.0022 19.529C15.0525 19.5789 15.1121 19.6184 15.1778 19.6452C15.2434 19.672 15.3136 19.6856 15.3845 19.6852C15.4551 19.687 15.5252 19.6723 15.5891 19.6421C15.6875 19.6017 15.7716 19.5331 15.8311 19.4449C15.8905 19.3568 15.9225 19.253 15.923 19.1467V17.5312H20.231V16.4542H15.923V14.8387Z" fill="#5281EE"/>
<path d="M2.99897 20.2237H5.69148V22.3777H3.53747V23.4547H8.92248V22.3777H6.76848V20.2237H9.46098C10.0323 20.2237 10.5801 19.9968 10.9841 19.5928C11.388 19.1889 11.615 18.641 11.615 18.0697V13.7617C11.615 13.1904 11.388 12.6425 10.9841 12.2386C10.5801 11.8346 10.0323 11.6077 9.46098 11.6077H2.99897C2.4277 11.6077 1.87982 11.8346 1.47586 12.2386C1.07191 12.6425 0.844971 13.1904 0.844971 13.7617V18.0697C0.844971 18.641 1.07191 19.1889 1.47586 19.5928C1.87982 19.9968 2.4277 20.2237 2.99897 20.2237Z" fill="#FFAE00"/>
</svg>
