<svg width="24" height="24" viewBox="0 0 24 24" fill="none" xmlns="http://www.w3.org/2000/svg">
<path d="M17.9998 20.4H16.032L15.632 19.2H8.36751L7.96751 20.4H5.99967C5.6681 20.4 5.39966 20.6684 5.39966 21C5.39966 21.3316 5.6681 21.6 5.99967 21.6H17.9998C18.3314 21.6 18.5998 21.3316 18.5998 21C18.5998 20.6684 18.3314 20.4 17.9998 20.4Z" fill="#FB813E"/>
<path d="M17.9999 5.99991C17.6688 5.99991 17.3999 6.26882 17.3999 6.59992C17.3999 6.93101 17.6688 7.19992 17.9999 7.19992C18.331 7.19992 18.5999 6.93101 18.5999 6.59992C18.5999 6.26882 18.331 5.99991 17.9999 5.99991Z" fill="#FB813E"/>
<path d="M20.3998 2.39975H3.55955C2.56703 2.39975 1.75952 3.20726 1.75952 4.19977V14.3999H5.39957V12.5999C5.39957 12.2683 5.66801 11.9999 5.99958 11.9999H6.92662C6.98865 11.8253 7.05959 11.6541 7.13991 11.486L6.48412 10.8297C6.24974 10.5953 6.24974 10.2156 6.48412 9.98126L8.18101 8.28436C8.41539 8.04998 8.79508 8.04998 9.02946 8.28436L9.68572 8.94062C9.85385 8.8603 10.0249 8.7889 10.1996 8.72671V7.79982C10.1996 7.46825 10.4681 7.19981 10.7996 7.19981H13.1997C13.5312 7.19981 13.7997 7.46825 13.7997 7.79982V8.72686C13.9742 8.7889 14.1455 8.86046 14.3136 8.94062L14.9699 8.28436C15.2042 8.05014 15.5839 8.05014 15.8183 8.28436L17.5152 9.98126C17.7496 10.2156 17.7496 10.5955 17.5152 10.8297L16.8594 11.486C16.9397 11.6542 17.0107 11.8253 17.0727 11.9999H17.9997C18.3313 11.9999 18.5997 12.2683 18.5997 12.5999V14.3999H22.2398V4.19977C22.2398 3.20726 21.3923 2.39975 20.3998 2.39975ZM17.9997 8.39983C17.0072 8.39983 16.1997 7.59232 16.1997 6.59981C16.1997 5.60729 17.0072 4.79978 17.9997 4.79978C18.9923 4.79978 19.7998 5.60729 19.7998 6.59981C19.7998 7.59232 18.9923 8.39983 17.9997 8.39983Z" fill="#FB813E"/>
<path d="M10.1997 13.8001C10.1997 14.0074 10.2475 14.2074 10.3161 14.4001H13.6833C13.7519 14.2074 13.7998 14.0074 13.7998 13.8001C13.7998 12.8075 12.9922 12 11.9997 12C11.0071 12 10.1997 12.8075 10.1997 13.8001V13.8001Z" fill="#FB813E"/>
<path d="M7.95048 12.7499C7.88204 13.0148 7.64297 13.1999 7.36922 13.1999H6.59937V14.3999H9.0783C9.03799 14.2023 8.9994 14.0037 8.9994 13.7999C8.9994 12.1459 10.3454 10.7999 11.9994 10.7999C13.6535 10.7999 14.9995 12.1459 14.9995 13.7999C14.9995 14.0037 14.9609 14.2023 14.9206 14.3999H17.3995V13.1999H16.6297C16.3559 13.1999 16.1168 13.0148 16.0484 12.7499C15.9528 12.3779 15.8034 12.018 15.6042 11.6805C15.4653 11.4451 15.5034 11.1451 15.6967 10.9516L16.2423 10.4055L15.3939 9.55707L14.8478 10.1032C14.6543 10.2972 14.3537 10.3358 14.1182 10.1952C13.7813 9.99661 13.4221 9.84661 13.0495 9.75098C12.7846 9.68254 12.5994 9.44348 12.5994 9.16973V8.39987H11.3994V9.16973C11.3994 9.44348 11.2143 9.68254 10.9494 9.75098C10.5768 9.84661 10.2175 9.99661 9.88066 10.1952C9.64628 10.3358 9.34503 10.2972 9.15112 10.1032L8.60502 9.55707L7.75657 10.4055L8.3022 10.9516C8.49548 11.1451 8.53361 11.4451 8.3947 11.6805C8.19548 12.018 8.0461 12.3779 7.95048 12.7499Z" fill="#FB813E"/>
<path d="M1.75952 16.1998C1.75952 17.1923 2.56703 17.9999 3.55955 17.9999H20.3998C21.3923 17.9999 22.2398 17.1923 22.2398 16.1998V15.5998H1.75952V16.1998Z" fill="#FB813E"/>
</svg>
